<?xml version="1.0" encoding="UTF-8" standalone="no"?><!DOCTYPE svg PUBLIC "-//W3C//DTD SVG 1.1//EN" "http://www.w3.org/Graphics/SVG/1.1/DTD/svg11.dtd"><svg width="100%" height="100%" viewBox="0 0 282 292" version="1.1" xmlns="http://www.w3.org/2000/svg" xmlnsXlink="http://www.w3.org/1999/xlink" xmlSpace="preserve" xmlnsSerif="http://www.serif.com/" style="fill-rule:evenodd;clip-rule:evenodd;stroke-linecap:round;stroke-linejoin:round;stroke-miterlimit:1.5;"><g id="leaves"><g id="right"><path d="M267.732,138.056l-24.336,0c-64.081,0 -116.03,51.948 -116.03,116.03l0,24.335l24.336,0c64.081,0 116.03,-51.948 116.03,-116.029l0,-24.336Z" style="fill:#87ff58;"/><clipPath id="_clip1"><path d="M267.732,138.056l-24.336,0c-64.081,0 -116.03,51.948 -116.03,116.03l0,24.335l24.336,0c64.081,0 116.03,-51.948 116.03,-116.029l0,-24.336Z"/></clipPath><g clip-path="url(#_clip1)"><path d="M283.727,122.061l-42.346,-42.345l-177.008,177.008l42.346,42.345l177.008,-177.008Z" style="fill:#6bbe4a;"/><g><path d="M145.174,260.069l110.665,-110.666" style="fill:none;stroke:#50843b;stroke-width:5.19px;"/><g><path d="M228.626,177.162l18.178,0" style="fill:none;stroke:#50843b;stroke-width:5px;"/><path d="M212.064,193.724l18.178,0" style="fill:none;stroke:#50843b;stroke-width:5px;"/><path d="M196.234,209.553l18.179,0" style="fill:none;stroke:#50843b;stroke-width:5px;"/><path d="M180.405,225.383l18.179,0" style="fill:none;stroke:#50843b;stroke-width:5px;"/><path d="M164.576,241.212l18.178,0" style="fill:none;stroke:#50843b;stroke-width:5px;"/><path d="M148.746,257.041l18.179,0" style="fill:none;stroke:#50843b;stroke-width:5px;"/></g><g><path d="M228.626,177.162l0,-18.178" style="fill:none;stroke:#50843b;stroke-width:5px;"/><path d="M212.064,193.724l0,-18.179" style="fill:none;stroke:#50843b;stroke-width:5px;"/><path d="M196.234,209.553l0,-18.178" style="fill:none;stroke:#50843b;stroke-width:5px;"/><path d="M180.405,225.383l0,-18.179" style="fill:none;stroke:#50843b;stroke-width:5px;"/><path d="M164.576,241.212l0,-18.178" style="fill:none;stroke:#50843b;stroke-width:5px;"/><path d="M148.746,257.041l0,-18.178" style="fill:none;stroke:#50843b;stroke-width:5px;"/></g></g></g><path d="M272.882,132.287l0.702,0.083l0.693,0.138l0.68,0.192l0.663,0.244l0.642,0.296l0.617,0.345l0.587,0.393l0.555,0.437l0.519,0.48l0.48,0.519l0.437,0.555l0.393,0.588l0.345,0.616l0.296,0.642l0.245,0.663l0.191,0.68l0.138,0.693l0.083,0.702l0.028,0.706l0,24.343l-0.001,0.396l-0.001,0.404l-0.004,0.404l-0.004,0.402l-0.006,0.403l-0.007,0.402l-0.008,0.403l-0.01,0.402l-0.011,0.401l-0.012,0.402l-0.013,0.4l-0.014,0.4l-0.016,0.401l-0.017,0.4l-0.019,0.4l-0.019,0.4l-0.021,0.398l-0.022,0.399l-0.024,0.399l-0.024,0.397l-0.026,0.398l-0.027,0.398l-0.029,0.397l-0.029,0.397l-0.031,0.396l-0.032,0.397l-0.033,0.396l-0.035,0.394l-0.035,0.396l-0.037,0.395l-0.039,0.394l-0.039,0.395l-0.041,0.393l-0.041,0.394l-0.044,0.393l-0.044,0.392l-0.045,0.393l-0.047,0.392l-0.048,0.391l-0.049,0.392l-0.05,0.39l-0.052,0.391l-0.053,0.39l-0.053,0.39l-0.056,0.389l-0.056,0.389l-0.057,0.389l-0.059,0.388l-0.06,0.388l-0.061,0.388l-0.062,0.387l-0.064,0.386l-0.064,0.387l-0.066,0.386l-0.067,0.385l-0.068,0.386l-0.07,0.385l-0.07,0.384l-0.072,0.383l-0.073,0.384l-0.074,0.383l-0.075,0.383l-0.076,0.383l-0.078,0.381l-0.079,0.382l-0.079,0.381l-0.081,0.38l-0.083,0.38l-0.083,0.38l-0.084,0.38l-0.086,0.378l-0.087,0.379l-0.088,0.378l-0.089,0.378l-0.09,0.377l-0.091,0.376l-0.093,0.377l-0.093,0.376l-0.095,0.375l-0.096,0.375l-0.097,0.374l-0.098,0.374l-0.099,0.374l-0.1,0.373l-0.102,0.373l-0.102,0.372l-0.104,0.372l-0.105,0.371l-0.106,0.371l-0.107,0.37l-0.108,0.37l-0.109,0.369l-0.111,0.37l-0.111,0.368l-0.113,0.368l-0.114,0.368l-0.114,0.367l-0.116,0.366l-0.117,0.366l-0.118,0.366l-0.119,0.365l-0.121,0.364l-0.121,0.364l-0.122,0.364l-0.124,0.363l-0.124,0.363l-0.126,0.361l-0.127,0.362l-0.128,0.361l-0.128,0.361l-0.13,0.36l-0.131,0.359l-0.132,0.359l-0.134,0.359l-0.134,0.358l-0.135,0.357l-0.136,0.357l-0.138,0.356l-0.138,0.356l-0.14,0.355l-0.14,0.356l-0.142,0.353l-0.142,0.354l-0.144,0.353l-0.145,0.353l-0.145,0.352l-0.147,0.351l-0.148,0.352l-0.149,0.351l-0.15,0.349l-0.151,0.349l-0.152,0.349l-0.153,0.349l-0.154,0.347l-0.155,0.347l-0.156,0.346l-0.157,0.347l-0.158,0.346l-0.159,0.345l-0.16,0.344l-0.161,0.343l-0.163,0.344l-0.163,0.343l-0.164,0.341l-0.165,0.341l-0.166,0.342l-0.167,0.34l-0.169,0.34l-0.169,0.338l-0.17,0.339l-0.171,0.338l-0.172,0.337l-0.173,0.337l-0.175,0.337l-0.174,0.335l-0.176,0.334l-0.178,0.335l-0.178,0.334l-0.179,0.333l-0.18,0.333l-0.181,0.332l-0.182,0.331l-0.182,0.33l-0.184,0.33l-0.185,0.33l-0.186,0.329l-0.187,0.328l-0.187,0.328l-0.189,0.327l-0.19,0.326l-0.19,0.326l-0.192,0.325l-0.192,0.324l-0.194,0.324l-0.194,0.324l-0.196,0.322l-0.196,0.322l-0.197,0.321l-0.198,0.321l-0.199,0.32l-0.2,0.319l-0.201,0.319l-0.202,0.318l-0.203,0.317l-0.203,0.317l-0.205,0.316l-0.206,0.316l-0.206,0.314l-0.207,0.314l-0.209,0.314l-0.209,0.312l-0.21,0.312l-0.212,0.312l-0.212,0.311l-0.212,0.31l-0.214,0.309l-0.215,0.309l-0.216,0.308l-0.216,0.307l-0.217,0.307l-0.219,0.306l-0.219,0.305l-0.22,0.304l-0.221,0.304l-0.222,0.304l-0.223,0.303l-0.223,0.301l-0.225,0.301l-0.225,0.301l-0.226,0.299l-0.227,0.3l-0.228,0.298l-0.229,0.297l-0.23,0.298l-0.231,0.296l-0.231,0.295l-0.233,0.295l-0.233,0.294l-0.234,0.293l-0.235,0.293l-0.236,0.292l-0.236,0.291l-0.238,0.29l-0.238,0.29l-0.239,0.289l-0.241,0.288l-0.24,0.288l-0.242,0.287l-0.243,0.286l-0.243,0.285l-0.244,0.284l-0.245,0.284l-0.246,0.283l-0.247,0.283l-0.248,0.281l-0.248,0.281l-0.25,0.28l-0.25,0.28l-0.25,0.278l-0.252,0.278l-0.253,0.277l-0.253,0.276l-0.254,0.276l-0.256,0.275l-0.255,0.273l-0.257,0.274l-0.257,0.272l-0.259,0.272l-0.259,0.271l-0.259,0.27l-0.261,0.269l-0.262,0.269l-0.262,0.267l-0.263,0.268l-0.264,0.266l-0.264,0.265l-0.266,0.265l-0.266,0.264l-0.267,0.263l-0.268,0.262l-0.268,0.261l-0.27,0.261l-0.27,0.26l-0.27,0.259l-0.272,0.258l-0.273,0.258l-0.273,0.256l-0.274,0.256l-0.275,0.255l-0.275,0.254l-0.276,0.254l-0.278,0.252l-0.278,0.252l-0.278,0.251l-0.279,0.25l-0.281,0.25l-0.28,0.248l-0.282,0.247l-0.282,0.247l-0.283,0.246l-0.284,0.245l-0.285,0.244l-0.285,0.244l-0.286,0.242l-0.287,0.242l-0.287,0.241l-0.288,0.24l-0.289,0.239l-0.29,0.239l-0.291,0.238l-0.291,0.236l-0.291,0.236l-0.293,0.235l-0.294,0.234l-0.294,0.233l-0.295,0.233l-0.295,0.231l-0.296,0.23l-0.297,0.23l-0.298,0.229l-0.298,0.228l-0.299,0.227l-0.3,0.227l-0.3,0.225l-0.301,0.225l-0.302,0.223l-0.303,0.223l-0.303,0.222l-0.304,0.221l-0.304,0.22l-0.306,0.219l-0.306,0.218l-0.307,0.218l-0.306,0.216l-0.309,0.216l-0.309,0.214l-0.309,0.214l-0.31,0.213l-0.311,0.212l-0.311,0.211l-0.312,0.21l-0.313,0.209l-0.313,0.209l-0.315,0.207l-0.314,0.207l-0.316,0.205l-0.316,0.205l-0.316,0.204l-0.318,0.203l-0.318,0.201l-0.318,0.201l-0.32,0.2l-0.32,0.2l-0.321,0.198l-0.32,0.197l-0.322,0.196l-0.323,0.195l-0.324,0.195l-0.323,0.193l-0.324,0.193l-0.326,0.191l-0.325,0.191l-0.327,0.189l-0.327,0.189l-0.327,0.188l-0.329,0.187l-0.328,0.185l-0.33,0.185l-0.33,0.184l-0.331,0.183l-0.331,0.182l-0.332,0.181l-0.332,0.18l-0.334,0.179l-0.333,0.178l-0.335,0.177l-0.335,0.176l-0.335,0.175l-0.336,0.174l-0.337,0.173l-0.337,0.173l-0.338,0.171l-0.339,0.17l-0.339,0.169l-0.34,0.168l-0.34,0.167l-0.341,0.167l-0.341,0.165l-0.342,0.164l-0.343,0.163l-0.343,0.162l-0.344,0.161l-0.344,0.16l-0.345,0.159l-0.345,0.159l-0.346,0.157l-0.347,0.156l-0.347,0.155l-0.348,0.154l-0.348,0.153l-0.349,0.152l-0.349,0.151l-0.35,0.15l-0.351,0.148l-0.351,0.148l-0.351,0.147l-0.352,0.146l-0.353,0.144l-0.353,0.144l-0.354,0.143l-0.354,0.141l-0.355,0.141l-0.356,0.14l-0.355,0.138l-0.356,0.137l-0.358,0.137l-0.357,0.135l-0.358,0.134l-0.359,0.133l-0.358,0.132l-0.36,0.131l-0.36,0.13l-0.361,0.129l-0.361,0.128l-0.361,0.126l-0.362,0.126l-0.363,0.125l-0.363,0.123l-0.363,0.123l-0.364,0.121l-0.365,0.12l-0.365,0.119l-0.365,0.118l-0.367,0.117l-0.366,0.116l-0.367,0.115l-0.368,0.114l-0.368,0.112l-0.368,0.112l-0.369,0.11l-0.369,0.109l-0.37,0.109l-0.37,0.107l-0.371,0.106l-0.372,0.104l-0.371,0.104l-0.373,0.103l-0.372,0.101l-0.373,0.1l-0.374,0.1l-0.374,0.098l-0.374,0.097l-0.376,0.096l-0.375,0.094l-0.375,0.094l-0.377,0.092l-0.377,0.092l-0.377,0.09l-0.378,0.089l-0.378,0.088l-0.378,0.087l-0.379,0.085l-0.379,0.085l-0.38,0.083l-0.38,0.082l-0.381,0.081l-0.381,0.08l-0.381,0.079l-0.382,0.077l-0.382,0.076l-0.383,0.076l-0.384,0.074l-0.383,0.073l-0.384,0.071l-0.384,0.071l-0.385,0.069l-0.385,0.068l-0.386,0.067l-0.386,0.066l-0.386,0.065l-0.387,0.063l-0.387,0.062l-0.387,0.061l-0.388,0.06l-0.388,0.059l-0.389,0.058l-0.389,0.056l-0.389,0.055l-0.39,0.054l-0.391,0.053l-0.39,0.051l-0.391,0.05l-0.391,0.05l-0.392,0.048l-0.392,0.046l-0.392,0.046l-0.393,0.044l-0.393,0.043l-0.393,0.042l-0.394,0.04l-0.394,0.04l-0.395,0.038l-0.395,0.037l-0.395,0.036l-0.395,0.034l-0.396,0.033l-0.396,0.032l-0.397,0.031l-0.396,0.03l-0.397,0.028l-0.398,0.027l-0.398,0.026l-0.398,0.025l-0.398,0.023l-0.399,0.022l-0.399,0.021l-0.399,0.02l-0.4,0.018l-0.401,0.017l-0.399,0.016l-0.401,0.015l-0.402,0.013l-0.4,0.012l-0.402,0.011l-0.402,0.009l-0.402,0.009l-0.402,0.007l-0.403,0.005l-0.403,0.005l-0.403,0.003l-0.404,0.002l-0.396,0.001l-24.343,0l-0.706,-0.028l-0.702,-0.083l-0.693,-0.138l-0.68,-0.192l-0.663,-0.245l-0.642,-0.295l-0.617,-0.346l-0.587,-0.392l-0.555,-0.438l-0.519,-0.479l-0.48,-0.519l-0.437,-0.555l-0.393,-0.588l-0.345,-0.617l-0.296,-0.641l-0.245,-0.663l-0.192,-0.68l-0.138,-0.694l-0.083,-0.701l-0.027,-0.706l0,-24.343l0,-0.397l0.002,-0.404l0.003,-0.402l0.005,-0.404l0.006,-0.402l0.007,-0.403l0.008,-0.402l0.009,-0.402l0.011,-0.401l0.012,-0.401l0.014,-0.401l0.014,-0.401l0.016,-0.401l0.017,-0.4l0.019,-0.399l0.019,-0.399l0.021,-0.4l0.022,-0.398l0.023,-0.399l0.025,-0.398l0.026,-0.397l0.027,-0.398l0.028,-0.398l0.03,-0.396l0.031,-0.397l0.032,-0.396l0.033,-0.395l0.035,-0.396l0.035,-0.395l0.037,-0.395l0.038,-0.395l0.04,-0.393l0.04,-0.395l0.042,-0.393l0.043,-0.393l0.045,-0.393l0.045,-0.392l0.047,-0.392l0.048,-0.392l0.049,-0.391l0.05,-0.391l0.052,-0.39l0.052,-0.391l0.054,-0.389l0.055,-0.39l0.057,-0.389l0.057,-0.388l0.059,-0.389l0.06,-0.387l0.061,-0.388l0.062,-0.388l0.064,-0.386l0.064,-0.386l0.066,-0.386l0.067,-0.386l0.068,-0.385l0.07,-0.385l0.07,-0.384l0.072,-0.384l0.073,-0.383l0.074,-0.384l0.075,-0.383l0.076,-0.381l0.078,-0.382l0.078,-0.382l0.08,-0.381l0.081,-0.38l0.082,-0.381l0.084,-0.379l0.084,-0.38l0.086,-0.379l0.087,-0.379l0.087,-0.377l0.089,-0.377l0.091,-0.378l0.091,-0.377l0.092,-0.376l0.094,-0.376l0.095,-0.375l0.095,-0.375l0.097,-0.375l0.099,-0.374l0.099,-0.373l0.1,-0.374l0.102,-0.372l0.102,-0.373l0.104,-0.371l0.105,-0.371l0.106,-0.371l0.107,-0.371l0.108,-0.37l0.109,-0.369l0.111,-0.369l0.111,-0.368l0.113,-0.368l0.113,-0.367l0.115,-0.367l0.116,-0.368l0.117,-0.366l0.118,-0.365l0.119,-0.365l0.12,-0.364l0.122,-0.365l0.122,-0.363l0.124,-0.363l0.124,-0.362l0.126,-0.363l0.127,-0.362l0.127,-0.36l0.129,-0.36l0.13,-0.361l0.131,-0.36l0.132,-0.358l0.133,-0.359l0.134,-0.358l0.136,-0.357l0.136,-0.357l0.137,-0.357l0.139,-0.355l0.139,-0.356l0.141,-0.355l0.141,-0.354l0.143,-0.353l0.144,-0.354l0.145,-0.353l0.145,-0.351l0.147,-0.352l0.148,-0.351l0.149,-0.351l0.15,-0.35l0.15,-0.349l0.152,-0.348l0.153,-0.349l0.155,-0.348l0.154,-0.346l0.157,-0.347l0.157,-0.347l0.158,-0.345l0.159,-0.345l0.16,-0.344l0.161,-0.344l0.162,-0.343l0.163,-0.342l0.165,-0.343l0.165,-0.341l0.166,-0.341l0.167,-0.34l0.168,-0.34l0.17,-0.339l0.17,-0.338l0.171,-0.338l0.172,-0.338l0.173,-0.337l0.174,-0.335l0.175,-0.336l0.176,-0.335l0.177,-0.334l0.178,-0.334l0.179,-0.333l0.18,-0.333l0.181,-0.332l0.182,-0.331l0.183,-0.331l0.184,-0.33l0.185,-0.329l0.186,-0.329l0.187,-0.329l0.187,-0.327l0.189,-0.327l0.189,-0.326l0.191,-0.326l0.191,-0.325l0.193,-0.325l0.194,-0.324l0.194,-0.323l0.195,-0.322l0.196,-0.322l0.198,-0.322l0.198,-0.32l0.199,-0.32l0.2,-0.32l0.201,-0.318l0.202,-0.318l0.202,-0.317l0.204,-0.317l0.205,-0.316l0.205,-0.316l0.207,-0.314l0.207,-0.314l0.209,-0.314l0.209,-0.313l0.21,-0.312l0.211,-0.311l0.212,-0.311l0.213,-0.31l0.214,-0.31l0.214,-0.308l0.216,-0.308l0.217,-0.307l0.217,-0.307l0.218,-0.306l0.219,-0.305l0.221,-0.305l0.221,-0.304l0.222,-0.303l0.222,-0.302l0.223,-0.302l0.225,-0.302l0.226,-0.3l0.226,-0.3l0.227,-0.299l0.228,-0.298l0.229,-0.298l0.23,-0.296l0.23,-0.297l0.232,-0.296l0.232,-0.294l0.233,-0.294l0.234,-0.293l0.235,-0.293l0.236,-0.292l0.237,-0.292l0.237,-0.289l0.239,-0.29l0.239,-0.289l0.24,-0.288l0.241,-0.288l0.242,-0.287l0.242,-0.286l0.244,-0.285l0.244,-0.285l0.245,-0.284l0.246,-0.282l0.247,-0.283l0.248,-0.282l0.248,-0.281l0.249,-0.279l0.25,-0.28l0.251,-0.278l0.252,-0.278l0.253,-0.277l0.253,-0.277l0.254,-0.275l0.255,-0.274l0.256,-0.275l0.257,-0.273l0.257,-0.272l0.258,-0.272l0.259,-0.271l0.26,-0.27l0.261,-0.27l0.261,-0.268l0.263,-0.268l0.263,-0.267l0.264,-0.266l0.264,-0.265l0.265,-0.265l0.267,-0.264l0.267,-0.263l0.267,-0.262l0.269,-0.262l0.269,-0.26l0.27,-0.26l0.272,-0.259l0.271,-0.259l0.272,-0.257l0.274,-0.257l0.274,-0.256l0.274,-0.254l0.276,-0.254l0.277,-0.254l0.277,-0.253l0.277,-0.251l0.279,-0.251l0.279,-0.25l0.28,-0.249l0.281,-0.249l0.282,-0.248l0.282,-0.247l0.283,-0.245l0.283,-0.245l0.285,-0.245l0.286,-0.243l0.286,-0.243l0.286,-0.242l0.288,-0.241l0.288,-0.24l0.289,-0.239l0.29,-0.238l0.29,-0.237l0.291,-0.237l0.293,-0.236l0.292,-0.235l0.293,-0.234l0.294,-0.233l0.295,-0.233l0.296,-0.231l0.296,-0.231l0.297,-0.23l0.297,-0.228l0.298,-0.228l0.3,-0.228l0.299,-0.226l0.301,-0.225l0.301,-0.225l0.302,-0.224l0.302,-0.222l0.303,-0.222l0.305,-0.221l0.304,-0.22l0.306,-0.219l0.305,-0.218l0.307,-0.218l0.308,-0.217l0.308,-0.215l0.308,-0.215l0.309,-0.213l0.311,-0.213l0.311,-0.212l0.311,-0.211l0.312,-0.211l0.313,-0.209l0.313,-0.208l0.314,-0.207l0.315,-0.207l0.315,-0.206l0.316,-0.204l0.317,-0.204l0.317,-0.203l0.319,-0.202l0.318,-0.201l0.32,-0.2l0.32,-0.199l0.32,-0.198l0.321,-0.197l0.323,-0.196l0.322,-0.195l0.323,-0.195l0.324,-0.193l0.325,-0.193l0.324,-0.191l0.326,-0.191l0.327,-0.19l0.327,-0.188l0.327,-0.188l0.329,-0.187l0.328,-0.186l0.329,-0.184l0.331,-0.184l0.33,-0.183l0.331,-0.182l0.333,-0.181l0.332,-0.18l0.333,-0.179l0.334,-0.178l0.334,-0.177l0.335,-0.176l0.336,-0.176l0.336,-0.174l0.337,-0.173l0.337,-0.172l0.338,-0.171l0.339,-0.17l0.339,-0.169l0.339,-0.168l0.341,-0.168l0.341,-0.166l0.341,-0.165l0.342,-0.164l0.343,-0.163l0.343,-0.162l0.343,-0.161l0.345,-0.161l0.345,-0.159l0.345,-0.158l0.346,-0.157l0.347,-0.156l0.347,-0.155l0.348,-0.154l0.348,-0.153l0.349,-0.152l0.349,-0.151l0.35,-0.15l0.351,-0.149l0.351,-0.148l0.351,-0.146l0.352,-0.146l0.353,-0.145l0.353,-0.143l0.354,-0.143l0.354,-0.142l0.355,-0.14l0.355,-0.14l0.356,-0.138l0.356,-0.137l0.357,-0.137l0.358,-0.135l0.358,-0.134l0.358,-0.134l0.359,-0.132l0.359,-0.13l0.361,-0.13l0.36,-0.129l0.361,-0.128l0.362,-0.127l0.362,-0.126l0.362,-0.124l0.363,-0.123l0.364,-0.123l0.364,-0.121l0.364,-0.12l0.366,-0.12l0.365,-0.118l0.366,-0.117l0.367,-0.116l0.367,-0.114l0.367,-0.114l0.369,-0.113l0.368,-0.111l0.368,-0.11l0.37,-0.11l0.37,-0.108l0.37,-0.107l0.371,-0.106l0.371,-0.105l0.372,-0.103l0.372,-0.103l0.373,-0.101l0.373,-0.101l0.374,-0.099l0.374,-0.098l0.374,-0.097l0.375,-0.096l0.376,-0.095l0.375,-0.093l0.376,-0.093l0.377,-0.091l0.378,-0.09l0.377,-0.089l0.378,-0.088l0.379,-0.087l0.379,-0.085l0.379,-0.085l0.38,-0.083l0.38,-0.082l0.381,-0.081l0.381,-0.08l0.381,-0.079l0.382,-0.077l0.382,-0.077l0.383,-0.075l0.383,-0.074l0.384,-0.073l0.384,-0.071l0.384,-0.071l0.385,-0.069l0.385,-0.068l0.386,-0.068l0.385,-0.065l0.387,-0.065l0.386,-0.063l0.387,-0.063l0.388,-0.061l0.388,-0.06l0.388,-0.058l0.389,-0.058l0.389,-0.056l0.389,-0.055l0.39,-0.054l0.39,-0.053l0.391,-0.051l0.391,-0.051l0.391,-0.049l0.392,-0.048l0.391,-0.046l0.393,-0.046l0.393,-0.044l0.392,-0.043l0.394,-0.042l0.394,-0.041l0.394,-0.039l0.394,-0.038l0.395,-0.037l0.396,-0.036l0.395,-0.034l0.395,-0.034l0.397,-0.032l0.396,-0.031l0.397,-0.029l0.397,-0.028l0.398,-0.028l0.397,-0.025l0.399,-0.025l0.398,-0.023l0.399,-0.022l0.399,-0.021l0.4,-0.02l0.399,-0.018l0.4,-0.017l0.401,-0.016l0.4,-0.015l0.401,-0.013l0.401,-0.012l0.402,-0.011l0.402,-0.01l0.402,-0.008l0.402,-0.007l0.403,-0.006l0.403,-0.004l0.403,-0.003l0.404,-0.002l0.396,-0.001l24.343,0l0.706,0.028Zm-25.042,8.972l-0.375,0.001l-0.375,0.002l-0.375,0.002l-0.374,0.005l-0.374,0.005l-0.374,0.006l-0.374,0.008l-0.373,0.009l-0.373,0.01l-0.373,0.011l-0.373,0.013l-0.372,0.013l-0.372,0.015l-0.371,0.016l-0.371,0.017l-0.371,0.018l-0.371,0.02l-0.37,0.02l-0.37,0.022l-0.37,0.023l-0.37,0.024l-0.369,0.025l-0.368,0.026l-0.369,0.027l-0.368,0.029l-0.368,0.03l-0.367,0.031l-0.368,0.032l-0.366,0.033l-0.367,0.034l-0.366,0.036l-0.366,0.036l-0.365,0.038l-0.366,0.039l-0.364,0.04l-0.365,0.041l-0.364,0.042l-0.364,0.043l-0.363,0.045l-0.363,0.045l-0.363,0.047l-0.363,0.048l-0.362,0.049l-0.361,0.05l-0.362,0.051l-0.361,0.052l-0.36,0.054l-0.361,0.054l-0.36,0.056l-0.359,0.056l-0.359,0.058l-0.359,0.059l-0.359,0.06l-0.358,0.061l-0.357,0.062l-0.358,0.063l-0.357,0.065l-0.356,0.065l-0.356,0.067l-0.356,0.067l-0.356,0.069l-0.355,0.07l-0.354,0.071l-0.355,0.071l-0.353,0.073l-0.354,0.075l-0.353,0.075l-0.353,0.076l-0.352,0.077l-0.352,0.078l-0.351,0.08l-0.351,0.08l-0.351,0.082l-0.35,0.082l-0.35,0.084l-0.35,0.085l-0.349,0.086l-0.348,0.086l-0.348,0.088l-0.348,0.089l-0.348,0.09l-0.346,0.091l-0.347,0.092l-0.346,0.093l-0.346,0.094l-0.345,0.095l-0.345,0.097l-0.344,0.097l-0.344,0.098l-0.344,0.099l-0.343,0.101l-0.342,0.101l-0.342,0.102l-0.342,0.104l-0.341,0.104l-0.341,0.106l-0.341,0.106l-0.34,0.108l-0.339,0.108l-0.339,0.11l-0.339,0.11l-0.338,0.112l-0.337,0.112l-0.338,0.114l-0.336,0.114l-0.337,0.116l-0.335,0.116l-0.336,0.118l-0.335,0.118l-0.334,0.12l-0.334,0.12l-0.333,0.122l-0.333,0.122l-0.333,0.124l-0.332,0.124l-0.331,0.126l-0.332,0.126l-0.33,0.128l-0.33,0.128l-0.33,0.129l-0.329,0.131l-0.328,0.131l-0.329,0.132l-0.327,0.134l-0.327,0.134l-0.327,0.135l-0.326,0.136l-0.326,0.137l-0.325,0.138l-0.324,0.139l-0.324,0.141l-0.324,0.14l-0.323,0.142l-0.322,0.143l-0.323,0.144l-0.321,0.145l-0.321,0.146l-0.32,0.146l-0.32,0.148l-0.32,0.148l-0.319,0.15l-0.318,0.15l-0.318,0.152l-0.317,0.152l-0.317,0.153l-0.316,0.154l-0.316,0.155l-0.315,0.156l-0.315,0.157l-0.314,0.158l-0.313,0.159l-0.313,0.16l-0.313,0.16l-0.312,0.162l-0.311,0.162l-0.311,0.164l-0.31,0.164l-0.31,0.165l-0.309,0.166l-0.308,0.167l-0.308,0.168l-0.308,0.169l-0.306,0.17l-0.307,0.17l-0.305,0.172l-0.306,0.172l-0.304,0.174l-0.304,0.174l-0.304,0.175l-0.302,0.176l-0.303,0.177l-0.301,0.177l-0.301,0.179l-0.301,0.18l-0.3,0.18l-0.299,0.181l-0.299,0.182l-0.298,0.183l-0.298,0.184l-0.297,0.185l-0.296,0.186l-0.296,0.186l-0.295,0.187l-0.294,0.189l-0.294,0.189l-0.294,0.19l-0.292,0.19l-0.293,0.192l-0.291,0.193l-0.291,0.193l-0.29,0.194l-0.29,0.195l-0.289,0.196l-0.288,0.197l-0.288,0.197l-0.287,0.199l-0.287,0.199l-0.286,0.2l-0.285,0.201l-0.285,0.202l-0.284,0.203l-0.283,0.203l-0.283,0.204l-0.282,0.205l-0.281,0.206l-0.281,0.207l-0.28,0.208l-0.28,0.208l-0.279,0.209l-0.278,0.21l-0.278,0.211l-0.277,0.212l-0.276,0.212l-0.276,0.214l-0.275,0.214l-0.274,0.215l-0.273,0.215l-0.273,0.217l-0.273,0.217l-0.271,0.218l-0.271,0.219l-0.271,0.22l-0.269,0.22l-0.269,0.222l-0.269,0.222l-0.267,0.223l-0.267,0.223l-0.266,0.225l-0.266,0.225l-0.265,0.226l-0.264,0.227l-0.263,0.227l-0.263,0.229l-0.262,0.229l-0.262,0.23l-0.26,0.23l-0.26,0.232l-0.26,0.232l-0.258,0.233l-0.258,0.234l-0.258,0.234l-0.256,0.235l-0.256,0.236l-0.255,0.237l-0.254,0.238l-0.254,0.238l-0.253,0.239l-0.252,0.24l-0.252,0.24l-0.25,0.241l-0.251,0.242l-0.249,0.243l-0.248,0.244l-0.248,0.244l-0.248,0.245l-0.246,0.245l-0.246,0.247l-0.245,0.247l-0.244,0.248l-0.243,0.249l-0.243,0.249l-0.242,0.25l-0.241,0.251l-0.241,0.251l-0.24,0.253l-0.239,0.252l-0.238,0.254l-0.237,0.255l-0.237,0.255l-0.236,0.255l-0.235,0.257l-0.235,0.257l-0.234,0.258l-0.233,0.259l-0.232,0.259l-0.231,0.26l-0.231,0.261l-0.23,0.261l-0.229,0.262l-0.228,0.263l-0.228,0.264l-0.226,0.264l-0.226,0.265l-0.226,0.265l-0.224,0.266l-0.224,0.267l-0.223,0.268l-0.222,0.268l-0.221,0.269l-0.221,0.27l-0.219,0.27l-0.219,0.271l-0.218,0.272l-0.218,0.272l-0.216,0.273l-0.216,0.274l-0.215,0.274l-0.214,0.275l-0.213,0.276l-0.213,0.276l-0.211,0.277l-0.211,0.277l-0.21,0.279l-0.209,0.278l-0.209,0.28l-0.207,0.28l-0.207,0.281l-0.206,0.281l-0.205,0.283l-0.204,0.282l-0.204,0.284l-0.202,0.284l-0.202,0.284l-0.201,0.286l-0.2,0.286l-0.2,0.286l-0.198,0.287l-0.198,0.288l-0.196,0.289l-0.196,0.289l-0.195,0.289l-0.195,0.291l-0.193,0.29l-0.192,0.292l-0.192,0.292l-0.191,0.293l-0.19,0.293l-0.189,0.294l-0.188,0.295l-0.187,0.295l-0.187,0.296l-0.186,0.296l-0.184,0.297l-0.184,0.297l-0.183,0.299l-0.182,0.298l-0.182,0.3l-0.18,0.3l-0.179,0.3l-0.179,0.301l-0.178,0.302l-0.177,0.302l-0.176,0.303l-0.175,0.303l-0.174,0.304l-0.173,0.305l-0.173,0.305l-0.171,0.306l-0.171,0.306l-0.169,0.307l-0.169,0.307l-0.168,0.308l-0.167,0.309l-0.166,0.309l-0.165,0.31l-0.165,0.31l-0.163,0.311l-0.163,0.311l-0.161,0.312l-0.161,0.312l-0.159,0.313l-0.159,0.314l-0.158,0.314l-0.157,0.314l-0.156,0.316l-0.155,0.315l-0.154,0.316l-0.154,0.317l-0.152,0.318l-0.151,0.317l-0.151,0.319l-0.149,0.319l-0.149,0.319l-0.147,0.32l-0.147,0.32l-0.146,0.321l-0.144,0.322l-0.144,0.322l-0.143,0.323l-0.142,0.323l-0.141,0.323l-0.14,0.324l-0.139,0.325l-0.138,0.325l-0.137,0.326l-0.136,0.326l-0.136,0.326l-0.134,0.327l-0.133,0.328l-0.132,0.328l-0.132,0.329l-0.13,0.329l-0.129,0.329l-0.129,0.33l-0.127,0.331l-0.127,0.331l-0.125,0.332l-0.125,0.332l-0.123,0.332l-0.123,0.333l-0.121,0.333l-0.121,0.334l-0.119,0.335l-0.119,0.335l-0.117,0.335l-0.117,0.336l-0.115,0.336l-0.115,0.337l-0.113,0.337l-0.113,0.338l-0.111,0.338l-0.111,0.338l-0.109,0.339l-0.109,0.34l-0.107,0.34l-0.107,0.34l-0.105,0.341l-0.105,0.341l-0.103,0.342l-0.102,0.342l-0.102,0.343l-0.1,0.343l-0.099,0.343l-0.099,0.344l-0.097,0.345l-0.096,0.345l-0.095,0.345l-0.094,0.345l-0.093,0.347l-0.092,0.346l-0.091,0.347l-0.09,0.347l-0.089,0.348l-0.088,0.348l-0.087,0.349l-0.086,0.349l-0.084,0.349l-0.084,0.35l-0.083,0.35l-0.081,0.351l-0.081,0.351l-0.079,0.352l-0.078,0.352l-0.078,0.352l-0.076,0.353l-0.075,0.353l-0.074,0.353l-0.073,0.354l-0.072,0.354l-0.071,0.355l-0.07,0.355l-0.068,0.355l-0.068,0.356l-0.066,0.356l-0.066,0.357l-0.064,0.357l-0.063,0.357l-0.062,0.358l-0.062,0.358l-0.059,0.358l-0.059,0.359l-0.058,0.359l-0.057,0.36l-0.055,0.36l-0.055,0.36l-0.053,0.361l-0.052,0.361l-0.052,0.361l-0.05,0.362l-0.049,0.362l-0.047,0.362l-0.047,0.363l-0.046,0.363l-0.044,0.364l-0.043,0.363l-0.043,0.365l-0.041,0.364l-0.04,0.365l-0.039,0.365l-0.037,0.366l-0.037,0.365l-0.035,0.367l-0.035,0.366l-0.033,0.367l-0.032,0.367l-0.031,0.368l-0.029,0.367l-0.029,0.369l-0.027,0.368l-0.027,0.369l-0.025,0.369l-0.024,0.369l-0.023,0.37l-0.021,0.37l-0.021,0.37l-0.019,0.371l-0.019,0.371l-0.017,0.371l-0.016,0.372l-0.014,0.372l-0.014,0.372l-0.012,0.372l-0.011,0.373l-0.01,0.373l-0.009,0.374l-0.008,0.373l-0.006,0.374l-0.006,0.374l-0.004,0.375l-0.003,0.375l-0.002,0.375l0,0.375l0,24.336l24.335,0l0.376,-0.001l0.375,-0.002l0.374,-0.003l0.375,-0.004l0.374,-0.005l0.374,-0.007l0.374,-0.007l0.373,-0.009l0.373,-0.01l0.373,-0.012l0.372,-0.012l0.372,-0.014l0.372,-0.014l0.372,-0.016l0.371,-0.017l0.371,-0.018l0.371,-0.02l0.37,-0.02l0.37,-0.022l0.37,-0.023l0.369,-0.024l0.369,-0.025l0.369,-0.026l0.369,-0.028l0.368,-0.028l0.368,-0.03l0.367,-0.031l0.367,-0.032l0.367,-0.033l0.367,-0.034l0.366,-0.036l0.366,-0.036l0.365,-0.038l0.365,-0.039l0.365,-0.04l0.365,-0.041l0.364,-0.042l0.364,-0.044l0.363,-0.044l0.363,-0.046l0.363,-0.046l0.362,-0.048l0.362,-0.049l0.362,-0.05l0.362,-0.051l0.361,-0.053l0.36,-0.053l0.36,-0.054l0.36,-0.056l0.36,-0.057l0.359,-0.057l0.359,-0.059l0.358,-0.06l0.358,-0.061l0.358,-0.062l0.357,-0.064l0.357,-0.064l0.357,-0.065l0.356,-0.067l0.356,-0.068l0.355,-0.068l0.355,-0.07l0.355,-0.071l0.354,-0.072l0.354,-0.073l0.354,-0.074l0.353,-0.075l0.352,-0.076l0.353,-0.077l0.352,-0.079l0.351,-0.079l0.351,-0.081l0.351,-0.081l0.35,-0.083l0.35,-0.083l0.349,-0.085l0.349,-0.086l0.349,-0.087l0.348,-0.087l0.348,-0.089l0.347,-0.09l0.347,-0.091l0.347,-0.092l0.346,-0.093l0.345,-0.095l0.346,-0.095l0.344,-0.096l0.345,-0.097l0.344,-0.098l0.343,-0.1l0.343,-0.1l0.343,-0.101l0.342,-0.103l0.342,-0.103l0.341,-0.104l0.341,-0.106l0.34,-0.106l0.34,-0.108l0.34,-0.108l0.339,-0.11l0.338,-0.11l0.339,-0.112l0.337,-0.112l0.337,-0.114l0.337,-0.114l0.336,-0.116l0.336,-0.116l0.336,-0.118l0.334,-0.119l0.335,-0.119l0.334,-0.121l0.333,-0.121l0.333,-0.123l0.333,-0.123l0.332,-0.125l0.331,-0.125l0.331,-0.126l0.331,-0.128l0.33,-0.128l0.329,-0.13l0.33,-0.13l0.328,-0.131l0.328,-0.133l0.328,-0.133l0.327,-0.134l0.327,-0.135l0.326,-0.137l0.325,-0.137l0.325,-0.138l0.325,-0.139l0.324,-0.14l0.324,-0.141l0.323,-0.142l0.322,-0.143l0.322,-0.143l0.322,-0.145l0.321,-0.146l0.32,-0.147l0.32,-0.147l0.32,-0.149l0.318,-0.149l0.319,-0.151l0.318,-0.151l0.317,-0.152l0.317,-0.153l0.316,-0.155l0.316,-0.155l0.315,-0.156l0.314,-0.157l0.315,-0.158l0.313,-0.158l0.313,-0.16l0.312,-0.161l0.312,-0.161l0.312,-0.163l0.31,-0.163l0.311,-0.164l0.309,-0.166l0.309,-0.166l0.309,-0.167l0.308,-0.168l0.307,-0.168l0.307,-0.17l0.306,-0.171l0.306,-0.171l0.305,-0.173l0.305,-0.173l0.304,-0.174l0.303,-0.175l0.303,-0.176l0.302,-0.177l0.302,-0.178l0.301,-0.178l0.301,-0.18l0.3,-0.18l0.299,-0.181l0.299,-0.183l0.298,-0.183l0.297,-0.183l0.297,-0.185l0.297,-0.186l0.295,-0.186l0.296,-0.188l0.294,-0.188l0.294,-0.189l0.293,-0.19l0.293,-0.191l0.292,-0.191l0.292,-0.193l0.291,-0.193l0.29,-0.194l0.29,-0.196l0.289,-0.195l0.288,-0.197l0.288,-0.198l0.287,-0.198l0.287,-0.199l0.286,-0.201l0.285,-0.201l0.284,-0.201l0.284,-0.203l0.284,-0.203l0.283,-0.205l0.282,-0.205l0.281,-0.206l0.281,-0.206l0.28,-0.208l0.28,-0.208l0.279,-0.21l0.278,-0.21l0.277,-0.211l0.277,-0.211l0.277,-0.213l0.275,-0.213l0.275,-0.214l0.275,-0.215l0.273,-0.216l0.273,-0.216l0.272,-0.218l0.272,-0.218l0.271,-0.219l0.27,-0.219l0.27,-0.221l0.269,-0.221l0.268,-0.222l0.268,-0.223l0.267,-0.224l0.266,-0.224l0.266,-0.225l0.264,-0.226l0.265,-0.227l0.263,-0.228l0.263,-0.228l0.262,-0.229l0.261,-0.23l0.261,-0.231l0.26,-0.231l0.26,-0.232l0.258,-0.233l0.258,-0.234l0.257,-0.234l0.257,-0.236l0.256,-0.236l0.255,-0.236l0.254,-0.238l0.254,-0.238l0.253,-0.239l0.252,-0.24l0.251,-0.24l0.251,-0.242l0.25,-0.242l0.25,-0.242l0.248,-0.244l0.248,-0.244l0.247,-0.245l0.247,-0.246l0.245,-0.246l0.245,-0.247l0.245,-0.248l0.243,-0.249l0.243,-0.249l0.242,-0.25l0.241,-0.251l0.241,-0.252l0.239,-0.252l0.239,-0.253l0.239,-0.253l0.237,-0.255l0.237,-0.255l0.236,-0.256l0.235,-0.256l0.235,-0.257l0.233,-0.258l0.233,-0.259l0.232,-0.259l0.232,-0.26l0.231,-0.261l0.229,-0.261l0.23,-0.263l0.228,-0.262l0.227,-0.264l0.227,-0.264l0.226,-0.265l0.225,-0.265l0.225,-0.267l0.224,-0.267l0.222,-0.267l0.223,-0.269l0.221,-0.268l0.22,-0.27l0.22,-0.27l0.219,-0.271l0.218,-0.272l0.217,-0.272l0.217,-0.273l0.216,-0.274l0.214,-0.274l0.215,-0.275l0.213,-0.276l0.212,-0.276l0.212,-0.277l0.211,-0.278l0.21,-0.278l0.209,-0.279l0.208,-0.279l0.208,-0.28l0.207,-0.281l0.206,-0.282l0.205,-0.282l0.204,-0.283l0.204,-0.283l0.202,-0.284l0.202,-0.285l0.201,-0.285l0.2,-0.286l0.199,-0.286l0.199,-0.288l0.197,-0.287l0.197,-0.289l0.196,-0.289l0.195,-0.29l0.194,-0.29l0.194,-0.291l0.192,-0.291l0.192,-0.292l0.191,-0.293l0.19,-0.293l0.189,-0.294l0.188,-0.295l0.187,-0.295l0.187,-0.296l0.185,-0.296l0.185,-0.297l0.184,-0.298l0.183,-0.298l0.182,-0.299l0.181,-0.299l0.181,-0.3l0.179,-0.3l0.179,-0.301l0.178,-0.302l0.176,-0.302l0.176,-0.303l0.175,-0.304l0.175,-0.304l0.173,-0.304l0.172,-0.305l0.172,-0.306l0.17,-0.306l0.17,-0.307l0.169,-0.308l0.168,-0.308l0.167,-0.308l0.166,-0.309l0.165,-0.31l0.164,-0.31l0.164,-0.311l0.162,-0.311l0.162,-0.312l0.16,-0.313l0.16,-0.312l0.159,-0.314l0.158,-0.314l0.157,-0.315l0.156,-0.315l0.155,-0.316l0.154,-0.316l0.153,-0.317l0.153,-0.317l0.151,-0.318l0.15,-0.318l0.15,-0.319l0.148,-0.319l0.148,-0.32l0.147,-0.321l0.145,-0.321l0.145,-0.321l0.144,-0.322l0.143,-0.323l0.142,-0.323l0.141,-0.323l0.14,-0.325l0.139,-0.324l0.138,-0.325l0.137,-0.326l0.136,-0.326l0.135,-0.327l0.135,-0.327l0.133,-0.327l0.132,-0.328l0.132,-0.329l0.13,-0.329l0.129,-0.33l0.129,-0.33l0.127,-0.33l0.126,-0.331l0.126,-0.332l0.124,-0.332l0.124,-0.332l0.122,-0.333l0.122,-0.334l0.12,-0.334l0.12,-0.334l0.119,-0.335l0.117,-0.335l0.117,-0.336l0.115,-0.336l0.115,-0.337l0.113,-0.337l0.113,-0.338l0.111,-0.338l0.111,-0.339l0.109,-0.339l0.109,-0.339l0.107,-0.34l0.107,-0.341l0.105,-0.34l0.104,-0.342l0.104,-0.341l0.102,-0.343l0.102,-0.342l0.1,-0.343l0.099,-0.344l0.098,-0.344l0.098,-0.344l0.096,-0.345l0.095,-0.345l0.094,-0.346l0.093,-0.346l0.092,-0.346l0.091,-0.347l0.09,-0.348l0.089,-0.347l0.088,-0.349l0.087,-0.348l0.085,-0.349l0.085,-0.35l0.084,-0.349l0.082,-0.351l0.082,-0.35l0.08,-0.351l0.08,-0.352l0.078,-0.352l0.077,-0.352l0.077,-0.353l0.075,-0.353l0.074,-0.353l0.073,-0.354l0.072,-0.354l0.071,-0.355l0.069,-0.355l0.069,-0.356l0.068,-0.355l0.066,-0.357l0.065,-0.356l0.065,-0.357l0.063,-0.357l0.062,-0.358l0.061,-0.358l0.06,-0.359l0.059,-0.358l0.058,-0.36l0.057,-0.359l0.055,-0.36l0.055,-0.36l0.053,-0.361l0.052,-0.361l0.051,-0.361l0.05,-0.362l0.049,-0.362l0.048,-0.363l0.047,-0.362l0.045,-0.363l0.045,-0.364l0.043,-0.364l0.042,-0.364l0.042,-0.364l0.039,-0.365l0.039,-0.365l0.038,-0.366l0.037,-0.366l0.035,-0.366l0.034,-0.366l0.033,-0.367l0.033,-0.367l0.03,-0.368l0.03,-0.368l0.029,-0.368l0.027,-0.368l0.026,-0.369l0.026,-0.369l0.024,-0.37l0.022,-0.369l0.022,-0.37l0.021,-0.371l0.019,-0.37l0.018,-0.371l0.017,-0.372l0.016,-0.371l0.015,-0.372l0.014,-0.372l0.012,-0.373l0.011,-0.372l0.01,-0.373l0.009,-0.374l0.008,-0.373l0.006,-0.374l0.006,-0.375l0.004,-0.374l0.003,-0.375l0.001,-0.375l0.001,-0.375l0,-24.336l-24.336,0Z" style="fill:#2b2b2b;"/></g><g id="left"><path d="M15.833,96.47c0,0 -3.178,10.697 -7.85,26.422c-20.67,69.576 19.798,139.669 90.388,156.556c15.954,3.817 26.807,6.413 26.807,6.413c0,0 3.178,-10.696 7.85,-26.422c20.67,-69.576 -19.798,-139.668 -90.388,-156.556c-15.955,-3.817 -26.807,-6.413 -26.807,-6.413Z" style="fill:#87ff58;"/><clipPath id="_clip2"><path d="M15.833,96.47c0,0 -3.178,10.697 -7.85,26.422c-20.67,69.576 19.798,139.669 90.388,156.556c15.954,3.817 26.807,6.413 26.807,6.413c0,0 3.178,-10.696 7.85,-26.422c20.67,-69.576 -19.798,-139.668 -90.388,-156.556c-15.955,-3.817 -26.807,-6.413 -26.807,-6.413Z"/></clipPath><g clip-path="url(#_clip2)"><path d="M3.373,74.889l-60.305,34.817l137.89,238.832l60.305,-34.817l-137.89,-238.832Z" style="fill:#6bbe4a;"/><g><path d="M110.705,261.691l-86.209,-149.318" style="fill:none;stroke:#50843b;stroke-width:5.19px;"/><g><path d="M46.297,149.235l5.863,-19.737" style="fill:none;stroke:#50843b;stroke-width:5px;"/><path d="M59.198,171.581l5.864,-19.737" style="fill:none;stroke:#50843b;stroke-width:5px;"/><path d="M71.529,192.939l5.864,-19.737" style="fill:none;stroke:#50843b;stroke-width:5px;"/><path d="M83.861,214.298l5.863,-19.738" style="fill:none;stroke:#50843b;stroke-width:5px;"/><path d="M96.192,235.656l5.863,-19.738" style="fill:none;stroke:#50843b;stroke-width:5px;"/><path d="M108.523,257.014l5.863,-19.737" style="fill:none;stroke:#50843b;stroke-width:5px;"/></g><g><path d="M46.297,149.235l-20.025,-4.791" style="fill:none;stroke:#50843b;stroke-width:5px;"/><path d="M59.198,171.581l-20.025,-4.79" style="fill:none;stroke:#50843b;stroke-width:5px;"/><path d="M71.529,192.939l-20.024,-4.79" style="fill:none;stroke:#50843b;stroke-width:5px;"/><path d="M83.861,214.298l-20.025,-4.791" style="fill:none;stroke:#50843b;stroke-width:5px;"/><path d="M96.192,235.656l-20.025,-4.791" style="fill:none;stroke:#50843b;stroke-width:5px;"/><path d="M108.523,257.014l-20.025,-4.791" style="fill:none;stroke:#50843b;stroke-width:5px;"/></g></g></g><path d="M22.758,83.938l0.799,0.081l0.788,0.152l26.814,6.414l0.434,0.105l0.441,0.108l0.439,0.108l0.439,0.111l0.438,0.111l0.437,0.113l0.437,0.114l0.436,0.115l0.435,0.117l0.435,0.118l0.434,0.119l0.433,0.12l0.432,0.122l0.432,0.123l0.431,0.124l0.43,0.126l0.429,0.126l0.429,0.129l0.428,0.129l0.427,0.131l0.427,0.131l0.426,0.133l0.425,0.135l0.424,0.136l0.423,0.136l0.423,0.138l0.423,0.14l0.421,0.14l0.42,0.142l0.42,0.143l0.419,0.145l0.418,0.145l0.418,0.147l0.417,0.148l0.416,0.149l0.415,0.151l0.414,0.151l0.414,0.153l0.413,0.154l0.412,0.156l0.411,0.156l0.411,0.158l0.41,0.159l0.409,0.16l0.408,0.161l0.408,0.163l0.407,0.163l0.405,0.165l0.406,0.166l0.404,0.168l0.404,0.168l0.402,0.17l0.402,0.17l0.401,0.172l0.401,0.174l0.399,0.174l0.399,0.175l0.398,0.177l0.397,0.178l0.397,0.179l0.395,0.18l0.395,0.181l0.393,0.183l0.394,0.183l0.392,0.185l0.392,0.186l0.39,0.187l0.39,0.188l0.389,0.19l0.388,0.19l0.387,0.192l0.387,0.192l0.386,0.194l0.384,0.195l0.385,0.196l0.383,0.197l0.382,0.199l0.381,0.199l0.381,0.201l0.38,0.201l0.379,0.203l0.378,0.204l0.377,0.205l0.377,0.206l0.375,0.207l0.375,0.208l0.374,0.21l0.373,0.21l0.372,0.212l0.371,0.212l0.371,0.214l0.369,0.215l0.369,0.216l0.368,0.217l0.367,0.218l0.366,0.218l0.365,0.221l0.365,0.221l0.363,0.222l0.363,0.223l0.361,0.225l0.361,0.225l0.36,0.227l0.359,0.227l0.358,0.229l0.358,0.229l0.356,0.231l0.356,0.231l0.354,0.233l0.354,0.234l0.353,0.235l0.352,0.235l0.351,0.237l0.35,0.238l0.349,0.239l0.349,0.24l0.347,0.24l0.347,0.242l0.345,0.243l0.345,0.244l0.344,0.245l0.343,0.246l0.342,0.247l0.341,0.248l0.34,0.249l0.339,0.249l0.338,0.251l0.338,0.252l0.336,0.253l0.336,0.254l0.335,0.254l0.333,0.256l0.333,0.257l0.332,0.258l0.331,0.258l0.329,0.26l0.33,0.26l0.328,0.262l0.327,0.262l0.326,0.264l0.325,0.264l0.324,0.265l0.324,0.267l0.322,0.267l0.322,0.268l0.321,0.269l0.319,0.27l0.318,0.271l0.318,0.272l0.317,0.273l0.316,0.274l0.314,0.274l0.314,0.276l0.313,0.276l0.312,0.278l0.311,0.278l0.31,0.279l0.309,0.28l0.308,0.281l0.307,0.282l0.306,0.283l0.305,0.284l0.304,0.284l0.303,0.286l0.302,0.286l0.301,0.288l0.3,0.288l0.3,0.289l0.298,0.29l0.297,0.291l0.296,0.291l0.295,0.293l0.295,0.293l0.293,0.294l0.292,0.296l0.291,0.296l0.291,0.296l0.289,0.298l0.288,0.298l0.287,0.3l0.286,0.3l0.286,0.301l0.284,0.302l0.283,0.303l0.282,0.303l0.281,0.305l0.28,0.305l0.28,0.306l0.278,0.307l0.277,0.308l0.276,0.308l0.275,0.31l0.274,0.31l0.273,0.311l0.272,0.312l0.271,0.312l0.27,0.314l0.269,0.314l0.267,0.315l0.267,0.316l0.266,0.316l0.265,0.317l0.263,0.319l0.263,0.319l0.262,0.319l0.26,0.321l0.26,0.321l0.258,0.322l0.258,0.323l0.256,0.324l0.255,0.324l0.255,0.325l0.253,0.326l0.252,0.327l0.251,0.327l0.25,0.328l0.249,0.329l0.248,0.33l0.247,0.33l0.246,0.332l0.244,0.331l0.244,0.333l0.243,0.334l0.241,0.334l0.24,0.334l0.24,0.336l0.238,0.336l0.237,0.337l0.236,0.338l0.235,0.338l0.234,0.34l0.233,0.34l0.232,0.34l0.231,0.341l0.229,0.342l0.229,0.343l0.227,0.344l0.226,0.343l0.226,0.345l0.224,0.346l0.223,0.346l0.222,0.347l0.221,0.348l0.219,0.348l0.219,0.348l0.218,0.35l0.216,0.35l0.215,0.351l0.215,0.352l0.213,0.352l0.211,0.353l0.211,0.354l0.21,0.354l0.209,0.355l0.207,0.355l0.207,0.357l0.205,0.357l0.204,0.357l0.203,0.358l0.202,0.359l0.201,0.359l0.199,0.36l0.199,0.361l0.198,0.361l0.196,0.362l0.195,0.363l0.194,0.363l0.193,0.364l0.191,0.364l0.191,0.365l0.189,0.366l0.189,0.366l0.187,0.367l0.186,0.367l0.185,0.369l0.183,0.368l0.183,0.369l0.181,0.37l0.18,0.371l0.179,0.371l0.178,0.371l0.177,0.373l0.176,0.372l0.174,0.373l0.173,0.374l0.173,0.375l0.17,0.375l0.17,0.376l0.169,0.376l0.167,0.376l0.167,0.378l0.164,0.378l0.165,0.378l0.162,0.379l0.162,0.38l0.16,0.38l0.159,0.38l0.158,0.382l0.157,0.381l0.156,0.382l0.154,0.383l0.153,0.383l0.153,0.384l0.15,0.385l0.15,0.384l0.149,0.386l0.147,0.386l0.146,0.386l0.145,0.387l0.144,0.388l0.142,0.388l0.141,0.388l0.14,0.389l0.139,0.389l0.138,0.39l0.136,0.391l0.136,0.391l0.134,0.391l0.133,0.392l0.131,0.393l0.131,0.392l0.129,0.394l0.128,0.393l0.126,0.395l0.126,0.395l0.124,0.395l0.123,0.396l0.122,0.396l0.121,0.396l0.119,0.397l0.118,0.398l0.117,0.398l0.116,0.398l0.114,0.399l0.113,0.399l0.112,0.4l0.111,0.4l0.109,0.401l0.109,0.401l0.107,0.402l0.105,0.402l0.105,0.402l0.103,0.402l0.102,0.404l0.101,0.404l0.099,0.404l0.098,0.404l0.097,0.405l0.096,0.405l0.094,0.406l0.094,0.406l0.092,0.406l0.09,0.407l0.09,0.407l0.088,0.408l0.087,0.408l0.085,0.408l0.084,0.409l0.083,0.409l0.082,0.41l0.081,0.41l0.079,0.41l0.078,0.411l0.076,0.411l0.076,0.411l0.074,0.412l0.073,0.412l0.071,0.413l0.07,0.413l0.069,0.412l0.068,0.414l0.066,0.414l0.065,0.414l0.064,0.415l0.063,0.415l0.061,0.415l0.059,0.415l0.059,0.416l0.057,0.417l0.056,0.416l0.055,0.417l0.053,0.417l0.052,0.417l0.051,0.418l0.049,0.419l0.048,0.418l0.047,0.418l0.046,0.419l0.044,0.42l0.042,0.419l0.042,0.42l0.04,0.42l0.039,0.421l0.038,0.421l0.036,0.421l0.035,0.421l0.033,0.422l0.032,0.421l0.031,0.423l0.03,0.422l0.028,0.423l0.027,0.423l0.025,0.423l0.025,0.424l0.022,0.423l0.022,0.424l0.02,0.424l0.019,0.425l0.017,0.425l0.016,0.425l0.015,0.425l0.014,0.425l0.012,0.426l0.01,0.426l0.01,0.426l0.008,0.426l0.006,0.427l0.006,0.427l0.004,0.427l0.002,0.427l0.001,0.427l0,0.428l-0.001,0.428l-0.003,0.428l-0.004,0.428l-0.006,0.429l-0.007,0.428l-0.008,0.429l-0.01,0.429l-0.011,0.43l-0.013,0.429l-0.014,0.429l-0.015,0.43l-0.017,0.43l-0.018,0.43l-0.019,0.43l-0.021,0.431l-0.022,0.43l-0.024,0.431l-0.025,0.431l-0.026,0.431l-0.028,0.431l-0.029,0.432l-0.03,0.431l-0.032,0.432l-0.034,0.432l-0.034,0.432l-0.037,0.432l-0.037,0.432l-0.039,0.432l-0.04,0.433l-0.042,0.433l-0.043,0.432l-0.045,0.433l-0.046,0.433l-0.047,0.433l-0.049,0.433l-0.05,0.434l-0.052,0.433l-0.053,0.434l-0.054,0.433l-0.056,0.434l-0.058,0.434l-0.058,0.434l-0.061,0.434l-0.061,0.433l-0.063,0.435l-0.065,0.434l-0.065,0.434l-0.068,0.435l-0.068,0.434l-0.071,0.435l-0.071,0.434l-0.073,0.435l-0.075,0.435l-0.076,0.434l-0.077,0.435l-0.079,0.435l-0.08,0.435l-0.081,0.435l-0.084,0.435l-0.084,0.435l-0.086,0.435l-0.088,0.435l-0.088,0.435l-0.091,0.435l-0.092,0.436l-0.093,0.435l-0.095,0.435l-0.096,0.436l-0.097,0.435l-0.099,0.435l-0.101,0.435l-0.102,0.436l-0.103,0.435l-0.105,0.436l-0.107,0.435l-0.107,0.435l-0.11,0.436l-0.111,0.435l-0.112,0.435l-0.114,0.436l-0.115,0.435l-0.116,0.435l-0.118,0.435l-0.12,0.436l-0.121,0.435l-0.123,0.435l-0.124,0.435l-0.125,0.435l-0.127,0.435l-0.127,0.428l-7.851,26.429l-0.263,0.759l-0.329,0.732l-0.393,0.7l-0.454,0.662l-0.512,0.619l-0.564,0.571l-0.613,0.518l-0.657,0.462l-0.695,0.401l-0.728,0.338l-0.755,0.272l-0.777,0.203l-0.792,0.133l-0.8,0.062l-0.803,-0.009l-0.798,-0.081l-0.789,-0.152l-26.814,-6.415l-0.434,-0.104l-0.44,-0.108l-0.439,-0.109l-0.439,-0.11l-0.439,-0.111l-0.437,-0.113l-0.437,-0.114l-0.435,-0.115l-0.436,-0.117l-0.434,-0.118l-0.434,-0.119l-0.433,-0.12l-0.433,-0.122l-0.431,-0.123l-0.431,-0.124l-0.43,-0.126l-0.43,-0.127l-0.429,-0.128l-0.427,-0.129l-0.428,-0.131l-0.426,-0.132l-0.426,-0.133l-0.425,-0.134l-0.424,-0.136l-0.424,-0.137l-0.423,-0.138l-0.422,-0.139l-0.421,-0.141l-0.421,-0.142l-0.42,-0.143l-0.419,-0.144l-0.418,-0.145l-0.417,-0.147l-0.417,-0.148l-0.416,-0.149l-0.415,-0.151l-0.415,-0.151l-0.414,-0.153l-0.413,-0.154l-0.412,-0.156l-0.411,-0.156l-0.411,-0.158l-0.409,-0.159l-0.409,-0.16l-0.409,-0.161l-0.407,-0.163l-0.407,-0.164l-0.406,-0.165l-0.405,-0.166l-0.404,-0.167l-0.404,-0.168l-0.403,-0.17l-0.402,-0.171l-0.401,-0.172l-0.4,-0.173l-0.4,-0.174l-0.399,-0.176l-0.397,-0.176l-0.398,-0.178l-0.396,-0.179l-0.396,-0.18l-0.394,-0.182l-0.394,-0.182l-0.393,-0.184l-0.393,-0.185l-0.391,-0.185l-0.391,-0.187l-0.389,-0.189l-0.389,-0.189l-0.388,-0.19l-0.388,-0.192l-0.386,-0.193l-0.386,-0.193l-0.385,-0.195l-0.384,-0.197l-0.383,-0.197l-0.382,-0.198l-0.382,-0.199l-0.381,-0.201l-0.379,-0.202l-0.379,-0.202l-0.379,-0.204l-0.376,-0.205l-0.377,-0.206l-0.376,-0.208l-0.374,-0.208l-0.374,-0.209l-0.373,-0.21l-0.372,-0.212l-0.372,-0.213l-0.37,-0.213l-0.37,-0.215l-0.368,-0.216l-0.368,-0.217l-0.367,-0.218l-0.367,-0.219l-0.365,-0.22l-0.364,-0.221l-0.364,-0.222l-0.362,-0.224l-0.362,-0.224l-0.361,-0.225l-0.36,-0.227l-0.359,-0.227l-0.358,-0.229l-0.357,-0.229l-0.357,-0.231l-0.355,-0.232l-0.355,-0.232l-0.354,-0.234l-0.352,-0.235l-0.352,-0.236l-0.351,-0.236l-0.35,-0.238l-0.35,-0.239l-0.348,-0.24l-0.348,-0.241l-0.346,-0.242l-0.346,-0.242l-0.345,-0.244l-0.343,-0.245l-0.343,-0.246l-0.342,-0.247l-0.341,-0.248l-0.341,-0.249l-0.339,-0.25l-0.338,-0.25l-0.337,-0.252l-0.337,-0.253l-0.335,-0.254l-0.335,-0.255l-0.334,-0.255l-0.332,-0.257l-0.332,-0.258l-0.331,-0.259l-0.33,-0.259l-0.329,-0.261l-0.328,-0.261l-0.327,-0.262l-0.327,-0.264l-0.325,-0.264l-0.324,-0.266l-0.324,-0.266l-0.322,-0.267l-0.321,-0.268l-0.321,-0.269l-0.32,-0.271l-0.318,-0.271l-0.318,-0.271l-0.316,-0.273l-0.316,-0.274l-0.315,-0.275l-0.314,-0.275l-0.312,-0.276l-0.312,-0.278l-0.311,-0.278l-0.31,-0.279l-0.309,-0.281l-0.308,-0.281l-0.307,-0.281l-0.306,-0.283l-0.305,-0.284l-0.304,-0.284l-0.303,-0.286l-0.303,-0.287l-0.301,-0.287l-0.3,-0.288l-0.299,-0.289l-0.298,-0.29l-0.297,-0.291l-0.297,-0.291l-0.295,-0.293l-0.294,-0.294l-0.293,-0.294l-0.293,-0.295l-0.291,-0.296l-0.29,-0.296l-0.289,-0.298l-0.288,-0.299l-0.288,-0.299l-0.286,-0.301l-0.285,-0.301l-0.284,-0.301l-0.284,-0.303l-0.282,-0.304l-0.281,-0.304l-0.28,-0.305l-0.279,-0.307l-0.278,-0.306l-0.277,-0.308l-0.276,-0.308l-0.276,-0.31l-0.273,-0.31l-0.273,-0.311l-0.273,-0.312l-0.27,-0.312l-0.27,-0.314l-0.269,-0.314l-0.268,-0.315l-0.267,-0.316l-0.265,-0.316l-0.265,-0.318l-0.264,-0.318l-0.263,-0.319l-0.261,-0.32l-0.261,-0.32l-0.259,-0.321l-0.259,-0.322l-0.257,-0.323l-0.257,-0.324l-0.255,-0.324l-0.254,-0.325l-0.253,-0.326l-0.252,-0.327l-0.251,-0.327l-0.25,-0.328l-0.25,-0.33l-0.247,-0.329l-0.247,-0.331l-0.246,-0.331l-0.245,-0.332l-0.243,-0.332l-0.243,-0.333l-0.241,-0.335l-0.241,-0.335l-0.239,-0.335l-0.238,-0.336l-0.238,-0.337l-0.236,-0.338l-0.235,-0.339l-0.234,-0.339l-0.233,-0.34l-0.231,-0.34l-0.231,-0.342l-0.23,-0.342l-0.228,-0.342l-0.228,-0.344l-0.226,-0.344l-0.225,-0.345l-0.224,-0.345l-0.223,-0.346l-0.222,-0.347l-0.221,-0.348l-0.22,-0.348l-0.219,-0.349l-0.217,-0.349l-0.216,-0.351l-0.216,-0.351l-0.214,-0.351l-0.213,-0.352l-0.212,-0.353l-0.211,-0.354l-0.21,-0.354l-0.208,-0.355l-0.208,-0.356l-0.206,-0.356l-0.206,-0.357l-0.204,-0.357l-0.203,-0.358l-0.202,-0.359l-0.2,-0.36l-0.2,-0.359l-0.199,-0.361l-0.197,-0.361l-0.196,-0.362l-0.195,-0.363l-0.194,-0.363l-0.193,-0.364l-0.192,-0.365l-0.19,-0.364l-0.19,-0.366l-0.188,-0.366l-0.187,-0.367l-0.186,-0.368l-0.185,-0.368l-0.184,-0.368l-0.182,-0.369l-0.182,-0.37l-0.18,-0.371l-0.179,-0.371l-0.178,-0.371l-0.177,-0.373l-0.175,-0.372l-0.174,-0.373l-0.174,-0.375l-0.172,-0.374l-0.171,-0.375l-0.17,-0.376l-0.168,-0.376l-0.168,-0.377l-0.166,-0.377l-0.165,-0.378l-0.164,-0.378l-0.163,-0.379l-0.161,-0.38l-0.161,-0.38l-0.159,-0.381l-0.158,-0.381l-0.157,-0.381l-0.155,-0.383l-0.155,-0.382l-0.153,-0.384l-0.152,-0.383l-0.151,-0.385l-0.15,-0.385l-0.148,-0.385l-0.147,-0.386l-0.146,-0.386l-0.145,-0.387l-0.144,-0.388l-0.143,-0.388l-0.141,-0.388l-0.14,-0.389l-0.139,-0.389l-0.137,-0.391l-0.137,-0.39l-0.135,-0.391l-0.134,-0.391l-0.133,-0.393l-0.132,-0.392l-0.13,-0.392l-0.129,-0.394l-0.128,-0.393l-0.127,-0.395l-0.125,-0.395l-0.125,-0.395l-0.123,-0.396l-0.122,-0.396l-0.12,-0.397l-0.119,-0.397l-0.119,-0.397l-0.116,-0.398l-0.116,-0.399l-0.115,-0.399l-0.113,-0.399l-0.112,-0.399l-0.11,-0.401l-0.11,-0.401l-0.108,-0.4l-0.107,-0.402l-0.106,-0.402l-0.104,-0.402l-0.103,-0.403l-0.103,-0.403l-0.1,-0.404l-0.1,-0.403l-0.098,-0.405l-0.097,-0.405l-0.096,-0.405l-0.094,-0.406l-0.093,-0.406l-0.092,-0.407l-0.091,-0.407l-0.089,-0.407l-0.088,-0.407l-0.087,-0.408l-0.086,-0.409l-0.084,-0.408l-0.083,-0.41l-0.082,-0.409l-0.08,-0.41l-0.079,-0.41l-0.078,-0.411l-0.077,-0.411l-0.075,-0.411l-0.074,-0.412l-0.073,-0.412l-0.072,-0.413l-0.07,-0.413l-0.069,-0.413l-0.067,-0.413l-0.067,-0.414l-0.065,-0.414l-0.064,-0.415l-0.062,-0.415l-0.061,-0.415l-0.06,-0.415l-0.058,-0.416l-0.058,-0.417l-0.056,-0.416l-0.054,-0.417l-0.054,-0.417l-0.052,-0.418l-0.05,-0.417l-0.05,-0.419l-0.048,-0.418l-0.047,-0.418l-0.045,-0.42l-0.044,-0.419l-0.043,-0.42l-0.041,-0.419l-0.041,-0.421l-0.038,-0.42l-0.038,-0.421l-0.036,-0.421l-0.035,-0.421l-0.034,-0.422l-0.032,-0.422l-0.031,-0.422l-0.029,-0.423l-0.028,-0.422l-0.027,-0.423l-0.026,-0.423l-0.024,-0.424l-0.023,-0.423l-0.021,-0.424l-0.021,-0.425l-0.018,-0.424l-0.018,-0.425l-0.016,-0.425l-0.015,-0.425l-0.013,-0.425l-0.012,-0.426l-0.011,-0.426l-0.009,-0.426l-0.008,-0.426l-0.007,-0.427l-0.005,-0.427l-0.004,-0.427l-0.003,-0.427l-0.001,-0.428l0,-0.427l0.002,-0.428l0.003,-0.428l0.004,-0.428l0.006,-0.429l0.007,-0.428l0.008,-0.429l0.01,-0.429l0.011,-0.43l0.012,-0.429l0.014,-0.429l0.016,-0.43l0.016,-0.43l0.018,-0.43l0.02,-0.431l0.02,-0.43l0.023,-0.431l0.023,-0.43l0.025,-0.431l0.027,-0.431l0.027,-0.432l0.029,-0.431l0.031,-0.432l0.032,-0.431l0.033,-0.432l0.035,-0.432l0.036,-0.432l0.038,-0.432l0.039,-0.433l0.04,-0.432l0.042,-0.433l0.043,-0.433l0.044,-0.432l0.046,-0.434l0.048,-0.432l0.049,-0.433l0.05,-0.434l0.051,-0.433l0.053,-0.434l0.055,-0.433l0.056,-0.435l0.057,-0.433l0.059,-0.434l0.06,-0.434l0.062,-0.434l0.063,-0.434l0.064,-0.434l0.066,-0.434l0.067,-0.435l0.069,-0.435l0.07,-0.434l0.072,-0.434l0.073,-0.435l0.074,-0.435l0.076,-0.435l0.077,-0.435l0.079,-0.435l0.08,-0.434l0.082,-0.435l0.083,-0.435l0.085,-0.436l0.086,-0.435l0.087,-0.434l0.089,-0.436l0.09,-0.435l0.092,-0.435l0.093,-0.435l0.095,-0.436l0.096,-0.435l0.098,-0.435l0.099,-0.436l0.1,-0.435l0.102,-0.435l0.104,-0.436l0.105,-0.435l0.106,-0.435l0.108,-0.435l0.109,-0.436l0.111,-0.435l0.112,-0.436l0.114,-0.435l0.115,-0.435l0.117,-0.435l0.118,-0.436l0.12,-0.435l0.121,-0.435l0.122,-0.435l0.124,-0.435l0.126,-0.435l0.127,-0.435l0.126,-0.428l7.852,-26.429l0.263,-0.759l0.329,-0.732l0.393,-0.7l0.454,-0.662l0.511,-0.619l0.564,-0.571l0.613,-0.518l0.657,-0.462l0.695,-0.401l0.729,-0.338l0.755,-0.272l0.777,-0.203l0.791,-0.133l0.801,-0.062l0.802,0.009Zm-8.356,35.408l-0.121,0.408l-0.119,0.407l-0.117,0.408l-0.117,0.408l-0.115,0.407l-0.113,0.408l-0.112,0.408l-0.111,0.408l-0.109,0.407l-0.108,0.408l-0.106,0.408l-0.105,0.407l-0.104,0.408l-0.103,0.407l-0.1,0.408l-0.1,0.408l-0.098,0.407l-0.097,0.408l-0.096,0.407l-0.094,0.408l-0.092,0.407l-0.092,0.407l-0.09,0.408l-0.088,0.407l-0.088,0.407l-0.085,0.407l-0.085,0.408l-0.083,0.407l-0.082,0.407l-0.08,0.407l-0.079,0.407l-0.078,0.406l-0.077,0.407l-0.075,0.407l-0.073,0.407l-0.073,0.406l-0.07,0.407l-0.07,0.406l-0.068,0.406l-0.067,0.407l-0.066,0.406l-0.064,0.406l-0.063,0.406l-0.062,0.406l-0.06,0.406l-0.059,0.405l-0.057,0.406l-0.056,0.406l-0.055,0.405l-0.054,0.405l-0.052,0.406l-0.051,0.405l-0.049,0.405l-0.049,0.404l-0.047,0.405l-0.045,0.405l-0.044,0.404l-0.043,0.405l-0.042,0.404l-0.04,0.404l-0.039,0.404l-0.038,0.404l-0.036,0.404l-0.035,0.403l-0.034,0.404l-0.033,0.403l-0.031,0.403l-0.03,0.403l-0.028,0.403l-0.027,0.403l-0.026,0.402l-0.025,0.403l-0.023,0.402l-0.022,0.402l-0.021,0.402l-0.019,0.402l-0.018,0.401l-0.017,0.401l-0.016,0.402l-0.014,0.401l-0.013,0.4l-0.012,0.401l-0.01,0.401l-0.009,0.4l-0.008,0.4l-0.006,0.4l-0.006,0.4l-0.004,0.399l-0.002,0.399l-0.002,0.4l0,0.398l0.001,0.399l0.003,0.399l0.003,0.398l0.005,0.398l0.006,0.398l0.008,0.397l0.009,0.398l0.01,0.397l0.011,0.397l0.012,0.397l0.014,0.396l0.015,0.397l0.016,0.396l0.018,0.395l0.019,0.396l0.02,0.395l0.021,0.395l0.023,0.395l0.024,0.395l0.025,0.394l0.026,0.394l0.027,0.394l0.029,0.393l0.03,0.394l0.031,0.393l0.033,0.392l0.034,0.393l0.035,0.392l0.036,0.392l0.037,0.392l0.039,0.391l0.04,0.391l0.041,0.391l0.042,0.391l0.044,0.39l0.045,0.39l0.046,0.389l0.047,0.39l0.049,0.389l0.049,0.389l0.051,0.388l0.052,0.388l0.054,0.388l0.054,0.388l0.056,0.387l0.057,0.387l0.058,0.386l0.06,0.387l0.06,0.386l0.062,0.385l0.063,0.386l0.064,0.385l0.066,0.384l0.066,0.384l0.068,0.384l0.069,0.384l0.07,0.383l0.072,0.383l0.072,0.383l0.074,0.382l0.075,0.382l0.076,0.382l0.077,0.381l0.079,0.381l0.08,0.38l0.081,0.38l0.082,0.38l0.083,0.379l0.084,0.379l0.086,0.379l0.087,0.378l0.088,0.378l0.089,0.378l0.09,0.377l0.092,0.377l0.092,0.376l0.094,0.376l0.095,0.375l0.096,0.376l0.098,0.374l0.098,0.375l0.1,0.374l0.101,0.373l0.102,0.374l0.103,0.372l0.104,0.373l0.105,0.372l0.107,0.371l0.108,0.371l0.109,0.371l0.11,0.37l0.111,0.37l0.112,0.369l0.114,0.369l0.114,0.369l0.116,0.368l0.117,0.368l0.118,0.367l0.119,0.367l0.12,0.366l0.122,0.366l0.122,0.365l0.124,0.365l0.125,0.365l0.126,0.364l0.127,0.364l0.128,0.363l0.129,0.363l0.131,0.362l0.132,0.362l0.132,0.361l0.134,0.361l0.135,0.36l0.136,0.36l0.137,0.359l0.139,0.359l0.139,0.359l0.14,0.358l0.142,0.357l0.143,0.357l0.144,0.356l0.145,0.356l0.146,0.356l0.147,0.355l0.148,0.354l0.149,0.354l0.151,0.354l0.151,0.353l0.153,0.352l0.154,0.352l0.155,0.351l0.155,0.351l0.157,0.35l0.159,0.35l0.159,0.35l0.16,0.348l0.161,0.349l0.163,0.347l0.163,0.347l0.165,0.347l0.166,0.346l0.166,0.345l0.168,0.345l0.169,0.345l0.17,0.344l0.171,0.343l0.172,0.343l0.173,0.342l0.175,0.342l0.175,0.341l0.176,0.34l0.178,0.34l0.178,0.339l0.18,0.339l0.181,0.338l0.181,0.338l0.183,0.337l0.184,0.337l0.185,0.335l0.186,0.336l0.187,0.334l0.188,0.334l0.189,0.334l0.19,0.333l0.191,0.332l0.192,0.332l0.193,0.331l0.195,0.331l0.195,0.329l0.196,0.33l0.198,0.328l0.198,0.328l0.2,0.328l0.2,0.327l0.202,0.326l0.202,0.325l0.204,0.325l0.205,0.324l0.205,0.324l0.207,0.323l0.208,0.322l0.208,0.322l0.21,0.321l0.211,0.321l0.212,0.32l0.213,0.319l0.213,0.318l0.215,0.318l0.216,0.317l0.217,0.317l0.218,0.315l0.219,0.316l0.219,0.314l0.221,0.314l0.222,0.313l0.223,0.313l0.224,0.312l0.225,0.311l0.226,0.31l0.227,0.31l0.228,0.309l0.228,0.308l0.23,0.308l0.231,0.307l0.232,0.306l0.233,0.306l0.234,0.305l0.235,0.304l0.235,0.304l0.237,0.302l0.238,0.303l0.239,0.301l0.239,0.301l0.241,0.299l0.242,0.3l0.242,0.298l0.244,0.298l0.245,0.297l0.245,0.296l0.247,0.296l0.247,0.295l0.249,0.294l0.249,0.293l0.251,0.293l0.251,0.292l0.252,0.291l0.254,0.29l0.254,0.29l0.255,0.289l0.256,0.288l0.257,0.287l0.258,0.287l0.259,0.286l0.26,0.285l0.261,0.284l0.262,0.283l0.263,0.283l0.264,0.282l0.264,0.281l0.266,0.281l0.267,0.279l0.267,0.279l0.269,0.278l0.269,0.278l0.27,0.276l0.272,0.276l0.272,0.275l0.273,0.274l0.274,0.273l0.275,0.273l0.276,0.271l0.277,0.271l0.277,0.27l0.279,0.269l0.28,0.269l0.28,0.267l0.282,0.267l0.282,0.266l0.283,0.265l0.285,0.265l0.285,0.263l0.286,0.263l0.287,0.261l0.287,0.261l0.289,0.261l0.29,0.259l0.29,0.258l0.292,0.258l0.292,0.257l0.293,0.255l0.295,0.255l0.295,0.255l0.296,0.253l0.296,0.252l0.298,0.252l0.299,0.251l0.299,0.25l0.301,0.248l0.301,0.249l0.302,0.247l0.303,0.246l0.304,0.246l0.305,0.244l0.306,0.244l0.306,0.243l0.308,0.242l0.308,0.241l0.309,0.24l0.31,0.239l0.311,0.238l0.312,0.238l0.313,0.236l0.313,0.236l0.315,0.235l0.315,0.233l0.316,0.233l0.317,0.232l0.318,0.231l0.319,0.23l0.32,0.229l0.32,0.229l0.321,0.227l0.323,0.226l0.323,0.226l0.323,0.224l0.325,0.224l0.326,0.223l0.326,0.221l0.327,0.221l0.329,0.22l0.329,0.219l0.329,0.218l0.331,0.217l0.332,0.216l0.332,0.215l0.333,0.214l0.334,0.213l0.335,0.212l0.335,0.211l0.337,0.21l0.337,0.209l0.338,0.209l0.339,0.207l0.34,0.206l0.341,0.205l0.341,0.205l0.343,0.203l0.343,0.202l0.344,0.202l0.344,0.2l0.346,0.199l0.346,0.199l0.347,0.197l0.348,0.196l0.349,0.196l0.35,0.194l0.35,0.193l0.351,0.192l0.352,0.192l0.353,0.19l0.354,0.189l0.354,0.188l0.355,0.187l0.356,0.186l0.357,0.186l0.358,0.184l0.358,0.183l0.359,0.182l0.36,0.18l0.361,0.18l0.362,0.179l0.362,0.178l0.363,0.177l0.364,0.175l0.365,0.175l0.365,0.174l0.367,0.172l0.367,0.171l0.367,0.171l0.369,0.169l0.369,0.168l0.371,0.168l0.37,0.166l0.372,0.165l0.373,0.164l0.373,0.162l0.374,0.162l0.374,0.161l0.376,0.159l0.376,0.159l0.377,0.157l0.378,0.157l0.379,0.155l0.379,0.154l0.38,0.153l0.381,0.152l0.381,0.15l0.383,0.15l0.383,0.149l0.384,0.147l0.384,0.146l0.385,0.145l0.386,0.145l0.387,0.142l0.388,0.142l0.388,0.141l0.389,0.139l0.39,0.139l0.39,0.137l0.391,0.136l0.392,0.135l0.393,0.134l0.393,0.133l0.395,0.131l0.394,0.131l0.396,0.129l0.396,0.128l0.397,0.127l0.398,0.126l0.399,0.124l0.399,0.124l0.4,0.122l0.4,0.121l0.402,0.12l0.402,0.118l0.402,0.118l0.404,0.116l0.404,0.116l0.405,0.113l0.405,0.113l0.407,0.112l0.407,0.11l0.407,0.11l0.409,0.108l0.409,0.106l0.41,0.106l0.41,0.104l0.411,0.104l0.412,0.102l0.413,0.1l0.413,0.1l26.807,6.413l7.85,-26.422l0.12,-0.408l0.119,-0.408l0.118,-0.407l0.116,-0.408l0.115,-0.408l0.113,-0.407l0.113,-0.408l0.11,-0.408l0.109,-0.407l0.108,-0.408l0.107,-0.408l0.105,-0.407l0.104,-0.408l0.102,-0.408l0.101,-0.407l0.1,-0.408l0.098,-0.407l0.097,-0.408l0.095,-0.407l0.094,-0.408l0.093,-0.407l0.091,-0.408l0.09,-0.407l0.089,-0.407l0.087,-0.407l0.086,-0.408l0.084,-0.407l0.084,-0.407l0.081,-0.407l0.081,-0.407l0.079,-0.407l0.078,-0.407l0.076,-0.406l0.075,-0.407l0.074,-0.407l0.072,-0.406l0.071,-0.407l0.07,-0.406l0.068,-0.407l0.067,-0.406l0.065,-0.406l0.065,-0.406l0.062,-0.406l0.062,-0.406l0.06,-0.406l0.059,-0.406l0.058,-0.405l0.056,-0.406l0.055,-0.405l0.053,-0.406l0.053,-0.405l0.05,-0.405l0.05,-0.405l0.048,-0.405l0.047,-0.404l0.046,-0.405l0.044,-0.405l0.043,-0.404l0.042,-0.404l0.04,-0.404l0.039,-0.404l0.038,-0.404l0.036,-0.404l0.035,-0.404l0.034,-0.403l0.032,-0.403l0.031,-0.403l0.03,-0.403l0.029,-0.403l0.027,-0.403l0.026,-0.402l0.024,-0.403l0.024,-0.402l0.022,-0.402l0.02,-0.402l0.02,-0.402l0.018,-0.401l0.017,-0.402l0.015,-0.401l0.014,-0.401l0.013,-0.401l0.012,-0.4l0.01,-0.401l0.01,-0.4l0.007,-0.4l0.007,-0.4l0.005,-0.4l0.004,-0.399l0.003,-0.4l0.001,-0.399l0,-0.399l-0.001,-0.398l-0.002,-0.399l-0.004,-0.398l-0.005,-0.398l-0.006,-0.398l-0.007,-0.398l-0.009,-0.397l-0.01,-0.397l-0.011,-0.397l-0.013,-0.397l-0.014,-0.397l-0.015,-0.396l-0.016,-0.396l-0.017,-0.396l-0.019,-0.395l-0.02,-0.396l-0.022,-0.395l-0.022,-0.394l-0.024,-0.395l-0.025,-0.394l-0.026,-0.394l-0.028,-0.394l-0.029,-0.394l-0.03,-0.393l-0.031,-0.393l-0.032,-0.393l-0.034,-0.392l-0.035,-0.392l-0.036,-0.392l-0.038,-0.392l-0.038,-0.391l-0.04,-0.392l-0.042,-0.39l-0.042,-0.391l-0.043,-0.39l-0.045,-0.39l-0.046,-0.39l-0.048,-0.389l-0.048,-0.389l-0.05,-0.389l-0.051,-0.388l-0.052,-0.389l-0.053,-0.387l-0.055,-0.388l-0.055,-0.387l-0.057,-0.387l-0.059,-0.387l-0.059,-0.386l-0.061,-0.386l-0.061,-0.386l-0.063,-0.385l-0.065,-0.385l-0.065,-0.384l-0.067,-0.385l-0.067,-0.384l-0.069,-0.383l-0.071,-0.384l-0.071,-0.383l-0.073,-0.382l-0.073,-0.382l-0.075,-0.382l-0.077,-0.382l-0.077,-0.381l-0.078,-0.381l-0.08,-0.38l-0.081,-0.381l-0.082,-0.379l-0.083,-0.38l-0.085,-0.379l-0.086,-0.378l-0.086,-0.379l-0.088,-0.377l-0.089,-0.378l-0.091,-0.377l-0.091,-0.377l-0.093,-0.376l-0.094,-0.376l-0.095,-0.376l-0.096,-0.375l-0.097,-0.375l-0.099,-0.374l-0.099,-0.374l-0.101,-0.374l-0.102,-0.373l-0.103,-0.373l-0.104,-0.372l-0.106,-0.372l-0.106,-0.371l-0.108,-0.371l-0.109,-0.371l-0.11,-0.37l-0.111,-0.37l-0.113,-0.37l-0.113,-0.369l-0.115,-0.368l-0.115,-0.368l-0.117,-0.368l-0.118,-0.367l-0.12,-0.367l-0.12,-0.366l-0.121,-0.366l-0.123,-0.366l-0.124,-0.365l-0.124,-0.364l-0.126,-0.364l-0.127,-0.364l-0.129,-0.363l-0.129,-0.363l-0.13,-0.362l-0.132,-0.362l-0.133,-0.361l-0.134,-0.361l-0.134,-0.36l-0.137,-0.36l-0.137,-0.36l-0.138,-0.358l-0.139,-0.359l-0.141,-0.358l-0.142,-0.357l-0.142,-0.357l-0.144,-0.357l-0.145,-0.356l-0.146,-0.355l-0.147,-0.355l-0.148,-0.355l-0.15,-0.353l-0.15,-0.354l-0.152,-0.353l-0.152,-0.352l-0.154,-0.352l-0.155,-0.352l-0.156,-0.35l-0.157,-0.351l-0.158,-0.35l-0.159,-0.349l-0.16,-0.349l-0.162,-0.348l-0.162,-0.347l-0.164,-0.348l-0.164,-0.346l-0.166,-0.346l-0.167,-0.346l-0.168,-0.345l-0.169,-0.344l-0.17,-0.344l-0.171,-0.343l-0.172,-0.343l-0.173,-0.342l-0.174,-0.342l-0.176,-0.341l-0.176,-0.34l-0.177,-0.34l-0.179,-0.34l-0.179,-0.338l-0.181,-0.339l-0.182,-0.337l-0.183,-0.337l-0.183,-0.337l-0.185,-0.336l-0.186,-0.335l-0.187,-0.335l-0.188,-0.334l-0.189,-0.333l-0.19,-0.333l-0.191,-0.332l-0.193,-0.332l-0.193,-0.331l-0.194,-0.331l-0.196,-0.33l-0.196,-0.329l-0.197,-0.329l-0.199,-0.328l-0.199,-0.327l-0.201,-0.327l-0.201,-0.326l-0.203,-0.326l-0.203,-0.324l-0.205,-0.325l-0.206,-0.323l-0.206,-0.323l-0.208,-0.323l-0.209,-0.321l-0.21,-0.322l-0.21,-0.32l-0.212,-0.32l-0.213,-0.319l-0.214,-0.318l-0.215,-0.318l-0.215,-0.317l-0.217,-0.317l-0.218,-0.316l-0.219,-0.315l-0.22,-0.314l-0.221,-0.314l-0.222,-0.313l-0.223,-0.313l-0.223,-0.312l-0.225,-0.311l-0.226,-0.31l-0.227,-0.31l-0.228,-0.309l-0.229,-0.309l-0.23,-0.307l-0.231,-0.307l-0.232,-0.307l-0.232,-0.305l-0.234,-0.305l-0.235,-0.304l-0.236,-0.304l-0.237,-0.303l-0.237,-0.302l-0.239,-0.301l-0.24,-0.301l-0.241,-0.3l-0.241,-0.299l-0.243,-0.298l-0.244,-0.298l-0.244,-0.297l-0.246,-0.297l-0.246,-0.295l-0.248,-0.295l-0.248,-0.294l-0.25,-0.293l-0.25,-0.293l-0.251,-0.292l-0.253,-0.291l-0.253,-0.29l-0.254,-0.29l-0.256,-0.289l-0.256,-0.288l-0.257,-0.287l-0.258,-0.287l-0.259,-0.286l-0.26,-0.285l-0.261,-0.284l-0.262,-0.284l-0.262,-0.282l-0.264,-0.282l-0.265,-0.282l-0.266,-0.28l-0.266,-0.28l-0.268,-0.279l-0.268,-0.278l-0.269,-0.277l-0.271,-0.276l-0.271,-0.276l-0.272,-0.275l-0.273,-0.274l-0.274,-0.273l-0.275,-0.273l-0.276,-0.271l-0.277,-0.271l-0.278,-0.27l-0.279,-0.27l-0.279,-0.268l-0.281,-0.268l-0.281,-0.266l-0.283,-0.266l-0.283,-0.265l-0.284,-0.265l-0.285,-0.263l-0.286,-0.263l-0.287,-0.262l-0.288,-0.261l-0.289,-0.26l-0.289,-0.259l-0.291,-0.258l-0.291,-0.258l-0.293,-0.257l-0.293,-0.256l-0.294,-0.255l-0.295,-0.254l-0.296,-0.253l-0.297,-0.253l-0.298,-0.251l-0.298,-0.251l-0.3,-0.25l-0.3,-0.249l-0.301,-0.248l-0.303,-0.247l-0.303,-0.246l-0.304,-0.246l-0.304,-0.244l-0.306,-0.244l-0.307,-0.243l-0.307,-0.242l-0.308,-0.241l-0.31,-0.24l-0.31,-0.239l-0.311,-0.239l-0.312,-0.237l-0.312,-0.236l-0.314,-0.236l-0.314,-0.235l-0.316,-0.234l-0.316,-0.232l-0.317,-0.232l-0.318,-0.231l-0.318,-0.23l-0.32,-0.23l-0.321,-0.228l-0.321,-0.227l-0.322,-0.227l-0.323,-0.225l-0.324,-0.225l-0.325,-0.223l-0.325,-0.223l-0.327,-0.222l-0.327,-0.22l-0.328,-0.22l-0.329,-0.219l-0.33,-0.218l-0.331,-0.217l-0.331,-0.216l-0.332,-0.215l-0.333,-0.214l-0.334,-0.213l-0.335,-0.212l-0.336,-0.211l-0.336,-0.21l-0.338,-0.21l-0.338,-0.208l-0.339,-0.207l-0.34,-0.206l-0.34,-0.206l-0.342,-0.204l-0.342,-0.203l-0.343,-0.203l-0.344,-0.201l-0.345,-0.2l-0.345,-0.2l-0.347,-0.198l-0.347,-0.197l-0.348,-0.196l-0.349,-0.196l-0.349,-0.194l-0.351,-0.193l-0.351,-0.193l-0.352,-0.191l-0.353,-0.19l-0.353,-0.189l-0.355,-0.188l-0.355,-0.188l-0.356,-0.186l-0.357,-0.185l-0.357,-0.184l-0.359,-0.183l-0.359,-0.182l-0.36,-0.181l-0.361,-0.18l-0.361,-0.178l-0.363,-0.178l-0.363,-0.177l-0.364,-0.176l-0.364,-0.174l-0.366,-0.174l-0.366,-0.172l-0.367,-0.172l-0.368,-0.17l-0.369,-0.169l-0.369,-0.169l-0.37,-0.167l-0.371,-0.166l-0.372,-0.165l-0.372,-0.164l-0.373,-0.163l-0.374,-0.161l-0.375,-0.161l-0.375,-0.16l-0.377,-0.158l-0.377,-0.157l-0.378,-0.157l-0.378,-0.155l-0.379,-0.154l-0.38,-0.153l-0.381,-0.152l-0.382,-0.151l-0.382,-0.149l-0.383,-0.149l-0.384,-0.147l-0.385,-0.147l-0.385,-0.145l-0.386,-0.144l-0.387,-0.143l-0.387,-0.142l-0.388,-0.14l-0.389,-0.14l-0.39,-0.138l-0.391,-0.137l-0.391,-0.136l-0.392,-0.135l-0.392,-0.134l-0.394,-0.133l-0.394,-0.131l-0.395,-0.131l-0.395,-0.129l-0.397,-0.128l-0.397,-0.127l-0.398,-0.126l-0.398,-0.124l-0.399,-0.124l-0.4,-0.122l-0.401,-0.121l-0.401,-0.12l-0.402,-0.119l-0.403,-0.117l-0.403,-0.117l-0.404,-0.115l-0.405,-0.114l-0.406,-0.113l-0.406,-0.111l-0.407,-0.111l-0.408,-0.109l-0.408,-0.108l-0.409,-0.107l-0.41,-0.105l-0.411,-0.105l-0.411,-0.103l-0.412,-0.102l-0.412,-0.101l-0.414,-0.099l-26.807,-6.413l-7.849,26.422Z" style="fill:#2b2b2b;"/></g><g id="center"><path d="M127.366,9.288c0,0 -9.592,9.592 -23.694,23.694c-62.394,62.394 -62.394,163.554 0,225.948c14.102,14.102 23.694,23.695 23.694,23.695c0,0 9.593,-9.593 23.695,-23.695c62.394,-62.394 62.394,-163.554 0,-225.948c-14.102,-14.102 -23.695,-23.694 -23.695,-23.694Z" style="fill:#87ff58;"/><clipPath id="_clip3"><path d="M127.366,9.288c0,0 -9.592,9.592 -23.694,23.694c-62.394,62.394 -62.394,163.554 0,225.948c14.102,14.102 23.694,23.695 23.694,23.695c0,0 9.593,-9.593 23.695,-23.695c62.394,-62.394 62.394,-163.554 0,-225.948c-14.102,-14.102 -23.695,-23.694 -23.695,-23.694Z"/></clipPath><g clip-path="url(#_clip3)"><rect x="44.906" y="-21.86" width="82.46" height="344.692" style="fill:#6bbe4a;"/><g><path d="M126.835,247.417l0,-215.502" style="fill:none;stroke:#50843b;stroke-width:5.19px;"/><g><path d="M127.366,85.44l17.7,-17.7" style="fill:none;stroke:#50843b;stroke-width:5px;"/><path d="M127.366,117.691l17.7,-17.7" style="fill:none;stroke:#50843b;stroke-width:5px;"/><path d="M127.366,148.516l17.7,-17.7" style="fill:none;stroke:#50843b;stroke-width:5px;"/><path d="M127.366,179.341l17.7,-17.7" style="fill:none;stroke:#50843b;stroke-width:5px;"/><path d="M127.366,210.166l17.7,-17.7" style="fill:none;stroke:#50843b;stroke-width:5px;"/><path d="M127.366,240.991l17.7,-17.7" style="fill:none;stroke:#50843b;stroke-width:5px;"/></g><g><path d="M127.366,85.44l-17.699,-17.7" style="fill:none;stroke:#50843b;stroke-width:5px;"/><path d="M127.366,117.691l-17.699,-17.7" style="fill:none;stroke:#50843b;stroke-width:5px;"/><path d="M127.366,148.516l-17.699,-17.7" style="fill:none;stroke:#50843b;stroke-width:5px;"/><path d="M127.366,179.341l-17.699,-17.7" style="fill:none;stroke:#50843b;stroke-width:5px;"/><path d="M127.366,210.166l-17.699,-17.7" style="fill:none;stroke:#50843b;stroke-width:5px;"/><path d="M127.366,240.991l-17.699,-17.7" style="fill:none;stroke:#50843b;stroke-width:5px;"/></g></g></g><path d="M136.925,0.981l2.278,1.655l23.699,23.7l0.38,0.381l0.384,0.387l0.382,0.388l0.38,0.389l0.379,0.39l0.378,0.391l0.376,0.392l0.375,0.393l0.372,0.393l0.372,0.395l0.37,0.395l0.369,0.397l0.367,0.397l0.365,0.398l0.364,0.4l0.363,0.4l0.361,0.401l0.36,0.401l0.358,0.403l0.356,0.404l0.355,0.404l0.354,0.405l0.352,0.407l0.351,0.407l0.349,0.407l0.347,0.409l0.346,0.41l0.345,0.41l0.343,0.412l0.342,0.412l0.34,0.413l0.338,0.413l0.338,0.415l0.335,0.415l0.334,0.417l0.333,0.417l0.331,0.418l0.329,0.419l0.328,0.419l0.327,0.42l0.325,0.422l0.324,0.421l0.322,0.423l0.32,0.424l0.319,0.424l0.318,0.425l0.316,0.426l0.315,0.426l0.313,0.428l0.311,0.428l0.31,0.429l0.309,0.43l0.307,0.43l0.305,0.431l0.304,0.432l0.303,0.433l0.301,0.433l0.299,0.434l0.298,0.435l0.297,0.436l0.295,0.436l0.294,0.437l0.291,0.438l0.291,0.438l0.289,0.439l0.287,0.44l0.286,0.441l0.285,0.441l0.283,0.442l0.281,0.442l0.28,0.444l0.278,0.443l0.277,0.445l0.276,0.446l0.274,0.446l0.272,0.446l0.271,0.448l0.269,0.448l0.268,0.448l0.267,0.45l0.264,0.45l0.264,0.45l0.261,0.451l0.261,0.452l0.259,0.453l0.257,0.453l0.256,0.454l0.254,0.454l0.253,0.455l0.251,0.456l0.25,0.456l0.248,0.457l0.247,0.457l0.245,0.458l0.244,0.459l0.242,0.459l0.241,0.46l0.239,0.46l0.238,0.461l0.236,0.462l0.235,0.462l0.233,0.462l0.231,0.463l0.231,0.464l0.228,0.465l0.227,0.465l0.226,0.465l0.224,0.466l0.223,0.467l0.221,0.467l0.219,0.467l0.219,0.468l0.216,0.469l0.215,0.469l0.213,0.469l0.212,0.471l0.211,0.471l0.209,0.471l0.208,0.471l0.206,0.473l0.204,0.473l0.203,0.472l0.201,0.474l0.2,0.475l0.199,0.474l0.197,0.476l0.195,0.475l0.194,0.476l0.193,0.477l0.19,0.477l0.19,0.477l0.188,0.478l0.186,0.478l0.185,0.479l0.183,0.48l0.182,0.479l0.18,0.48l0.179,0.481l0.177,0.481l0.176,0.481l0.174,0.482l0.173,0.483l0.172,0.483l0.169,0.482l0.168,0.483l0.167,0.484l0.166,0.485l0.163,0.485l0.162,0.484l0.161,0.486l0.159,0.486l0.158,0.486l0.156,0.487l0.155,0.487l0.153,0.488l0.152,0.487l0.15,0.488l0.148,0.489l0.147,0.489l0.146,0.488l0.144,0.49l0.143,0.491l0.141,0.489l0.139,0.49l0.138,0.492l0.137,0.491l0.135,0.491l0.133,0.492l0.132,0.493l0.131,0.492l0.129,0.492l0.127,0.494l0.126,0.493l0.125,0.493l0.123,0.495l0.121,0.495l0.12,0.494l0.118,0.495l0.117,0.495l0.116,0.495l0.114,0.496l0.112,0.496l0.111,0.496l0.109,0.497l0.108,0.497l0.107,0.497l0.104,0.497l0.104,0.497l0.102,0.498l0.1,0.498l0.099,0.498l0.097,0.499l0.096,0.499l0.094,0.499l0.093,0.498l0.091,0.5l0.09,0.5l0.088,0.5l0.087,0.5l0.085,0.499l0.084,0.501l0.082,0.501l0.081,0.501l0.079,0.501l0.077,0.501l0.076,0.501l0.075,0.502l0.073,0.502l0.072,0.501l0.07,0.503l0.069,0.502l0.067,0.502l0.065,0.503l0.064,0.502l0.063,0.504l0.061,0.502l0.06,0.504l0.058,0.503l0.056,0.503l0.055,0.504l0.054,0.504l0.052,0.503l0.051,0.505l0.049,0.504l0.047,0.504l0.046,0.504l0.045,0.505l0.043,0.504l0.041,0.505l0.04,0.504l0.038,0.505l0.037,0.505l0.036,0.505l0.034,0.505l0.032,0.505l0.031,0.506l0.029,0.505l0.028,0.505l0.027,0.505l0.025,0.507l0.023,0.505l0.022,0.505l0.02,0.506l0.019,0.505l0.017,0.506l0.016,0.506l0.015,0.506l0.012,0.506l0.012,0.506l0.009,0.506l0.009,0.506l0.007,0.506l0.005,0.505l0.004,0.506l0.002,0.506l0.001,0.506l-0.001,0.507l-0.002,0.506l-0.004,0.506l-0.005,0.505l-0.007,0.506l-0.009,0.506l-0.009,0.506l-0.012,0.506l-0.012,0.506l-0.015,0.506l-0.016,0.506l-0.017,0.506l-0.019,0.505l-0.02,0.506l-0.022,0.505l-0.023,0.505l-0.025,0.507l-0.027,0.505l-0.028,0.505l-0.029,0.505l-0.031,0.506l-0.032,0.505l-0.034,0.505l-0.036,0.505l-0.037,0.505l-0.038,0.505l-0.04,0.504l-0.041,0.505l-0.043,0.504l-0.045,0.505l-0.046,0.504l-0.047,0.504l-0.049,0.504l-0.051,0.505l-0.052,0.503l-0.054,0.504l-0.055,0.504l-0.056,0.503l-0.058,0.503l-0.06,0.504l-0.061,0.502l-0.063,0.504l-0.064,0.502l-0.065,0.503l-0.067,0.502l-0.069,0.502l-0.07,0.503l-0.072,0.501l-0.073,0.502l-0.075,0.502l-0.076,0.501l-0.077,0.501l-0.079,0.501l-0.081,0.501l-0.082,0.501l-0.084,0.501l-0.085,0.499l-0.087,0.5l-0.088,0.5l-0.09,0.5l-0.091,0.5l-0.093,0.498l-0.094,0.499l-0.096,0.499l-0.097,0.499l-0.099,0.498l-0.1,0.498l-0.102,0.498l-0.104,0.497l-0.104,0.497l-0.107,0.497l-0.108,0.497l-0.109,0.497l-0.111,0.496l-0.112,0.496l-0.114,0.496l-0.116,0.495l-0.117,0.495l-0.118,0.495l-0.12,0.494l-0.121,0.495l-0.123,0.494l-0.125,0.494l-0.126,0.493l-0.127,0.493l-0.129,0.493l-0.131,0.492l-0.132,0.493l-0.133,0.492l-0.135,0.491l-0.137,0.491l-0.138,0.491l-0.139,0.491l-0.141,0.49l-0.143,0.49l-0.144,0.49l-0.146,0.488l-0.147,0.489l-0.148,0.489l-0.15,0.487l-0.152,0.488l-0.153,0.488l-0.155,0.487l-0.156,0.487l-0.158,0.486l-0.159,0.486l-0.161,0.486l-0.162,0.484l-0.163,0.485l-0.166,0.484l-0.167,0.485l-0.168,0.483l-0.169,0.482l-0.171,0.483l-0.174,0.483l-0.174,0.482l-0.175,0.481l-0.178,0.481l-0.179,0.481l-0.18,0.48l-0.182,0.479l-0.183,0.48l-0.185,0.479l-0.186,0.478l-0.188,0.478l-0.19,0.477l-0.19,0.477l-0.193,0.477l-0.194,0.476l-0.195,0.475l-0.197,0.476l-0.199,0.474l-0.2,0.475l-0.201,0.473l-0.203,0.473l-0.204,0.473l-0.206,0.472l-0.208,0.472l-0.209,0.471l-0.211,0.471l-0.212,0.471l-0.213,0.469l-0.215,0.469l-0.216,0.469l-0.219,0.468l-0.219,0.467l-0.221,0.467l-0.223,0.467l-0.224,0.466l-0.226,0.465l-0.227,0.465l-0.228,0.465l-0.231,0.464l-0.231,0.463l-0.233,0.462l-0.235,0.462l-0.236,0.462l-0.238,0.461l-0.239,0.46l-0.241,0.46l-0.242,0.459l-0.244,0.459l-0.245,0.458l-0.247,0.457l-0.248,0.457l-0.25,0.456l-0.251,0.456l-0.253,0.455l-0.254,0.454l-0.256,0.454l-0.257,0.453l-0.259,0.453l-0.261,0.452l-0.261,0.451l-0.264,0.45l-0.264,0.45l-0.267,0.45l-0.268,0.448l-0.269,0.448l-0.271,0.448l-0.272,0.446l-0.274,0.446l-0.276,0.446l-0.277,0.444l-0.278,0.444l-0.28,0.444l-0.282,0.442l-0.282,0.442l-0.285,0.441l-0.286,0.441l-0.287,0.44l-0.289,0.439l-0.29,0.438l-0.292,0.438l-0.294,0.437l-0.295,0.436l-0.297,0.436l-0.298,0.435l-0.299,0.434l-0.301,0.433l-0.303,0.433l-0.304,0.432l-0.305,0.431l-0.307,0.43l-0.309,0.43l-0.31,0.429l-0.311,0.428l-0.313,0.428l-0.315,0.426l-0.316,0.426l-0.318,0.425l-0.319,0.424l-0.32,0.424l-0.322,0.423l-0.324,0.422l-0.325,0.421l-0.327,0.42l-0.327,0.419l-0.33,0.419l-0.331,0.418l-0.333,0.417l-0.334,0.417l-0.335,0.415l-0.338,0.415l-0.338,0.413l-0.34,0.413l-0.342,0.412l-0.343,0.412l-0.345,0.41l-0.346,0.41l-0.347,0.409l-0.349,0.407l-0.351,0.407l-0.352,0.407l-0.354,0.405l-0.355,0.404l-0.356,0.404l-0.358,0.403l-0.36,0.401l-0.361,0.401l-0.363,0.401l-0.364,0.398l-0.365,0.399l-0.367,0.397l-0.369,0.397l-0.37,0.395l-0.371,0.395l-0.373,0.393l-0.375,0.393l-0.376,0.392l-0.378,0.391l-0.379,0.39l-0.38,0.389l-0.382,0.388l-0.384,0.387l-0.38,0.381l-23.699,23.7l-2.278,1.655l-2.678,0.87l-2.816,0l-2.678,-0.87l-2.278,-1.655l-23.7,-23.7l-0.38,-0.381l-0.383,-0.387l-0.383,-0.388l-0.38,-0.389l-0.379,-0.39l-0.378,-0.391l-0.375,-0.392l-0.375,-0.393l-0.373,-0.393l-0.372,-0.395l-0.37,-0.396l-0.368,-0.396l-0.367,-0.397l-0.366,-0.399l-0.364,-0.399l-0.362,-0.4l-0.362,-0.401l-0.359,-0.401l-0.358,-0.403l-0.357,-0.404l-0.355,-0.404l-0.354,-0.405l-0.352,-0.407l-0.35,-0.407l-0.349,-0.408l-0.348,-0.408l-0.346,-0.41l-0.345,-0.41l-0.343,-0.412l-0.341,-0.412l-0.34,-0.413l-0.339,-0.413l-0.337,-0.415l-0.336,-0.416l-0.334,-0.416l-0.332,-0.417l-0.331,-0.418l-0.33,-0.419l-0.328,-0.419l-0.327,-0.42l-0.325,-0.421l-0.323,-0.422l-0.322,-0.423l-0.321,-0.424l-0.319,-0.424l-0.318,-0.425l-0.316,-0.426l-0.314,-0.426l-0.313,-0.428l-0.312,-0.428l-0.31,-0.429l-0.308,-0.43l-0.307,-0.43l-0.306,-0.431l-0.304,-0.432l-0.303,-0.433l-0.301,-0.433l-0.299,-0.434l-0.298,-0.435l-0.296,-0.436l-0.295,-0.436l-0.294,-0.437l-0.292,-0.438l-0.291,-0.438l-0.288,-0.439l-0.288,-0.44l-0.286,-0.441l-0.284,-0.441l-0.283,-0.442l-0.282,-0.442l-0.28,-0.444l-0.278,-0.444l-0.277,-0.444l-0.275,-0.446l-0.274,-0.446l-0.273,-0.446l-0.27,-0.448l-0.27,-0.448l-0.268,-0.449l-0.266,-0.449l-0.265,-0.45l-0.263,-0.45l-0.262,-0.452l-0.26,-0.451l-0.259,-0.453l-0.258,-0.453l-0.256,-0.454l-0.254,-0.454l-0.252,-0.455l-0.252,-0.456l-0.25,-0.456l-0.248,-0.457l-0.247,-0.457l-0.245,-0.458l-0.244,-0.459l-0.242,-0.459l-0.24,-0.46l-0.24,-0.46l-0.237,-0.461l-0.237,-0.462l-0.234,-0.462l-0.233,-0.462l-0.232,-0.464l-0.23,-0.463l-0.229,-0.464l-0.227,-0.465l-0.226,-0.466l-0.224,-0.466l-0.222,-0.467l-0.221,-0.467l-0.22,-0.467l-0.218,-0.468l-0.216,-0.469l-0.216,-0.469l-0.213,-0.47l-0.212,-0.47l-0.211,-0.471l-0.209,-0.471l-0.207,-0.472l-0.206,-0.472l-0.205,-0.472l-0.203,-0.474l-0.201,-0.474l-0.2,-0.474l-0.199,-0.474l-0.196,-0.476l-0.196,-0.475l-0.194,-0.476l-0.192,-0.477l-0.191,-0.477l-0.19,-0.477l-0.187,-0.478l-0.187,-0.478l-0.185,-0.479l-0.183,-0.479l-0.182,-0.48l-0.18,-0.48l-0.179,-0.481l-0.177,-0.481l-0.176,-0.481l-0.174,-0.482l-0.173,-0.483l-0.171,-0.482l-0.17,-0.483l-0.168,-0.484l-0.167,-0.484l-0.165,-0.484l-0.164,-0.485l-0.162,-0.485l-0.161,-0.485l-0.159,-0.486l-0.158,-0.487l-0.156,-0.486l-0.154,-0.487l-0.154,-0.488l-0.151,-0.487l-0.15,-0.488l-0.149,-0.489l-0.147,-0.489l-0.146,-0.489l-0.144,-0.489l-0.142,-0.49l-0.141,-0.49l-0.14,-0.491l-0.138,-0.491l-0.136,-0.491l-0.135,-0.492l-0.134,-0.491l-0.132,-0.492l-0.13,-0.493l-0.129,-0.493l-0.128,-0.493l-0.126,-0.493l-0.124,-0.494l-0.123,-0.494l-0.122,-0.494l-0.12,-0.495l-0.118,-0.495l-0.117,-0.495l-0.115,-0.495l-0.114,-0.496l-0.113,-0.496l-0.111,-0.496l-0.109,-0.497l-0.108,-0.496l-0.106,-0.498l-0.105,-0.497l-0.103,-0.497l-0.102,-0.498l-0.1,-0.498l-0.099,-0.498l-0.098,-0.499l-0.095,-0.499l-0.094,-0.498l-0.093,-0.5l-0.092,-0.499l-0.089,-0.5l-0.088,-0.499l-0.087,-0.5l-0.085,-0.501l-0.084,-0.5l-0.082,-0.501l-0.081,-0.501l-0.079,-0.501l-0.078,-0.501l-0.076,-0.501l-0.075,-0.502l-0.073,-0.502l-0.072,-0.502l-0.07,-0.502l-0.068,-0.502l-0.067,-0.502l-0.066,-0.503l-0.064,-0.503l-0.063,-0.503l-0.061,-0.502l-0.059,-0.504l-0.058,-0.503l-0.057,-0.503l-0.055,-0.504l-0.054,-0.504l-0.052,-0.504l-0.05,-0.504l-0.049,-0.504l-0.048,-0.504l-0.046,-0.504l-0.044,-0.505l-0.043,-0.504l-0.042,-0.505l-0.04,-0.505l-0.038,-0.504l-0.037,-0.505l-0.035,-0.505l-0.034,-0.505l-0.033,-0.505l-0.031,-0.506l-0.029,-0.505l-0.028,-0.505l-0.026,-0.506l-0.025,-0.505l-0.024,-0.506l-0.021,-0.505l-0.021,-0.506l-0.019,-0.505l-0.017,-0.506l-0.016,-0.507l-0.014,-0.505l-0.013,-0.506l-0.011,-0.506l-0.01,-0.506l-0.008,-0.506l-0.007,-0.506l-0.005,-0.505l-0.004,-0.507l-0.002,-0.505l-0.001,-0.507l0.001,-0.506l0.002,-0.505l0.004,-0.507l0.005,-0.505l0.007,-0.506l0.008,-0.506l0.01,-0.506l0.011,-0.506l0.013,-0.506l0.014,-0.505l0.016,-0.507l0.017,-0.506l0.019,-0.505l0.021,-0.506l0.021,-0.505l0.024,-0.506l0.025,-0.505l0.026,-0.506l0.028,-0.505l0.029,-0.505l0.031,-0.506l0.033,-0.505l0.034,-0.505l0.035,-0.505l0.037,-0.505l0.038,-0.504l0.04,-0.505l0.042,-0.505l0.043,-0.504l0.044,-0.505l0.046,-0.504l0.048,-0.504l0.049,-0.504l0.05,-0.504l0.052,-0.504l0.054,-0.504l0.055,-0.504l0.057,-0.503l0.058,-0.503l0.059,-0.504l0.061,-0.502l0.063,-0.503l0.064,-0.503l0.066,-0.503l0.067,-0.502l0.068,-0.502l0.07,-0.502l0.072,-0.502l0.073,-0.502l0.075,-0.502l0.076,-0.501l0.078,-0.501l0.079,-0.501l0.081,-0.501l0.082,-0.501l0.084,-0.5l0.085,-0.501l0.087,-0.5l0.088,-0.499l0.089,-0.5l0.092,-0.499l0.093,-0.5l0.094,-0.498l0.095,-0.499l0.098,-0.499l0.099,-0.498l0.1,-0.498l0.102,-0.498l0.103,-0.497l0.105,-0.497l0.106,-0.498l0.108,-0.496l0.109,-0.497l0.111,-0.496l0.113,-0.496l0.114,-0.496l0.115,-0.495l0.117,-0.495l0.118,-0.495l0.12,-0.495l0.122,-0.494l0.123,-0.494l0.124,-0.494l0.126,-0.493l0.128,-0.493l0.129,-0.493l0.13,-0.493l0.132,-0.492l0.134,-0.491l0.135,-0.492l0.136,-0.491l0.138,-0.491l0.14,-0.491l0.141,-0.49l0.142,-0.49l0.144,-0.489l0.146,-0.489l0.147,-0.489l0.149,-0.489l0.15,-0.488l0.151,-0.487l0.154,-0.488l0.154,-0.487l0.156,-0.486l0.158,-0.487l0.159,-0.486l0.161,-0.485l0.162,-0.485l0.164,-0.485l0.165,-0.484l0.167,-0.484l0.168,-0.484l0.17,-0.483l0.171,-0.482l0.173,-0.483l0.174,-0.482l0.176,-0.481l0.177,-0.481l0.179,-0.481l0.18,-0.48l0.182,-0.48l0.184,-0.479l0.184,-0.479l0.187,-0.478l0.188,-0.478l0.189,-0.477l0.191,-0.477l0.192,-0.477l0.194,-0.476l0.196,-0.475l0.196,-0.476l0.199,-0.474l0.2,-0.474l0.201,-0.474l0.203,-0.474l0.205,-0.472l0.206,-0.473l0.207,-0.471l0.209,-0.471l0.211,-0.471l0.212,-0.47l0.213,-0.47l0.216,-0.469l0.216,-0.469l0.218,-0.468l0.22,-0.467l0.221,-0.467l0.222,-0.467l0.224,-0.466l0.226,-0.466l0.227,-0.465l0.229,-0.464l0.23,-0.463l0.232,-0.464l0.233,-0.462l0.234,-0.462l0.237,-0.462l0.237,-0.461l0.24,-0.46l0.24,-0.46l0.242,-0.459l0.244,-0.459l0.245,-0.458l0.247,-0.457l0.249,-0.457l0.249,-0.456l0.252,-0.456l0.252,-0.455l0.255,-0.454l0.255,-0.454l0.258,-0.453l0.259,-0.453l0.26,-0.451l0.262,-0.452l0.263,-0.45l0.265,-0.45l0.266,-0.449l0.268,-0.449l0.27,-0.448l0.27,-0.448l0.273,-0.446l0.274,-0.446l0.275,-0.446l0.277,-0.444l0.278,-0.444l0.28,-0.444l0.282,-0.442l0.283,-0.442l0.284,-0.441l0.286,-0.441l0.288,-0.44l0.288,-0.439l0.291,-0.438l0.292,-0.438l0.293,-0.437l0.295,-0.436l0.297,-0.436l0.298,-0.435l0.299,-0.434l0.301,-0.433l0.303,-0.433l0.304,-0.432l0.306,-0.431l0.307,-0.43l0.308,-0.43l0.31,-0.429l0.312,-0.428l0.313,-0.428l0.314,-0.426l0.316,-0.426l0.318,-0.425l0.319,-0.424l0.321,-0.424l0.322,-0.423l0.323,-0.421l0.325,-0.422l0.327,-0.42l0.328,-0.42l0.329,-0.418l0.332,-0.418l0.332,-0.417l0.334,-0.416l0.336,-0.416l0.337,-0.415l0.339,-0.413l0.34,-0.413l0.341,-0.412l0.343,-0.412l0.345,-0.41l0.346,-0.41l0.348,-0.408l0.349,-0.408l0.35,-0.408l0.352,-0.406l0.354,-0.405l0.355,-0.405l0.357,-0.403l0.358,-0.403l0.359,-0.401l0.362,-0.401l0.362,-0.4l0.364,-0.4l0.366,-0.398l0.367,-0.397l0.368,-0.396l0.37,-0.396l0.372,-0.395l0.373,-0.393l0.374,-0.393l0.376,-0.392l0.378,-0.391l0.379,-0.39l0.381,-0.389l0.382,-0.388l0.383,-0.387l0.38,-0.381l23.7,-23.7l2.278,-1.655l2.678,-0.87l2.816,0l2.678,0.87Zm-27.781,31.714l-0.365,0.366l-0.363,0.367l-0.362,0.367l-0.361,0.369l-0.359,0.37l-0.358,0.37l-0.356,0.371l-0.355,0.372l-0.353,0.373l-0.352,0.374l-0.351,0.375l-0.349,0.376l-0.348,0.376l-0.346,0.377l-0.345,0.378l-0.344,0.379l-0.342,0.38l-0.34,0.381l-0.339,0.381l-0.338,0.382l-0.336,0.383l-0.335,0.384l-0.334,0.385l-0.332,0.385l-0.33,0.387l-0.33,0.387l-0.327,0.388l-0.327,0.388l-0.324,0.39l-0.324,0.39l-0.322,0.391l-0.321,0.392l-0.319,0.392l-0.318,0.394l-0.316,0.394l-0.315,0.395l-0.313,0.396l-0.312,0.396l-0.311,0.397l-0.309,0.398l-0.308,0.399l-0.306,0.399l-0.305,0.4l-0.303,0.401l-0.302,0.402l-0.301,0.402l-0.299,0.403l-0.298,0.404l-0.296,0.405l-0.295,0.405l-0.294,0.406l-0.292,0.407l-0.29,0.407l-0.29,0.408l-0.287,0.409l-0.287,0.409l-0.285,0.411l-0.283,0.41l-0.282,0.412l-0.281,0.412l-0.279,0.413l-0.278,0.414l-0.276,0.414l-0.275,0.415l-0.273,0.416l-0.272,0.416l-0.271,0.417l-0.269,0.417l-0.268,0.419l-0.266,0.419l-0.265,0.419l-0.264,0.42l-0.262,0.421l-0.26,0.422l-0.26,0.422l-0.257,0.422l-0.257,0.424l-0.255,0.424l-0.253,0.424l-0.252,0.425l-0.251,0.426l-0.249,0.426l-0.248,0.427l-0.246,0.428l-0.245,0.428l-0.243,0.429l-0.243,0.429l-0.24,0.43l-0.239,0.431l-0.238,0.431l-0.237,0.432l-0.234,0.432l-0.234,0.433l-0.232,0.433l-0.231,0.434l-0.229,0.435l-0.228,0.435l-0.226,0.435l-0.225,0.437l-0.223,0.436l-0.222,0.438l-0.221,0.437l-0.219,0.439l-0.218,0.439l-0.216,0.439l-0.215,0.44l-0.214,0.44l-0.212,0.441l-0.211,0.442l-0.209,0.442l-0.208,0.442l-0.206,0.443l-0.205,0.444l-0.203,0.444l-0.202,0.444l-0.201,0.445l-0.199,0.445l-0.198,0.446l-0.196,0.447l-0.195,0.447l-0.194,0.447l-0.192,0.448l-0.191,0.448l-0.189,0.449l-0.188,0.449l-0.186,0.45l-0.185,0.45l-0.183,0.45l-0.182,0.451l-0.181,0.452l-0.179,0.451l-0.178,0.453l-0.177,0.453l-0.174,0.453l-0.174,0.453l-0.172,0.454l-0.171,0.455l-0.169,0.454l-0.168,0.456l-0.166,0.455l-0.165,0.456l-0.164,0.457l-0.162,0.457l-0.16,0.457l-0.16,0.458l-0.157,0.458l-0.157,0.458l-0.155,0.459l-0.153,0.459l-0.152,0.459l-0.151,0.46l-0.149,0.46l-0.148,0.461l-0.146,0.461l-0.145,0.461l-0.144,0.462l-0.142,0.462l-0.141,0.462l-0.139,0.463l-0.138,0.463l-0.136,0.463l-0.135,0.464l-0.134,0.464l-0.132,0.464l-0.13,0.465l-0.13,0.465l-0.127,0.465l-0.127,0.466l-0.125,0.466l-0.123,0.466l-0.122,0.466l-0.121,0.467l-0.119,0.467l-0.118,0.468l-0.116,0.467l-0.115,0.468l-0.114,0.469l-0.112,0.468l-0.111,0.469l-0.109,0.469l-0.108,0.469l-0.106,0.47l-0.105,0.469l-0.104,0.47l-0.102,0.471l-0.1,0.47l-0.1,0.471l-0.098,0.471l-0.096,0.471l-0.095,0.472l-0.093,0.472l-0.093,0.472l-0.09,0.472l-0.089,0.472l-0.088,0.473l-0.087,0.473l-0.085,0.473l-0.083,0.473l-0.082,0.473l-0.081,0.474l-0.079,0.474l-0.078,0.474l-0.077,0.474l-0.074,0.474l-0.074,0.475l-0.072,0.475l-0.071,0.475l-0.069,0.475l-0.068,0.475l-0.066,0.475l-0.065,0.476l-0.064,0.476l-0.062,0.475l-0.061,0.476l-0.059,0.477l-0.058,0.476l-0.056,0.476l-0.055,0.477l-0.054,0.477l-0.052,0.477l-0.051,0.477l-0.049,0.477l-0.048,0.477l-0.046,0.477l-0.045,0.478l-0.044,0.477l-0.042,0.478l-0.04,0.478l-0.04,0.477l-0.038,0.478l-0.036,0.478l-0.035,0.479l-0.034,0.478l-0.032,0.478l-0.03,0.478l-0.03,0.479l-0.027,0.478l-0.027,0.479l-0.025,0.479l-0.023,0.478l-0.023,0.479l-0.02,0.479l-0.02,0.479l-0.017,0.479l-0.017,0.478l-0.015,0.479l-0.013,0.479l-0.013,0.479l-0.01,0.48l-0.01,0.479l-0.007,0.479l-0.007,0.479l-0.005,0.479l-0.003,0.479l-0.003,0.479l0,0.479l0,0.48l0.003,0.479l0.003,0.479l0.005,0.479l0.007,0.479l0.007,0.479l0.01,0.479l0.01,0.479l0.013,0.48l0.013,0.479l0.015,0.478l0.017,0.479l0.017,0.479l0.02,0.479l0.02,0.479l0.023,0.479l0.023,0.478l0.025,0.479l0.027,0.479l0.027,0.478l0.03,0.479l0.03,0.478l0.032,0.478l0.034,0.478l0.035,0.479l0.036,0.478l0.038,0.477l0.04,0.478l0.04,0.478l0.042,0.478l0.044,0.477l0.045,0.478l0.046,0.477l0.048,0.477l0.049,0.477l0.051,0.477l0.052,0.477l0.054,0.477l0.055,0.477l0.056,0.476l0.058,0.476l0.059,0.476l0.061,0.477l0.062,0.475l0.064,0.476l0.065,0.476l0.066,0.475l0.068,0.475l0.069,0.475l0.071,0.475l0.072,0.475l0.074,0.475l0.074,0.474l0.077,0.474l0.078,0.474l0.079,0.474l0.081,0.474l0.082,0.473l0.083,0.473l0.085,0.473l0.087,0.473l0.088,0.473l0.089,0.472l0.09,0.472l0.093,0.472l0.093,0.472l0.095,0.472l0.096,0.471l0.098,0.471l0.1,0.471l0.1,0.47l0.102,0.471l0.104,0.47l0.105,0.469l0.106,0.47l0.108,0.469l0.109,0.469l0.111,0.469l0.112,0.468l0.114,0.469l0.115,0.468l0.116,0.467l0.118,0.468l0.119,0.467l0.121,0.466l0.122,0.467l0.123,0.466l0.125,0.466l0.127,0.466l0.127,0.465l0.13,0.465l0.13,0.465l0.132,0.464l0.134,0.464l0.135,0.464l0.136,0.463l0.138,0.463l0.139,0.463l0.141,0.462l0.142,0.462l0.144,0.462l0.145,0.461l0.146,0.461l0.148,0.461l0.149,0.46l0.151,0.46l0.152,0.459l0.153,0.459l0.155,0.459l0.157,0.458l0.157,0.458l0.16,0.458l0.16,0.457l0.162,0.457l0.164,0.457l0.165,0.456l0.166,0.455l0.168,0.455l0.169,0.455l0.171,0.455l0.172,0.454l0.174,0.453l0.174,0.453l0.177,0.453l0.178,0.452l0.179,0.452l0.181,0.452l0.182,0.451l0.183,0.45l0.185,0.45l0.186,0.45l0.188,0.449l0.189,0.449l0.191,0.448l0.192,0.448l0.194,0.447l0.195,0.447l0.196,0.447l0.198,0.446l0.199,0.445l0.201,0.445l0.202,0.444l0.203,0.444l0.205,0.444l0.206,0.443l0.208,0.442l0.209,0.442l0.211,0.442l0.212,0.441l0.214,0.44l0.215,0.44l0.216,0.439l0.218,0.439l0.219,0.439l0.221,0.437l0.222,0.438l0.223,0.436l0.225,0.437l0.226,0.435l0.228,0.435l0.229,0.435l0.231,0.434l0.232,0.433l0.234,0.433l0.234,0.432l0.237,0.432l0.238,0.431l0.239,0.431l0.24,0.43l0.243,0.429l0.243,0.429l0.245,0.428l0.246,0.428l0.248,0.427l0.249,0.426l0.251,0.426l0.252,0.425l0.253,0.424l0.255,0.424l0.257,0.424l0.257,0.422l0.26,0.422l0.26,0.422l0.262,0.421l0.264,0.42l0.265,0.419l0.266,0.419l0.268,0.419l0.269,0.417l0.271,0.417l0.272,0.416l0.273,0.416l0.275,0.415l0.276,0.414l0.278,0.414l0.279,0.413l0.281,0.412l0.282,0.411l0.283,0.411l0.285,0.411l0.287,0.409l0.287,0.409l0.29,0.408l0.29,0.407l0.292,0.407l0.294,0.406l0.295,0.405l0.296,0.405l0.298,0.404l0.299,0.403l0.301,0.402l0.302,0.402l0.303,0.401l0.305,0.4l0.306,0.399l0.308,0.399l0.309,0.398l0.311,0.397l0.312,0.396l0.313,0.396l0.315,0.395l0.316,0.394l0.318,0.394l0.319,0.392l0.321,0.392l0.322,0.391l0.324,0.39l0.324,0.39l0.327,0.388l0.327,0.388l0.33,0.387l0.33,0.387l0.332,0.385l0.334,0.385l0.335,0.384l0.336,0.383l0.338,0.382l0.339,0.381l0.34,0.381l0.342,0.38l0.344,0.379l0.345,0.378l0.346,0.377l0.348,0.376l0.349,0.376l0.351,0.375l0.352,0.374l0.353,0.373l0.355,0.372l0.356,0.371l0.358,0.37l0.359,0.37l0.361,0.369l0.362,0.367l0.363,0.367l0.365,0.366l23.695,23.695l23.694,-23.695l0.365,-0.366l0.364,-0.367l0.362,-0.367l0.36,-0.369l0.359,-0.37l0.358,-0.37l0.356,-0.371l0.355,-0.372l0.354,-0.373l0.352,-0.374l0.35,-0.375l0.35,-0.376l0.347,-0.376l0.347,-0.377l0.345,-0.378l0.343,-0.379l0.342,-0.38l0.341,-0.381l0.339,-0.381l0.337,-0.382l0.337,-0.383l0.335,-0.384l0.333,-0.385l0.332,-0.385l0.331,-0.387l0.329,-0.387l0.328,-0.388l0.326,-0.388l0.325,-0.39l0.323,-0.39l0.322,-0.391l0.321,-0.392l0.319,-0.392l0.318,-0.394l0.316,-0.394l0.315,-0.395l0.314,-0.396l0.312,-0.396l0.31,-0.397l0.309,-0.398l0.308,-0.399l0.306,-0.399l0.305,-0.4l0.304,-0.401l0.302,-0.402l0.3,-0.402l0.3,-0.403l0.297,-0.404l0.297,-0.405l0.295,-0.405l0.293,-0.406l0.292,-0.407l0.291,-0.407l0.289,-0.408l0.288,-0.409l0.286,-0.409l0.285,-0.411l0.283,-0.411l0.282,-0.411l0.281,-0.412l0.279,-0.413l0.278,-0.414l0.276,-0.414l0.275,-0.415l0.274,-0.416l0.272,-0.416l0.27,-0.417l0.27,-0.417l0.267,-0.419l0.267,-0.419l0.265,-0.419l0.263,-0.42l0.262,-0.421l0.261,-0.422l0.259,-0.422l0.258,-0.422l0.256,-0.424l0.255,-0.424l0.253,-0.424l0.253,-0.425l0.25,-0.426l0.249,-0.426l0.248,-0.427l0.246,-0.428l0.245,-0.428l0.244,-0.429l0.242,-0.429l0.241,-0.43l0.239,-0.431l0.238,-0.431l0.236,-0.432l0.235,-0.432l0.233,-0.433l0.232,-0.433l0.231,-0.434l0.229,-0.435l0.228,-0.435l0.226,-0.435l0.225,-0.437l0.224,-0.436l0.222,-0.438l0.22,-0.437l0.22,-0.439l0.217,-0.439l0.217,-0.439l0.215,-0.44l0.213,-0.44l0.212,-0.441l0.211,-0.442l0.209,-0.442l0.208,-0.442l0.206,-0.443l0.205,-0.444l0.204,-0.444l0.202,-0.444l0.2,-0.445l0.2,-0.445l0.197,-0.446l0.197,-0.447l0.195,-0.447l0.193,-0.447l0.192,-0.448l0.191,-0.448l0.189,-0.449l0.188,-0.449l0.186,-0.45l0.185,-0.45l0.184,-0.45l0.182,-0.451l0.181,-0.452l0.179,-0.452l0.178,-0.452l0.176,-0.453l0.175,-0.453l0.173,-0.453l0.172,-0.454l0.171,-0.455l0.169,-0.455l0.168,-0.455l0.167,-0.455l0.164,-0.456l0.164,-0.457l0.162,-0.457l0.161,-0.457l0.159,-0.458l0.158,-0.458l0.156,-0.458l0.155,-0.459l0.154,-0.459l0.152,-0.459l0.15,-0.46l0.15,-0.46l0.147,-0.461l0.147,-0.461l0.145,-0.461l0.143,-0.462l0.142,-0.462l0.141,-0.462l0.139,-0.463l0.138,-0.463l0.136,-0.463l0.135,-0.464l0.134,-0.464l0.132,-0.464l0.131,-0.465l0.129,-0.465l0.128,-0.465l0.126,-0.466l0.125,-0.466l0.124,-0.466l0.122,-0.467l0.12,-0.466l0.12,-0.467l0.117,-0.468l0.117,-0.467l0.115,-0.468l0.113,-0.469l0.112,-0.468l0.111,-0.469l0.109,-0.469l0.108,-0.469l0.107,-0.47l0.105,-0.469l0.103,-0.47l0.102,-0.471l0.101,-0.47l0.099,-0.471l0.098,-0.471l0.096,-0.471l0.095,-0.472l0.094,-0.472l0.092,-0.472l0.091,-0.472l0.089,-0.472l0.088,-0.473l0.086,-0.473l0.085,-0.473l0.084,-0.473l0.082,-0.473l0.08,-0.474l0.08,-0.474l0.078,-0.474l0.076,-0.474l0.075,-0.474l0.073,-0.475l0.073,-0.475l0.07,-0.475l0.069,-0.475l0.068,-0.475l0.067,-0.475l0.065,-0.476l0.063,-0.476l0.062,-0.475l0.061,-0.477l0.059,-0.476l0.058,-0.476l0.057,-0.476l0.055,-0.477l0.053,-0.477l0.052,-0.477l0.051,-0.477l0.049,-0.477l0.048,-0.477l0.046,-0.477l0.045,-0.478l0.044,-0.477l0.042,-0.478l0.041,-0.478l0.039,-0.478l0.038,-0.477l0.036,-0.478l0.035,-0.479l0.034,-0.478l0.032,-0.478l0.031,-0.478l0.029,-0.479l0.028,-0.478l0.026,-0.479l0.025,-0.479l0.024,-0.478l0.022,-0.479l0.021,-0.479l0.019,-0.479l0.018,-0.479l0.016,-0.479l0.015,-0.478l0.014,-0.479l0.012,-0.48l0.011,-0.479l0.009,-0.479l0.008,-0.479l0.006,-0.479l0.005,-0.479l0.004,-0.479l0.002,-0.479l0.001,-0.48l-0.001,-0.479l-0.002,-0.479l-0.004,-0.479l-0.005,-0.479l-0.006,-0.479l-0.008,-0.479l-0.009,-0.479l-0.011,-0.48l-0.012,-0.479l-0.014,-0.479l-0.015,-0.479l-0.016,-0.478l-0.018,-0.479l-0.019,-0.479l-0.021,-0.479l-0.022,-0.479l-0.024,-0.478l-0.025,-0.479l-0.026,-0.479l-0.028,-0.478l-0.029,-0.479l-0.031,-0.478l-0.032,-0.478l-0.034,-0.478l-0.035,-0.479l-0.036,-0.478l-0.038,-0.478l-0.039,-0.477l-0.041,-0.478l-0.042,-0.478l-0.044,-0.477l-0.045,-0.478l-0.046,-0.477l-0.048,-0.477l-0.049,-0.477l-0.051,-0.477l-0.052,-0.477l-0.053,-0.477l-0.055,-0.477l-0.057,-0.476l-0.058,-0.476l-0.059,-0.477l-0.061,-0.476l-0.062,-0.475l-0.063,-0.476l-0.065,-0.476l-0.067,-0.475l-0.068,-0.475l-0.069,-0.475l-0.07,-0.475l-0.073,-0.475l-0.073,-0.475l-0.075,-0.474l-0.076,-0.474l-0.078,-0.474l-0.08,-0.474l-0.08,-0.474l-0.082,-0.473l-0.084,-0.473l-0.085,-0.473l-0.086,-0.473l-0.088,-0.473l-0.089,-0.472l-0.091,-0.472l-0.092,-0.472l-0.094,-0.472l-0.095,-0.472l-0.096,-0.471l-0.098,-0.471l-0.099,-0.471l-0.101,-0.47l-0.102,-0.471l-0.103,-0.47l-0.105,-0.469l-0.107,-0.47l-0.108,-0.469l-0.109,-0.469l-0.111,-0.469l-0.112,-0.468l-0.113,-0.469l-0.115,-0.468l-0.117,-0.467l-0.117,-0.468l-0.12,-0.467l-0.12,-0.467l-0.122,-0.466l-0.124,-0.466l-0.125,-0.466l-0.126,-0.466l-0.128,-0.465l-0.129,-0.465l-0.131,-0.465l-0.132,-0.464l-0.134,-0.464l-0.135,-0.464l-0.136,-0.463l-0.138,-0.463l-0.139,-0.463l-0.141,-0.462l-0.142,-0.462l-0.143,-0.462l-0.145,-0.461l-0.147,-0.461l-0.147,-0.461l-0.15,-0.46l-0.15,-0.46l-0.152,-0.459l-0.154,-0.459l-0.155,-0.459l-0.156,-0.458l-0.158,-0.458l-0.159,-0.458l-0.161,-0.457l-0.162,-0.457l-0.164,-0.457l-0.164,-0.456l-0.167,-0.455l-0.168,-0.456l-0.169,-0.454l-0.171,-0.455l-0.172,-0.454l-0.173,-0.453l-0.175,-0.453l-0.176,-0.453l-0.178,-0.453l-0.179,-0.451l-0.181,-0.452l-0.182,-0.451l-0.184,-0.45l-0.185,-0.45l-0.186,-0.45l-0.188,-0.449l-0.189,-0.449l-0.191,-0.448l-0.192,-0.448l-0.193,-0.447l-0.195,-0.447l-0.197,-0.447l-0.197,-0.446l-0.2,-0.445l-0.2,-0.445l-0.202,-0.444l-0.204,-0.444l-0.205,-0.444l-0.206,-0.443l-0.208,-0.442l-0.209,-0.442l-0.211,-0.442l-0.212,-0.441l-0.213,-0.44l-0.215,-0.44l-0.217,-0.439l-0.217,-0.439l-0.22,-0.439l-0.22,-0.437l-0.222,-0.438l-0.224,-0.436l-0.225,-0.437l-0.226,-0.435l-0.228,-0.435l-0.229,-0.435l-0.231,-0.434l-0.232,-0.433l-0.233,-0.433l-0.235,-0.432l-0.236,-0.432l-0.238,-0.431l-0.239,-0.431l-0.241,-0.43l-0.242,-0.429l-0.244,-0.429l-0.245,-0.428l-0.246,-0.428l-0.248,-0.427l-0.249,-0.426l-0.25,-0.426l-0.253,-0.425l-0.253,-0.424l-0.255,-0.424l-0.256,-0.424l-0.258,-0.422l-0.259,-0.422l-0.261,-0.422l-0.262,-0.421l-0.263,-0.42l-0.265,-0.419l-0.267,-0.419l-0.267,-0.419l-0.27,-0.417l-0.27,-0.417l-0.272,-0.416l-0.274,-0.416l-0.275,-0.415l-0.276,-0.414l-0.278,-0.414l-0.279,-0.413l-0.281,-0.412l-0.282,-0.412l-0.283,-0.41l-0.285,-0.411l-0.286,-0.409l-0.288,-0.409l-0.289,-0.408l-0.291,-0.407l-0.292,-0.407l-0.293,-0.406l-0.295,-0.405l-0.297,-0.405l-0.297,-0.404l-0.3,-0.403l-0.3,-0.402l-0.302,-0.402l-0.304,-0.401l-0.305,-0.4l-0.306,-0.399l-0.308,-0.399l-0.309,-0.398l-0.31,-0.397l-0.312,-0.396l-0.314,-0.396l-0.315,-0.395l-0.316,-0.394l-0.318,-0.394l-0.319,-0.392l-0.321,-0.392l-0.322,-0.391l-0.323,-0.39l-0.325,-0.39l-0.326,-0.388l-0.328,-0.388l-0.329,-0.387l-0.331,-0.387l-0.332,-0.385l-0.333,-0.385l-0.335,-0.384l-0.337,-0.383l-0.337,-0.382l-0.339,-0.381l-0.341,-0.381l-0.342,-0.38l-0.343,-0.379l-0.345,-0.378l-0.347,-0.377l-0.347,-0.376l-0.35,-0.376l-0.35,-0.375l-0.352,-0.374l-0.354,-0.373l-0.355,-0.372l-0.356,-0.371l-0.358,-0.37l-0.359,-0.37l-0.36,-0.369l-0.362,-0.367l-0.364,-0.367l-0.365,-0.366l-23.694,-23.695l-23.695,23.695Z" style="fill:#2b2b2b;"/></g></g></svg>