<?xml version="1.0" encoding="UTF-8" standalone="no"?>
<!-- Created with Inkscape (http://www.inkscape.org/) -->

<svg
   xmlns:dc="http://purl.org/dc/elements/1.1/"
   xmlns:cc="http://creativecommons.org/ns#"
   xmlns:rdf="http://www.w3.org/1999/02/22-rdf-syntax-ns#"
   xmlns:svg="http://www.w3.org/2000/svg"
   xmlns="http://www.w3.org/2000/svg"
   xmlns:sodipodi="http://sodipodi.sourceforge.net/DTD/sodipodi-0.dtd"
   xmlns:inkscape="http://www.inkscape.org/namespaces/inkscape"
   width="210mm"
   height="297mm"
   viewBox="0 0 210 297"
   version="1.1"
   id="svg8"
   inkscape:version="0.92.4 (5da689c313, 2019-01-14)"
   sodipodi:docname="rysunek5.svg">
  <defs
     id="defs2" />
  <sodipodi:namedview
     id="base"
     pagecolor="#ffffff"
     bordercolor="#666666"
     borderopacity="1.0"
     inkscape:pageopacity="0.0"
     inkscape:pageshadow="2"
     inkscape:zoom="0.49497475"
     inkscape:cx="231.77687"
     inkscape:cy="655.23544"
     inkscape:document-units="mm"
     inkscape:current-layer="layer1"
     showgrid="false"
     inkscape:window-width="1280"
     inkscape:window-height="971"
     inkscape:window-x="-8"
     inkscape:window-y="-8"
     inkscape:window-maximized="1"
     showguides="false" />
  <metadata
     id="metadata5">
    <rdf:RDF>
      <cc:Work
         rdf:about="">
        <dc:format>image/svg+xml</dc:format>
        <dc:type
           rdf:resource="http://purl.org/dc/dcmitype/StillImage" />
        <dc:title />
      </cc:Work>
    </rdf:RDF>
  </metadata>
  <g
     inkscape:label="Layer 1"
     inkscape:groupmode="layer"
     id="layer1">
    <ellipse
       style="fill:none;stroke:#000000;stroke-width:0.15910321;stroke-opacity:1"
       id="path8107-6"
       cx="39.324421"
       cy="207.47089"
       rx="0.63496822"
       ry="0.71189815"
       transform="matrix(0.98448798,-0.17545205,0.17764541,0.98409456,0,0)" />
    <ellipse
       style="fill:none;stroke:#000000;stroke-width:0.15910321;stroke-opacity:1"
       id="path8107-76"
       cx="37.375088"
       cy="209.89299"
       rx="0.63496822"
       ry="0.71189815"
       transform="matrix(0.98448798,-0.17545205,0.17764541,0.98409456,0,0)" />
    <ellipse
       style="fill:none;stroke:#000000;stroke-width:0.15910321;stroke-opacity:1"
       id="path8107-9"
       cx="34.938377"
       cy="211.83061"
       rx="0.63496822"
       ry="0.71189815"
       transform="matrix(0.98448798,-0.17545205,0.17764541,0.98409456,0,0)" />
    <ellipse
       style="fill:none;stroke:#000000;stroke-width:0.15910321;stroke-opacity:1"
       id="path8107-2"
       cx="32.826599"
       cy="212.96092"
       rx="0.63496822"
       ry="0.71189815"
       transform="matrix(0.98448798,-0.17545205,0.17764541,0.98409456,0,0)" />
    <ellipse
       style="fill:none;stroke:#000000;stroke-width:0.15910321;stroke-opacity:1"
       id="path8107-89"
       cx="30.877264"
       cy="214.73721"
       rx="0.63496822"
       ry="0.71189815"
       transform="matrix(0.98448798,-0.17545205,0.17764541,0.98409456,0,0)" />
    <ellipse
       style="display:inline;fill:#d38d5f;stroke:#373737;stroke-width:2.4270041;stroke-miterlimit:4;stroke-dasharray:4.85400887, 2.42700445, 1.21350222, 2.42700445;stroke-dashoffset:0;stroke-opacity:1"
       id="path3748"
       cx="106.57584"
       cy="255.93547"
       rx="76.546631"
       ry="22.001001" />
    <path
       id="rect11637"
       style="display:inline;opacity:0.98999999;fill:#b3b3b3;fill-opacity:1;stroke:none;stroke-width:19.71834183;stroke-miterlimit:4;stroke-dasharray:none;stroke-dashoffset:0;stroke-opacity:1"
       d="m 123.8122,97.486267 c -0.44422,-0.0125 -1.44917,0.103787 -3.8765,0.689328 -0.34952,0.0843 0.71186,0.10267 1.06923,0.09707 0.34866,-0.0053 0.69482,-0.06742 1.04056,-0.120467 0.0829,-0.02434 0.16538,-0.0499 0.24861,-0.07237 0.0604,-0.01635 -0.11544,0.0525 -0.17689,0.06158 -0.0238,0.0036 -0.0478,0.007 -0.0717,0.01061 -0.1393,0.04069 -0.27877,0.08111 -0.41802,0.121568 -0.76528,0.132985 -1.5264,0.296123 -2.29545,0.397933 -0.25048,0.0332 -0.50373,0.006 -0.75594,0.005 -0.55157,-0.002 -1.1227,0.002 -1.67209,-0.0732 -0.0249,-0.003 0.0487,-0.009 0.0731,-0.0137 0.13973,-0.0332 0.72259,-0.16818 0.33393,-0.0998 -0.53473,0.0942 -3.73668,0.772957 -2.47179,0.33076 -0.669,0.125407 -1.34046,0.252737 -2.01234,0.347817 -0.4799,0.16979 -0.68417,0.23594 -0.48473,0.11855 -0.51866,0.14293 -1.18298,0.325967 -2.17169,0.626937 -0.26146,0.0796 -0.54193,0.006 -0.81275,0.005 -1.48595,-0.008 -2.97101,-0.0574 -4.456,-0.11344 -1.51837,-0.0308 -2.34672,-0.066 -3.8858,-0.0156 -3.165892,0.1037 -6.324163,0.441227 -9.488615,0.585087 -0.637258,0.0191 -1.274241,0.0242 -1.911063,0.0574 -0.312491,0.0162 -4.097909,0.31269 -4.189802,0.31692 -1.083169,0.0502 -2.172021,-0.0708 -3.255801,-0.0257 -1.506279,0.0222 -3.014089,0.0602 -4.519561,0.0192 -0.589197,0.84678 -1.111348,1.54912 -0.944034,0.93655 -0.102049,0.10653 -0.214662,0.22328 -0.275459,0.28833 -0.21685,0.23228 -0.437245,0.4612 -0.663792,0.68147 -0.419787,0.40816 -0.785063,0.70439 -1.150486,0.97033 -0.01486,0.12127 -0.09964,0.27002 -0.229197,0.43119 2.695751,1.42274 4.858221,4.56175 -1.216868,1.75115 -1.310715,4.46297 -1.778467,9.54789 -3.308929,2.23994 -0.01688,0.0287 -0.03471,0.0578 -0.05462,0.0842 -1.513273,1.98766 -1.171817,1.59621 -2.556632,2.79137 0.54109,-0.55289 -0.06417,0.0705 -0.416741,0.39024 -0.123404,0.17804 -0.260357,0.37956 -0.376706,0.55939 -0.100715,0.45759 -0.412099,0.46119 -1.109879,0.1631 -0.01482,0.10811 -0.03682,0.27737 -0.04989,0.3668 -1.11e-4,0.0346 0.0022,0.0637 0.0021,0.0983 -0.0021,0.18475 -0.05799,0.36378 -0.08891,0.5453 -0.04661,0.2728 0.04406,-0.34647 0.08671,-0.64364 5.46e-4,-0.14559 -0.006,-0.25482 -0.0078,-0.39057 -0.06916,-0.0303 -0.12027,-0.0464 -0.197325,-0.0825 -0.01909,-0.002 -0.03611,-0.003 -0.05427,-0.006 -0.124312,0.38669 -0.24883,0.77325 -0.375621,1.15904 0.107787,0.43957 0.200741,0.88377 0.284454,1.33063 0.486347,-0.82372 0.397235,-0.54964 0.03976,0.20237 0.04274,0.22758 0.08382,0.45558 0.13039,0.68189 0.04243,2.20938 0.0537,2.09139 -0.01759,2.91929 0.102491,0.66641 0.23615,2.04355 0.24041,2.08107 0.179753,1.69228 -0.08794,3.38604 -0.05185,5.07681 0.02181,1.79272 -0.0014,3.58466 -0.01153,5.37747 0.02299,1.90076 7.72e-4,3.64854 -0.237958,5.55105 -0.05325,0.42451 -0.08931,0.85886 -0.219199,1.26213 -0.339932,1.05441 -0.788832,2.06013 -1.183226,3.09047 -1.710383,0.98197 -3.300309,2.3415 -5.047316,3.20929 -0.02188,0.0811 -0.04248,0.15182 -0.06531,0.23101 -0.106138,0.7659 -0.210814,1.53165 -0.316367,2.29765 -0.322765,0.79239 -0.398851,0.96327 -0.589194,1.41992 -0.0024,0.009 -0.0096,0.027 -0.01208,0.0347 -0.05714,0.15854 -0.119928,0.31438 -0.179891,0.47152 -0.113693,0.47662 -0.325551,1.16628 -0.43522,1.51193 -0.08843,0.26894 -0.176835,0.53754 -0.265368,0.80632 -5.92e-4,0.009 -0.002,0.0185 -0.0025,0.0278 0.0093,-0.0174 0.01199,-0.009 0.007,0.0347 -0.0025,0.0209 -0.0097,0.0402 -0.01463,0.0608 -0.0051,0.074 -0.0077,0.14763 -0.0153,0.22152 -0.04732,0.38038 -0.0846,0.76315 -0.140752,1.14198 -0.04826,0.32375 -0.02961,1.25225 -0.172256,0.96595 -0.0023,-0.006 -0.0048,-0.015 -0.007,-0.0209 -0.03086,0.49372 -0.08534,0.98294 -0.206405,1.45193 -0.04146,1.06313 -0.193894,2.25317 -0.471824,3.1058 -0.0072,0.0207 -0.0097,0.0206 -0.01195,0.018 -0.01737,0.14208 -0.03733,0.28442 -0.0561,0.42632 0.08803,-1.27589 -0.03368,0.65181 -0.379342,2.01073 -0.477034,1.87563 -0.683132,2.57343 -0.756653,2.70995 -0.04496,0.22469 -0.122251,0.57203 -0.22426,0.999 0.01587,0.19684 -0.03758,0.39125 -0.13832,0.58385 -6.24e-4,0.003 -6.24e-4,0.003 -0.0015,0.006 -3.14e-4,9.8e-4 1.51e-4,-0.006 6.7e-5,-0.005 -0.465445,0.88736 -1.803831,1.74487 -0.870287,2.71087 0.14161,-0.572 0.271826,-1.09623 0.401571,-1.44836 0.148763,-0.40411 -0.09465,0.87212 -0.209516,1.28988 -0.02428,0.0858 -0.0607,0.16755 -0.09503,0.25028 0.02922,0.0264 0.04949,0.0527 0.08237,0.0792 -0.184619,0.40504 -0.563553,1.63957 -0.563773,1.25798 -0.21705,0.71569 -0.483846,1.41598 -0.843537,1.96038 -0.248457,1.03302 -0.468582,2.03688 -0.949289,2.98062 -0.05604,0.51729 -0.130392,0.68561 -0.694025,2.51357 -0.176998,0.57387 0.334437,-1.15573 0.501623,-1.73326 -0.229,0.77068 -0.459157,1.54209 -0.688202,2.31277 -0.01204,0.0282 -0.01446,0.0311 -0.02483,0.0568 -0.02958,0.15387 -0.05847,0.30799 -0.09213,0.4608 -0.161189,0.73099 -0.649852,2.27603 -0.767598,2.67114 -0.07513,0.1844 -0.130441,0.64692 -0.214289,0.70821 -0.06811,0.53902 -0.162327,1.08441 -0.330085,1.4791 -0.04258,0.22046 -0.0511,0.86996 -0.127636,0.66147 -0.007,-0.0196 -0.0035,-0.0586 -0.0071,-0.0844 -0.113235,1.14553 -0.08999,1.23865 -0.546602,2.97671 -0.01191,1.02949 -0.08167,1.30487 -0.380881,2.92889 -0.02444,0.12884 -0.119693,0.50712 -0.107869,0.37625 0.03616,-0.40154 0.121554,-0.7965 0.181858,-1.19443 -0.154893,0.82388 -0.287497,1.6535 -0.465341,2.47155 -0.01659,0.0758 -0.05626,0.21216 -0.09286,0.33477 -0.0015,0.0236 -1.75e-4,0.0471 -0.0017,0.0706 -0.05451,0.76543 -0.19234,1.88165 -0.42802,2.69326 -0.02181,0.0723 0.038,-0.30044 0.01964,-0.22702 -0.05944,0.2449 -0.110963,0.4924 -0.165043,0.73886 0.0053,0.12614 0.01252,0.25204 0.007,0.37811 -0.03608,0.77673 -0.102068,2.09756 -0.368044,3.10206 l -0.0053,1.17574 -0.01823,4.16706 -0.01458,3.33893 -0.01499,3.43169 -0.0113,2.59664 -0.01269,2.90267 c -0.005,1.12751 -0.0099,2.25572 -0.01478,3.38323 -0.0045,1.01381 -0.0093,2.02734 -0.01328,3.04116 -0.0023,0.82813 -0.0086,1.65629 -0.01357,2.48444 0.06327,0.14936 0.123847,0.29938 0.175876,0.45219 0.0038,0.0101 0.0086,0.0212 0.01231,0.0318 0.01964,0.0485 0.01369,0.03 0.0342,0.0804 0.0037,0.0267 0.0084,0.0535 0.01213,0.0804 0.0094,0.0323 0.01953,0.0643 0.02797,0.097 0.400927,0.48052 0.684201,0.88822 1.201015,1.87858 0.04629,0.0887 0.130352,0.26124 0.200839,0.39689 0.126923,0.19031 0.266071,0.40041 0.344829,0.51379 0.75127,1.08146 0.397831,0.61802 -0.114601,-0.0614 0.0071,0.0144 0.01264,0.0257 0.01967,0.0402 0.398088,0.57471 0.126903,0.19678 0.03186,0.0611 0.06418,0.13373 0.09892,0.21963 0.136968,0.31631 0.121379,0.15754 0.247301,0.3134 0.377119,0.47515 -0.02275,-0.0442 -0.04746,-0.0872 -0.06984,-0.13184 -0.06846,-0.13634 0.359547,0.47785 0.259009,0.36941 -0.04571,-0.0492 -0.125303,-0.15805 -0.18919,-0.23757 0.288405,0.56211 0.603363,1.10749 0.904282,1.66136 -0.304417,-0.44707 -0.440161,-0.65308 -0.686006,-1.0165 0.331866,0.53315 0.67387,1.05922 1.025724,1.57597 -0.07297,-0.15171 -0.149026,-0.30181 -0.219109,-0.45513 -0.137088,-0.29957 0.132183,0.21767 0.381082,0.69674 0.01904,0.0293 0.03893,0.0598 0.05892,0.0888 0.0071,0.009 0.0047,0.002 0.0066,0.007 -0.13951,-0.29273 -0.278481,-0.58608 -0.421075,-0.87693 -0.136215,-0.27804 0.535509,1.02062 0.421075,0.87693 0.06441,0.13524 0.129789,0.27014 0.194696,0.40518 -0.05928,-0.11048 -0.165684,-0.31763 -0.260897,-0.501 -0.05463,-0.0798 -0.107563,-0.1616 -0.161958,-0.24163 0.186652,0.3888 0.381495,0.7723 0.582911,1.15182 0.01183,0.018 0.03372,0.0554 0.04416,0.0708 -0.0051,-0.005 -0.01423,-0.0151 -0.01661,-0.0192 0.0046,0.007 0.0071,0.0137 0.01184,0.0209 0.0073,0.006 0.01671,0.0115 0.02387,0.0181 -0.0762,-0.17448 -0.159043,-0.36098 -0.200338,-0.48275 -0.06112,-0.17945 0.114258,0.21764 0.237384,0.51059 0.592199,0.4955 1.332583,1.86444 1.733862,2.6161 0.127313,0.12921 0.258638,0.25304 0.379967,0.38931 0.182414,0.20476 -0.04034,-0.0164 -0.341985,-0.31991 0.06164,0.11555 0.144378,0.27072 0.182571,0.33866 0.0094,0.0218 0.0298,0.066 0.04287,0.0958 0.384413,0.47259 0.772273,0.94138 1.185887,1.38133 0.028,0.0298 0.02884,0.0245 0.03192,0.0225 -0.271264,-0.38676 -0.556426,-0.76315 -0.832419,-1.14589 -0.24433,-0.33876 0.861294,1.12367 0.832419,1.14589 0.105703,0.15063 0.215964,0.29761 0.312984,0.45552 0.126267,0.20581 0.234542,0.42379 0.338097,0.64533 0.215398,0.10077 0.431129,0.20058 0.645895,0.30312 2.9045,1.38654 1.610938,0.82585 4.528293,1.94042 5.821491,2.22409 8.447129,6.31831 8.510168,9.91955 0.28014,0.0529 0.576964,0.11138 1.07495,0.20097 0.385622,0.17125 0.430937,0.18878 0.728587,0.32006 1.222317,-0.0857 2.212363,0.11014 3.509963,0.65392 0.166014,0.0229 0.319484,0.0361 0.509773,0.0782 1.151245,0.25453 1.754743,0.47939 2.296398,0.79447 0.413292,0.10269 0.824157,0.21934 1.234975,0.3318 0.188353,0.0516 0.359624,0.15932 0.539944,0.23898 -2.052977,-0.61942 0.526782,0.15772 0.579745,0.18098 0.05248,0.023 0.05556,0.0294 0.03936,0.0293 0.897434,0.0891 1.454729,0.26471 2.292586,0.53823 0.277691,-0.0162 0.553708,-0.0141 0.823625,0.0518 0.680216,0.16635 1.345367,0.39967 2.003015,0.66034 0.470399,0.0249 0.940084,0.0766 1.410078,0.11229 0.379417,0.0895 0.761674,0.16713 1.138881,0.26771 0.736636,-0.0711 1.146149,-0.0983 1.997157,0.0233 l 21.076585,0.0848 c 0.002,-3.9e-4 0.005,-7.3e-4 0.007,-9.8e-4 0.24708,-0.0356 0.50032,-0.0157 0.75342,0.005 l 0.84732,0.003 c 0.65969,-0.0113 1.35314,-0.0561 2.02316,0.008 l 0.2458,9.8e-4 c 0.92602,-0.2094 1.74649,-0.34974 2.69903,-0.32429 0.21342,0.005 1.15354,-0.005 1.71051,0.0415 0.79379,-0.16958 0.81093,-0.15527 2.6581,-0.28568 0.10614,-0.008 0.2129,0.0151 0.31853,0.029 0.0369,0.006 0.0891,-0.008 0.10875,0.0282 0.0143,0.0251 -0.0895,0.0544 -0.0634,0.0522 0.159,-0.012 0.31366,-0.0547 0.47096,-0.0825 1.39104,-0.25631 2.75511,-0.44679 4.16022,-0.6051 0.47927,-0.11274 0.76486,-0.16183 2.0307,-0.30345 0.039,-0.005 0.0586,0.0806 0.0971,0.0737 2.64359,-0.4769 -1.28118,0.0192 3.25668,-0.45776 0.27026,0.0124 0.53985,0.0234 0.81008,0.0365 0.20073,0.0101 0.40637,-0.015 0.60264,0.0328 0.038,0.009 0.0371,0.0159 0.0142,0.0224 0.26943,-0.0592 0.53914,-0.11752 0.80857,-0.17678 -0.17721,-0.0865 0.37688,-0.10043 0.56753,-0.13759 0.81463,-0.15895 0.96624,-0.17728 1.18916,-0.21128 0.21281,-0.0658 0.39994,-0.12576 1.26141,-0.34946 0.64143,-0.11883 0.74368,-0.13068 1.06662,-0.15497 0.26173,-0.10733 0.52381,-0.21291 0.78574,-0.31953 -0.2397,0.10461 -0.70537,0.29955 -0.71904,0.31425 0.002,-2.5e-4 0.0141,-0.003 0.0171,-0.003 0.52554,-0.19566 1.0446,-0.41463 1.56645,-0.62247 -0.18507,0.0743 -0.7427,0.2891 -0.55556,0.22214 4.28108,-1.53213 -1.52354,0.56265 2.26034,-0.84122 0.13192,-0.0441 0.2679,-0.0724 0.39825,-0.12167 0.45387,-0.17159 0.88644,-0.61776 1.35729,-0.52771 0.66177,-0.32454 -0.0124,0.13776 -1.04614,0.8364 0.25014,-0.0366 0.51596,-0.0575 0.77728,-0.0827 0.70521,-0.13668 1.8884,-0.49943 4.16911,-1.51494 0.4523,-0.20135 -0.97604,-0.0455 -1.45881,0.0219 -0.41843,0.0583 -0.81715,0.23485 -1.22559,0.35238 -0.16175,0.0892 -0.30774,0.22708 -0.48414,0.26811 -0.17039,0.0396 0.31018,-0.17629 0.46559,-0.26403 1.4469,-0.80287 0.98498,-0.57198 2.89343,-0.71681 9.8e-4,-7.2e-4 0.002,-6.4e-4 0.005,-8.8e-4 0.45285,-0.0344 1.07615,-0.0974 1.85608,-0.19335 0.007,-0.0267 0.0105,-0.0574 0.0195,-0.083 -0.49862,-0.0437 -0.99444,-0.0631 -1.48362,0.0453 -0.0779,0.0473 -0.15722,0.092 -0.23537,0.13888 0.0275,-0.0257 0.0547,-0.0526 0.0684,-0.0924 8.2e-4,-0.002 -6.6e-4,-0.002 7e-5,-0.005 -0.15344,0.0438 -0.3061,0.0963 -0.45775,0.1713 0.15059,-0.0554 0.50444,-0.32682 0.45775,-0.1713 0.0556,-0.0159 0.11121,-0.03 0.16704,-0.0422 0.43023,-0.26129 0.86072,-0.52222 1.30515,-0.7509 0.68561,-0.35279 1.6328,-0.46 2.52443,-0.51335 0.24306,-0.0621 0.47554,-0.12879 0.70989,-0.19795 0.0394,-0.0151 0.25381,-0.10133 0.26726,-0.10551 -0.0382,0.0355 0.0685,-0.0619 0.005,-8.7e-4 0.0118,-0.003 -0.0105,0.0182 -0.0212,0.0266 0.0402,-0.0134 0.0818,-0.0256 0.12111,-0.0396 0.094,-0.0715 0.1662,-0.126 0.26363,-0.20013 -0.11004,0.0297 -0.2202,0.0589 -0.3302,0.0887 0.11686,-0.0387 0.25353,-0.0889 0.40082,-0.14242 0.49927,-0.37852 0.92766,-0.70065 0.64057,-0.44748 -0.14923,0.13157 -0.30499,0.25426 -0.45621,0.38316 0.0971,-0.0344 0.16829,-0.0555 0.22258,-0.0697 0.26339,-0.21735 0.51776,-0.34789 0.76507,-0.39301 0.40907,-0.26127 0.81373,-0.5319 1.21155,-0.8136 -0.13514,0.0264 -0.27038,0.0523 -0.40548,0.0787 -0.1468,0.0692 -0.3142,0.15271 -0.40719,0.18812 -0.11545,0.0439 0.2214,-0.11571 0.33178,-0.17318 0.0254,-0.006 0.0503,-0.0101 0.0752,-0.015 0.43393,-0.20479 0.92788,-0.4515 0.68424,-0.27423 -0.0917,0.0669 -0.18615,0.12986 -0.2788,0.19549 0.80508,-0.1575 1.61049,-0.31474 2.41557,-0.47223 0.0578,-0.0461 0.36389,-0.17266 0.61873,-0.26481 -0.29562,0.0183 -0.59021,0.0549 -0.88356,0.10043 -0.11062,0.0333 -0.22161,0.0623 -0.33268,0.0928 -0.1058,0.0291 0.20872,-0.0748 0.31661,-0.0915 0.005,-7.3e-4 0.0119,-4.9e-4 0.0166,-9.8e-4 0.0917,-0.0275 0.18216,-0.0609 0.27578,-0.0779 0.26396,-0.0477 0.66495,-0.10416 1.05183,-0.16196 1.294,-0.33797 2.25417,-0.57597 3.48185,-0.54551 0.32028,-0.0116 0.6375,-0.006 0.95479,-0.002 0.56941,-0.29451 1.17015,-0.50389 1.90717,-0.58368 0.0124,-0.40397 0.18883,-1.15115 0.66068,-2.22564 0.1617,-1.99704 0.43889,-4.15275 0.53292,-2.39096 0.0274,-0.0722 0.0566,-0.20571 0.0853,-0.32647 0.003,-0.68684 0.006,-1.37384 0.009,-2.06069 0.005,-1.20228 0.006,-2.40533 0.0181,-3.60757 0.009,-0.98606 -0.0177,-1.97045 0.0247,-2.95527 0.0716,-0.82687 0.15368,-1.63578 -0.0463,-2.45835 -0.0759,-0.76597 -0.17236,-1.52892 -0.22826,-2.29707 -0.0773,-1.05879 0.0665,-2.13978 0.0152,-3.20043 0.008,-0.76381 0.002,-1.52537 -0.0138,-2.28927 -0.007,-0.0277 -0.0189,-0.0539 -0.0258,-0.0818 -0.46476,-1.91973 -0.55445,-3.33464 -0.49733,-5.19119 l 0.009,-2.06425 0.008,-1.92359 0.008,-1.88758 0.009,-2.22687 0.008,-1.77538 0.0105,-2.55509 0.0118,-2.57586 0.009,-2.23378 0.0105,-2.44982 c 0.003,-0.70653 0.006,-1.41371 0.009,-2.12023 0.005,-1.07793 0.009,-2.15573 0.0141,-3.23368 0.003,-0.71326 0.006,-1.42634 0.008,-2.1396 0.003,-0.52428 0.019,-1.04914 0.002,-1.57322 -0.009,-0.61302 0.006,-1.21609 0.0338,-1.8224 -0.24666,-1.01111 -0.36046,-1.78793 -0.28872,-3.18501 0.0124,-0.13982 0.0253,-0.27963 0.0378,-0.41948 -0.25491,-1.05444 -0.35037,-1.64369 -0.30481,-3.16847 0.005,-0.6132 0.0105,-1.22609 -0.006,-1.83916 7.9e-4,-0.0512 0.006,-0.35893 0.0133,-0.62868 0.009,-0.47776 0.0259,-1.01274 0.0588,-1.04812 -0.10945,-0.24747 -0.14024,-0.32902 -0.25924,-0.59655 -0.13282,-0.29902 -0.10201,0.031 -0.0213,0.51648 -0.11015,-0.56061 -0.22099,-1.12065 -0.33111,-1.68122 -0.002,-0.56461 -0.006,-1.12924 0.0121,-1.69366 0.002,-0.0434 0.002,-0.0867 0.006,-0.1301 -0.0342,-0.18559 -0.0619,-0.37201 -0.063,-0.56113 -0.008,-2.02767 0.11026,-3.51555 0.80783,-5.10145 0.012,-0.057 0.0172,-0.0887 0.0278,-0.14802 -1.01953,-0.85519 -2.03953,-1.69366 -3.0605,-2.30708 3.87049,7.74907 0.6048,4.56029 -0.26982,-0.15207 -0.11016,-0.0617 -0.22003,-0.12986 -0.33022,-0.18553 -0.0384,-0.34635 -0.065,-0.69367 -0.0929,-1.04042 -0.005,-0.0113 -0.0105,-0.0162 -0.0144,-0.0262 -0.27728,-0.52982 0.003,0.88272 0.24539,1.78889 0.0742,0.22474 0.14335,0.45191 0.22053,0.6753 -0.0489,-0.0741 -0.1321,-0.34365 -0.22053,-0.6753 -0.57984,-1.7547 -1.05834,-3.55036 -1.19044,-5.42803 -0.16597,-0.6366 -0.36058,-1.26529 -0.49807,-1.91036 -0.33037,-1.55013 -0.43597,-2.49661 -0.50593,-4.06394 -0.002,-0.0361 0.0488,0.0507 0.0606,0.0845 0.11931,0.35753 0.22868,0.7198 0.3411,1.08019 -0.30877,-2.01216 -0.49174,-2.82597 -0.60795,-3.33864 9.2e-4,0.0525 -9.7e-4,0.1054 -6.6e-4,0.15784 0.006,0.22125 0.15159,0.4318 0.11805,0.65 -0.0309,0.20182 -0.084,-0.39818 -0.12573,-0.5974 -0.0979,-0.52001 -0.20556,-1.03829 -0.29333,-1.56056 -0.0382,-0.22707 -0.0979,-0.45517 -0.0847,-0.68586 0.005,-0.076 0.12985,0.26396 0.11274,0.19018 -0.3807,-1.64742 -1.07255,-3.20012 -1.3856,-4.87069 -0.0813,-0.48219 -0.14801,-0.96799 -0.22093,-1.45226 -0.0293,-0.007 -0.0594,-0.0117 -0.0888,-0.0183 -0.57569,-0.12164 -0.27445,-1.27704 -0.41158,-1.91559 0.0229,-0.33123 0.0464,-0.66279 0.0687,-0.99408 -0.0504,-0.35308 -0.10006,-0.70606 -0.15217,-1.05865 -0.0189,-0.0423 -0.0401,-0.0876 -0.0501,-0.11656 -0.15746,-0.45287 -0.26709,-0.92589 -0.39413,-1.39063 -0.18209,-0.66612 -0.35546,-1.3344 -0.53348,-2.00192 -0.31264,-1.66275 -0.81343,-3.39308 -0.72118,-5.12283 0.0234,-0.45875 -0.0678,-1.0768 -0.062,-1.60674 -0.9801,-1.35717 -1.28026,-3.25386 -1.46654,-4.99153 -0.1091,-1.01807 0.0358,-2.18695 0.33572,-3.33764 -0.0118,-0.0366 -0.0189,-0.0556 -0.0306,-0.093 0.002,-0.40682 -0.003,-0.81425 -0.009,-1.2215 -1.9472,-1.17184 -3.62829,-2.86887 -4.71602,-5.07535 -0.98727,-2.00264 -1.15785,-3.14408 -1.28219,-4.78441 -0.31526,-0.29768 -0.53465,-0.73235 -0.67253,-1.27682 -5.3872,-0.22815 -8.51065,-3.20713 -9.12753,-6.580296 -0.77109,-0.003 -1.54216,-0.0062 -2.31344,-0.0092 -1.49812,-0.006 -2.99654,-0.01158 -4.49467,-0.01806 -1.04053,-0.004 -2.08191,-0.0052 -3.12246,-0.01255 -1.04642,-0.0079 -2.09215,-0.01427 -3.13857,0.0053 -0.58435,-0.01016 -1.19931,0.01016 -1.78075,-0.07917 -0.05,-0.0078 0.10078,-0.0071 0.15065,-0.01599 1.01416,-0.183995 1.20969,-0.240235 1.57165,-0.398071 -0.0487,-0.02596 -0.11345,-0.07995 -0.38006,-0.08741 z m 37.29419,63.409033 c 0.0901,0.0506 0.17976,0.0978 0.2698,0.15207 -0.11627,-0.23313 -0.23032,-0.46274 -0.36,-0.71605 0.0262,0.19005 0.0556,0.37788 0.0902,0.56399 z m -8.08102,84.63142 c -0.23729,0.15154 -0.47834,0.29422 -0.71831,0.4403 0.44772,-0.11938 0.8953,-0.2379 1.34297,-0.35745 -0.74174,0.21273 -1.13697,0.31515 -1.37022,0.37534 -0.0893,0.0544 -0.18021,0.10585 -0.26994,0.15959 -0.11952,0.12304 -0.22483,0.25031 -0.32035,0.37956 0.11285,0.005 0.22034,0.009 0.35071,0.0152 -0.0837,0.008 -0.27126,0.0152 -0.37555,0.0207 -0.64368,0.89402 -0.73137,1.93111 -0.47656,3.05593 0.0569,9.5e-4 0.0824,-0.002 0.1458,5.7e-4 0.13455,-0.0927 0.27419,-0.19817 0.40016,-0.27672 0.37869,-0.23596 0.78691,-0.43596 1.21277,-0.52416 0.85717,-0.17753 1.72699,-0.26139 2.59659,-0.34132 0.0486,-0.0187 0.0973,-0.0363 0.14604,-0.0548 -0.74907,-1.84821 -1.63243,-3.08118 -2.66393,-2.89267 z m -1.69152,4.0897 c -0.005,0.003 -0.0105,0.008 -0.0143,0.0113 0.0343,-9.8e-4 0.0681,-0.007 0.10263,-0.008 -0.045,-9.9e-4 -0.0448,-9.9e-4 -0.0877,-0.003 z m -0.0143,0.0113 c -0.0414,0.002 -0.0831,0.007 -0.12486,0.0101 0.005,0.0214 0.0118,0.0436 0.0166,0.0652 0.0363,-0.0252 0.0725,-0.049 0.1091,-0.0745 z m 0.34565,-3.06751 c 0.0106,-0.0124 0.0166,-0.0245 0.025,-0.0359 -0.0914,-0.003 -0.19118,-0.009 -0.2816,-0.006 -0.0239,0.0189 -0.0463,0.0388 -0.0693,0.058 0.10344,-0.005 0.23549,-0.0122 0.32614,-0.0166 z m -0.32614,0.0166 c -0.0193,4.1e-4 -0.041,0.003 -0.0604,0.005 -0.10058,0.058 -0.1989,0.12133 -0.29973,0.17878 -0.0105,0.006 0.0293,-0.0301 0.0298,-0.0332 -0.0659,0.038 -0.13611,0.079 -0.21301,0.12241 -0.43763,0.39808 -1.04652,0.89126 -0.74161,0.68393 0.4396,-0.29887 0.86581,-0.62132 1.28504,-0.95593 z m -0.33044,0.14962 c 0.0776,-0.0453 0.18784,-0.10597 0.25134,-0.14444 -0.0366,9.7e-4 -0.0745,0.006 -0.11239,0.007 -0.0118,0.009 -0.0322,0.0235 -0.0431,0.0319 -0.0657,0.0639 -0.0937,0.0967 -0.0956,0.1062 z m 0.13896,-0.13798 c 0.0215,-0.0154 0.053,-0.0409 0.0754,-0.0578 -0.0105,9.8e-4 -0.0196,6.2e-4 -0.0297,0.003 -0.0189,0.019 -0.0411,0.0377 -0.0597,0.0549 0.005,-5.2e-4 0.0106,3.6e-4 0.0147,2.6e-4 z m 0.0754,-0.0578 c 0.0457,-0.006 0.0886,-0.006 0.13224,-0.008 0.0942,-0.0585 0.16134,-0.10428 0.22412,-0.14728 0.0623,-0.0512 0.12297,-0.10405 0.18442,-0.15612 -0.0776,0.0317 -0.16276,0.0588 -0.24492,0.0877 -0.10521,0.0802 -0.20803,0.15701 -0.29652,0.22274 z m 0.5411,-0.31084 c 0.0166,-0.007 0.0309,-0.0138 0.0471,-0.0206 0.0761,-0.0736 0.18528,-0.13211 0.32436,-0.17045 0.0106,-0.008 0.0169,-0.0143 0.0264,-0.0219 -0.0702,0.0189 -0.14027,0.0371 -0.21036,0.0559 -0.0623,0.0525 -0.12439,0.10517 -0.18732,0.15691 z m 0.0471,-0.0206 c -0.0428,0.0405 -0.0891,0.0794 -0.23144,0.1766 -0.0357,0.0293 -0.0704,0.0605 -0.10639,0.0899 0.18018,-0.10494 0.35831,-0.21334 0.53747,-0.3205 0.007,-0.007 0.0119,-0.0136 0.0192,-0.0207 0.0247,-0.025 0.0482,-0.0416 0.0728,-0.0652 -0.0917,0.0499 -0.18872,0.0969 -0.29085,0.14011 z m -0.33865,0.26557 c -0.0312,0.0184 -0.0619,0.0378 -0.093,0.0564 0.0105,-8.8e-4 0.0193,-0.002 0.0285,-0.003 0.0215,-0.0176 0.0428,-0.0361 0.0642,-0.0541 z m 0.80742,-0.48009 c 0.0105,-0.006 0.0193,-0.0121 0.0271,-0.0181 -0.0274,0.008 -0.0552,0.0158 -0.0829,0.0233 -0.0148,0.009 -0.0306,0.0164 -0.0453,0.025 0.0393,-0.0101 0.0418,-0.0149 0.10141,-0.0301 z m -6.06537,2.13745 c -0.0934,0.0331 -0.19625,0.0575 -0.27342,0.1098 -0.0507,0.0335 -0.18426,0.16019 -0.13153,0.13105 0.13707,-0.0758 0.26985,-0.16068 0.40491,-0.24076 z M 50.563139,231.52397 c -0.01193,-0.0101 -0.02458,-0.0184 -0.03692,-0.028 0.02126,0.0472 0.03285,0.0809 0.05512,0.13041 0.01179,0.022 0.02128,0.0447 0.03433,0.0666 0.0095,0.0101 0.01661,0.0192 0.02593,0.0293 0.005,-9.5e-4 -0.03192,-0.0883 -0.07826,-0.19836 z m -1.706922,-2.84588 c -0.182479,-0.29316 -0.358064,-0.59104 -0.530933,-0.89123 -0.01202,0.0122 -0.03679,0.006 -0.08872,-0.0447 -0.03834,-0.037 -0.06448,-0.0853 -0.09831,-0.12642 0.198429,0.29621 0.460875,0.68235 0.71793,1.06234 z m -0.530933,-0.89123 c 0.01719,-0.0177 -0.02148,-0.11933 -0.06448,-0.22876 -0.163436,-0.2122 -0.274379,-0.3503 -0.183237,-0.18491 0.07788,0.14133 0.167333,0.27412 0.247696,0.41369 z m -0.201427,-0.54508 c -0.01048,-0.0214 -0.02115,-0.0389 -0.03186,-0.0611 -0.03913,-0.0564 -0.05782,-0.0836 -0.09575,-0.13887 -0.09116,-0.121 -0.167329,-0.22077 -0.264035,-0.34866 0.099,0.13935 0.36774,0.51446 0.39161,0.54859 z m 5.239002,-60.06658 c -0.03434,-0.0308 -0.06762,-0.0612 -0.09711,-0.0917 -0.05669,0.2286 -0.119395,0.46656 -0.183324,0.70971 0.09485,-0.20465 0.194439,-0.4091 0.280605,-0.61794 z m 19.808643,-61.3725 c 0.08517,-0.29019 0.176511,-0.57254 0.269274,-0.85201 -0.235564,0.19519 -0.461292,0.37574 -0.623493,0.50714 -0.04558,0.0369 -0.09589,0.0652 -0.142389,0.10055 0.156011,0.0744 0.34915,0.17607 0.496708,0.24434 z m 72.476618,-6.955971 c 0.019,0.0608 0.0381,0.119517 0.0573,0.180287 0.0694,0.0132 0.12759,0.005 0.1656,-0.0422 -0.10639,-0.0677 -0.13823,-0.0851 -0.22284,-0.138027 z m -31.95389,0.0309 c -0.34948,0.106527 -0.55601,0.183757 -0.7929,0.266877 0.10119,-0.0223 0.20693,-0.0438 0.30788,-0.0763 0.16492,-0.0532 0.65072,-0.241067 0.48502,-0.190547 z m -36.927161,1.839001 c -0.535488,0.62708 -1.031703,1.29694 -1.474883,1.99939 -0.112163,0.17768 0.708667,-0.53559 1.481336,-1.21689 0.09567,-0.23173 0.262899,-0.49609 0.459143,-0.76815 -0.155119,-0.006 -0.310459,-0.006 -0.465587,-0.0145 z m -0.578797,0.45054 c -0.0071,0.002 -0.03,0.0292 -0.07085,0.0856 -0.0045,0.005 -0.0072,0.0131 -0.01207,0.0192 0.009,4e-5 0.01908,-7.2e-4 0.0273,7e-5 0.005,-0.0144 0.06047,-0.10631 0.05611,-0.10503 z m 0.571518,0.36651 c -4.04e-4,3.5e-4 -0.16846,0.15377 -0.205892,0.18752 0.06618,-0.0583 0.133166,-0.1162 0.200816,-0.17228 0.0021,-0.005 0.0022,-0.0102 0.0048,-0.0152 z m -0.774524,0.0176 c -0.03961,0.0376 -0.09619,0.082 -0.145152,0.12406 -0.333595,0.50787 -0.645518,1.0344 -0.970209,1.54995 0.129244,-0.14903 0.263749,-0.31618 0.406128,-0.51078 0.198364,-0.271 0.5075,-0.79697 0.709134,-1.16324 z m -3.337914,3.78674 c -0.02473,0.0301 -0.08985,0.10461 -0.124205,0.14491 0.01462,0.007 0.03287,0.0166 0.04819,0.0238 0.0074,-0.009 0.01686,-0.0179 0.02405,-0.0262 0.04375,-0.0678 0.03247,-0.0536 0.06092,-0.098 -0.0051,-0.0132 -0.0097,-0.0242 -0.0093,-0.0444 z m -2.949171,1.88407 c -0.04594,0.0229 -0.09266,0.0456 -0.138697,0.0687 -0.319267,0.16049 -0.161075,0.10451 0.145946,-0.0312 -0.0023,-0.0119 -0.0047,-0.0255 -0.0069,-0.0373 z m -11.134698,36.65073 c -0.0024,9.8e-4 -0.0066,0.003 -0.0095,0.005 -0.0073,0.0493 -0.01238,0.0987 -0.01973,0.14812 0.0097,-0.051 0.0196,-0.10157 0.03028,-0.15224 z m -0.05181,0.2629 c -0.115282,0.40048 -0.234404,0.80408 -0.324967,1.15924 -0.05446,0.21383 0.166221,-0.40694 0.220219,-0.62093 0.04449,-0.17688 0.07041,-0.35852 0.104892,-0.5383 z m 100.141317,1.10736 c 0.0269,-0.16872 -0.0867,0.3326 -0.0951,0.50372 -9.7e-4,0.0225 -9.7e-4,0.0453 -0.002,0.0678 0.0359,-0.20441 0.0493,-0.27152 0.0975,-0.57156 z M 54.74324,160.50934 c -0.03644,0.4084 -0.05296,0.63717 -0.07295,0.88743 0.0024,-0.0165 0.01229,-0.0744 0.01472,-0.0844 0.03415,-0.26582 0.0389,-0.53539 0.05919,-0.80301 z m 109.02511,9.19341 c 0.005,0.0292 0.007,0.0583 0.0118,0.0872 0.007,0.0522 0.0443,0.206 0.0363,0.15388 -0.0118,-0.0806 -0.0313,-0.16091 -0.0473,-0.24117 z m -112.502924,2.02131 c -0.06091,0.53746 -0.08439,0.82234 -0.109751,1.10471 0.005,-0.0204 0.01216,-0.0402 0.01463,-0.0608 0.06365,-0.34288 0.133957,-1.39122 0.09468,-1.04383 z m 113.018014,1.08292 c -0.007,0.0762 -0.0311,0.19615 -0.0251,0.25886 0.055,0.53403 0.035,1.09159 0.1969,1.59759 0.007,0.0248 0.019,0.0486 0.0269,0.0735 0.0792,0.17646 0.15331,0.35545 0.19888,0.54369 0.29338,0.73288 0.6597,1.43096 0.97256,2.15465 1.16168,1.58225 1.6755,2.2631 -1.37057,-4.62827 z m -115.014342,6.24773 c -0.02482,0.16572 -0.05162,0.42671 -0.07445,0.64365 0.01336,-0.0389 0.03107,-0.0781 0.03763,-0.11612 0.02845,-0.17336 0.06276,-0.70135 0.0369,-0.52751 z m 115.298662,0.68077 c 0.0319,0.75599 0.14771,1.47288 0.51913,2.17773 -0.22134,-0.98423 -0.38419,-1.63406 -0.51913,-2.17773 z m 0.37247,4.08277 c 0.0208,0.1596 0.0433,0.31957 0.0623,0.47941 0.0916,0.2668 0.18217,0.53371 0.2744,0.80019 -0.12362,-0.47824 -0.23978,-0.91741 -0.33653,-1.2796 z m -117.81801,6.85953 c -0.03967,0.18078 -0.0803,0.36119 -0.118489,0.54239 -0.03791,0.17953 0.09884,-0.32256 0.124581,-0.52576 -0.0055,0.007 -0.007,9.8e-4 -0.0061,-0.0166 z m -0.945822,33.27789 c -2.53e-4,0.0466 -3.58e-4,0.0932 -6.4e-4,0.13983 0.02902,0.0335 0.06825,0.0791 0.09467,0.10969 -0.03091,-0.0791 -0.06107,-0.16428 -0.09401,-0.24968 z m -0.0022,0.51656 c -0.0018,0.29634 -0.0026,0.59272 -0.0053,0.88908 -0.0045,1.01509 0.0042,2.03048 -0.0069,3.04533 0.402306,-0.22799 0.633131,-0.70426 0.629181,-1.52224 -0.07688,-0.49325 -0.148416,-0.98805 -0.218318,-1.48271 -0.107245,-0.32193 -0.248873,-0.6277 -0.398603,-0.92946 z m 0.398602,0.92946 c 0.01276,0.0385 0.02983,0.0748 0.0415,0.11372 0.03529,0.11777 0.06974,0.30929 0.102797,0.4976 -0.04366,-0.29421 -0.114669,-0.62706 -0.199497,-0.98131 0.01735,0.12341 0.03769,0.24652 0.05518,0.36999 z m 0.144322,0.61132 c 0.04823,0.32482 0.0726,0.61496 0.07403,0.87139 0.02806,0.17984 0.05033,0.36101 0.08037,0.54044 0.08555,0.5105 -0.01615,-0.62457 -0.154404,-1.41183 z m -0.08269,-0.86035 c 0.984889,1.37609 0.634512,0.88991 0.953875,1.33888 -0.01936,-0.0543 -0.03989,-0.10743 -0.05981,-0.1609 -0.305248,-0.38539 -0.594713,-0.78658 -0.894061,-1.17798 z m 0.167525,0.38845 c 0.02141,0.0793 0.365963,0.62442 1.113911,1.74528 -0.124963,-0.24072 -0.223174,-0.50374 -0.317781,-0.7699 -0.435065,-0.57294 -0.823135,-1.07598 -0.79613,-0.97538 z m 2.268674,4.31197 c 0.0025,0.008 0.0273,0.0439 0.07982,0.11115 0.267233,0.34294 0.551769,0.66903 0.835599,0.99492 -0.0165,-0.0458 -0.03332,-0.0916 -0.05008,-0.1373 -0.435085,-0.49822 -0.879752,-1.00781 -0.86532,-0.96875 z m 2.115683,3.15083 c 0.275319,0.30334 0.566744,0.58892 0.857074,0.87452 -0.02133,-0.0404 -0.04409,-0.0805 -0.06615,-0.12075 -0.283846,-0.25315 -0.981411,-0.96761 -0.790919,-0.75378 z m 0.414208,0.46698 c 0.222091,0.26434 0.439412,0.53404 0.657281,0.8031 -0.05642,-0.10472 -0.113823,-0.20886 -0.170247,-0.31365 -0.179432,-0.18116 -0.377701,-0.38201 -0.486986,-0.48944 z m 113.995118,8.6899 c 0.0105,-0.027 -0.31356,0.16671 -0.64761,0.36717 -0.0334,0.0453 -0.0653,0.0935 -0.098,0.13948 0.026,3e-4 0.0513,-1.8e-4 0.0779,2.8e-4 0.23774,-0.18006 0.32042,-0.2336 0.60351,-0.45042 0.0418,-0.032 0.0618,-0.0509 0.0648,-0.0561 z m -1.75247,1.08287 c -0.002,0.002 -0.005,0.002 -0.007,0.005 -0.005,0.006 -0.008,0.009 -0.012,0.0137 -9.7e-4,0.003 -0.002,0.008 -0.005,0.0126 0.007,-0.008 0.0166,-0.023 0.0219,-0.0301 z m -0.0219,0.0301 c -0.0213,0.0296 -0.0592,0.077 -0.0832,0.10901 0.0141,6.3e-4 0.0286,0.003 0.0432,0.005 0.0144,-0.0377 0.026,-0.076 0.0401,-0.11342 z m -0.0832,0.10901 c -9.7e-4,-2.5e-4 -0.005,3.8e-4 -0.007,4e-5 -0.0212,0.0266 -0.0483,0.0636 -0.0709,0.0924 0.002,-5.4e-4 0.005,-9.8e-4 0.0105,-9.8e-4 0.0218,-0.0286 0.0483,-0.0644 0.0682,-0.0911 z m -0.0682,0.0911 c -0.0706,0.0942 -0.13581,0.18212 -0.22355,0.29968 0.053,-0.0382 0.17089,-0.12821 0.22937,-0.17066 0.0272,-0.0399 0.0448,-0.0711 0.0696,-0.10912 0.002,-0.008 0.005,-0.0156 0.007,-0.0236 -0.0276,9.7e-4 -0.0552,0.003 -0.0828,0.005 z m -0.22355,0.29968 c -0.007,0.006 -0.0259,0.0191 -0.0333,0.0248 -0.0119,0.015 -0.0191,0.0249 -0.0298,0.0401 0.0105,-0.006 0.0192,-0.012 0.0286,-0.0178 0.0148,-0.0187 0.0218,-0.0285 0.0348,-0.047 z m -0.0348,0.0469 c -0.2836,0.37994 -0.22111,0.2869 -0.70195,0.93614 -0.21471,0.28991 0.24565,-0.34745 0.67345,-0.91825 -0.0426,0.0244 -0.084,0.0506 -0.12633,0.0756 0.033,-0.0242 0.12022,-0.0903 0.15634,-0.11546 0.0919,-0.12206 0.16972,-0.22162 0.24845,-0.32304 -0.0523,0.002 -0.10461,0.006 -0.15685,0.006 -0.68491,0.50992 -1.475,1.23203 -0.83614,0.83312 -0.0371,0.0288 -0.0766,0.0536 -0.11251,0.0843 -0.56477,0.46463 -1.55965,1.95394 -1.83782,2.52143 0.0634,-0.0204 0.12475,-0.0472 0.18936,-0.063 0.0318,-0.009 0.0634,-0.0206 0.0953,-0.03 0.39504,-0.40598 0.76012,-0.78365 1.07577,-1.11606 0.41207,-0.54617 1.03902,-1.31746 1.50566,-1.97711 -0.0571,0.0298 -0.11615,0.0552 -0.172,0.0865 z m 0.32058,-0.43771 c 0.0274,-0.0343 0.0701,-0.0929 0.0932,-0.12153 9.7e-4,-0.003 9.7e-4,-0.006 0.002,-0.008 -0.0569,0.0369 -0.11568,0.0796 -0.17696,0.12419 0.0271,0.003 0.0543,0.003 0.0814,0.006 z m 0.0106,0.1205 c -0.0215,0.0313 -0.0399,0.0631 -0.0598,0.0939 0.0105,-0.007 0.0267,-0.0191 0.0358,-0.0264 0.007,-0.0228 0.0171,-0.045 0.0242,-0.0677 z m -0.0651,0.18531 c -0.0253,0.0124 -0.0508,0.024 -0.0754,0.037 -0.12446,0.20626 -0.23897,0.42854 -0.35268,0.72289 0.12583,-0.14085 0.20678,-0.23835 0.30663,-0.35468 0.0393,-0.13589 0.0789,-0.27167 0.12151,-0.40529 z m -5.2459,0.037 c 0.47243,-0.0679 0.56637,-0.0788 -0.50178,0.0658 -0.0145,0.006 -0.0306,0.0135 -0.0458,0.0191 0.19564,-0.0288 0.40108,-0.0639 0.54755,-0.085 z m -0.95838,0.25097 c -0.21573,0.0901 -0.43451,0.16872 -0.65687,0.23142 0.3634,-0.0711 0.72697,-0.14196 1.09035,-0.21306 -0.14433,-0.007 -0.28903,-0.0148 -0.43347,-0.0183 z m 3.19183,0.24967 c -0.0566,0.0255 -0.11474,0.047 -0.17077,0.0742 -0.28893,0.13907 -1.05206,0.77249 -0.78319,0.58963 0.35404,-0.24092 0.64769,-0.44852 0.95395,-0.66372 z m -9.48259,2.30789 c -0.0238,0.003 -0.0511,0.0113 -0.0752,0.015 -0.002,0.003 6.5e-4,4.1e-4 -0.002,0.005 -0.0105,0.0101 -0.0302,0.0279 -0.0409,0.0389 0.0193,-4.1e-4 0.0392,-0.002 0.0592,-0.003 0.0496,-0.0457 0.0279,-0.026 0.0597,-0.055 z m -0.11867,0.0218 c -0.0448,0.008 -0.088,0.0149 -0.13589,0.0257 -0.007,0.003 -0.0329,0.0153 -0.0395,0.0191 0.0445,-0.002 0.0804,-0.006 0.12355,-0.007 0.0169,-0.0126 0.0384,-0.0295 0.052,-0.0388 z m 3.98165,2.10302 c -0.0277,0.007 -0.0561,0.009 -0.084,0.0162 -0.11028,0.0267 -0.42535,0.17249 -0.31805,0.13304 0.13384,-0.0491 0.26838,-0.0986 0.4021,-0.14935 z m -86.162964,1.19267 c -0.05019,0.002 -0.02454,0.0417 -0.147446,0.0977 0.01188,0.009 0.0412,0.0292 0.04554,0.032 0.144232,-0.0249 0.293701,-0.0538 0.430168,-0.0732 -0.03748,-0.006 -0.313315,-0.0574 -0.328307,-0.0568 z m -0.156028,0.10191 c -0.06041,0.0263 -0.145285,0.0552 -0.300518,0.0873 0.122704,-0.0239 0.231547,-0.0393 0.348563,-0.0596 -0.0095,-0.006 -0.03076,-0.0175 -0.04816,-0.028 z m 2.298281,0.36377 c 0.124296,0.054 0.406453,0.17956 0.499305,0.21942 0.0093,-9.8e-4 0.01918,-0.003 0.02964,-0.005 -0.203977,-0.0887 -0.325119,-0.13535 -0.528965,-0.2154 z m -0.128536,0.31524 c -0.01416,-0.002 -0.05982,0.0159 -0.04456,0.0137 0.02391,-0.003 0.04213,-0.008 0.06552,-0.0113 -0.0069,-5.2e-4 -0.01417,-0.002 -0.0215,-0.003 z m 66.936037,0.32994 c -0.0323,0.005 -0.0909,0.007 -0.11743,0.0113 -0.17417,0.0285 -0.34414,0.0804 -0.51442,0.13088 0.0663,-0.006 0.34156,-0.0324 0.42137,-0.0385 0.0716,-0.0332 0.13707,-0.0712 0.21034,-0.10303 z m -1.23165,0.32741 c -0.0845,0.0286 -0.16882,0.0581 -0.25356,0.0849 -0.0441,0.0136 -0.16581,0.0856 -0.12272,0.0687 0.12591,-0.0497 0.25061,-0.1028 0.37616,-0.15358 z m -58.902918,0.60528 c 0.204293,0.0699 0.408611,0.14024 0.612976,0.21019 6.19e-4,2.5e-4 0.0018,-2.6e-4 0.0022,-2.6e-4 0.111811,0.008 0.186811,0.022 0.286416,0.0316 -0.152119,-0.0302 -0.682265,-0.18875 -0.90186,-0.2418 z m 54.411738,0.25885 c -0.0871,0.0197 -0.36855,0.0362 -0.47717,0.0881 -0.0313,0.0156 0.0681,-0.003 0.10273,-0.006 0.12494,-0.0274 0.24974,-0.0555 0.37461,-0.083 z m -52.471726,0.4055 c 0.177564,0.0607 0.355227,0.12142 0.532815,0.18218 0.0048,-8e-4 0.0097,-2.9e-4 0.01439,-9.8e-4 0.0071,-0.006 -0.192489,-0.0923 -0.288442,-0.13826 -0.08603,-0.0142 -0.17197,-0.0282 -0.257953,-0.0425 z m 45.629976,0.19725 c -0.19829,0.029 -0.77581,0.11036 -0.54154,0.12523 0.29042,-0.0707 0.37698,-0.0859 0.54154,-0.12523 z m -43.286013,0.7387 c -0.04633,-0.0101 -0.188031,0.0301 -0.140891,0.0244 0.05168,-0.007 0.103102,-0.0137 0.15452,-0.0215 -0.0045,-8.6e-4 -0.0097,-0.002 -0.01427,-0.003 z m 35.369563,0.1726 c -0.59655,0.0161 -0.36739,0.0418 -0.24236,0.0599 0.12122,-0.0258 0.16841,-0.0361 0.26581,-0.0571 -0.005,-4.3e-4 -0.0168,-0.003 -0.0238,-0.003 z m -72.143816,-0.25529 -6.78e-4,0.15652 c 0.0113,0.0217 0.02067,0.0303 0.03183,0.0514 l 0.09013,3.4e-4 c -0.04052,-0.0696 -0.08231,-0.13916 -0.121368,-0.20822 z"
       inkscape:connector-curvature="0" />
    <path
       style="fill:none;stroke:none;stroke-width:0.31688282px;stroke-linecap:butt;stroke-linejoin:miter;stroke-opacity:1"
       d="m 47.230216,190.39215 c 0.24101,-15.62175 5.948903,-0.32802 8.749446,-1.14451 0.340156,-0.0992 0.641824,-0.28177 0.962735,-0.42269 0.320893,-0.1409 0.66401,-0.24751 0.962732,-0.42266 0.188954,-0.1107 0.293404,-0.31378 0.482307,-0.4246 0.298752,-0.17513 0.641825,-0.28178 0.962735,-0.42268 0.3209,-0.14092 0.622575,-0.3235 0.962732,-0.42269 0.152146,-0.0442 0.366762,0.10201 0.480433,0.002 0.113835,-0.0999 -0.111822,-0.32645 0.0018,-0.42654 0.227365,-0.20016 0.733515,0.20402 0.960879,0.003 0.113834,-0.0999 -0.111822,-0.32644 0.0018,-0.42652 0.113835,-0.0999 0.320286,9.8e-4 0.480436,0.002 1.601452,0.007 3.202908,0.0129 4.804353,0.0193 5.765232,0.0232 11.530465,0.0464 17.295688,0.0695 3.18681,0.0129 -0.678558,-0.20379 1.439448,0.43234 0.141586,0.0425 3.36216,0.0136 3.363051,0.0135 0.351413,-0.0609 0.611348,-0.36169 0.962733,-0.42267 0.942944,-0.16352 1.9287,0.11359 2.882616,0.0116 1.242575,-0.13284 2.656885,-0.42036 3.847212,-0.83765 0.332976,-0.11675 0.622577,-0.32348 0.962733,-0.42266 0.456371,-0.13306 0.984945,0.13885 1.441316,0.006 0.215121,-0.0628 0.279311,-0.33551 0.482301,-0.4246 0.143501,-0.063 0.366768,0.10202 0.480438,0.002 0.1138,-0.0999 -0.1118,-0.32644 0.002,-0.42653 0.1138,-0.0999 0.36675,0.10201 0.48043,0.002 0.1138,-0.0999 -0.1118,-0.32646 0.002,-0.42655 0.1138,-0.0999 0.33693,0.0649 0.48044,0.002 0.20294,-0.0892 0.27932,-0.33551 0.48232,-0.4246 0.19086,-0.0838 1.34271,0.0926 1.4413,0.006 0.11381,-0.0999 -0.1118,-0.32646 0.002,-0.42656 0.0987,-0.0867 1.25046,0.0896 1.44133,0.006 0.20299,-0.0891 0.26716,-0.36189 0.48231,-0.4246 0.37609,-0.10969 2.61772,0.12789 2.88261,0.0116 0.203,-0.0892 0.27932,-0.33553 0.48231,-0.4246 0.0716,-0.0314 1.81638,-0.024 1.92175,0.008 0.42362,0.12722 2.49784,1.06465 2.87703,1.29121 0.18792,0.11228 0.27604,0.338 0.47857,0.42846 0.45206,0.20289 0.94323,0.34216 1.43944,0.43233 0.31383,0.057 0.64056,0.002 0.96086,0.003 0.16014,6.2e-4 0.33748,-0.0623 0.48045,0.002 0.20217,0.0908 0.27603,0.338 0.47857,0.42847 0.14299,0.0642 0.36763,-0.0991 0.48043,0.002 0.11273,0.101 -0.11463,0.32555 -0.002,0.42654 0.22562,0.20198 0.73528,-0.19812 0.96088,0.003 0.11273,0.101 -0.11462,0.32556 -0.002,0.42654 0.0978,0.0877 1.25119,-0.0795 1.44131,0.006 0.20218,0.0907 0.27604,0.33801 0.47857,0.42847 0.1459,0.0654 1.22496,0.005 1.44132,0.006 0.96087,0.003 1.92175,0.008 2.88262,0.0116 3.52318,0.0142 7.04639,0.0283 10.56957,0.0425 3.20291,0.0129 6.40581,0.0257 9.60874,0.0386 0.96086,0.003 1.92171,0.008 2.88258,0.0116 0.16015,6.1e-4 0.32031,9.8e-4 0.48045,0.002 0.16014,6.2e-4 0.33749,-0.0622 0.48045,0.002 0.20217,0.0908 0.27603,0.33801 0.47855,0.42847 0.38361,0.17216 1.05774,-0.16636 1.44133,0.006 0.20218,0.0908 0.27602,0.33802 0.47857,0.42848 0.1459,0.0654 1.22493,0.005 1.44131,0.006 0.96086,0.003 1.92174,0.008 2.88261,0.0116 1.92175,0.008 3.84348,0.0154 5.76523,0.0232 0.80072,0.003 1.60145,0.007 2.40217,0.0101 0.16012,6.2e-4 0.32028,9.8e-4 0.48044,0.002 0.16012,6.2e-4 0.33748,-0.0622 0.48043,0.002 1.99559,0.89562 -0.51348,-0.0315 0.47671,0.85501 0.11275,0.101 0.36763,-0.0991 0.48043,0.002 0.11274,0.101 -0.0728,0.29907 -0.002,0.42652 0.10047,0.18025 0.37808,0.24822 0.47857,0.42849 0.0946,0.16945 -0.10344,1.19202 -0.006,1.27961 0.11274,0.101 0.36765,-0.0991 0.48044,0.002 0.11274,0.101 -9.7e-4,0.28435 -0.002,0.42653 -0.005,0.99525 -0.008,1.99052 -0.013,2.98577 -0.003,0.7109 -0.006,1.4218 -0.009,2.1327 -6e-4,0.14213 -0.11462,0.32554 -0.002,0.42653 0.11274,0.101 0.36763,-0.0991 0.48043,0.002 0.2256,0.20197 -0.22933,0.65111 -0.003,0.8531 0.11273,0.10101 0.36764,-0.0991 0.48046,0.002 0.23927,0.21424 -0.24489,1.06537 -0.006,1.27961 0.11275,0.101 0.36763,-0.0991 0.48043,0.002 0.11274,0.101 -0.0728,0.29908 -0.002,0.42655 0.10059,0.18023 0.37809,0.24822 0.47857,0.42847 0.14209,0.25494 -0.22932,0.65109 -0.003,0.85308 0.11274,0.10099 0.36763,-0.0991 0.48045,0.002 0.10242,0.0916 -0.0948,1.47065 -0.007,1.70615 0.1119,0.30205 0.36473,0.55298 0.47669,0.85501 0.05,0.13506 -0.052,0.29146 -0.002,0.42654 0.11191,0.30204 0.36482,0.55292 0.4767,0.855 0.05,0.13506 -9.7e-4,0.28436 -0.002,0.42654 -9.8e-4,0.28437 -0.1039,0.58291 -0.003,0.85308 0.0709,0.19107 0.37807,0.24822 0.47858,0.42847 0.15234,0.27318 -0.1349,1.36231 -0.007,1.70615 0.11192,0.30207 0.36474,0.55299 0.47671,0.85501 0.10016,0.27017 -0.10391,0.5829 -0.003,0.85309 0.11193,0.30205 0.36484,0.5529 0.47672,0.85499 0.10017,0.27018 -0.002,0.56873 -0.003,0.85309 -0.003,0.71091 -0.006,1.4218 -0.009,2.13268 -0.009,2.13271 -0.0187,4.26539 -0.028,6.3981 -4.5e-4,0.10359 0.009,1.26594 -0.006,1.27961 -0.1138,0.0999 -0.40826,-0.12882 -0.48044,-0.002 -0.14435,0.25377 -0.002,0.56872 -0.003,0.85308 -0.16137,0.28371 -0.28436,0.58742 -0.48413,0.85115 -0.12634,0.16678 -0.27932,0.33552 -0.48233,0.42461 -0.14349,0.063 -0.40825,-0.12882 -0.48044,-0.002 -0.14434,0.25376 0.14062,0.5993 -0.003,0.85306 -0.0721,0.1269 -0.33691,-0.065 -0.48041,-0.002 -0.20302,0.089 -0.27933,0.33551 -0.48232,0.42461 -0.1435,0.063 -0.36675,-0.10201 -0.48045,-0.002 -0.11379,0.0999 0.0703,0.29967 -0.002,0.42654 -0.10202,0.17948 -0.38024,0.24516 -0.4823,0.42461 -0.0722,0.12685 0.0702,0.29964 -0.002,0.42652 -1.0075,1.77115 0.0352,-0.45585 -0.96274,0.42268 -0.22736,0.20016 0.22362,0.65292 -0.003,0.85308 -0.1138,0.0999 -0.36675,-0.10201 -0.48044,-0.002 -0.11379,0.0999 0.0703,0.29965 -0.002,0.42653 -0.10203,0.17948 -0.38025,0.24516 -0.48234,0.42462 -0.0721,0.12689 0.0703,0.29965 -0.002,0.42654 -0.20412,0.35887 -0.76042,0.49038 -0.9646,0.8492 -0.14435,0.25377 0.14062,0.59931 -0.003,0.85306 -0.10202,0.17948 -0.38025,0.24516 -0.48233,0.42462 -0.14434,0.25376 0.14067,0.59931 -0.003,0.85308 -0.10203,0.17947 -0.38024,0.24513 -0.4823,0.42459 -0.0722,0.12686 0.1118,0.32647 -0.002,0.42655 -0.1138,0.0999 -0.36677,-0.10202 -0.48045,-0.002 -0.11379,0.0999 0.11181,0.32646 -0.002,0.42655 -0.1138,0.0999 -0.36674,-0.10201 -0.48042,-0.002 -0.22736,0.20017 0.22363,0.65294 -0.003,0.8531 -0.1138,0.0999 -0.36678,-0.10201 -0.48046,-0.002 -0.22737,0.20016 0.22364,0.6529 -0.003,0.85309 -0.11379,0.0999 -0.36675,-0.10203 -0.48042,-0.002 -0.11381,0.0999 0.1118,0.32646 -0.002,0.42652 -0.99792,0.87852 0.0449,-1.34845 -0.96275,0.42269 -0.14434,0.25376 0.22363,0.65291 -0.003,0.85307 -0.11381,0.0999 -0.36675,-0.10201 -0.48042,-0.002 -0.1138,0.0999 0.0703,0.29966 -0.002,0.42655 -0.29051,0.51068 -1.15641,0.76313 -1.44691,1.27381 -0.0721,0.1269 0.11181,0.32646 -0.002,0.42655 -0.1138,0.0999 -0.36677,-0.10202 -0.48044,-0.002 -0.1138,0.0999 0.0702,0.29964 -0.002,0.42652 -0.10201,0.17946 -0.32152,0.28307 -0.4823,0.4246 -0.16077,0.14154 -0.27932,0.33553 -0.48228,0.42462 -0.14358,0.063 -0.33695,-0.0649 -0.48045,-0.002 -0.20301,0.089 -0.27933,0.33552 -0.48232,0.4246 -0.14349,0.063 -0.36674,-0.10201 -0.48043,-0.002 -0.1138,0.0999 0.11179,0.32646 -0.002,0.42652 -0.99791,0.87854 0.0449,-1.34844 -0.96272,0.42269 -0.0722,0.12687 0.1118,0.32646 -0.002,0.42655 -0.1138,0.0999 -0.36673,-0.10201 -0.48042,-0.002 -0.11382,0.0999 0.14164,0.36354 -0.002,0.42654 -0.28707,0.12599 -0.67384,-0.12988 -0.96089,-0.003 -0.14347,0.0631 0.1118,0.32646 -0.002,0.42655 -0.1138,0.0999 -0.36677,-0.10202 -0.48045,-0.002 -0.9979,0.87852 1.51919,-0.0284 -0.48415,0.85114 -0.14349,0.0631 -0.33693,-0.0649 -0.48046,-0.002 -0.20298,0.0891 -0.27931,0.33552 -0.48228,0.42461 -0.14351,0.063 -0.33694,-0.065 -0.48044,-0.002 -0.203,0.0892 -0.27932,0.33552 -0.48229,0.4246 -0.14351,0.063 -0.36675,-0.10201 -0.48043,-0.002 -0.1138,0.0999 0.1118,0.32646 -0.002,0.42653 -1.88228,1.65714 -0.25758,-0.0998 -1.44315,0.42076 -0.40589,0.17826 -0.53434,0.72377 -0.96462,0.84921 -0.30424,0.0887 -0.64982,-0.0715 -0.96085,-0.003 -0.34776,0.0757 -0.62258,0.32349 -0.96274,0.42267 -0.15212,0.0445 -0.32831,-0.0463 -0.48045,-0.002 -3.48447,1.01589 0.758,-0.11993 -1.44503,0.84731 -0.14351,0.063 -0.33692,-0.065 -0.48043,-0.002 -0.203,0.0891 -0.27932,0.33553 -0.4823,0.42461 -0.3851,0.16908 -1.0562,-0.17486 -1.4413,-0.006 -2.00334,0.87956 0.51374,-0.0274 -0.48416,0.85116 -0.11379,0.0999 -0.33692,-0.0649 -0.48044,-0.002 -0.203,0.089 -0.2793,0.33551 -0.48229,0.4246 -0.14349,0.0631 -0.36677,-0.10202 -0.48044,-0.002 -0.1138,0.0999 0.1118,0.32646 -0.002,0.42655 -0.1138,0.0999 -0.36676,-0.10201 -0.48044,-0.002 -0.1138,0.0999 0.0704,0.29967 -0.002,0.42655 -0.10202,0.17946 -0.32153,0.28306 -0.48231,0.4246 -0.16077,0.14153 -0.27931,0.33551 -0.4823,0.4246 -1.34413,0.59011 0.79499,-1.78175 -1.44504,0.84728 -1.60974,1.88931 0.80094,-0.0441 -1.44691,1.27383 -0.18893,0.11071 -0.26714,0.36189 -0.48228,0.4246 -0.30425,0.0887 -0.65663,-0.0925 -0.96088,-0.003 -0.21514,0.0627 -0.29339,0.3138 -0.4823,0.4246 -0.29877,0.17512 -0.664,0.24751 -0.96275,0.42268 -0.18893,0.1107 -0.27932,0.33552 -0.48228,0.4246 -0.1435,0.0631 -0.33693,-0.0649 -0.48045,-0.002 -0.20298,0.089 -0.27931,0.3355 -0.48229,0.4246 -0.28705,0.12598 -0.67383,-0.12989 -0.96087,-0.003 -0.20299,0.0891 -0.27931,0.33553 -0.4823,0.42461 -0.38509,0.16908 -1.05621,-0.17485 -1.44131,-0.006 -0.14349,0.063 0.1118,0.32646 -0.002,0.42653 -0.1138,0.0999 -0.32029,-9.8e-4 -0.48044,-0.002 -0.47196,-0.002 -2.56444,-0.10427 -2.8826,-0.0116 -0.34018,0.0992 -0.62258,0.32352 -0.96274,0.42269 -0.15214,0.0442 -0.32832,-0.0463 -0.48045,-0.002 -0.34016,0.0992 -0.615,0.34697 -0.96273,0.42267 -0.46653,0.10157 -0.96088,-0.003 -1.4413,-0.006 -0.96087,-0.003 -1.92176,-0.008 -2.8826,-0.0116 -0.48046,-0.002 -0.98496,-0.13884 -1.44132,-0.006 -0.21513,0.0628 -0.26717,0.36189 -0.4823,0.4246 -0.30424,0.0887 -0.64058,-0.002 -0.96087,-0.003 -0.3203,-9.8e-4 -0.6406,-0.002 -0.96089,-0.003 -1.28115,-0.006 -2.56232,-0.0101 -3.84349,-0.0154 -0.33416,-9.8e-4 -2.22809,-0.0859 -2.40218,-0.0101 -0.20301,0.089 -0.26718,0.36188 -0.48231,0.42462 -0.27369,0.0797 -1.94969,-0.008 -2.40218,-0.0101 -1.92177,-0.008 -3.84353,-0.0154 -5.765263,-0.0232 -1.601457,-0.007 -3.202908,-0.0129 -4.804365,-0.0194 -0.386762,-9.8e-4 -1.62058,0.0827 -1.921737,-0.008 -0.339287,-0.1019 -0.611946,-0.3519 -0.959007,-0.43039 -0.833349,-0.1885 -2.049274,0.1769 -2.882614,-0.0116 -0.219507,-0.0497 -0.276401,-0.33774 -0.478575,-0.42848 -0.142961,-0.0641 -0.320291,-9.9e-4 -0.480433,-0.002 -0.320291,-9.8e-4 -0.650444,0.0664 -0.960877,-0.003 -0.347063,-0.0785 -0.611936,-0.35188 -0.959004,-0.43038 -0.310424,-0.0702 -0.657413,0.0873 -0.96087,-0.003 -0.214582,-0.0645 -0.2764,-0.33772 -0.478575,-0.42847 -0.189045,-0.0849 -1.92765,-0.008 -2.402179,-0.0101 -0.160129,-6.3e-4 -0.367642,0.0991 -0.480436,-0.002 -0.11281,-0.101 0.114671,-0.32555 0.0018,-0.42655 -0.225597,-0.20197 -0.735272,0.19813 -0.960868,-0.003 -0.990187,-0.88652 1.518869,0.0407 -0.476715,-0.85501 -0.28592,-0.12833 -0.735269,0.19813 -0.960868,-0.003 -0.112811,-0.101 0.114671,-0.32555 0.0018,-0.42654 -0.225606,-0.20197 -0.67495,0.12447 -0.960872,-0.003 -0.202172,-0.0908 -0.276401,-0.33774 -0.478574,-0.42848 -0.285918,-0.12833 -0.67495,0.12446 -0.960877,-0.003 -0.505449,-0.22683 -0.45168,-0.63009 -0.957141,-0.85692 -0.190123,-0.0854 -1.34347,0.0818 -1.441305,-0.006 -0.11281,-0.10099 0.114659,-0.32555 0.0018,-0.42654 -0.09784,-0.0877 -1.251192,0.0795 -1.441312,-0.006 -2.194495,-0.98488 2.037921,0.18498 -1.437576,-0.85887 -0.151729,-0.0455 -0.367631,0.0991 -0.480435,-0.002 -0.112812,-0.10101 0.114669,-0.32555 0.0018,-0.42653 -0.112811,-0.101 -0.337476,0.0623 -0.480435,-0.002 -0.575406,-0.25825 -0.860349,-1.02714 -1.435711,-1.2854 -0.142961,-0.0641 -0.367641,0.0991 -0.480441,-0.002 -0.112788,-0.101 0.114669,-0.32553 0.0018,-0.42653 -0.225606,-0.20198 -0.735269,0.19812 -0.96087,-0.003 -0.112812,-0.101 0.114659,-0.32555 0.0018,-0.42654 -0.112811,-0.101 -0.337478,0.0623 -0.480435,-0.002 -0.40435,-0.18148 -0.552793,-0.67547 -0.957139,-0.85694 -0.142963,-0.0641 -0.337481,0.0622 -0.480435,-0.002 -0.202182,-0.0907 -0.276408,-0.33773 -0.478575,-0.42846 -0.142961,-0.0641 -0.337481,0.0623 -0.480446,-0.002 -1.99558,-0.89561 0.513475,0.0314 -0.476706,-0.855 -0.112811,-0.101 -0.337476,0.0623 -0.480433,-0.002 -0.202181,-0.0908 -0.319042,-0.28564 -0.478574,-0.42848 -0.159526,-0.14282 -0.378075,-0.24821 -0.478568,-0.42845 -0.07106,-0.12746 0.114671,-0.32556 0.0018,-0.42655 -0.112797,-0.10099 -0.367641,0.0991 -0.480434,-0.002 -0.1128,-0.101 0.07293,-0.29907 0.0018,-0.42654 -0.286028,-0.51302 -1.149689,-0.7724 -1.435721,-1.2854 -0.07106,-0.12746 0.07293,-0.2991 0.0018,-0.42655 -0.100491,-0.18025 -0.378068,-0.24822 -0.478568,-0.42846 -0.142128,-0.25492 0.229329,-0.6511 0.0038,-0.85308 -0.112787,-0.101 -0.367632,0.0991 -0.480435,-0.002 -0.252223,-0.22581 -0.22448,-0.62919 -0.476705,-0.855 -0.112812,-0.101 -0.367633,0.0991 -0.480434,-0.002 -0.112812,-0.101 0.07293,-0.29907 0.0018,-0.42655 -1.587228,-1.42103 0.224718,0.40307 -0.476707,-0.85499 -0.100491,-0.18026 -0.378077,-0.24821 -0.478567,-0.42847 -0.142127,-0.25492 0.145849,-0.59817 0.0038,-0.85307 -0.10049,-0.18026 -0.378074,-0.24823 -0.478574,-0.42847 -0.0945,-0.16951 0.103433,-1.19203 0.0056,-1.27961 -0.990185,-0.88654 0.03296,1.34876 -0.959012,-0.43042 -0.142121,-0.2549 0.22933,-0.65109 0.0038,-0.85307 -0.112811,-0.101 -0.367631,0.0991 -0.480435,-0.002 -0.225605,-0.20199 0.145857,-0.59817 0.0038,-0.85309 -0.100491,-0.18024 -0.378069,-0.2482 -0.478575,-0.42846 -0.07107,-0.12747 0.114682,-0.32553 0.0018,-0.42653 -0.225606,-0.20198 -0.818744,0.25105 -0.960872,-0.003 -0.142129,-0.2549 0.145854,-0.59816 0.0038,-0.85308 -0.07104,-0.12745 -0.367631,0.0991 -0.480434,-0.002 -0.112811,-0.101 0.114671,-0.32554 0.0018,-0.42653 -0.112811,-0.101 -0.367639,0.0991 -0.480435,-0.002 -0.990178,-0.88652 1.518873,0.0407 -0.476706,-0.85502 -0.142963,-0.0641 -0.36764,0.0991 -0.480435,-0.002 -0.112812,-0.101 0.07293,-0.29907 0.0018,-0.42653 -0.100491,-0.18026 -0.319059,-0.28566 -0.478575,-0.42847 -0.159526,-0.14282 -0.290616,-0.31618 -0.478575,-0.42847 -0.297181,-0.17755 -0.706771,-0.20457 -0.959007,-0.4304 -0.112811,-0.10099 0.11467,-0.32555 0.0018,-0.42653 -0.112811,-0.101 -0.367631,0.0991 -0.480434,-0.002 -0.115154,-0.10314 0.122605,-1.60306 0.0074,-1.70616 -0.112811,-0.101 -0.367632,0.0991 -0.480434,-0.002 -0.112811,-0.101 0.07293,-0.29908 0.0018,-0.42654 -0.100502,-0.18026 -0.378076,-0.24822 -0.478567,-0.42846 -0.156081,-0.27995 0.149783,-1.75362 0.0093,-2.1327 -0.111917,-0.30206 -0.364788,-0.55295 -0.476709,-0.85501 -0.16819,-0.45392 0.175646,-1.25223 0.0074,-1.70615 -0.111929,-0.30206 -0.3912,-0.54623 -0.476707,-0.85501 -0.104197,-0.37632 0.152192,-2.30632 0.01118,-2.55923 -0.10049,-0.18025 -0.378077,-0.24822 -0.478573,-0.42848 -0.06266,-0.11239 0.0064,-1.4831 0.0074,-1.70614 0.005,-1.13744 0.01004,-2.27487 0.01492,-3.41232 0.005,-1.13743 0.159525,0.14283 -0.478573,-0.42847 -0.01539,-0.0137 0.0053,-1.17616 0.0056,-1.27961 0.0118,-2.7014 0.02362,-5.40281 0.03541,-8.10423 8.81e-4,-0.20111 -0.01251,-2.11344 0.0093,-2.13268 0.113835,-0.0999 0.366756,0.10202 0.480434,0.002 0.113835,-0.0999 0.0014,-0.28436 0.0018,-0.42654 0.0031,-0.71091 0.0062,-1.42182 0.0093,-2.1327 6.37e-4,-0.14215 -0.11181,-0.32645 0.0018,-0.42654 0.113835,-0.0999 0.366755,0.10202 0.480435,0.002 0.01557,-0.0136 0.0053,-1.17617 0.0056,-1.27962 0.0038,-0.85307 0.0074,-1.70614 0.01118,-2.55922 8.08e-4,-0.18408 0.07514,-1.15965 0.0056,-1.27963 -0.286768,-0.49469 -0.700853,-0.92254 -1.051291,-1.38382 z"
       id="path20"
       inkscape:connector-curvature="0" />
    <path
       style="fill:#808080;stroke-width:0.60349411"
       d="m 80.545248,194.65594 c -1.195073,8.54 -7.898514,17.74595 -17.095748,17.8868 -9.197216,0.14077 -11.970561,-2.35904 -8.293258,-10.78938 3.64399,-8.35388 12.747734,-12.00773 18.816962,-15.71809 7.298711,-4.46195 7.767107,0.0807 6.572044,8.62067 z"
       id="path4549"
       inkscape:connector-curvature="0"
       sodipodi:nodetypes="sssss" />
    <ellipse
       style="fill:none;stroke:#000000;stroke-width:0.15910321;stroke-opacity:1"
       id="path8107-60"
       cx="28.603031"
       cy="215.70595"
       rx="0.63496822"
       ry="0.71189815"
       transform="matrix(0.98448798,-0.17545205,0.17764541,0.98409456,0,0)" />
    <ellipse
       style="fill:none;stroke:#000000;stroke-width:0.15910321;stroke-opacity:1"
       id="path8107-4"
       cx="23.892097"
       cy="216.35184"
       rx="0.63496822"
       ry="0.71189815"
       transform="matrix(0.98448798,-0.17545205,0.17764541,0.98409456,0,0)" />
    <ellipse
       style="fill:none;stroke:#000000;stroke-width:0.15910321;stroke-opacity:1"
       id="path8107-3"
       cx="26.328791"
       cy="216.1904"
       rx="0.63496822"
       ry="0.71189815"
       transform="matrix(0.98448798,-0.17545205,0.17764541,0.98409456,0,0)" />
    <ellipse
       style="fill:none;stroke:#000000;stroke-width:0.15910321;stroke-opacity:1"
       id="path8107-06"
       cx="27.14102"
       cy="212.96092"
       rx="0.63496822"
       ry="0.71189815"
       transform="matrix(0.98448798,-0.17545205,0.17764541,0.98409456,0,0)" />
    <ellipse
       style="fill:none;stroke:#000000;stroke-width:0.15910321;stroke-opacity:1"
       id="path8107-1"
       cx="31.039717"
       cy="210.70039"
       rx="0.63496822"
       ry="0.71189815"
       transform="matrix(0.98448798,-0.17545205,0.17764541,0.98409456,0,0)" />
    <ellipse
       style="fill:none;stroke:#000000;stroke-width:0.15910321;stroke-opacity:1"
       id="path8107-98"
       cx="35.100857"
       cy="208.76271"
       rx="0.63496822"
       ry="0.71189815"
       transform="matrix(0.98448798,-0.17545205,0.17764541,0.98409456,0,0)" />
    <path
       id="path24"
       style="fill:#59a159;fill-opacity:1;stroke-width:0.56088936"
       d="m 93.014116,176.27569 c -0.553148,0.41322 -1.144754,0.98706 -1.972161,1.83572 -2.212964,2.26983 -3.86042,4.70763 -4.889194,7.23499 -0.203788,0.50071 -1.214946,2.14025 -2.247042,3.64354 -1.689045,2.46003 -3.387136,3.90544 -16.990077,14.46078 l -15.114117,11.72747 -1.656209,3.74029 -1.657067,3.74023 1.804923,3.14309 c 12.437042,21.65902 28.423756,33.21662 47.308285,34.20165 14.757023,0.76973 28.041883,-3.72874 44.854713,-15.18767 l 4e-4,4.7e-4 c 14.88216,-10.14305 25.90892,-22.49117 31.72518,-35.00081 0.0943,-0.48477 0.18783,-0.96924 0.27905,-1.45328 -0.57455,0.0242 -1.15098,0.0416 -1.71364,0.10958 -0.16325,-0.46412 -0.41463,-0.90734 -0.48963,-1.39185 -0.18906,-1.22135 -0.0192,-5.2271 0.0162,-6.00256 0.0459,-1.00332 0.10698,-2.00591 0.17193,-3.00831 -0.44954,-0.37196 -0.95587,-0.69074 -1.33884,-1.12542 -1.42557,-1.61808 -1.8199,-2.74308 -2.6444,-4.72715 -1.54678,-3.72214 -2.85758,-7.52596 -4.27356,-11.29406 -0.41093,-1.21964 -1.48555,-3.63199 -1.18964,-4.98319 0.0863,-0.39426 0.22499,-0.73073 0.40342,-1.02397 -0.11959,-0.38472 -0.23082,-0.72581 -0.32342,-1.00098 -0.25488,0.0318 -0.50961,0.063 -0.76344,0.1001 -1.05414,-1.45579 -1.53906,-3.1668 -2.24291,-4.77602 -0.54858,-1.2542 -0.75087,-0.95424 -0.9843,-2.51428 -0.0721,-0.48209 0.002,-0.97419 0.003,-1.46125 0.083,-0.73264 0.19904,-1.4611 0.30455,-2.19085 -0.0214,-0.0218 -0.0333,-0.043 -0.009,-0.0603 0.007,-0.005 0.0132,-0.009 0.0197,-0.0137 0.022,-0.15304 0.0465,-0.30565 0.0666,-0.45893 0.0225,-0.1711 0.009,-0.34891 0.0604,-0.51424 0.0105,-0.0338 0.0252,-0.0661 0.0365,-0.0995 -0.12409,-0.14804 -0.25092,-0.29388 -0.37275,-0.44368 -0.0474,-0.0598 -0.0957,-0.11882 -0.14305,-0.17858 -1.07551,-1.34467 -1.14853,-2.56691 -0.67919,-3.33298 -0.20672,-0.98279 -0.15197,-1.9312 0.66572,-2.6195 0.39233,-0.33028 0.96348,-0.59931 1.75829,-0.7855 -2.09523,-1.70714 -5.72677,-4.54304 -8.91741,-6.94881 l -6.76844,-5.10312 -5.05719,3.59929 c -2.78145,1.9798 -11.88246,8.74376 -20.22426,15.03121 -13.28241,10.01127 -15.39502,11.46227 -17.00329,11.67628 -1.01004,0.13441 -2.22921,0.55536 -2.71076,0.93323 -0.480831,0.37876 -2.168512,0.94846 -3.750198,1.26619 -1.617954,0.32499 -2.432332,0.56748 -3.354299,1.25612 z m 70.177334,-19.62078 c 0.0212,0.0305 0.0556,0.0785 0.0742,0.10596 0.0647,-0.008 0.11451,0.1558 0.17122,0.23923 0.009,0.0135 0.0196,0.0267 0.0285,0.041 0.0358,0.0424 0.0717,0.085 0.10744,0.12741 0.1344,0.15911 0.26893,0.31784 0.40321,0.47706 0.0895,0.10607 0.17897,0.21221 0.26849,0.31829 0.0632,-0.0117 0.13949,-0.02 0.20538,-0.031 -0.4262,-0.45215 -0.84575,-0.87705 -1.25896,-1.27741 z"
       inkscape:connector-curvature="0" />
    <ellipse
       style="fill:none;stroke:#000000;stroke-width:0.15910321;stroke-opacity:1"
       id="path8107"
       cx="20.968071"
       cy="212.8802"
       rx="0.63496822"
       ry="0.71189815"
       transform="matrix(0.98448798,-0.17545205,0.17764541,0.98409456,0,0)" />
    <path
       id="use12613-6"
       style="display:inline;fill:#52854e;fill-opacity:1;stroke:#469a2d;stroke-width:1.48392785px;stroke-linecap:butt;stroke-linejoin:miter;stroke-opacity:1"
       d="m 71.75198,218.3413 c 0.374152,0.79049 0.748325,1.58095 1.122594,2.37132 -0.181224,0.14203 -0.512416,0.2119 -0.542082,0.42773 -0.02931,0.21521 0.445936,0.27081 0.416284,0.48597 -0.02932,0.21521 -0.51291,0.21225 -0.542066,0.42771 -0.1537,1.11242 0.675885,1.28599 0.163905,2.31263 -0.568655,1.14027 -1.431048,-0.66323 -0.252259,1.82662 0.181283,0.38361 0.555044,0.64797 0.832558,0.97195 0.138761,0.16198 0.192572,0.54089 0.416299,0.48598 0.176655,-0.0436 1.813308,-1.42853 2.16972,-1.70918 1.44617,-1.13986 2.892831,-2.27907 4.339305,-3.41857 0.181218,-0.14202 0.362462,-0.28404 0.542067,-0.42772 0.181253,-0.14203 0.512933,-0.21224 0.542079,-0.42771 0.02931,-0.21525 -0.277529,-0.324 -0.416282,-0.48598 -0.138761,-0.16198 -0.211121,-0.40495 -0.416283,-0.48597 -0.289998,-0.11473 -0.668834,0.0562 -0.95868,-0.0587 -0.372762,-0.14787 -1.402767,-1.92791 -1.665036,-1.94399 -0.225807,-0.0139 -0.316697,0.44132 -0.542067,0.4277 -0.225855,-0.0138 -0.277515,-0.32397 -0.416283,-0.48598 -0.138747,-0.16197 -0.277529,-0.32399 -0.416282,-0.48597 -1.109998,-1.296 0.319594,0.0196 -0.95868,-0.0587 -0.22584,-0.0138 -0.277522,-0.32398 -0.416275,-0.48596 -0.988345,-1.15394 -0.207244,-0.58486 -3.002183,0.73725 z"
       inkscape:connector-curvature="0" />
    <path
       id="use12613-6-5"
       style="display:inline;fill:#52854e;fill-opacity:1;stroke:#469a2d;stroke-width:1.48392785px;stroke-linecap:butt;stroke-linejoin:miter;stroke-opacity:1"
       d="m 102.92209,232.5307 c -0.26507,0.86814 -0.53023,1.73625 -0.7952,2.60439 -0.22784,0.006 -0.51526,-0.13977 -0.68316,0.0166 -0.16753,0.15634 0.1395,0.49053 -0.028,0.64691 -0.16753,0.15635 -0.51585,-0.13973 -0.68315,0.0167 -0.866175,0.80826 -0.38262,1.45316 -1.450361,1.97405 -1.185937,0.57854 -0.587375,-1.40741 -1.422282,1.32715 -0.128833,0.4211 -0.03739,0.86256 -0.056,1.29387 -0.0093,0.21562 -0.227508,0.55539 -0.0281,0.64688 0.157639,0.0721 2.283803,-0.0556 2.732623,-0.0666 1.82177,-0.0444 3.64352,-0.0887 5.46528,-0.13309 0.22774,-0.006 0.45554,-0.0113 0.68314,-0.0166 0.22785,-0.006 0.51585,0.13974 0.68316,-0.0166 0.16761,-0.15629 0.0185,-0.4313 0.0279,-0.64694 0.009,-0.21565 0.12168,-0.45657 0.0282,-0.64692 -0.13235,-0.26926 -0.52297,-0.36103 -0.65514,-0.63029 -0.16988,-0.34645 0.29122,-2.41527 0.11203,-2.58773 -0.15425,-0.14854 -0.52904,0.16519 -0.68313,0.0166 -0.15433,-0.14852 0.0186,-0.43127 0.0279,-0.64694 0.01,-0.21564 0.0186,-0.43129 0.0281,-0.6469 0.0747,-1.72515 0.21841,0.21009 -0.65515,-0.63031 -0.15429,-0.14852 0.0186,-0.43129 0.0281,-0.6469 0.0665,-1.53604 0.2466,-0.60002 -2.67662,-1.22732 z"
       inkscape:connector-curvature="0" />
    <path
       id="use12613-6-52"
       style="display:inline;fill:#52854e;fill-opacity:1;stroke:#469a2d;stroke-width:1.48392785px;stroke-linecap:butt;stroke-linejoin:miter;stroke-opacity:1"
       d="m 100.26033,185.58813 c 0.90542,-0.29479 1.81075,-0.58963 2.71607,-0.88455 0.11262,0.18009 0.11768,0.49662 0.33759,0.54019 0.21964,0.0432 0.37497,-0.39956 0.59467,-0.35617 0.21962,0.0432 0.11796,0.49712 0.33758,0.54018 1.13535,0.22422 1.48663,-0.54275 2.45888,0.012 1.07986,0.61608 -0.98757,1.29695 1.86425,0.36811 0.43928,-0.14279 0.79279,-0.47499 1.18926,-0.71242 0.1982,-0.11875 0.60653,-0.14212 0.5946,-0.35625 -0.009,-0.16906 -1.12822,-1.8062 -1.34993,-2.16112 -0.89996,-1.44077 -1.79992,-2.88148 -2.69988,-4.32226 -0.1125,-0.18009 -0.22504,-0.36027 -0.33759,-0.54017 -0.11261,-0.18014 -0.11794,-0.49715 -0.33758,-0.54019 -0.21964,-0.0433 -0.39649,0.23743 -0.59462,0.35626 -0.19819,0.11875 -0.46778,0.16931 -0.59459,0.35626 -0.17952,0.2642 -0.0777,0.63242 -0.25722,0.89648 -0.23111,0.33967 -2.30817,1.17959 -2.37855,1.42485 -0.0606,0.2112 0.39821,0.32925 0.33759,0.54019 -0.0606,0.2112 -0.39649,0.23742 -0.59469,0.35616 -0.1982,0.11877 -0.39648,0.23743 -0.5946,0.35627 -1.585713,0.9499 0.0858,-0.29885 -0.25721,0.89648 -0.0606,0.21121 -0.39647,0.23742 -0.59459,0.35627 -1.411897,0.84577 -0.655671,0.15275 0.16063,2.87354 z"
       inkscape:connector-curvature="0" />
    <ellipse
       style="fill:none;stroke:#000000;stroke-width:0.15910321;stroke-opacity:1"
       id="path8107-5"
       cx="22.267654"
       cy="210.05444"
       rx="0.63496822"
       ry="0.71189815"
       transform="matrix(0.98448798,-0.17545205,0.17764541,0.98409456,0,0)" />
    <path
       id="use12613-6-4"
       style="display:inline;fill:#52854e;fill-opacity:1;stroke:#469a2d;stroke-width:1.48392785px;stroke-linecap:butt;stroke-linejoin:miter;stroke-opacity:1"
       d="m 156.49883,179.47869 c 0.37418,0.79047 0.74833,1.58094 1.12262,2.37134 -0.18122,0.14201 -0.51246,0.21187 -0.54208,0.42772 -0.0293,0.2152 0.44593,0.2708 0.41609,0.48613 -0.0293,0.21521 -0.51288,0.21225 -0.54206,0.4277 -0.15367,1.11243 0.67591,1.28602 0.16393,2.31263 -0.56866,1.14028 -1.43104,-0.66323 -0.25227,1.82663 0.18129,0.38359 0.55541,0.64768 0.83312,0.97152 0.13843,0.16233 0.19257,0.54089 0.41609,0.48613 0.17665,-0.0436 1.81331,-1.42854 2.16974,-1.7092 1.44617,-1.13986 2.89291,-2.27898 4.33929,-3.41857 0.18122,-0.14202 0.36247,-0.28404 0.54207,-0.4277 0.18126,-0.14204 0.51293,-0.21227 0.5421,-0.42773 0.0293,-0.21522 -0.27678,-0.32456 -0.41608,-0.48611 -0.13845,-0.16232 -0.21122,-0.40489 -0.41611,-0.48613 -0.28998,-0.11479 -0.66886,0.0562 -0.95869,-0.0586 -0.37277,-0.14783 -1.40277,-1.92791 -1.66495,-1.94406 -0.22581,-0.014 -0.31671,0.44131 -0.54205,0.4277 -0.22589,-0.0138 -0.27678,-0.32453 -0.41612,-0.48612 -0.13841,-0.16229 -0.27678,-0.32455 -0.4161,-0.48611 -1.10998,-1.29599 0.31961,0.0195 -0.95866,-0.0587 -0.22586,-0.0137 -0.27679,-0.32454 -0.41609,-0.4861 -0.98843,-1.15386 -0.20723,-0.58487 -3.0022,0.73725 z"
       inkscape:connector-curvature="0" />
    <ellipse
       style="fill:none;stroke:#000000;stroke-width:0.15910321;stroke-opacity:1"
       id="path8107-7"
       cx="25.354103"
       cy="207.63237"
       rx="0.63496822"
       ry="0.71189815"
       transform="matrix(0.98448798,-0.17545205,0.17764541,0.98409456,0,0)" />
    <path
       id="use12613-6-2"
       style="display:inline;fill:#52854e;fill-opacity:1;stroke:#469a2d;stroke-width:1.48392785px;stroke-linecap:butt;stroke-linejoin:miter;stroke-opacity:1"
       d="m 141.32441,215.48064 c 0.37415,0.7905 0.74832,1.58096 1.12259,2.37134 -0.18122,0.14201 -0.5124,0.2119 -0.54206,0.42771 -0.0293,0.21523 0.44593,0.27081 0.4161,0.48613 -0.0293,0.21521 -0.5129,0.21225 -0.54206,0.4277 -0.15369,1.11243 0.67589,1.28601 0.16389,2.31264 -0.56864,1.14026 -1.43103,-0.66323 -0.25223,1.82662 0.18127,0.38359 0.55541,0.64769 0.8322,0.97224 0.13838,0.16228 0.19256,0.54089 0.4161,0.48611 0.17664,-0.0435 1.81329,-1.42853 2.16971,-1.70919 1.44616,-1.13985 2.89283,-2.27906 4.33931,-3.41856 0.18121,-0.14201 0.36246,-0.28404 0.54206,-0.42771 0.18126,-0.14203 0.51292,-0.21226 0.54207,-0.42771 0.0293,-0.21523 -0.27769,-0.32383 -0.41608,-0.4861 -0.1384,-0.16227 -0.21112,-0.40496 -0.41611,-0.48611 -0.28999,-0.11472 -0.66883,0.0561 -0.95869,-0.0586 -0.37277,-0.14788 -1.40275,-1.9279 -1.66505,-1.94398 -0.2258,-0.0138 -0.31671,0.44134 -0.54205,0.42771 -0.22588,-0.0138 -0.27771,-0.32383 -0.41612,-0.48612 -0.13839,-0.16228 -0.27769,-0.32384 -0.41609,-0.48611 -1.11,-1.29601 0.31956,0.0196 -0.95869,-0.0587 -0.22584,-0.0138 -0.27769,-0.32384 -0.41608,-0.48612 -0.98844,-1.15387 -0.20726,-0.58485 -3.00219,0.73726 z"
       inkscape:connector-curvature="0" />
    <path
       id="use12613-6-1"
       style="display:inline;fill:#52854e;fill-opacity:1;stroke:#469a2d;stroke-width:1.12922084px;stroke-linecap:butt;stroke-linejoin:miter;stroke-opacity:1"
       d="m 111.84456,202.69775 c 0.57335,0.31635 1.14668,0.63269 1.72005,0.94896 -0.0552,0.16774 -0.23745,0.35815 -0.16546,0.50324 0.072,0.14479 0.39925,-0.0333 0.47136,0.11138 0.0721,0.14474 -0.23756,0.35862 -0.16544,0.50321 0.37258,0.74868 0.97564,0.48472 1.08318,1.34078 0.11946,0.95082 -1.19422,0.23293 0.61187,1.22933 0.27806,0.1536 0.62848,0.14856 0.94275,0.22285 0.15704,0.0371 0.35182,0.24475 0.47136,0.11138 0.0946,-0.10529 0.55317,-1.6823 0.6619,-2.01292 0.44122,-1.34197 0.88247,-2.68389 1.32372,-4.02582 0.0551,-0.16773 0.11039,-0.33559 0.16547,-0.50322 0.0552,-0.16774 0.23759,-0.35864 0.16547,-0.50323 -0.0721,-0.14475 -0.31428,-0.0743 -0.4714,-0.11138 -0.15707,-0.0371 -0.30612,-0.15342 -0.47139,-0.11139 -0.23374,0.0592 -0.4034,0.3325 -0.63692,0.39169 -0.30046,0.0759 -1.71128,-0.55293 -1.88555,-0.44573 -0.1501,0.0922 -0.0156,0.4111 -0.16545,0.50324 -0.15003,0.0921 -0.31424,-0.0743 -0.47139,-0.11149 -0.15703,-0.0371 -0.31427,-0.0743 -0.47138,-0.1115 -1.25702,-0.29714 0.21218,-0.13075 -0.63692,0.3917 -0.15011,0.0922 -0.31427,-0.0743 -0.47137,-0.11138 -1.11926,-0.26459 -0.3798,-0.26513 -1.60467,1.79004 z"
       inkscape:connector-curvature="0" />
    <ellipse
       style="fill:none;stroke:#000000;stroke-width:0.15910321;stroke-opacity:1"
       id="path8107-8"
       cx="36.075516"
       cy="203.43411"
       rx="0.63496822"
       ry="0.71189815"
       transform="matrix(0.98448798,-0.17545205,0.17764541,0.98409456,0,0)" />
    <path
       id="use12613-6-8"
       style="display:inline;fill:#52854e;fill-opacity:1;stroke:#469a2d;stroke-width:1.48392785px;stroke-linecap:butt;stroke-linejoin:miter;stroke-opacity:1"
       d="m 140.47052,161.41358 c -0.49953,0.78323 -0.999,1.56642 -1.49836,2.34964 -0.21684,-0.0528 -0.44656,-0.26951 -0.65004,-0.15928 -0.20303,0.11026 -0.009,0.51693 -0.21203,0.62722 -0.20304,0.11037 -0.4471,-0.26964 -0.65,-0.15927 -1.05005,0.56994 -0.77837,1.32675 -1.93628,1.56312 -1.28609,0.2625 -0.15089,-1.53124 -1.72416,0.93586 -0.24256,0.37984 -0.28279,0.83631 -0.42418,1.25445 -0.0706,0.20916 -0.37416,0.48627 -0.21204,0.62724 0.12816,0.11116 2.17295,0.53257 2.59997,0.63724 1.7334,0.42473 3.46669,0.84959 5.20005,1.27441 0.21684,0.0528 0.43344,0.10619 0.64998,0.15925 0.21685,0.0528 0.44712,0.26965 0.65002,0.15927 0.20302,-0.11025 0.14146,-0.41814 0.21205,-0.62723 0.0707,-0.20914 0.24598,-0.41642 0.21204,-0.62724 -0.0477,-0.29808 -0.39036,-0.48845 -0.43789,-0.78651 -0.061,-0.38344 0.9681,-2.29374 0.84836,-2.50894 -0.1031,-0.18532 -0.54709,0.0259 -0.65001,-0.15927 -0.10309,-0.18527 0.14145,-0.41813 0.21204,-0.62724 0.0707,-0.20912 0.14147,-0.41813 0.21205,-0.6272 0.5656,-1.67264 0.14605,0.26214 -0.43788,-0.78655 -0.1032,-0.18529 0.14143,-0.41813 0.21203,-0.62723 0.50359,-1.48928 0.40509,-0.52503 -2.17581,-1.89169 z"
       inkscape:connector-curvature="0" />
    <path
       id="use12613-6-7"
       style="display:inline;fill:#52854e;fill-opacity:1;stroke:#469a2d;stroke-width:1.48392785px;stroke-linecap:butt;stroke-linejoin:miter;stroke-opacity:1"
       d="m 80.544891,194.65548 c 0.374154,0.79047 0.748326,1.58094 1.122601,2.37133 -0.181215,0.142 -0.512438,0.21188 -0.542081,0.42772 -0.02932,0.21521 0.445928,0.27081 0.416284,0.48597 -0.02931,0.21523 -0.512901,0.21226 -0.542066,0.42771 -0.153689,1.11243 0.675902,1.28599 0.163907,2.31264 -0.568649,1.14025 -1.431042,-0.66324 -0.252259,1.82662 0.18124,0.38361 0.554944,0.64803 0.832557,0.97195 0.13877,0.16199 0.192578,0.54088 0.41629,0.48597 0.176656,-0.0436 1.813315,-1.42853 2.169721,-1.7092 1.446181,-1.13985 2.89284,-2.27905 4.339308,-3.41856 0.181224,-0.14202 0.362461,-0.28404 0.542067,-0.42771 0.181257,-0.14204 0.512917,-0.21226 0.542079,-0.42772 0.02932,-0.21524 -0.277528,-0.32399 -0.41629,-0.48597 -0.138753,-0.16199 -0.211105,-0.40495 -0.416268,-0.48596 -0.290007,-0.11475 -0.66885,0.0562 -0.958686,-0.0586 -0.37278,-0.14789 -1.402762,-1.9279 -1.665038,-1.94399 -0.225814,-0.0138 -0.316703,0.44133 -0.542064,0.42769 -0.225866,-0.0138 -0.277516,-0.32396 -0.416277,-0.48596 -0.138762,-0.16199 -0.277537,-0.32399 -0.416291,-0.48598 -1.110003,-1.29602 0.31958,0.0196 -0.958655,-0.0587 -0.225862,-0.0138 -0.277545,-0.32402 -0.416291,-0.48598 -0.98836,-1.15396 -0.207244,-0.58486 -3.002191,0.73726 z"
       inkscape:connector-curvature="0" />
    <path
       id="use12613-6-9"
       style="display:inline;fill:#52854e;fill-opacity:1;stroke:#469a2d;stroke-width:1.46906078px;stroke-linecap:butt;stroke-linejoin:miter;stroke-opacity:1"
       d="m 125.26184,240.67064 c 0.0449,0.78637 0.0898,1.5727 0.13481,2.359 -0.23881,0.101 -0.59734,0.11036 -0.71637,0.30295 -0.11846,0.19263 0.3314,0.32152 0.21281,0.51402 -0.1184,0.19257 -0.59798,0.1106 -0.71638,0.30293 -0.61335,0.99507 0.13987,1.29033 -0.79432,2.14796 -1.0377,0.95244 -1.1487,-0.84302 -1.00709,1.63392 0.0214,0.38156 0.28372,0.68534 0.4256,1.02801 0.0708,0.17131 -0.0325,0.52765 0.21279,0.51401 0.19374,-0.0113 2.39484,-1.01279 2.86544,-1.21183 1.91033,-0.80786 3.82059,-1.61573 5.73091,-2.42362 0.2388,-0.101 0.47771,-0.20199 0.71633,-0.30294 0.23885,-0.10112 0.59803,-0.11048 0.71637,-0.30297 0.11841,-0.19258 -0.14185,-0.34266 -0.21279,-0.51399 -0.0709,-0.17132 -0.0424,-0.40602 -0.21281,-0.51401 -0.2409,-0.15279 -0.68843,-0.0582 -0.92915,-0.21106 -0.30954,-0.19677 -0.59704,-1.99826 -0.85122,-2.05603 -0.21878,-0.0498 -0.49763,0.3529 -0.71633,0.30294 -0.21889,-0.0496 -0.14186,-0.34267 -0.2128,-0.51399 -0.0708,-0.17133 -0.14185,-0.34267 -0.2128,-0.51403 -0.56747,-1.37067 0.30976,0.0703 -0.92916,-0.21103 -0.21887,-0.0497 -0.14186,-0.34268 -0.2128,-0.51401 -0.50527,-1.22046 0.0361,-0.57038 -3.29104,0.18378 z"
       inkscape:connector-curvature="0" />
    <path
       id="use12613-6-3"
       style="display:inline;fill:#52854e;fill-opacity:1;stroke:#469a2d;stroke-width:1.48392785px;stroke-linecap:butt;stroke-linejoin:miter;stroke-opacity:1"
       d="m 73.064768,239.77138 c 0.916085,0.14001 1.832158,0.27999 2.748242,0.41988 0.0047,0.21492 -0.150515,0.50571 0.01386,0.64468 0.164379,0.13854 0.519233,-0.19483 0.683592,-0.0562 0.16438,0.13854 -0.150472,0.50627 0.01386,0.64467 0.849523,0.7168 1.533771,0.17643 2.078509,1.12077 0.605028,1.04888 -1.490685,0.73615 1.394939,1.17694 0.444361,0.0682 0.911447,-0.0749 1.367173,-0.1124 0.227826,-0.0188 0.585818,0.14429 0.683591,-0.0562 0.07696,-0.15852 -0.04636,-2.15523 -0.0555,-2.57877 -0.03699,-1.71921 -0.07397,-3.43836 -0.110975,-5.15757 -0.0047,-0.21494 -0.0093,-0.42991 -0.01387,-0.64469 -0.0047,-0.21498 0.150486,-0.50628 -0.01386,-0.64468 -0.164366,-0.1386 -0.455735,0.0375 -0.683593,0.0562 -0.227827,0.0188 -0.481862,-0.0569 -0.683583,0.0562 -0.285384,0.15967 -0.384416,0.54132 -0.669751,0.70087 -0.367068,0.20518 -2.551126,0.0331 -2.734367,0.22485 -0.157784,0.16506 0.17171,0.47978 0.01387,0.6447 -0.157803,0.16507 -0.455712,0.0374 -0.683579,0.0562 -0.227826,0.0188 -0.455734,0.0374 -0.683578,0.0562 -1.822908,0.14991 0.223231,-0.23366 -0.669755,0.70086 -0.15787,0.16499 -0.455741,0.0375 -0.683593,0.0562 -1.623096,0.13346 -0.632806,-0.15677 -1.311717,2.69118 z"
       inkscape:connector-curvature="0" />
    <path
       id="use12613-6-6"
       style="display:inline;fill:#52854e;fill-opacity:1;stroke:#469a2d;stroke-width:1.48392785px;stroke-linecap:butt;stroke-linejoin:miter;stroke-opacity:1"
       d="m 160.66188,199.55954 c 0.37416,0.79046 0.74833,1.58095 1.12261,2.37133 -0.18124,0.14203 -0.51244,0.21188 -0.54208,0.42773 -0.0293,0.2152 0.44592,0.27079 0.4161,0.4861 -0.0293,0.21523 -0.51292,0.21225 -0.54207,0.42771 -0.1537,1.11245 0.67589,1.28602 0.16389,2.31265 -0.56864,1.14026 -1.43103,-0.66324 -0.25225,1.82662 0.18128,0.38359 0.55541,0.64769 0.83312,0.97153 0.1384,0.16227 0.19256,0.5409 0.41611,0.48613 0.17665,-0.0436 1.81331,-1.42854 2.16971,-1.70919 1.44618,-1.13985 2.89291,-2.27897 4.33931,-3.41857 0.18122,-0.14202 0.36245,-0.28404 0.54207,-0.42772 0.18125,-0.14203 0.51291,-0.21223 0.54208,-0.42771 0.0293,-0.21525 -0.27681,-0.32456 -0.41611,-0.48611 -0.1384,-0.16228 -0.21111,-0.40496 -0.4161,-0.48613 -0.28998,-0.11473 -0.66883,0.0561 -0.95868,-0.0586 -0.37275,-0.14789 -1.40274,-1.92791 -1.66495,-1.94405 -0.22584,-0.0139 -0.3167,0.44133 -0.54209,0.42772 -0.22584,-0.0138 -0.27677,-0.32455 -0.41609,-0.48612 -0.13839,-0.16228 -0.27678,-0.32457 -0.41611,-0.48612 -1.11,-1.29601 0.31961,0.0196 -0.95866,-0.0586 -0.22584,-0.0139 -0.2768,-0.32455 -0.4161,-0.48612 -0.98842,-1.15386 -0.20724,-0.58486 -3.00221,0.73727 z"
       inkscape:connector-curvature="0" />
    <path
       id="use12613-6-49"
       style="display:inline;fill:#52854e;fill-opacity:1;stroke:#469a2d;stroke-width:1.13259435px;stroke-linecap:butt;stroke-linejoin:miter;stroke-opacity:1"
       d="m 140.01218,187.68054 c -0.19957,0.6824 -0.39899,1.36479 -0.59845,2.04719 -0.16858,0.003 -0.38092,-0.11128 -0.5058,0.0113 -0.12468,0.12253 0.1014,0.38634 -0.0231,0.50896 -0.12467,0.12254 -0.38139,-0.11127 -0.50583,0.0113 -0.64422,0.63379 -0.28863,1.14243 -1.08109,1.54952 -0.88014,0.45217 -0.42962,-1.10892 -1.05792,1.04059 -0.0971,0.33099 -0.0308,0.67858 -0.0463,1.01791 -0.007,0.16957 -0.17033,0.43646 -0.0231,0.50896 0.11639,0.0571 1.69101,-0.0379 2.02331,-0.0454 1.3489,-0.0302 2.69773,-0.0605 4.04662,-0.0907 0.16859,-0.003 0.33728,-0.008 0.5058,-0.0114 0.16859,-0.003 0.38139,0.11126 0.50582,-0.0113 0.12466,-0.12253 0.0155,-0.33933 0.0232,-0.50896 0.007,-0.16957 0.0918,-0.3589 0.0231,-0.50897 -0.0971,-0.21214 -0.38577,-0.28546 -0.48251,-0.49776 -0.12447,-0.27299 0.2246,-1.89965 0.0926,-2.03584 -0.11487,-0.11628 -0.39233,0.12853 -0.50581,0.0113 -0.11486,-0.11628 0.0153,-0.33931 0.0232,-0.50894 0.007,-0.16958 0.0153,-0.33932 0.0231,-0.50897 0.0617,-1.35723 0.16086,0.16595 -0.48254,-0.49776 -0.11486,-0.11628 0.0155,-0.33931 0.0231,-0.50895 0.055,-1.20846 0.18482,-0.47147 -1.97702,-0.97262 z"
       inkscape:connector-curvature="0" />
    <path
       id="use12613-6-78"
       style="display:inline;fill:#52854e;fill-opacity:1;stroke:#469a2d;stroke-width:1.48392785px;stroke-linecap:butt;stroke-linejoin:miter;stroke-opacity:1"
       d="m 95.534569,209.52781 c -0.274318,0.86611 -0.548462,1.73224 -0.822554,2.59835 -0.227677,0.003 -0.513379,-0.14479 -0.682839,0.0101 -0.169077,0.15479 0.134151,0.49218 -0.03495,0.64707 -0.168987,0.15487 -0.513968,-0.14479 -0.682826,0.0101 -0.874299,0.80036 -0.397971,1.45039 -1.470468,1.96136 -1.191268,0.5675 -0.571863,-1.41394 -1.435479,1.3143 -0.13325,0.42014 -0.04653,0.86275 -0.06984,1.29414 -0.01165,0.21566 -0.233219,0.55359 -0.03497,0.64705 0.15673,0.0736 2.282743,-0.0338 2.731349,-0.0403 1.820912,-0.027 3.641779,-0.0538 5.462702,-0.0807 0.22767,-0.003 0.455328,-0.007 0.68282,-0.0101 0.227702,-0.003 0.513981,0.14479 0.682823,-0.0102 0.169093,-0.1548 0.02327,-0.43137 0.03498,-0.64704 0.01153,-0.2157 0.126543,-0.45567 0.03495,-0.64707 -0.129393,-0.2707 -0.518712,-0.36627 -0.647925,-0.63696 -0.166061,-0.3483 0.3169,-2.41398 0.139685,-2.58827 -0.152554,-0.15011 -0.530423,0.16021 -0.68282,0.0101 -0.152605,-0.1501 0.02325,-0.43136 0.03495,-0.64706 0.01166,-0.21567 0.02329,-0.43136 0.03496,-0.64705 0.09313,-1.7255 0.216016,0.2123 -0.647915,-0.63697 -0.152589,-0.15012 0.02327,-0.43139 0.03497,-0.64706 0.08291,-1.53636 0.252899,-0.598 -2.6615,-1.25379 z"
       inkscape:connector-curvature="0" />
    <path
       id="use12613-6-36"
       style="display:inline;fill:#52854e;fill-opacity:1;stroke:#469a2d;stroke-width:1.48392785px;stroke-linecap:butt;stroke-linejoin:miter;stroke-opacity:1"
       d="m 116.75897,219.03066 c 0.37416,0.79049 0.74833,1.58094 1.1226,2.37133 -0.18121,0.14202 -0.51242,0.21189 -0.54208,0.42772 -0.0293,0.21524 0.44595,0.27082 0.41629,0.48598 -0.0293,0.21522 -0.5129,0.21226 -0.54207,0.42771 -0.15369,1.11242 0.67589,1.286 0.16392,2.31262 -0.56867,1.14028 -1.43104,-0.6632 -0.25226,1.82664 0.18123,0.3836 0.55494,0.64802 0.83257,0.97195 0.13875,0.16199 0.19256,0.54087 0.41627,0.48596 0.17665,-0.0435 1.81332,-1.42854 2.16971,-1.70918 1.44618,-1.13987 2.89284,-2.27908 4.33932,-3.41859 0.18122,-0.14201 0.36248,-0.28405 0.54206,-0.4277 0.18127,-0.14205 0.51294,-0.21225 0.5421,-0.42772 0.0293,-0.21524 -0.27753,-0.324 -0.41629,-0.48599 -0.13877,-0.16199 -0.21118,-0.40491 -0.41629,-0.48597 -0.28998,-0.11473 -0.66884,0.0562 -0.95869,-0.0587 -0.37275,-0.14787 -1.40276,-1.9279 -1.66502,-1.94399 -0.2258,-0.0138 -0.3167,0.44132 -0.54208,0.42771 -0.22585,-0.0139 -0.2775,-0.32398 -0.41628,-0.48598 -0.13874,-0.16198 -0.27752,-0.32398 -0.41629,-0.48598 -1.10999,-1.29602 0.31961,0.0196 -0.95866,-0.0587 -0.22585,-0.0138 -0.27753,-0.32399 -0.41628,-0.48599 -0.98835,-1.15392 -0.20727,-0.58486 -3.00221,0.73726 z"
       inkscape:connector-curvature="0" />
    <path
       id="use12613-6-54"
       style="display:inline;fill:#52854e;fill-opacity:1;stroke:#469a2d;stroke-width:1.48392785px;stroke-linecap:butt;stroke-linejoin:miter;stroke-opacity:1"
       d="m 156.414,162.36869 c 0.37416,0.79049 0.74835,1.58095 1.1226,2.37134 -0.18123,0.14201 -0.51243,0.21189 -0.54209,0.42772 -0.0293,0.21521 0.44594,0.27079 0.41608,0.48612 -0.0293,0.2152 -0.51287,0.21223 -0.54204,0.42769 -0.15369,1.11244 0.6759,1.28601 0.1639,2.31264 -0.56864,1.14027 -1.43101,-0.66323 -0.25224,1.82662 0.18128,0.38359 0.55541,0.64769 0.83312,0.97154 0.13836,0.16224 0.1926,0.54086 0.41611,0.48612 0.17664,-0.0436 1.81331,-1.42853 2.16973,-1.7092 1.44618,-1.13986 2.89283,-2.27906 4.33931,-3.41857 0.1812,-0.14201 0.36246,-0.28404 0.54206,-0.4277 0.18125,-0.14204 0.51291,-0.21226 0.54209,-0.42772 0.0293,-0.21526 -0.2768,-0.32458 -0.41611,-0.48612 -0.13838,-0.16225 -0.21113,-0.40497 -0.41611,-0.48612 -0.28995,-0.11479 -0.66882,0.0562 -0.95867,-0.0587 -0.37277,-0.14784 -1.40276,-1.92791 -1.66496,-1.94404 -0.22579,-0.014 -0.31669,0.44133 -0.54206,0.4277 -0.22585,-0.0139 -0.27678,-0.32454 -0.4161,-0.48611 -0.13835,-0.16224 -0.2768,-0.32457 -0.4161,-0.48613 -1.11,-1.29601 0.3196,0.0195 -0.95867,-0.0586 -0.22586,-0.0138 -0.27679,-0.32456 -0.41609,-0.48612 -0.98845,-1.15387 -0.20724,-0.58487 -3.0022,0.73725 z"
       inkscape:connector-curvature="0" />
    <path
       id="use12613-6-549"
       style="display:inline;fill:#52854e;fill-opacity:1;stroke:#469a2d;stroke-width:1.48392785px;stroke-linecap:butt;stroke-linejoin:miter;stroke-opacity:1"
       d="m 120.89131,177.2991 c 0.37416,0.7905 0.74832,1.58095 1.1226,2.37135 -0.18122,0.14201 -0.51243,0.21187 -0.54208,0.42771 -0.0293,0.21523 0.44594,0.27083 0.41612,0.48614 -0.0293,0.2152 -0.51289,0.21224 -0.54207,0.4277 -0.1537,1.11241 0.67588,1.28599 0.16389,2.31264 -0.56863,1.14026 -1.43101,-0.66322 -0.25224,1.82662 0.18127,0.38357 0.5554,0.64766 0.83219,0.97222 0.13839,0.16228 0.19256,0.54089 0.4161,0.48612 0.17667,-0.0435 1.81332,-1.42855 2.16972,-1.70919 1.44618,-1.13987 2.89285,-2.27908 4.33931,-3.41859 0.18123,-0.142 0.36245,-0.28403 0.54207,-0.42769 0.18125,-0.14205 0.51296,-0.21225 0.54206,-0.42771 0.0293,-0.21525 -0.27678,-0.32455 -0.4161,-0.48612 -0.13836,-0.16223 -0.21111,-0.40496 -0.4161,-0.48612 -0.28997,-0.1148 -0.66882,0.0561 -0.95865,-0.0586 -0.37278,-0.14785 -1.40277,-1.92789 -1.66497,-1.94407 -0.22581,-0.0139 -0.31669,0.44133 -0.54208,0.42772 -0.22588,-0.0138 -0.27679,-0.32456 -0.4161,-0.48613 -0.13837,-0.16225 -0.27679,-0.32456 -0.4161,-0.48613 -1.11001,-1.296 0.3196,0.0196 -0.95867,-0.0586 -0.22585,-0.0138 -0.27679,-0.32455 -0.41609,-0.48611 -0.98846,-1.15389 -0.20726,-0.58487 -3.0022,0.73724 z"
       inkscape:connector-curvature="0" />
    <rect
       style="fill:#aa8800;fill-opacity:1;stroke:none;stroke-width:0.34063116"
       id="rect1026"
       width="2.8340449"
       height="10.02645"
       x="188.31323"
       y="194.41963"
       transform="matrix(0.97974832,0.20023292,-0.28232816,0.95931789,0,0)" />
    <rect
       style="fill:#aa8800;fill-opacity:1;stroke:none;stroke-width:0.34063056"
       id="rect1026-8"
       width="2.8342824"
       height="10.025577"
       x="-191.40469"
       y="193.28926"
       transform="matrix(0.47031422,-0.88249903,0.9190797,0.39407171,0,0)" />
    <rect
       style="fill:#aa8800;fill-opacity:1;stroke:none;stroke-width:0.34016401"
       id="rect1026-84"
       width="2.9144959"
       height="9.7229614"
       x="-34.916561"
       y="236.20512"
       transform="matrix(0.78552152,-0.61883434,0.65050974,0.75949792,0,0)" />
    <ellipse
       style="fill:none;stroke:#000000;stroke-width:0.15910321;stroke-opacity:1"
       id="path8107-22"
       cx="27.953222"
       cy="206.01768"
       rx="0.63496822"
       ry="0.71189815"
       transform="matrix(0.98448798,-0.17545205,0.17764541,0.98409456,0,0)" />
    <rect
       style="fill:#aa8800;fill-opacity:1;stroke:none;stroke-width:0.42069018"
       id="rect1026-4"
       width="2.9144959"
       height="14.871214"
       x="181.97729"
       y="322.37793"
       transform="matrix(0.78552152,-0.61883434,-0.19048316,0.98169046,0,0)" />
    <ellipse
       style="fill:none;stroke:#000000;stroke-width:0.15910321;stroke-opacity:1"
       id="path8107-0"
       cx="30.714808"
       cy="204.72591"
       rx="0.63496822"
       ry="0.71189815"
       transform="matrix(0.98448798,-0.17545205,0.17764541,0.98409456,0,0)" />
    <rect
       style="fill:#aa8800;fill-opacity:1;stroke:none;stroke-width:0.34023491"
       id="rect1026-9"
       width="2.709089"
       height="10.464529"
       x="-203.85631"
       y="112.89307"
       transform="matrix(-0.10515393,-0.99445596,0.98793666,-0.15485853,0,0)" />
    <ellipse
       style="fill:none;stroke:#000000;stroke-width:0.15910321;stroke-opacity:1"
       id="path8107-24"
       cx="33.476379"
       cy="203.91855"
       rx="0.63496822"
       ry="0.71189815"
       transform="matrix(0.98448798,-0.17545205,0.17764541,0.98409456,0,0)" />
    <rect
       style="fill:#aa8800;fill-opacity:1;stroke:none;stroke-width:0.48873052"
       id="rect1026-96"
       width="2.9144959"
       height="20.070614"
       x="62.69556"
       y="250.32722"
       transform="matrix(0.78552152,-0.61883434,0.40212841,0.91558328,0,0)" />
    <ellipse
       style="fill:none;stroke:#000000;stroke-width:0.15910321;stroke-opacity:1"
       id="path8107-99"
       cx="25.841469"
       cy="210.5388"
       rx="0.63496822"
       ry="0.71189815"
       transform="matrix(0.98448798,-0.17545205,0.17764541,0.98409456,0,0)" />
    <rect
       style="fill:#aa8800;fill-opacity:1;stroke:none;stroke-width:0.39278767"
       id="rect1026-6"
       width="2.9144959"
       height="12.96395"
       x="1.6871943"
       y="200.93781"
       transform="matrix(0.78552152,-0.61883434,0.65050974,0.75949792,0,0)" />
    <path
       id="use12613-6-52-1"
       style="display:inline;fill:#52854e;fill-opacity:1;stroke:#469a2d;stroke-width:1.48392785px;stroke-linecap:butt;stroke-linejoin:miter;stroke-opacity:1"
       d="m 115.32122,166.30909 c 0.90538,-0.29481 1.81075,-0.58965 2.71605,-0.88456 0.1125,0.18009 0.11768,0.49664 0.33758,0.54018 0.21965,0.0432 0.37498,-0.39955 0.59467,-0.35616 0.21962,0.0432 0.11796,0.49712 0.33759,0.54017 1.13533,0.22423 1.48662,-0.54273 2.45887,0.012 1.07987,0.61611 -0.98759,1.29695 1.86424,0.3681 0.4393,-0.14278 0.79284,-0.4749 1.18927,-0.71241 0.19821,-0.11877 0.60655,-0.14212 0.59459,-0.35626 -0.009,-0.1691 -1.1282,-1.80618 -1.3499,-2.16113 -0.89998,-1.44074 -1.79991,-2.88146 -2.69988,-4.32224 -0.1125,-0.18008 -0.22493,-0.36034 -0.3375,-0.54026 -0.11262,-0.18012 -0.11794,-0.49712 -0.33756,-0.54017 -0.21967,-0.0433 -0.39649,0.23741 -0.59462,0.35626 -0.1982,0.11875 -0.46778,0.1693 -0.5946,0.35624 -0.17951,0.26422 -0.0777,0.63241 -0.25718,0.89649 -0.23113,0.33966 -2.3082,1.1796 -2.37858,1.42487 -0.0606,0.21119 0.39829,0.32916 0.33759,0.54018 -0.0606,0.2112 -0.39647,0.23741 -0.59468,0.35617 -0.1982,0.11875 -0.39647,0.23742 -0.59459,0.35624 -1.58573,0.9499 0.0857,-0.29884 -0.2572,0.89648 -0.0606,0.21122 -0.39649,0.23743 -0.59459,0.35626 -1.4119,0.84579 -0.65567,0.15276 0.16064,2.87357 z"
       inkscape:connector-curvature="0" />
    <ellipse
       style="fill:none;stroke:#000000;stroke-width:0.15910321;stroke-opacity:1"
       id="path8107-70"
       cx="28.440578"
       cy="210.53891"
       rx="0.63496822"
       ry="0.71189815"
       transform="matrix(0.98448798,-0.17545205,0.17764541,0.98409456,0,0)" />
    <path
       id="use12613-6-52-8"
       style="display:inline;fill:#52854e;fill-opacity:1;stroke:#469a2d;stroke-width:1.48392785px;stroke-linecap:butt;stroke-linejoin:miter;stroke-opacity:1"
       d="m 54.193474,219.56151 c 0.905391,-0.2948 1.81074,-0.58963 2.716045,-0.88456 0.112505,0.18015 0.117672,0.49665 0.337538,0.54024 0.219624,0.0432 0.374972,-0.39956 0.594671,-0.35617 0.219617,0.0432 0.117959,0.49712 0.337538,0.54023 1.135329,0.22422 1.486624,-0.54275 2.458866,0.012 1.079844,0.61608 -0.987573,1.29695 1.864234,0.36811 0.439309,-0.14278 0.792861,-0.47491 1.189271,-0.71243 0.198197,-0.11875 0.606547,-0.14212 0.594593,-0.35626 -0.0096,-0.16902 -1.128199,-1.80616 -1.349905,-2.16112 -0.899968,-1.44075 -1.799907,-2.88147 -2.69987,-4.32225 -0.112506,-0.18013 -0.224997,-0.3603 -0.337532,-0.54022 -0.112529,-0.18017 -0.117936,-0.49712 -0.337531,-0.54022 -0.219664,-0.0433 -0.396486,0.23743 -0.594608,0.35626 -0.198192,0.11874 -0.467779,0.16931 -0.594603,0.35625 -0.179516,0.26422 -0.07763,0.63242 -0.257201,0.8965 -0.231116,0.33967 -2.308173,1.1796 -2.378546,1.42487 -0.06062,0.2112 0.398219,0.32922 0.337524,0.54022 -0.06062,0.2112 -0.396473,0.23742 -0.59468,0.35617 -0.198199,0.11875 -0.396478,0.23743 -0.594593,0.35625 -1.585708,0.94992 0.08574,-0.29884 -0.257205,0.89649 -0.06062,0.21119 -0.396478,0.23742 -0.594593,0.35625 -1.411895,0.84579 -0.655681,0.15275 0.160643,2.87356 z"
       inkscape:connector-curvature="0" />
    <ellipse
       style="fill:none;stroke:#000000;stroke-width:0.15910321;stroke-opacity:1"
       id="path8107-84"
       cx="24.216976"
       cy="212.96092"
       rx="0.63496822"
       ry="0.71189815"
       transform="matrix(0.98448798,-0.17545205,0.17764541,0.98409456,0,0)" />
    <rect
       style="fill:#aa8800;fill-opacity:1;stroke:none;stroke-width:0.34063056"
       id="rect1026-8-9"
       width="2.8342824"
       height="10.025577"
       x="-132.52391"
       y="166.61485"
       transform="matrix(0.47031422,-0.88249903,0.9190797,0.39407171,0,0)" />
    <ellipse
       style="fill:none;stroke:#000000;stroke-width:0.15910321;stroke-opacity:1"
       id="path8107-45"
       cx="21.942726"
       cy="215.22154"
       rx="0.63496822"
       ry="0.71189815"
       transform="matrix(0.98448798,-0.17545205,0.17764541,0.98409456,0,0)" />
    <path
       style="fill:#808080;stroke-width:0.63829368"
       d="m 160.66999,63.295115 c 2.11289,1.796882 2.38778,2.185772 2.38778,2.185772 3.13558,2.734475 -0.55122,1.281402 -5.36815,8.550256 L 82.877873,186.92362 c -2.840551,4.28647 -5.501092,7.58954 -5.965369,7.40606 l -6.202692,-2.45104 c -0.464289,-0.18347 1.401056,-3.81356 4.289247,-8.06838 L 151.88948,70.536312 c 2.88813,-4.254849 7.23869,-6.372 8.78051,-7.241197 z"
       id="rect4547"
       inkscape:connector-curvature="0"
       sodipodi:nodetypes="ccssssssc" />
    <path
       style="display:inline;opacity:0.98999999;fill:none;fill-opacity:1;stroke:#2f2f2f;stroke-width:13.97154713;stroke-miterlimit:4;stroke-dasharray:none;stroke-opacity:1"
       d="m 169.12502,209.08226 c 0.4735,16.29591 -8.34949,31.84977 -21.36924,38.906 -18.32082,10.2316 -39.72082,10.88517 -59.633474,7.75147 -16.901611,-2.83059 -34.98898,-12.67888 -41.210389,-31.73403 -6.346584,-18.02988 0.03437,-37.23289 5.474525,-54.42771 5.988297,-18.96804 13.737626,-37.56076 16.042532,-57.68842 3.085963,-11.11405 14.937399,-13.454051 23.888093,-14.546372 14.496293,-1.023232 29.550453,-1.559651 43.490903,3.654652 7.93719,2.46793 11.85891,11.36934 11.18373,20.09536 3.74222,29.02569 17.49416,55.01304 21.90123,83.8373 0.14553,1.37743 0.23747,2.76382 0.23209,4.15175 z"
       id="path3713-1"
       inkscape:connector-curvature="0" />
    <ellipse
       style="fill:none;stroke:#000000;stroke-width:0.15910321;stroke-opacity:1"
       id="path8107-46"
       cx="30.227453"
       cy="208.11684"
       rx="0.63496822"
       ry="0.71189815"
       transform="matrix(0.98448798,-0.17545205,0.17764541,0.98409456,0,0)" />
    <ellipse
       style="fill:none;stroke:#000000;stroke-width:0.15910321;stroke-opacity:1"
       id="path8107-35"
       cx="38.512222"
       cy="204.07999"
       rx="0.63496822"
       ry="0.71189815"
       transform="matrix(0.98448798,-0.17545205,0.17764541,0.98409456,0,0)" />
    <ellipse
       style="fill:none;stroke:#000000;stroke-width:0.15910321;stroke-opacity:1"
       id="path8107-11"
       cx="32.664181"
       cy="208.27827"
       rx="0.63496822"
       ry="0.71189815"
       transform="matrix(0.98448798,-0.17545205,0.17764541,0.98409456,0,0)" />
    <ellipse
       style="fill:none;stroke:#000000;stroke-width:0.15910321;stroke-opacity:1"
       id="path8107-03"
       cx="34.613499"
       cy="206.34065"
       rx="0.63496822"
       ry="0.71189815"
       transform="matrix(0.98448798,-0.17545205,0.17764541,0.98409456,0,0)" />
    <ellipse
       style="fill:none;stroke:#000000;stroke-width:0.15910321;stroke-opacity:1"
       id="path8107-12"
       cx="36.88776"
       cy="206.34065"
       rx="0.63496822"
       ry="0.71189815"
       transform="matrix(0.98448798,-0.17545205,0.17764541,0.98409456,0,0)" />
    <ellipse
       style="fill:none;stroke:#000000;stroke-width:0.35536343;stroke-opacity:1"
       id="path9080"
       cx="436.27838"
       cy="304.30545"
       rx="3.8734396"
       ry="0.76515687"
       transform="matrix(0.87222884,0.489098,-0.99639583,-0.08482537,0,0)" />
    <ellipse
       style="fill:none;stroke:#000000;stroke-width:0.25024056;stroke-opacity:1"
       id="path9099"
       cx="170.88759"
       cy="-68.051865"
       rx="2.4897785"
       ry="0.21894825"
       transform="matrix(0.71252834,0.70164333,-0.59574358,0.80317469,0,0)" />
    <path
       style="fill:#000000;stroke-width:0.30491829"
       id="path8103"
       d="m 57.07055,281.36606 a 4.7777724,6.510643 0 0 1 -6.7e-4,0.10908"
       sodipodi:type="arc"
       sodipodi:start="0"
       sodipodi:end="0.016755887"
       sodipodi:ry="6.510643"
       sodipodi:rx="4.7777724"
       sodipodi:cy="281.36606"
       sodipodi:cx="52.292778"
       sodipodi:open="true"
       transform="matrix(0.99044718,-0.13789265,0.14969941,0.98873155,0,0)" />
    <path
       style="fill:#4a9feb;fill-opacity:0.77386935;stroke:#402c04;stroke-width:0.68070203;stroke-miterlimit:4;stroke-dasharray:none;stroke-opacity:1"
       d="m 69.261023,212.96683 c 1.070912,-4.80777 -0.98816,-10.38535 -2.430758,-13.67599 0,0 -5.654646,5.90238 -6.725558,10.71016 -1.070913,4.80778 0.406096,9.18559 3.298993,9.77813 2.892895,0.59252 4.78641,-2.00452 5.857323,-6.8123 z"
       id="path293"
       inkscape:connector-curvature="0"
       sodipodi:nodetypes="sssss" />
    <path
       style="fill:#4a9feb;fill-opacity:0.77386935;stroke:#402c04;stroke-width:0.68070209;stroke-miterlimit:4;stroke-dasharray:none;stroke-opacity:1"
       d="m 78.523308,168.61164 c 1.070914,-4.80778 -0.988159,-10.38536 -2.430757,-13.67599 0,0 -5.654645,5.90238 -6.725558,10.71015 -1.070914,4.80779 0.406097,9.1856 3.298993,9.77814 2.892896,0.59252 4.786409,-2.00452 5.857322,-6.8123 z"
       id="path293-4"
       inkscape:connector-curvature="0"
       sodipodi:nodetypes="sssss" />
    <path
       style="fill:#4a9feb;fill-opacity:0.77386935;stroke:#402c04;stroke-width:0.68070209;stroke-miterlimit:4;stroke-dasharray:none;stroke-opacity:1"
       d="m 96.31585,76.90493 c 1.070915,-4.807773 -0.988158,-10.385357 -2.430758,-13.675988 0,0 -5.654645,5.902385 -6.725557,10.71017 -1.070914,4.807784 0.406097,9.185592 3.298994,9.778127 2.892893,0.592514 4.78641,-2.004525 5.857321,-6.812309 z"
       id="path293-2"
       inkscape:connector-curvature="0"
       sodipodi:nodetypes="sssss" />
    <path
       style="fill:#4a9feb;fill-opacity:0.77386935;stroke:#402c04;stroke-width:0.68070209;stroke-miterlimit:4;stroke-dasharray:none;stroke-opacity:1"
       d="m 88.309205,125.95742 c 1.070915,-4.8078 -0.988158,-10.3854 -2.430757,-13.67605 0,0 -5.654645,5.90241 -6.725557,10.71021 -1.070914,4.8078 0.406097,9.1856 3.298992,9.77814 2.892896,0.59253 4.78641,-2.00452 5.857322,-6.8123 z"
       id="path293-46"
       inkscape:connector-curvature="0"
       sodipodi:nodetypes="sssss" />
    <rect
       style="fill:#000000;fill-opacity:1;stroke:none;stroke-width:0.1854471"
       id="rect1109"
       width="4.914876"
       height="27.58917"
       x="100.00046"
       y="-1.2149234"
       transform="matrix(0.995945,0.08996415,-0.09776434,0.99520959,0,0)" />
    <path
       sodipodi:type="star"
       style="fill:#000000;fill-opacity:1;stroke:none;stroke-width:0.26458332"
       id="path1111"
       sodipodi:sides="3"
       sodipodi:cx="116.18201"
       sodipodi:cy="37.767574"
       sodipodi:r1="9.3353233"
       sodipodi:r2="4.6676617"
       sodipodi:arg1="-0.5543075"
       sodipodi:arg2="0.49289005"
       inkscape:flatsided="false"
       inkscape:rounded="0"
       inkscape:randomized="0"
       d="m 124.11951,32.853884 -3.82544,7.122306 -3.82543,7.122306 -4.25538,-6.874076 -4.25538,-6.874077 8.08081,-0.24823 z"
       inkscape:transform-center-x="-0.2094262"
       inkscape:transform-center-y="1.5017018"
       transform="matrix(0.92502921,0.08355829,-0.07330398,0.74621083,-5.5995627,1.2415379)" />
  </g>
</svg>
