<?xml version="1.0" encoding="UTF-8" standalone="no"?>
<!-- Created with Inkscape (http://www.inkscape.org/) -->

<svg
   xmlns:dc="http://purl.org/dc/elements/1.1/"
   xmlns:cc="http://creativecommons.org/ns#"
   xmlns:rdf="http://www.w3.org/1999/02/22-rdf-syntax-ns#"
   xmlns:svg="http://www.w3.org/2000/svg"
   xmlns="http://www.w3.org/2000/svg"
   xmlns:sodipodi="http://sodipodi.sourceforge.net/DTD/sodipodi-0.dtd"
   xmlns:inkscape="http://www.inkscape.org/namespaces/inkscape"
   width="210mm"
   height="297mm"
   viewBox="0 0 210 297"
   version="1.1"
   id="svg8062"
   inkscape:version="0.92.4 (5da689c313, 2019-01-14)"
   sodipodi:docname="rysunek6.svg">
  <defs
     id="defs8056">
    <inkscape:perspective
       sodipodi:type="inkscape:persp3d"
       inkscape:vp_x="118.65662 : 902.45017 : 1"
       inkscape:vp_y="3513.8912 : 3786.7685 : 0"
       inkscape:vp_z="1086.6202 : 68.129866 : 1"
       inkscape:persp3d-origin="258.34608 : 138.58883 : 1"
       id="perspective9189" />
    <inkscape:perspective
       sodipodi:type="inkscape:persp3d"
       inkscape:vp_x="-50.418519 : 193.39806 : 1"
       inkscape:vp_y="13.106395 : 1366.7617 : 0"
       inkscape:vp_z="287.57024 : 202.54897 : 1"
       inkscape:persp3d-origin="112.95887 : 68.817741 : 1"
       id="perspective9103" />
  </defs>
  <sodipodi:namedview
     id="base"
     pagecolor="#ffffff"
     bordercolor="#666666"
     borderopacity="1.0"
     inkscape:pageopacity="0.0"
     inkscape:pageshadow="2"
     inkscape:zoom="0.35"
     inkscape:cx="101.52183"
     inkscape:cy="576.97065"
     inkscape:document-units="mm"
     inkscape:current-layer="layer1"
     showgrid="false"
     inkscape:window-width="1280"
     inkscape:window-height="971"
     inkscape:window-x="-8"
     inkscape:window-y="-8"
     inkscape:window-maximized="1" />
  <metadata
     id="metadata8059">
    <rdf:RDF>
      <cc:Work
         rdf:about="">
        <dc:format>image/svg+xml</dc:format>
        <dc:type
           rdf:resource="http://purl.org/dc/dcmitype/StillImage" />
        <dc:title />
      </cc:Work>
    </rdf:RDF>
  </metadata>
  <g
     inkscape:label="Layer 1"
     inkscape:groupmode="layer"
     id="layer1">
    <ellipse
       style="display:inline;fill:#d38d5f;stroke:#373737;stroke-width:2.53876114;stroke-miterlimit:4;stroke-dasharray:5.07752258, 2.5387613, 1.26938065, 2.5387613;stroke-dashoffset:0;stroke-opacity:1"
       id="path3748"
       cx="102.3149"
       cy="249.5912"
       rx="72.344971"
       ry="25.471985" />
    <path
       style="display:inline;opacity:0.98999999;fill:#2f2f2f;fill-opacity:1;stroke:#7c7c7c;stroke-width:0.65035838;stroke-opacity:1"
       d="m 166.19856,197.9143 c 0,37.46728 -24.67377,57.63891 -63.46049,57.63891 -38.786807,0 -62.733441,-21.20205 -63.460565,-58.65903 C 38.711804,167.75273 60.60273,116.90323 62.989782,86.228549 64.402658,68.072475 82.461974,64.576869 103.5842,64.783654 c 19.71667,0.193024 38.98488,3.714917 39.37057,22.771484 0.61659,30.463392 23.24379,85.942342 23.24379,110.359162 z"
       id="path3713"
       inkscape:connector-curvature="0"
       sodipodi:nodetypes="sssssss" />
    <ellipse
       style="display:inline;fill:#808080;stroke-width:0.65035838"
       id="path3742"
       cx="103.16103"
       cy="80.596085"
       rx="30.884113"
       ry="8.6713381" />
    <path
       style="fill:#000000;stroke-width:0.45252234"
       id="path8103"
       d="m 171.76805,277.35059 a 6.9494505,9.8585234 0 0 1 -9.7e-4,0.16518"
       sodipodi:type="arc"
       sodipodi:start="0"
       sodipodi:end="0.016755887"
       sodipodi:ry="9.8585234"
       sodipodi:rx="6.9494505"
       sodipodi:cy="277.35059"
       sodipodi:cx="164.8186"
       sodipodi:open="true"
       transform="rotate(15.755408)" />
    <g
       sodipodi:type="inkscape:box3d"
       id="g9175"
       style="fill:none;stroke:#000000;stroke-opacity:1"
       inkscape:perspectiveID="#perspective9189"
       inkscape:corner0="-0.058494111 : 0.25692226 : 0 : 1"
       inkscape:corner7="-0.19730519 : 0.24723646 : 0.25 : 1">
      <path
         sodipodi:type="inkscape:box3dside"
         id="path9177"
         style="fill:#353564;fill-rule:evenodd;stroke:none;stroke-linejoin:round"
         inkscape:box3dsidetype="6"
         d="m 1225.9108,-827.48144 -36.1493,38.95661 -21.641,213.4683 28.5646,-30.78279 z"
         points="1189.7615,-788.52483 1168.1205,-575.05653 1196.6851,-605.83932 1225.9108,-827.48144 " />
      <path
         sodipodi:type="inkscape:box3dside"
         id="path9187"
         style="fill:#e9e9ff;fill-rule:evenodd;stroke:none;stroke-linejoin:round"
         inkscape:box3dsidetype="11"
         d="m 1196.6851,-605.83932 142.1516,-0.0513 -32.3311,34.8419 -138.3851,-4.00779 z"
         points="1338.8367,-605.89064 1306.5056,-571.04874 1168.1205,-575.05653 1196.6851,-605.83932 " />
      <path
         sodipodi:type="inkscape:box3dside"
         id="path9179"
         style="fill:#4d4d9f;fill-rule:evenodd;stroke:none;stroke-linejoin:round"
         inkscape:box3dsidetype="5"
         d="m 1225.9108,-827.48144 191.479,-38.39617 -78.5531,259.98697 -142.1516,0.0513 z"
         points="1417.3898,-865.87761 1338.8367,-605.89064 1196.6851,-605.83932 1225.9108,-827.48144 " />
      <path
         sodipodi:type="inkscape:box3dside"
         id="path9185"
         style="fill:#afafde;fill-rule:evenodd;stroke:none;stroke-linejoin:round"
         inkscape:box3dsidetype="13"
         d="m 1189.7615,-788.52483 185.2275,-31.65935 -68.4834,249.13544 -138.3851,-4.00779 z"
         points="1374.989,-820.18418 1306.5056,-571.04874 1168.1205,-575.05653 1189.7615,-788.52483 " />
      <path
         sodipodi:type="inkscape:box3dside"
         id="path9183"
         style="fill:#d7d7ff;fill-rule:evenodd;stroke:none;stroke-linejoin:round"
         inkscape:box3dsidetype="14"
         d="m 1417.3898,-865.87761 -42.4008,45.69343 -68.4834,249.13544 32.3311,-34.8419 z"
         points="1374.989,-820.18418 1306.5056,-571.04874 1338.8367,-605.89064 1417.3898,-865.87761 " />
      <path
         sodipodi:type="inkscape:box3dside"
         id="path9181"
         style="fill:#8686bf;fill-rule:evenodd;stroke:none;stroke-linejoin:round"
         inkscape:box3dsidetype="3"
         d="m 1225.9108,-827.48144 191.479,-38.39617 -42.4008,45.69343 -185.2275,31.65935 z"
         points="1417.3898,-865.87761 1374.989,-820.18418 1189.7615,-788.52483 1225.9108,-827.48144 " />
    </g>
    <flowRoot
       xml:space="preserve"
       id="flowRoot9205"
       style="font-style:normal;font-weight:normal;font-size:40px;line-height:1.25;font-family:sans-serif;letter-spacing:0px;word-spacing:0px;fill:#000000;fill-opacity:1;stroke:none"><flowRegion
         id="flowRegion9207"><rect
           id="rect9209"
           width="151.52289"
           height="74.751289"
           x="452.54834"
           y="247.72758" /></flowRegion><flowPara
         id="flowPara9211" /></flowRoot>    <flowRoot
       xml:space="preserve"
       id="flowRoot9213"
       style="font-style:normal;font-weight:normal;font-size:40px;line-height:1.25;font-family:sans-serif;letter-spacing:0px;word-spacing:0px;fill:#000000;fill-opacity:1;stroke:none"><flowRegion
         id="flowRegion9215"><rect
           id="rect9217"
           width="117.1777"
           height="52.527931"
           x="484.87323"
           y="276.01184" /></flowRegion><flowPara
         id="flowPara9219" /></flowRoot>    <ellipse
       style="display:inline;fill:#789f4a;fill-opacity:1;stroke:#117f00;stroke-width:0.56909537;stroke-opacity:1"
       id="path3742-8"
       cx="103.60781"
       cy="81.565338"
       rx="30.278284"
       ry="6.7725878" />
    <path
       id="use12613-6-52"
       style="display:inline;fill:#52854e;fill-opacity:1;stroke:#469a2d;stroke-width:0.91273582px;stroke-linecap:butt;stroke-linejoin:miter;stroke-opacity:1"
       d="m 73.259839,79.248891 c 0.540581,0.20247 1.081162,0.404921 1.621759,0.607302 -0.0195,0.130053 -0.143666,0.285156 -0.05849,0.390058 0.08534,0.104657 0.334847,-0.0504 0.420055,0.05436 0.08517,0.104636 -0.143667,0.285501 -0.05849,0.39005 0.440391,0.541258 0.911105,0.304064 1.143213,0.943055 0.257796,0.709719 -0.979689,0.251084 0.723174,0.888721 0.262193,0.09837 0.560062,0.07239 0.84011,0.108619 0.140075,0.0181 0.340011,0.162447 0.420056,0.05427 0.06294,-0.08548 0.195522,-1.303987 0.233937,-1.560239 0.155981,-1.040166 0.311927,-2.080306 0.467893,-3.120481 0.0195,-0.130035 0.039,-0.260098 0.05849,-0.39005 0.0195,-0.130069 0.143666,-0.285496 0.05849,-0.390056 -0.08535,-0.104668 -0.280048,-0.03624 -0.420071,-0.05427 -0.140076,-0.01811 -0.286086,-0.09639 -0.420056,-0.05427 -0.189452,0.05947 -0.289096,0.276431 -0.478547,0.335756 -0.243722,0.07626 -1.549312,-0.309071 -1.680253,-0.217228 -0.112714,0.07907 0.05438,0.311091 -0.05849,0.390047 -0.112713,0.07907 -0.280031,-0.03624 -0.420072,-0.05436 -0.140075,-0.0181 -0.280048,-0.03624 -0.420055,-0.05428 -1.120174,-0.144829 0.159573,-0.111945 -0.478548,0.335747 -0.112714,0.07907 -0.280031,-0.03624 -0.420054,-0.05427 -0.997391,-0.128957 -0.367189,-0.17602 -1.074082,1.451623 z"
       inkscape:connector-curvature="0" />
    <rect
       style="fill:#aa8800;fill-opacity:1;stroke:none;stroke-width:0.33435339"
       id="rect1026"
       width="2.4948144"
       height="10.973831"
       x="146.62802"
       y="131.70332"
       transform="matrix(0.95437825,-0.29860034,-0.4243322,0.90550659,0,0)" />
    <path
       id="use12613-6-52-7"
       style="display:inline;fill:#52854e;fill-opacity:1;stroke:#469a2d;stroke-width:0.89235044px;stroke-linecap:butt;stroke-linejoin:miter;stroke-opacity:1"
       d="m 80.072989,84.926363 c 0.56798,-0.0864 1.135977,-0.172789 1.703924,-0.259256 0.05577,0.116472 0.03729,0.302685 0.167268,0.349293 0.129987,0.04639 0.254207,-0.19859 0.384191,-0.152095 0.129984,0.04639 0.03745,0.30299 0.167269,0.349292 0.671694,0.240175 0.936657,-0.176276 1.48709,0.242215 0.61137,0.464804 -0.686165,0.666566 1.102951,0.39432 0.275567,-0.04176 0.512173,-0.202876 0.768293,-0.304273 0.128104,-0.0507 0.376733,-0.02535 0.384121,-0.1522 0.0068,-0.100134 -0.559344,-1.167778 -0.669265,-1.397267 -0.446188,-0.931521 -0.89236,-1.863021 -1.338531,-2.794554 -0.05593,-0.116472 -0.111513,-0.232943 -0.16727,-0.349289 -0.05577,-0.116485 -0.03745,-0.302998 -0.167269,-0.349296 -0.129984,-0.0464 -0.25612,0.101407 -0.384156,0.152184 -0.128102,0.0507 -0.294602,0.0546 -0.384104,0.152185 -0.126562,0.137902 -0.09014,0.363682 -0.216833,0.501465 -0.162994,0.17721 -1.477273,0.471398 -1.536621,0.608589 -0.05114,0.118117 0.218493,0.231279 0.16744,0.349289 -0.05114,0.118129 -0.25612,0.101407 -0.384189,0.152098 -0.128103,0.05071 -0.256105,0.101407 -0.384122,0.152185 -1.024414,0.405722 0.07234,-0.167166 -0.216833,0.50146 -0.05114,0.118129 -0.256139,0.101407 -0.384139,0.152183 -0.912114,0.361251 -0.407176,0.02692 -0.09903,1.701571 z"
       inkscape:connector-curvature="0" />
    <path
       id="use12613-6-52-8"
       style="display:inline;fill:#52854e;fill-opacity:1;stroke:#469a2d;stroke-width:0.94662023px;stroke-linecap:butt;stroke-linejoin:miter;stroke-opacity:1"
       d="m 91.23018,77.710456 c 0.572086,-0.164481 1.144135,-0.328961 1.716169,-0.493519 0.0655,0.120748 0.06054,0.327087 0.196379,0.362268 0.135799,0.03487 0.244114,-0.248883 0.379965,-0.213909 0.1358,0.03486 0.06054,0.327475 0.196395,0.362259 0.701986,0.18067 0.940865,-0.308288 1.532619,0.08271 0.657242,0.434268 -0.649272,0.814825 1.152689,0.296611 0.277567,-0.07963 0.506562,-0.285283 0.75986,-0.427897 0.126735,-0.07134 0.381829,-0.07411 0.379914,-0.213976 -0.0016,-0.110469 -0.656575,-1.211054 -0.785584,-1.449056 -0.523803,-0.965991 -1.047469,-1.93205 -1.57122,-2.898099 -0.0655,-0.120731 -0.130841,-0.241595 -0.19638,-0.362262 -0.0655,-0.120764 -0.06054,-0.327473 -0.196396,-0.362266 -0.135799,-0.03489 -0.253316,0.142606 -0.379914,0.213988 -0.126734,0.07136 -0.296022,0.09604 -0.379913,0.213977 -0.118693,0.166688 -0.06481,0.40965 -0.183535,0.576214 -0.152903,0.214245 -1.469541,0.698155 -1.51979,0.8558 -0.04327,0.135783 0.239786,0.226571 0.196378,0.362261 -0.04327,0.135783 -0.253315,0.142607 -0.379965,0.213919 -0.126735,0.07134 -0.253315,0.142606 -0.379911,0.213976 -1.013177,0.570523 0.06123,-0.192096 -0.183534,0.576206 -0.04327,0.135783 -0.253316,0.142606 -0.379915,0.213979 -0.902126,0.50798 -0.412717,0.07953 0.02566,1.876951 z"
       inkscape:connector-curvature="0" />
    <path
       id="use12613-6-52-4"
       style="display:inline;fill:#52854e;fill-opacity:1;stroke:#469a2d;stroke-width:1.01113725px;stroke-linecap:butt;stroke-linejoin:miter;stroke-opacity:1"
       d="m 121.24669,79.061958 c 0.60827,0.220835 1.21651,0.441652 1.82478,0.662392 -0.0219,0.141838 -0.16162,0.311021 -0.0658,0.425439 0.0959,0.114143 0.37675,-0.05497 0.47265,0.05928 0.0959,0.114131 -0.16163,0.311395 -0.0656,0.425428 0.49553,0.590356 1.02516,0.331649 1.28632,1.028604 0.29007,0.774094 -1.10232,0.273858 0.81368,0.969337 0.29501,0.107287 0.63018,0.07895 0.94527,0.118477 0.15753,0.01975 0.38258,0.177176 0.47265,0.0592 0.071,-0.09325 0.22,-1.42227 0.26324,-1.701768 0.17547,-1.134521 0.35094,-2.269013 0.52644,-3.403546 0.0219,-0.141836 0.044,-0.283689 0.0656,-0.425428 0.0219,-0.141872 0.16179,-0.311398 0.0656,-0.425442 -0.0959,-0.114167 -0.3151,-0.03953 -0.47265,-0.0592 -0.15752,-0.01978 -0.32189,-0.105141 -0.47265,-0.0592 -0.21315,0.06486 -0.32528,0.301506 -0.53843,0.36621 -0.27424,0.08318 -1.74326,-0.337104 -1.8906,-0.236933 -0.12691,0.08625 0.061,0.339312 -0.0656,0.42543 -0.12691,0.08624 -0.3151,-0.03953 -0.47265,-0.05928 -0.15752,-0.01975 -0.31509,-0.03953 -0.47264,-0.0592 -1.26039,-0.157965 0.17949,-0.1221 -0.53846,0.3662 -0.1269,0.08624 -0.31509,-0.03953 -0.47262,-0.0592 -1.12224,-0.14064 -0.41317,-0.191989 -1.20853,1.583299 z"
       inkscape:connector-curvature="0" />
    <path
       id="use12613-6-52-40"
       style="display:inline;fill:#52854e;fill-opacity:1;stroke:#469a2d;stroke-width:1.01156604px;stroke-linecap:butt;stroke-linejoin:miter;stroke-opacity:1"
       d="m 100.85154,87.02347 c 0.27356,-0.536076 0.54711,-1.07212 0.82056,-1.608217 0.15581,0.02819 0.33596,0.164465 0.46709,0.08467 0.13084,-0.07983 -0.0426,-0.343412 0.0884,-0.423214 0.13084,-0.07983 0.33637,0.164506 0.46705,0.08467 0.67657,-0.412374 0.41626,-0.905886 1.19929,-1.100341 0.8697,-0.215975 0.24932,1.011482 1.11089,-0.677168 0.13289,-0.259979 0.11784,-0.564275 0.17673,-0.846411 0.0294,-0.1411 0.21437,-0.334908 0.0883,-0.423216 -0.0995,-0.06957 -1.56145,-0.282975 -1.86832,-0.338575 -1.24554,-0.225773 -2.49107,-0.451426 -3.736658,-0.677149 -0.15564,-0.02822 -0.311449,-0.05643 -0.467054,-0.08466 -0.155811,-0.02822 -0.336387,-0.164498 -0.467089,-0.08466 -0.130839,0.07982 -0.05901,0.282151 -0.08826,0.423234 -0.02942,0.141101 -0.131866,0.284392 -0.08826,0.423197 0.06141,0.196323 0.317521,0.311584 0.378715,0.507864 0.07868,0.252522 -0.457065,1.553907 -0.353488,1.692873 0.08928,0.119703 0.378032,-0.03505 0.467071,0.08466 0.08911,0.119702 -0.05901,0.282133 -0.08842,0.42321 -0.02942,0.141102 -0.05901,0.282137 -0.08826,0.423201 -0.235665,1.12858 -0.126222,-0.169323 0.378699,0.507864 0.08911,0.119719 -0.05901,0.282153 -0.08826,0.423214 -0.209822,1.004866 -0.232227,0.36163 1.691594,1.185013 z"
       inkscape:connector-curvature="0" />
    <path
       id="use12613-6-52-0"
       style="display:inline;fill:#52854e;fill-opacity:1;stroke:#469a2d;stroke-width:0.80316895px;stroke-linecap:butt;stroke-linejoin:miter;stroke-opacity:1"
       d="m 103.88542,74.633766 c -0.35042,0.346023 -0.70085,0.692044 -1.05123,1.038099 -0.11373,-0.05179 -0.21871,-0.188905 -0.3411,-0.155229 -0.12212,0.03376 -0.0554,0.264612 -0.17759,0.298327 -0.12211,0.03376 -0.21902,-0.189046 -0.3411,-0.155229 -0.63173,0.174255 -0.55644,0.593814 -1.21483,0.584483 -0.73124,-0.01041 0.0665,-0.803847 -1.037254,0.286166 -0.170178,0.167782 -0.236692,0.397788 -0.355046,0.596679 -0.05918,0.09946 -0.252717,0.207599 -0.177498,0.298352 0.05952,0.07158 1.140358,0.519062 1.364448,0.62107 0.90965,0.414042 1.81925,0.828078 2.7289,1.242131 0.11373,0.05179 0.22745,0.103542 0.34114,0.155228 0.11373,0.05179 0.219,0.189053 0.3411,0.155229 0.12212,-0.03376 0.11836,-0.19889 0.1775,-0.298359 0.0592,-0.09943 0.17555,-0.186198 0.17748,-0.298351 0.003,-0.158563 -0.16658,-0.295092 -0.1635,-0.453609 0.003,-0.203924 0.75483,-1.069266 0.71009,-1.193375 -0.0385,-0.106854 -0.30271,-0.04844 -0.34113,-0.155229 -0.0385,-0.106878 0.11836,-0.19888 0.17757,-0.298325 0.0592,-0.09946 0.11836,-0.198889 0.17751,-0.298351 0.4734,-0.795584 0.0546,0.15121 -0.16368,-0.453608 -0.0385,-0.106877 0.11836,-0.198889 0.1775,-0.298352 0.42151,-0.708379 0.27345,-0.224026 -1.00941,-1.217756 z"
       inkscape:connector-curvature="0" />
    <rect
       style="fill:#aa8800;fill-opacity:1;stroke:none;stroke-width:0.26745003"
       id="rect1026-1"
       width="2.0360718"
       height="8.6035442"
       x="146.56047"
       y="-13.092797"
       transform="matrix(0.81232005,0.58321192,-0.92896813,0.37015971,0,0)" />
    <path
       id="use12613-6-549-64"
       style="display:inline;fill:#52854e;fill-opacity:1;stroke:#469a2d;stroke-width:0.81357467px;stroke-linecap:butt;stroke-linejoin:miter;stroke-opacity:1"
       d="m 120.48025,74.454681 c 0.003,0.49757 0.007,0.995125 0.012,1.492674 -0.1184,0.03018 -0.29271,-0.0135 -0.35493,0.09048 -0.062,0.103921 0.15359,0.246626 0.0917,0.350546 -0.062,0.103921 -0.29302,-0.01334 -0.35493,0.09048 -0.32073,0.537164 0.0383,0.825581 -0.43506,1.232592 -0.52584,0.452056 -0.53867,-0.685249 -0.52662,0.882041 0.001,0.241385 0.12212,0.467393 0.18321,0.701094 0.0305,0.116844 -0.0279,0.325248 0.0916,0.350547 0.0944,0.01987 1.18653,-0.302451 1.4197,-0.361886 0.94645,-0.241261 1.89291,-0.482516 2.83938,-0.723775 0.1184,-0.03018 0.23667,-0.06032 0.35491,-0.09048 0.11839,-0.03018 0.29303,0.01351 0.35493,-0.09048 0.0619,-0.103921 -0.061,-0.233701 -0.0917,-0.350547 -0.0306,-0.116844 -0.012,-0.259556 -0.0916,-0.350547 -0.11359,-0.128702 -0.33309,-0.131336 -0.44653,-0.260077 -0.14589,-0.165662 -0.24424,-1.331024 -0.36639,-1.402196 -0.10518,-0.0613 -0.24985,0.151807 -0.35493,0.09048 -0.10518,-0.0613 -0.061,-0.233693 -0.0916,-0.350545 -0.0306,-0.116845 -0.061,-0.233702 -0.0917,-0.35055 -0.24424,-0.934795 0.14881,0.08668 -0.44651,-0.260074 -0.10519,-0.0613 -0.061,-0.233702 -0.0917,-0.350547 -0.21747,-0.832332 0.0306,-0.351456 -1.60287,-0.339217 z"
       inkscape:connector-curvature="0" />
    <path
       id="rect4547"
       style="fill:#808080;stroke:#5b5b5b;stroke-width:0.63694412;stroke-opacity:1"
       d="m 166.93313,10.392875 c -1.49977,0.927308 -5.7444,3.20798 -8.45476,7.572681 l -40.13573,64.632919 c 0.0641,1.99e-4 0.12725,-0.0033 0.1918,0.0027 0.25599,4.52e-4 0.51207,-4.54e-4 0.76806,-9.05e-4 0.005,-0.0019 0.0108,-0.0036 0.0153,-0.0053 0.30199,-0.0067 0.60718,-0.0085 0.91122,0.0044 0.33788,-9.05e-4 0.67588,-4.54e-4 1.01376,-9.05e-4 0.0967,-0.01814 0.18365,-0.03519 0.4216,-0.06981 0.37328,-0.05436 0.75004,-0.08564 1.12598,-0.116665 0.0251,-0.0023 0.0489,0.01164 0.0733,0.0177 0.0108,0.0085 0.0189,0.02498 0.0327,0.02562 0.0585,0.0027 0.11659,-0.01057 0.17498,-0.0159 0.6949,-0.163303 0.84292,-0.216432 1.66338,-0.295198 0.59762,-0.05739 1.20897,0.03366 1.80921,0.0019 0.30397,-0.04289 0.60853,-0.04688 0.91389,-0.03623 0.0171,4.53e-4 0.033,0.0019 0.0494,0.0027 l 36.86819,-60.867896 c 4.51386,-7.452112 8.23382,-6.13634 5.014,-8.754362 0,0 -0.28827,-0.378928 -2.45617,-2.097338 z M 94.071672,127.85872 c 1.2e-4,0.0877 1.71e-4,0.17558 9.06e-4,0.26339 0.04532,-0.0496 0.124682,-0.14144 0.155639,-0.17411 0.01865,-0.0197 0.03814,-0.0528 0.05747,-0.0831 -0.07133,-0.001 -0.142469,-0.003 -0.213875,-0.007 z"
       inkscape:connector-curvature="0" />
    <rect
       style="fill:#aa8800;fill-opacity:1;stroke:none;stroke-width:0.23432279"
       id="rect1026-7"
       width="1.6799527"
       height="8.0041866"
       x="22.816877"
       y="129.98688"
       transform="matrix(-0.85256025,0.52262895,0.86469483,0.50229757,0,0)" />
    <ellipse
       style="fill:none;stroke:#000000;stroke-width:0.24982399;stroke-opacity:1"
       id="path9099"
       cx="147.89737"
       cy="-106.1902"
       rx="2.4844177"
       ry="0.21869078"
       transform="matrix(0.73628702,0.67666936,-0.56253513,0.82677338,0,0)" />
    <path
       id="use12613-6-549"
       style="display:inline;fill:#52854e;fill-opacity:1;stroke:#469a2d;stroke-width:0.79426336px;stroke-linecap:butt;stroke-linejoin:miter;stroke-opacity:1"
       d="m 109.2702,74.11899 c -0.10245,0.548301 -0.20511,1.09659 -0.30759,1.644891 -0.10245,0 -0.23495,-0.09692 -0.30756,0 -0.0724,0.09693 0.0724,0.314313 0,0.411221 -0.0724,0.09693 -0.23522,-0.09692 -0.30757,0 -0.37465,0.500864 -0.144,0.918751 -0.61517,1.23366 -0.52318,0.349761 -0.29219,-0.904673 -0.61511,0.822449 -0.05,0.265957 0,0.548292 0,0.822441 0,0.137065 -0.0917,0.349918 0,0.411218 0.0724,0.04832 1.02822,0 1.23028,0 0.82019,0 1.64037,0 2.46057,0 0.10245,0 0.2051,0 0.30756,0 0.10245,0 0.23521,0.09693 0.30758,0 0.0724,-0.09691 0,-0.274149 0,-0.411218 0,-0.137065 0.046,-0.288624 0,-0.411222 -0.065,-0.173381 -0.24275,-0.237835 -0.30758,-0.411219 -0.0833,-0.223088 0.0841,-1.532366 0,-1.644889 -0.0724,-0.09691 -0.2352,0.09693 -0.30756,0 -0.0724,-0.09691 0,-0.274139 0,-0.41122 0,-0.137066 0,-0.274149 0,-0.411221 0,-1.09659 0.10245,0.137065 -0.30757,-0.411221 -0.0724,-0.09689 0,-0.274149 0,-0.41122 0,-0.976389 0.0994,-0.377975 -1.23028,-0.82245 z"
       inkscape:connector-curvature="0" />
    <path
       id="use12613-6-549-4"
       style="display:inline;fill:#52854e;fill-opacity:1;stroke:#469a2d;stroke-width:0.76442564px;stroke-linecap:butt;stroke-linejoin:miter;stroke-opacity:1"
       d="m 108.12163,82.900785 c 0.24498,0.415649 0.49008,0.831182 0.73517,1.246735 -0.08,0.07685 -0.24082,0.116064 -0.24006,0.23034 9.4e-4,0.11413 0.24288,0.139971 0.2438,0.254093 9.6e-4,0.114131 -0.24101,0.116268 -0.24004,0.230327 0.005,0.59005 0.4323,0.675575 0.2513,1.222979 -0.20099,0.607936 -0.76443,-0.340183 0.007,0.96885 0.11887,0.201647 0.32508,0.338795 0.48763,0.508192 0.0812,0.08467 0.13579,0.284899 0.2438,0.25409 0.0852,-0.0244 0.80251,-0.770023 0.96023,-0.92135 0.64015,-0.614237 1.28029,-1.228463 1.92046,-1.842711 0.08,-0.07685 0.16009,-0.153601 0.24005,-0.230324 0.08,-0.07685 0.24104,-0.116268 0.24006,-0.230339 -9.4e-4,-0.114107 -0.16248,-0.169407 -0.24381,-0.254095 -0.0812,-0.0847 -0.13528,-0.2128 -0.2438,-0.254095 -0.15359,-0.05845 -0.33049,0.03483 -0.48387,-0.02375 -0.19731,-0.07545 -0.84288,-1.009854 -0.97524,-1.016384 -0.1139,-0.0057 -0.12605,0.236044 -0.24005,0.230325 -0.1139,-0.0057 -0.16248,-0.16939 -0.2438,-0.254093 -0.0812,-0.0847 -0.16249,-0.169408 -0.24381,-0.254094 -0.65016,-0.677588 0.16128,0.0079 -0.48387,-0.02375 -0.1139,-0.0057 -0.16248,-0.16939 -0.2438,-0.254095 -0.5789,-0.603317 -0.14641,-0.308035 -1.44786,0.41316 z"
       inkscape:connector-curvature="0" />
    <path
       id="use12613-6-549-0"
       style="display:inline;fill:#52854e;fill-opacity:1;stroke:#469a2d;stroke-width:0.75823081px;stroke-linecap:butt;stroke-linejoin:miter;stroke-opacity:1"
       d="m 118.34264,83.50352 c -0.18201,0.281607 -0.36391,0.563208 -0.54578,0.844814 -0.18201,0 -0.41687,-0.04977 -0.54574,0 -0.12862,0.04978 0.12861,0.161437 0,0.211204 -0.12862,0.04977 -0.41737,-0.04977 -0.54573,0 -0.66477,0.257243 -0.25568,0.471871 -1.09152,0.633611 -0.92839,0.179632 -0.51849,-0.464645 -1.0915,0.422415 -0.0886,0.136591 0,0.281596 0,0.422394 0,0.07037 -0.16265,0.179715 0,0.211207 0.12862,0.02482 1.82446,0 2.18302,0 1.45532,0 2.91066,0 4.36599,0 0.18205,0 0.36393,0 0.54576,0 0.18201,0 0.41734,0.04986 0.54574,0 0.12862,-0.04975 0,-0.140808 0,-0.211207 0,-0.07037 0.0815,-0.148235 0,-0.211197 -0.11516,-0.08909 -0.4307,-0.122149 -0.54574,-0.211197 -0.14794,-0.114555 0.1493,-0.787034 0,-0.844823 -0.12862,-0.04977 -0.41738,0.04978 -0.54576,0 -0.1286,-0.04977 0,-0.140793 0,-0.211203 0,-0.0704 0,-0.140811 0,-0.211204 0,-0.563207 0.18205,0.0704 -0.54574,-0.211202 -0.12861,-0.04977 0,-0.140795 0,-0.211202 0,-0.501473 0.17646,-0.194129 -2.183,-0.42241 z"
       inkscape:connector-curvature="0" />
    <path
       id="use12613-6-549-6"
       style="display:inline;fill:#52854e;fill-opacity:1;stroke:#469a2d;stroke-width:0.75404412px;stroke-linecap:butt;stroke-linejoin:miter;stroke-opacity:1"
       d="m 116.35104,76.484934 c -0.2522,0.414469 -0.5044,0.828938 -0.75656,1.243442 -0.0907,-0.05201 -0.17905,-0.201601 -0.2718,-0.155981 -0.0926,0.04573 -0.0286,0.304153 -0.12126,0.349855 -0.0926,0.04573 -0.17929,-0.201736 -0.27181,-0.155981 -0.47867,0.236127 -0.39807,0.70858 -0.90715,0.737591 -0.56543,0.03222 0.008,-0.91786 -0.78596,0.387753 -0.12246,0.200981 -0.16162,0.466474 -0.24238,0.699716 -0.0404,0.116628 -0.18413,0.251218 -0.1211,0.349853 0.0498,0.07784 0.90864,0.52147 1.0872,0.623948 0.72482,0.415968 1.44962,0.831926 2.17442,1.247896 0.0907,0.05201 0.18126,0.104026 0.2718,0.155981 0.0907,0.05201 0.1793,0.201748 0.2718,0.155982 0.0926,-0.0457 0.0808,-0.23324 0.12127,-0.349855 0.0404,-0.116628 0.1257,-0.222249 0.12126,-0.349858 -0.007,-0.180429 -0.14453,-0.325452 -0.15068,-0.505843 -0.008,-0.232058 0.52594,-1.261034 0.48473,-1.399433 -0.0354,-0.119198 -0.2364,-0.03682 -0.27178,-0.155982 -0.0356,-0.119197 0.0807,-0.23323 0.1211,-0.349854 0.0403,-0.116628 0.0807,-0.233242 0.12125,-0.349857 0.32317,-0.932953 0.0501,0.168621 -0.15067,-0.505843 -0.0355,-0.119175 0.0807,-0.233243 0.12108,-0.349858 0.28775,-0.830691 0.19928,-0.271143 -0.84482,-1.323668 z"
       inkscape:connector-curvature="0" />
    <path
       id="use12613-6-549-1"
       style="display:inline;fill:#52854e;fill-opacity:1;stroke:#469a2d;stroke-width:0.9383679px;stroke-linecap:butt;stroke-linejoin:miter;stroke-opacity:1"
       d="m 88.868978,75.715455 c -0.118009,0.66505 -0.236024,1.330089 -0.353967,1.995137 -0.118009,0 -0.270352,-0.117552 -0.353934,0 -0.0833,0.117554 0.08346,0.381238 0,0.498781 -0.0833,0.117554 -0.270675,-0.117552 -0.353935,0 -0.431103,0.607516 -0.165729,1.114382 -0.707884,1.496345 -0.602084,0.424235 -0.336232,-1.097306 -0.70785,0.997573 -0.05747,0.322588 0,0.665038 0,0.997563 0,0.166259 -0.105522,0.424425 0,0.498781 0.08329,0.0586 1.183216,0 1.415734,0 0.943859,0 1.887681,0 2.831523,0 0.118009,0 0.236006,0 0.353933,0 0.11801,0 0.270676,0.117554 0.353935,0 0.08329,-0.117552 0,-0.332525 0,-0.498781 0,-0.166261 0.05284,-0.350081 0,-0.498781 -0.07474,-0.210303 -0.279347,-0.28848 -0.353935,-0.498782 -0.09595,-0.270589 0.0968,-1.858655 0,-1.995137 -0.08329,-0.117553 -0.270674,0.117552 -0.353933,0 -0.0833,-0.117553 0,-0.332514 0,-0.498781 0,-0.166259 0,-0.332523 0,-0.498781 0,-1.330087 0.118009,0.166262 -0.353933,-0.49878 -0.0833,-0.117553 0,-0.332526 0,-0.498783 0,-1.184292 0.114419,-0.458456 -1.415754,-0.997574 z"
       inkscape:connector-curvature="0" />
    <rect
       style="fill:#aa8800;fill-opacity:1;stroke:none;stroke-width:0.23432277"
       id="rect1026-7-6"
       width="1.6799527"
       height="8.0041857"
       x="-145.26889"
       y="-27.071011"
       transform="matrix(-0.69264942,-0.72127441,-0.30603899,0.95201898,0,0)" />
    <path
       id="use12613-6-549-0-2"
       style="display:inline;fill:#52854e;fill-opacity:1;stroke:#469a2d;stroke-width:0.75823087px;stroke-linecap:butt;stroke-linejoin:miter;stroke-opacity:1"
       d="m 92.332156,83.084085 c -0.132378,0.308103 -0.264502,0.616181 -0.396658,0.924258 -0.179447,0.03046 -0.419324,0.02071 -0.538048,0.09136 -0.118477,0.07062 0.153827,0.13763 0.03535,0.208225 -0.118477,0.0706 -0.419811,0.0208 -0.538027,0.09135 -0.612327,0.364893 -0.173078,0.508011 -0.970061,0.807383 -0.885206,0.332515 -0.588946,-0.371285 -1.005376,0.599164 -0.06448,0.149497 0.04714,0.277631 0.0707,0.416441 0.01177,0.06942 -0.130277,0.204412 0.03535,0.208231 0.130959,0.0021 1.798721,-0.30542 2.152214,-0.365448 1.4348,-0.243614 2.869588,-0.487239 4.304411,-0.730854 0.179463,-0.0305 0.358791,-0.0609 0.53805,-0.0914 0.179446,-0.0305 0.419798,-0.02083 0.53805,-0.0914 0.118525,-0.07058 -0.0236,-0.138831 -0.0354,-0.208228 -0.01201,-0.0694 0.05558,-0.159795 -0.0354,-0.208221 -0.128445,-0.06854 -0.445094,-0.04833 -0.573402,-0.116869 -0.165046,-0.08819 0.0154,-0.800914 -0.141444,-0.832894 -0.135116,-0.02754 -0.403157,0.118958 -0.538048,0.09136 -0.135117,-0.02754 -0.0236,-0.13881 -0.03539,-0.208224 -0.01201,-0.0694 -0.0236,-0.138826 -0.0354,-0.208224 -0.09423,-0.555259 0.191248,0.03893 -0.573403,-0.116867 -0.135115,-0.02754 -0.0236,-0.13881 -0.03541,-0.208223 -0.08398,-0.494395 0.141445,-0.220927 -2.22292,-0.05102 z"
       inkscape:connector-curvature="0" />
  </g>
</svg>
