<?xml version="1.0" encoding="UTF-8" standalone="no"?>
<!-- Created with Inkscape (http://www.inkscape.org/) -->

<svg
   xmlns:dc="http://purl.org/dc/elements/1.1/"
   xmlns:cc="http://creativecommons.org/ns#"
   xmlns:rdf="http://www.w3.org/1999/02/22-rdf-syntax-ns#"
   xmlns:svg="http://www.w3.org/2000/svg"
   xmlns="http://www.w3.org/2000/svg"
   xmlns:sodipodi="http://sodipodi.sourceforge.net/DTD/sodipodi-0.dtd"
   xmlns:inkscape="http://www.inkscape.org/namespaces/inkscape"
   width="210mm"
   height="297mm"
   viewBox="0 0 210 297"
   version="1.1"
   id="svg8"
   inkscape:version="0.92.4 (5da689c313, 2019-01-14)"
   sodipodi:docname="rysunek4.svg">
  <defs
     id="defs2" />
  <sodipodi:namedview
     id="base"
     pagecolor="#ffffff"
     bordercolor="#666666"
     borderopacity="1.0"
     inkscape:pageopacity="0.0"
     inkscape:pageshadow="2"
     inkscape:zoom="0.49497475"
     inkscape:cx="386.35673"
     inkscape:cy="535.04499"
     inkscape:document-units="mm"
     inkscape:current-layer="layer1"
     showgrid="false"
     inkscape:window-width="1280"
     inkscape:window-height="971"
     inkscape:window-x="-8"
     inkscape:window-y="-8"
     inkscape:window-maximized="1" />
  <metadata
     id="metadata5">
    <rdf:RDF>
      <cc:Work
         rdf:about="">
        <dc:format>image/svg+xml</dc:format>
        <dc:type
           rdf:resource="http://purl.org/dc/dcmitype/StillImage" />
        <dc:title />
      </cc:Work>
    </rdf:RDF>
  </metadata>
  <g
     inkscape:label="Layer 1"
     inkscape:groupmode="layer"
     id="layer1">
    <path
       id="rect11637"
       style="display:inline;opacity:0.98999999;fill:#b3b3b3;fill-opacity:1;stroke:none;stroke-width:20.57374763;stroke-miterlimit:4;stroke-dasharray:none;stroke-dashoffset:0;stroke-opacity:1"
       d="m 156.59661,72.186361 c -0.3079,-0.330972 -1.09104,-0.945692 -3.16504,-2.148065 -0.29864,-0.173148 0.44391,0.606958 0.70099,0.858701 0.25068,0.245797 0.53367,0.43704 0.81091,0.636448 0.0734,0.037 0.1473,0.07265 0.21986,0.111665 0.0527,0.02825 -0.11338,-0.03431 -0.16248,-0.07009 -0.0192,-0.01386 -0.0381,-0.02785 -0.0573,-0.04171 -0.12327,-0.06242 -0.24649,-0.125253 -0.36959,-0.187852 -0.62297,-0.426936 -1.26106,-0.822929 -1.86803,-1.281467 -0.1977,-0.149348 -0.36122,-0.3566 -0.53988,-0.53856 -0.39036,-0.398481 -0.79858,-0.80486 -1.1433,-1.270004 -0.0156,-0.02099 0.0401,0.0265 0.0601,0.03982 0.11908,0.06969 0.61375,0.363623 0.29683,0.147626 -0.43604,-0.297149 -3.11587,-1.970017 -1.95299,-1.470503 -0.55009,-0.364736 -1.10306,-0.729462 -1.63702,-1.124375 -0.4424,-0.18765 -0.62704,-0.273188 -0.41515,-0.238612 -0.45383,-0.240402 -1.03511,-0.548364 -1.91729,-0.98021 -0.23329,-0.114221 -0.38859,-0.383692 -0.58008,-0.579617 -1.04993,-1.076143 -2.07497,-2.189207 -3.09571,-3.308779 -1.05957,-1.120127 -1.62657,-1.748337 -2.74945,-2.808135 -2.30981,-2.179992 -4.75425,-4.137771 -7.08709,-6.2795 -0.4639,-0.440403 -0.91919,-0.893664 -1.3912,-1.320734 -0.23154,-0.209683 -3.09668,-2.656352 -3.16446,-2.718494 -0.79906,-0.732247 -1.49968,-1.627184 -2.29613,-2.364584 -1.0827,-1.062398 -2.17601,-2.11115 -3.22028,-3.231544 -0.92543,0.361285 -1.71676,0.636889 -1.23111,0.189385 -0.13628,0.02541 -0.28613,0.05263 -0.36825,0.06922 -0.29307,0.0594 -0.58663,0.113131 -0.87939,0.154431 -0.54248,0.07652 -0.97922,0.08848 -1.39793,0.07227 -0.0832,0.101709 -0.23245,0.178625 -0.42094,0.234879 1.06189,3.256843 0.71732,7.721128 -1.91266,0.748284 -3.60331,3.194405 -6.98063,7.571363 -3.6907,-0.302741 -0.0291,0.0144 -0.0593,0.02871 -0.0892,0.03876 -2.26474,0.754414 -1.7879,0.637075 -3.48683,0.749255 0.71528,-0.123463 -0.0878,0.01924 -0.52958,0.0621 -0.19423,0.07631 -0.41215,0.164633 -0.60244,0.24766 -0.34556,0.351744 -0.56879,0.131213 -0.88567,-0.646759 -0.0752,0.08951 -0.19225,0.230616 -0.25509,0.304132 -0.0207,0.0319 -0.0366,0.06069 -0.0574,0.09259 -0.11212,0.169735 -0.25903,0.295492 -0.38967,0.441522 -0.19647,0.219354 0.23876,-0.289467 0.44701,-0.534248 0.0876,-0.134563 0.14838,-0.240478 0.22834,-0.367651 -0.031,-0.07782 -0.0576,-0.129477 -0.0907,-0.218321 -0.0122,-0.0159 -0.0236,-0.02921 -0.0351,-0.04442 -0.31985,0.269062 -0.63974,0.53783 -0.9608,0.804266 -0.18674,0.48494 -0.38675,0.963502 -0.59493,1.437886 0.8386,-0.413856 0.61119,-0.223881 -0.093,0.216159 -0.10595,0.241666 -0.21332,0.482535 -0.31579,0.725789 -1.29301,2.078391 -1.21435,1.977139 -1.76077,2.693255 -0.32633,0.691376 -1.05617,2.063969 -1.07561,2.1018 -0.88585,1.69782 -2.09026,3.07531 -3.077175,4.668447 -1.058129,1.677366 -2.147715,3.321695 -3.228645,4.976113 -1.12199,1.778362 -2.184469,3.382424 -3.493323,4.974243 -0.292045,0.355211 -0.577771,0.73187 -0.911487,1.012293 -0.872803,0.732951 -1.79381,1.342424 -2.690862,2.013906 -1.802407,-0.319482 -3.745411,-0.202382 -5.505439,-0.654032 -0.06413,0.05946 -0.121085,0.110184 -0.184708,0.167174 -0.534025,0.633609 -1.066937,1.268134 -1.60062,1.902268 -0.703699,0.502424 -0.860051,0.606111 -1.268665,0.892537 -0.0072,0.0067 -0.02298,0.01803 -0.0293,0.02341 -0.135512,0.10588 -0.273422,0.205181 -0.410101,0.307724 -0.366153,0.360045 -0.929589,0.846983 -1.214456,1.088529 -0.223834,0.1857 -0.447467,0.371117 -0.67129,0.556601 -0.0059,0.0081 -0.01247,0.01574 -0.01846,0.02381 0.01693,-0.0094 0.01389,2.83e-4 -0.01587,0.03713 -0.01432,0.01749 -0.03099,0.03027 -0.04682,0.04588 -0.04791,0.06485 -0.09387,0.131306 -0.143527,0.194323 -0.261395,0.318554 -0.51709,0.646552 -0.78383,0.957316 -0.228161,0.265399 -0.770966,1.139437 -0.700782,0.771509 0.0016,-0.0067 0.0055,-0.01736 0.0075,-0.02435 -0.317579,0.435452 -0.649243,0.849741 -1.016062,1.197408 -0.666121,0.955621 -1.487025,1.949087 -2.194965,2.539578 -0.01756,0.01413 -0.01931,0.01211 -0.01926,0.0081 -0.09742,0.119199 -0.196825,0.236783 -0.295148,0.354811 0.826593,-1.119351 -0.414273,0.579957 -1.473494,1.591034 -1.46196,1.395593 -2.026173,1.894209 -2.160132,1.967894 -0.166485,0.175946 -0.429369,0.442327 -0.757488,0.764742 -0.106625,0.193866 -0.260987,0.33564 -0.447867,0.441748 -0.0025,0.0027 -0.0025,0.0027 -0.0043,0.004 -9e-4,8.21e-4 0.0037,-0.0054 0.0027,-0.004 -0.861879,0.487881 -2.325637,0.320478 -2.241361,1.887052 0.4431,-0.428388 0.849497,-0.820681 1.152492,-1.053791 0.347628,-0.267619 -0.589481,0.740337 -0.921223,1.044966 -0.06868,0.06216 -0.143444,0.111665 -0.217356,0.163663 0.0049,0.04547 0.0036,0.08449 0.01103,0.132652 -0.373652,0.242716 -1.382011,1.114575 -1.153644,0.760719 -0.582709,0.507334 -1.191519,0.964635 -1.77291,1.210633 -0.79505,0.778895 -1.552515,1.551117 -2.458993,2.080286 -0.349582,0.439192 -0.503167,0.541749 -1.998054,1.830884 -0.469339,0.40467 0.929577,-0.830812 1.394146,-1.245936 -0.624126,0.549713 -1.249507,1.099265 -1.873667,1.648951 -0.02544,0.01749 -0.02889,0.01843 -0.0516,0.03471 -0.113158,0.121352 -0.225961,0.243443 -0.341368,0.360893 -0.552212,0.561673 -1.824436,1.642466 -2.144649,1.924036 -0.163779,0.116911 -0.480032,0.505854 -0.57627,0.502383 -0.371169,0.450668 -0.764673,0.888447 -1.120154,1.133693 -0.162258,0.173739 -0.557269,0.769625 -0.486754,0.521352 0.0068,-0.02314 0.03266,-0.05691 0.04557,-0.08328 -0.766423,0.980402 -0.805682,1.08343 -2.170747,2.366161 -0.625002,0.945688 -0.839437,1.150788 -2.024457,2.440998 -0.09452,0.10184 -0.388682,0.38401 -0.301915,0.2712 0.266143,-0.3462 0.563306,-0.6509 0.844426,-0.97639 -0.603369,0.6523 -1.19435,1.32595 -1.81053,1.95637 -0.05721,0.0584 -0.167001,0.15619 -0.266412,0.24352 -0.01511,0.0208 -0.02837,0.0436 -0.04344,0.0643 -0.497095,0.67029 -1.263425,1.60584 -1.916816,2.18871 -0.05882,0.0514 0.206912,-0.25118 0.14991,-0.19633 -0.188877,0.18427 -0.373676,0.37665 -0.559665,0.56621 -0.07183,0.12068 -0.142049,0.24262 -0.221514,0.35546 -0.490782,0.69402 -1.328634,1.87088 -2.119051,2.61075 l -0.707769,1.08611 -2.508482,3.84941 -2.009949,3.0844 -2.065803,3.17009 -1.563114,2.39868 -1.747345,2.6814 c -0.678751,1.04154 -1.357944,2.08371 -2.036626,3.12532 -0.610293,0.93653 -1.220707,1.8725 -1.830711,2.80934 -0.497596,0.76592 -0.997967,1.52909 -1.497498,2.29309 -0.04453,0.18393 -0.09136,0.36654 -0.145933,0.54558 -0.0035,0.0121 -0.0067,0.0258 -0.01037,0.0383 -0.01511,0.0591 -0.0082,0.0375 -0.0239,0.0992 -0.01344,0.0275 -0.02613,0.0556 -0.03955,0.0833 -0.01268,0.0367 -0.02468,0.0737 -0.03826,0.11005 -0.0031,0.73364 -0.04616,1.31521 -0.272342,2.60475 -0.02022,0.11543 -0.06389,0.33585 -0.09509,0.51227 -0.02386,0.26764 -0.0509,0.56244 -0.06288,0.72415 -0.114278,1.54255 -0.08767,0.85888 -0.0446,-0.1393 -0.0037,0.0184 -0.0065,0.033 -0.01005,0.0514 -0.06155,0.81891 -0.02774,0.27364 -0.01396,0.0795 -0.03452,0.17011 -0.0613,0.2747 -0.09219,0.39168 -0.0082,0.23328 -0.01211,0.46829 -0.01681,0.71154 0.01037,-0.0573 0.01857,-0.11502 0.02936,-0.17242 0.03304,-0.17559 -0.0309,0.70143 -0.03734,0.52863 -0.003,-0.0784 0.0057,-0.23659 0.008,-0.35622 -0.131863,0.72836 -0.234873,1.46033 -0.352919,2.19005 0.05161,-0.63324 0.07861,-0.92179 0.121703,-1.4354 -0.08366,0.73278 -0.155905,1.46628 -0.215571,2.19824 0.03906,-0.19309 0.07494,-0.3869 0.117003,-0.5794 0.08208,-0.37624 -0.03651,0.29679 -0.146703,0.9198 -0.004,0.0408 -0.0082,0.0834 -0.01139,0.12471 -4.38e-4,0.0135 0.0021,0.005 9.21e-4,0.0108 0.07625,-0.37163 0.153273,-0.74346 0.226221,-1.11558 0.0698,-0.35564 -0.231027,1.33103 -0.226221,1.11558 -0.03526,0.17168 -0.06962,0.34369 -0.104422,0.51554 0.02409,-0.14503 0.0726,-0.41354 0.1148,-0.65195 0.009,-0.11328 0.02042,-0.22712 0.02972,-0.34042 -0.100317,0.49457 -0.191658,0.99013 -0.275941,1.48672 -0.0024,0.0252 -0.0092,0.0756 -0.01107,0.0974 -6.98e-4,-0.008 -10e-4,-0.0242 -2.16e-4,-0.0299 -6.62e-4,0.009 -0.0032,0.0178 -0.0041,0.0279 0.0016,0.0108 0.0049,0.0227 0.0061,0.0339 0.05038,-0.21651 0.103259,-0.44894 0.146871,-0.5915 0.06408,-0.21028 -0.04922,0.28388 -0.137244,0.64394 0.123708,0.88504 -0.17046,2.68622 -0.335718,3.67145 0.01302,0.21129 0.03209,0.42049 0.03662,0.63403 0.0069,0.32095 -0.01887,-0.0441 -0.05122,-0.54239 -0.02544,0.15142 -0.05962,0.35473 -0.07319,0.44516 -0.0064,0.0269 -0.01837,0.0826 -0.02691,0.1196 -0.01005,0.71443 -0.01548,1.4278 0.0147,2.13297 0.0021,0.0478 0.0058,0.0435 0.0092,0.0437 0.03903,-0.55352 0.06199,-1.10742 0.09525,-1.6606 0.02942,-0.48967 -0.06143,1.66076 -0.09525,1.6606 -0.01516,0.21562 -0.0249,0.43112 -0.05058,0.64724 -0.03362,0.28155 -0.08728,0.56144 -0.14643,0.84123 0.0926,0.24824 0.185963,0.49589 0.277039,0.74533 1.23176,3.37339 0.649146,1.92367 2.05291,5.05421 2.801168,6.24689 2.213389,11.92956 0.101458,15.3129 0.167198,0.25047 0.342887,0.51811 0.642824,0.95914 0.171232,0.43596 0.192901,0.4848 0.325605,0.82048 0.919142,0.79934 1.504778,1.69264 2.100374,3.12961 0.10415,0.14057 0.205173,0.2632 0.315083,0.439 0.664925,1.06361 0.958728,1.70593 1.154603,2.38739 0.231947,0.39229 0.453776,0.79583 0.678095,1.19543 0.102862,0.18319 0.159911,0.40623 0.240223,0.60972 -1.086607,-2.05014 0.279549,0.52492 0.303222,0.58456 0.02348,0.0591 0.02188,0.0671 0.01047,0.0554 0.58384,0.72774 0.87429,1.29125 1.305345,2.14716 0.206895,0.18456 0.401582,0.38498 0.553712,0.64018 0.383318,0.64323 0.715831,1.33771 1.026634,2.05214 0.319053,0.36129 0.621517,0.74695 0.933864,1.11788 0.215813,0.35568 0.440682,0.70251 0.648247,1.06694 0.565555,0.46374 0.872614,0.7329 1.404003,1.45742 l 14.913113,15.23146 c 0.0019,0.001 0.0038,0.003 0.0057,0.004 0.196722,0.14466 0.364613,0.34514 0.53242,0.54551 l 0.599531,0.61234 c 0.47509,0.46387 0.99428,0.92087 1.431527,1.46208 l 0.173924,0.17765 c 0.782845,0.47166 1.449412,0.93145 2.110443,1.63987 0.148984,0.15736 0.82162,0.82526 1.189563,1.26825 0.665131,0.41351 0.668731,0.43908 2.058273,1.64623 0.07986,0.0694 0.142131,0.16704 0.208762,0.25593 0.02266,0.0319 0.06779,0.057 0.06031,0.10427 -0.0049,0.0336 -0.09615,-0.014 -0.07629,0.003 0.120072,0.10319 0.255454,0.17479 0.383794,0.26211 1.141091,0.76252 2.223623,1.56664 3.316033,2.43012 0.407772,0.24008 0.639939,0.3999 1.623466,1.1787 0.03036,0.0241 -0.0068,0.11691 0.02479,0.13818 2.162492,1.45857 -0.921114,-0.90327 2.586311,1.91708 0.184475,0.20577 0.36928,0.4098 0.553253,0.61628 0.13662,0.15343 0.297469,0.27829 0.408157,0.46375 0.02146,0.0358 0.01681,0.0414 -0.0032,0.0309 0.226794,0.13875 0.45315,0.27868 0.679932,0.41745 -0.07396,-0.20766 0.327693,0.17791 0.485331,0.28051 0.67356,0.43834 0.792173,0.53034 0.970804,0.65909 0.190497,0.092 0.359262,0.17097 1.10485,0.58297 0.526568,0.35101 0.606271,0.41355 0.85009,0.62319 0.250114,0.0887 0.4994,0.17926 0.749218,0.26875 -0.232859,-0.0753 -0.680198,-0.22947 -0.698694,-0.22567 0.0017,0.001 0.0122,0.007 0.01395,0.009 0.490287,0.19648 0.989937,0.36668 1.484907,0.54923 -0.175905,-0.0642 -0.700428,-0.26601 -0.527463,-0.19352 3.957017,1.65773 -1.418642,-0.57383 2.108576,0.84532 0.120086,0.054 0.23355,0.12552 0.355608,0.17355 0.424998,0.16727 0.999319,0.0647 1.279675,0.48668 0.664203,0.17495 -0.09129,0.1188 -1.243638,0.0231 0.199569,0.14584 0.400707,0.31776 0.601418,0.48212 0.582534,0.38032 1.639814,0.89473 3.867227,1.59318 0.441699,0.13854 -0.665752,-0.74387 -1.048844,-1.02853 -0.332016,-0.24674 -0.720799,-0.3698 -1.081166,-0.5545 -0.168235,-0.0336 -0.354483,-0.0108 -0.504286,-0.0996 -0.144674,-0.0858 0.325794,0.0596 0.488671,0.09 1.508091,0.29606 1.041846,0.17797 2.483556,1.4158 0.0013,2.1e-4 0.002,0.001 0.004,0.003 0.342114,0.29368 0.822344,0.68345 1.433558,1.1552 0.02115,-0.0196 0.04207,-0.0453 0.06349,-0.063 -0.327866,-0.39893 -0.668227,-0.77347 -1.080462,-1.02469 -0.08362,-0.0121 -0.166718,-0.0277 -0.250272,-0.0405 0.03489,-0.004 0.07034,-0.009 0.103888,-0.0366 0.0018,-10e-4 9.67e-4,-0.003 0.0027,-0.004 -0.135172,-0.0697 -0.274931,-0.1309 -0.42757,-0.17032 0.14007,0.0569 0.553862,0.0597 0.42757,0.17032 0.04894,0.0252 0.09688,0.0522 0.143863,0.081 0.461923,0.0671 0.923832,0.13477 1.376309,0.24232 0.698054,0.16592 1.43473,0.74753 2.099733,1.33912 0.209739,0.11718 0.414742,0.22251 0.622535,0.32689 0.03706,0.0144 0.240899,0.0885 0.252966,0.0943 -0.04833,0.005 0.08566,-0.008 0.004,0.003 0.01037,0.005 -0.01829,0.009 -0.03098,0.009 0.03649,0.0165 0.0734,0.035 0.109716,0.0503 0.109585,0.001 0.193464,0.003 0.307017,0.004 -0.09591,-0.0517 -0.191591,-0.10373 -0.287561,-0.15515 0.106173,0.0482 0.23326,0.0998 0.369857,0.15617 0.581157,0.008 1.078222,0.0175 0.722778,0.0457 -0.184741,0.0147 -0.368804,0.0164 -0.553372,0.0272 0.08954,0.0379 0.15272,0.0695 0.199802,0.0954 0.31716,-0.0121 0.575924,0.0498 0.77853,0.18576 0.446912,0.0519 0.896278,0.092 1.347428,0.11691 -0.111793,-0.0727 -0.223274,-0.14592 -0.335026,-0.21856 -0.145719,-0.0413 -0.314525,-0.0844 -0.401755,-0.11839 -0.108218,-0.0422 0.226477,0.0519 0.339261,0.078 0.02122,0.0135 0.04167,0.0269 0.06238,0.0402 0.430729,0.12216 0.929159,0.24859 0.650029,0.23775 -0.105271,-0.004 -0.209931,-0.0135 -0.315015,-0.0192 0.665907,0.43282 1.331903,0.86613 1.997804,1.29895 0.06857,-0.001 0.361749,0.10157 0.597869,0.19938 -0.220862,-0.19555 -0.451941,-0.37339 -0.687417,-0.54218 -0.0985,-0.0487 -0.194652,-0.10158 -0.291754,-0.15318 -0.09251,-0.0491 0.192982,0.0807 0.279565,0.14281 0.0038,0.003 0.0087,0.008 0.01259,0.0108 0.08156,0.0404 0.16579,0.0745 0.24245,0.12606 0.215976,0.14557 0.534505,0.38149 0.843772,0.6061 1.121106,0.61704 1.945339,1.08676 2.798715,1.99762 0.234334,0.21954 0.455805,0.45339 0.678962,0.68478 0.580645,0.13639 1.132538,0.37422 1.703597,0.83014 0.250703,-0.36555 0.823459,-0.93126 1.801937,-1.58798 1.31079,-1.73483 2.79859,-3.53369 1.81025,-1.83305 0.0626,-0.0472 0.16337,-0.15002 0.25611,-0.24127 0.41349,-0.63445 0.82697,-1.26918 1.24048,-1.9036 0.7233,-1.1111 1.44462,-2.22535 2.17336,-3.33086 0.59692,-0.90751 1.16744,-1.8392 1.78735,-2.72152 0.54598,-0.71503 1.08874,-1.40575 1.43943,-2.31191 0.40479,-0.7646 0.79326,-1.54109 1.2136,-2.29329 0.5793,-1.03688 1.32861,-1.93564 1.92741,-2.95561 0.46314,-0.7022 0.91491,-1.41247 1.36114,-2.13193 0.0116,-0.0307 0.0189,-0.0635 0.0307,-0.0943 0.81971,-2.11356 1.60338,-3.48955 2.75579,-5.16932 l 1.24263,-1.9069 1.15795,-1.77694 1.13629,-1.7437 1.34051,-2.0571 1.06875,-1.64005 1.53811,-2.3603 1.5506,-2.3795 1.34469,-2.06349 1.47474,-2.26308 c 0.42531,-0.65266 0.851,-1.30596 1.27632,-1.9586 0.64887,-0.9958 1.29747,-1.99164 1.94661,-2.98717 0.42936,-0.65889 0.85868,-1.31755 1.28716,-1.97735 0.31643,-0.48345 0.64175,-0.95884 0.94369,-1.45667 0.36067,-0.57474 0.73232,-1.12312 1.11534,-1.66495 0.43042,-1.11452 0.81484,-1.91639 1.70246,-3.15979 0.0925,-0.12067 0.18546,-0.24096 0.27799,-0.36168 0.45049,-1.16064 0.73562,-1.77546 1.6811,-3.15604 0.37081,-0.56476 0.74142,-1.12924 1.09694,-1.70929 0.0312,-0.0468 0.21942,-0.32817 0.38598,-0.57313 0.29261,-0.43626 0.62485,-0.92015 0.66946,-0.92923 0.0705,-0.30806 0.0975,-0.40578 0.1732,-0.73931 0.0848,-0.37267 -0.091,-0.0445 -0.32444,0.46339 0.2575,-0.59883 0.51423,-1.19761 0.77175,-1.79639 0.33655,-0.52495 0.67226,-1.05077 1.02289,-1.56116 0.0279,-0.0385 0.0539,-0.0784 0.0817,-0.11678 0.0868,-0.19665 0.17882,-0.38934 0.29132,-0.5654 1.20867,-1.88521 2.18372,-3.17928 3.62868,-4.14779 0.0426,-0.0443 0.0653,-0.0698 0.10843,-0.11718 -0.21169,-1.52568 -0.43374,-3.0362 -0.79124,-4.33881 -1.89275,9.9654 -2.30163,4.66182 -0.10043,-0.33494 -0.0413,-0.13645 -0.0784,-0.27854 -0.12335,-0.40936 0.18017,-0.34864 0.3692,-0.68979 0.55713,-1.03116 0.003,-0.0135 0.002,-0.0227 0.005,-0.0347 0.12045,-0.69044 -0.52637,0.8205 -0.89709,1.83455 -0.0819,0.2617 -0.16886,0.52195 -0.24786,0.78451 0.009,-0.10373 0.11202,-0.41351 0.24786,-0.78451 0.63917,-2.04331 1.37482,-4.05174 2.40552,-5.88715 0.2634,-0.70939 0.50175,-1.43205 0.79046,-2.12882 0.69376,-1.67434 1.18562,-2.62758 2.07457,-4.13064 0.0201,-0.0351 0.004,0.0821 -0.007,0.12175 -0.1294,0.41719 -0.2687,0.83162 -0.40472,1.2465 0.98581,-2.08709 1.34327,-2.97297 1.5678,-3.53171 -0.0308,0.0494 -0.0643,0.0965 -0.095,0.14584 -0.12816,0.20946 -0.15097,0.5092 -0.30545,0.68736 -0.14288,0.16478 0.17878,-0.42951 0.2685,-0.64415 0.24192,-0.55237 0.47587,-1.11017 0.72633,-1.65738 0.10886,-0.23793 0.20306,-0.4923 0.35062,-0.6966 0.0491,-0.0669 -0.0659,0.33803 -0.0338,0.25734 0.71632,-1.80071 1.15498,-3.73734 1.9332,-5.51087 0.23103,-0.50542 0.47461,-1.00365 0.71286,-1.50496 -0.0166,-0.0274 -0.0352,-0.0535 -0.0521,-0.0808 -0.33588,-0.52663 0.56992,-1.38101 0.85498,-2.07148 0.21459,-0.29058 0.42981,-0.58104 0.64411,-0.87202 0.1757,-0.36347 0.35185,-0.72636 0.52596,-1.09068 0.0119,-0.0527 0.024,-0.10992 0.0341,-0.14413 0.15942,-0.53297 0.36487,-1.05024 0.55299,-1.57233 0.26965,-0.74836 0.54677,-1.49245 0.82014,-2.23916 0.77381,-1.76601 1.45452,-3.7299 2.55592,-5.2669 0.29137,-0.40838 0.59673,-1.04682 0.91816,-1.53391 0.11693,-1.96261 1.0397,-3.93646 1.94807,-5.68104 0.53224,-1.02212 1.33521,-2.00129 2.23718,-2.85232 0.0137,-0.0424 0.02,-0.0651 0.034,-0.10803 0.24572,-0.37497 0.48515,-0.75726 0.72511,-1.13872 -0.68067,-2.48614 -0.85791,-5.26776 -0.30878,-8.09499 0.4984,-2.566069 1.06086,-3.746714 1.95492,-5.356555 -0.0455,-0.502559 0.059,-1.063196 0.28718,-1.666993 -3.68816,-4.084599 -4.1217,-9.091455 -2.53957,-12.661576 -0.5456,-0.557247 -1.09117,-1.114495 -1.63692,-1.671863 -1.06004,-1.082595 -2.12052,-2.165084 -3.18029,-3.248177 -0.73631,-0.751853 -1.47497,-1.501607 -2.20935,-2.256514 -0.73819,-0.759684 -1.47684,-1.517389 -2.23151,-2.251524 -0.40881,-0.429518 -0.85758,-0.852795 -1.21689,-1.353658 -0.0308,-0.04319 0.0757,0.06579 0.11654,0.0935 0.83023,0.558579 1.00272,0.647023 1.35422,0.760948 -0.0191,-0.05906 -0.0327,-0.155671 -0.21748,-0.354246 z m -11.496,85.587049 c 0.0337,0.11167 0.069,0.21998 0.10054,0.33493 0.0571,-0.29969 0.11359,-0.5945 0.17322,-0.92254 -0.0952,0.19501 -0.18678,0.39028 -0.27368,0.58768 z m -56.420936,72.63592 c -0.259217,-0.0301 -0.515805,-0.0712 -0.773655,-0.1083 0.389363,0.21122 0.778097,0.42316 1.167536,0.6342 -0.654025,-0.33609 -0.995952,-0.52529 -1.197598,-0.63721 -0.09599,-0.0139 -0.191312,-0.0315 -0.287233,-0.0461 -0.15854,0.0281 -0.309529,0.0704 -0.454746,0.12149 0.07714,0.0857 0.151181,0.16655 0.239842,0.26631 -0.06397,-0.0531 -0.201725,-0.18085 -0.279041,-0.25079 -0.992397,0.3659 -1.675746,1.26416 -2.168462,2.48995 0.03988,0.0418 0.05973,0.0576 0.103165,0.10534 0.151087,0.0108 0.313352,0.0135 0.449838,0.0312 0.410162,0.0536 0.819763,0.16166 1.174938,0.38607 0.714893,0.4517 1.382666,0.99934 2.047921,1.55043 0.04567,0.0178 0.09086,0.0363 0.136507,0.0542 0.575026,-2.25167 0.686248,-4.02962 -0.158989,-4.59648 z m -3.650154,2.57468 c -0.0053,-2.7e-4 -0.01225,-3.5e-4 -0.01695,5e-5 0.02491,0.0237 0.05229,0.0429 0.07736,0.0669 -0.03114,-0.0335 -0.03096,-0.0334 -0.06,-0.0665 z m -0.01695,5e-5 c -0.03076,-0.028 -0.06287,-0.0538 -0.09444,-0.0808 -0.0095,0.0231 -0.0179,0.0487 -0.02728,0.0724 0.04087,0.003 0.08081,0.007 0.121993,0.009 z m 2.082465,-2.59481 c 0.01477,-0.004 0.02644,-0.0108 0.03916,-0.0153 -0.06257,-0.0692 -0.130539,-0.14547 -0.196544,-0.20768 -0.02838,3.5e-4 -0.05611,0.003 -0.08386,0.004 0.07592,0.0706 0.174466,0.15806 0.241512,0.21905 z m -0.241521,-0.21907 c -0.01392,-0.0135 -0.03101,-0.0265 -0.04552,-0.0395 -0.106217,-0.0186 -0.213862,-0.0305 -0.319866,-0.0498 -0.01088,-0.003 0.03876,-0.007 0.04102,-0.009 -0.06953,-0.0121 -0.143959,-0.0246 -0.224544,-0.0397 -0.549104,0.0544 -1.276749,0.0737 -0.936112,0.10077 0.49109,0.039 0.986798,0.0465 1.484837,0.0378 z m -0.324206,-0.0989 c 0.08223,0.0139 0.196783,0.0369 0.264939,0.0468 -0.02658,-0.0254 -0.0562,-0.0487 -0.08359,-0.0749 -0.01376,-1.6e-4 -0.03685,-0.001 -0.04971,-0.001 -0.08492,0.0121 -0.124301,0.0222 -0.131475,0.0297 z m 0.181286,-0.028 c 0.02454,10e-4 0.06211,2.5e-4 0.0882,6.6e-4 -0.0082,-0.007 -0.01425,-0.0134 -0.02302,-0.0183 -0.02477,0.004 -0.05176,0.005 -0.07524,0.008 0.0035,0.003 0.0074,0.008 0.01016,0.0108 z m 0.0882,6.6e-4 c 0.03571,0.0277 0.06602,0.0588 0.09827,0.0883 0.101972,0.0134 0.176995,0.0194 0.247327,0.0246 0.07481,-0.003 0.149648,-0.008 0.224425,-0.0121 -0.07408,-0.0264 -0.150732,-0.0626 -0.226374,-0.0949 -0.122726,-10e-4 -0.241725,-0.004 -0.343928,-0.007 z m 0.57031,0.10091 c 0.01598,0.005 0.03029,0.009 0.04579,0.0147 0.09815,-0.0135 0.21067,0.0108 0.332375,0.0752 0.01225,3.6e-4 0.0206,-0.001 0.03178,-0.001 -0.06102,-0.033 -0.121794,-0.0665 -0.18282,-0.0994 -0.07566,0.004 -0.151298,0.008 -0.226958,0.0108 z m 0.04579,0.0147 c -0.05463,0.007 -0.11079,0.009 -0.270077,-0.003 -0.04287,10e-4 -0.08626,0.005 -0.129319,0.007 0.190761,0.0323 0.382156,0.0599 0.573541,0.0893 0.009,-0.001 0.01655,-0.004 0.02606,-0.005 0.03255,-0.005 0.05914,-0.004 0.09083,-0.008 -0.09501,-0.0198 -0.192023,-0.0459 -0.290411,-0.0792 z m -0.399475,0.003 c -0.03321,-0.005 -0.06663,-0.009 -0.09979,-0.0145 0.008,0.007 0.01485,0.0121 0.02219,0.0175 0.02582,-8.9e-4 0.05201,-0.003 0.07801,-0.004 z m 0.860757,0.13551 c 0.01089,0.003 0.02089,0.003 0.03003,0.003 -0.0244,-0.0121 -0.0487,-0.025 -0.07273,-0.0379 -0.01559,-0.003 -0.03145,-0.007 -0.04731,-0.009 0.03384,0.019 0.03859,0.0163 0.09003,0.0451 z m -5.586324,-2.37948 c -0.08612,-0.0365 -0.173727,-0.0879 -0.259841,-0.0948 -0.05613,-0.005 -0.226761,0.016 -0.171874,0.0269 0.142731,0.0283 0.287824,0.0451 0.43166,0.0679 z m -57.969985,-84.1536 c -0.0024,-0.018 -0.0065,-0.0347 -0.0094,-0.0525 -0.01319,0.0591 -0.02513,0.0986 -0.03897,0.16051 -0.0048,0.0289 -0.01168,0.0568 -0.01549,0.0864 6.3e-4,0.0163 2.16e-4,0.0299 9.09e-4,0.0457 0.0041,0.003 0.03022,-0.1048 0.06323,-0.24012 z m 0.49245,-3.86506 c 0.04602,-0.40293 0.09975,-0.80528 0.156789,-1.20781 -0.01586,0.003 -0.02939,-0.0214 -0.03623,-0.1052 -0.005,-0.0619 0.0052,-0.12539 0.0059,-0.18786 -0.03651,0.41721 -0.08142,0.96382 -0.126488,1.50084 z m 0.156789,-1.20781 c 0.0228,-0.004 0.05622,-0.12606 0.09122,-0.2584 0.01105,-0.3142 0.01499,-0.52197 -0.01935,-0.30314 -0.02934,0.18699 -0.04536,0.37439 -0.07189,0.56154 z m 0.183421,-0.65005 c 0.0053,-0.0274 0.0083,-0.0513 0.01396,-0.0795 0.006,-0.0804 0.009,-0.11906 0.0152,-0.19756 0.0077,-0.17769 0.01341,-0.32493 0.02134,-0.513 -0.01318,0.20035 -0.04701,0.74125 -0.05051,0.79005 z M 64.844433,86.132229 c -0.0059,-0.05328 -0.01135,-0.105341 -0.01397,-0.154904 -0.177156,0.171143 -0.364186,0.346631 -0.555181,0.526035 0.189896,-0.121486 0.383045,-0.239407 0.569283,-0.371023 z m 50.818037,-42.64533 c 0.23424,-0.207739 0.46819,-0.403787 0.70143,-0.59614 -0.28415,0.01157 -0.55254,0.01664 -0.74639,0.02181 -0.0545,0.0015 -0.10713,-0.0085 -0.16132,-0.0091 0.0662,0.181142 0.14244,0.414228 0.20632,0.583595 z m 55.62238,45.659402 c -0.023,0.06996 -0.0445,0.138209 -0.0672,0.208315 0.0413,0.06202 0.0876,0.09619 0.14286,0.07991 -0.035,-0.139218 -0.0472,-0.178274 -0.0755,-0.288149 z M 148.57987,66.20169 c -0.31192,-0.152537 -0.50481,-0.229424 -0.72277,-0.322693 0.0852,0.05206 0.17315,0.108166 0.26429,0.150595 0.14893,0.06929 0.60638,0.244384 0.45848,0.172098 z m -27.3187,-24.84412 c -0.75572,0.196254 -1.5092,0.460408 -2.24452,0.792894 -0.18604,0.08406 0.82389,0.01305 1.78049,-0.06295 0.20668,-0.14601 0.48374,-0.270819 0.786,-0.381909 -0.10638,-0.117316 -0.21696,-0.228546 -0.32187,-0.348187 z m -0.68075,0.0015 c -0.006,-0.003 -0.0387,0.0055 -0.10159,0.02839 -0.006,0.0017 -0.0129,0.007 -0.0201,0.0091 0.006,0.0066 0.0139,0.01305 0.0194,0.0197 0.0121,-0.0098 0.1066,-0.05505 0.10274,-0.05702 z m 0.18627,0.750622 c -5e-4,3.1e-5 -0.21169,0.02142 -0.25848,0.02579 0.0819,-0.0065 0.16414,-0.01197 0.24576,-0.01532 0.004,-0.0028 0.007,-0.0075 0.0126,-0.01063 z m -0.5604,-0.540584 c -0.0506,0.0063 -0.11741,0.0069 -0.17735,0.01063 -0.541,0.230924 -1.07777,0.494706 -1.61705,0.739137 0.18101,-0.04522 0.37661,-0.103444 0.59424,-0.181467 0.30313,-0.10857 0.83759,-0.373844 1.20009,-0.568376 z m -4.63762,1.11017 c -0.0356,0.01009 -0.12641,0.03234 -0.17496,0.04502 0.006,0.01662 0.0134,0.03896 0.02,0.05667 0.0108,-0.0032 0.0227,-0.0044 0.0328,-0.007 0.0716,-0.03143 0.0551,-0.0263 0.102,-0.04709 0.004,-0.01589 0.007,-0.02941 0.02,-0.04785 z m -3.22215,-0.37395 c -0.0463,-0.01184 -0.0931,-0.02442 -0.13963,-0.036 -0.32278,-0.08079 -0.17697,-0.01891 0.12232,0.07597 0.005,-0.01265 0.0119,-0.02704 0.0175,-0.03961 z m -29.8545,25.966554 c -0.0025,-7.4e-4 -0.007,-0.0013 -0.0094,-0.0027 -0.03468,0.04049 -0.06789,0.08261 -0.102715,0.1231 0.03745,-0.04023 0.07473,-0.08005 0.11267,-0.119333 z m -0.194237,0.206445 c -0.321678,0.288323 -0.647962,0.576781 -0.924955,0.840875 -0.166725,0.159035 0.361725,-0.257703 0.528211,-0.417222 0.137522,-0.13198 0.264702,-0.281691 0.396846,-0.423546 z m 70.434747,73.022923 c 0.1202,-0.13699 -0.26071,0.24598 -0.36915,0.39856 -0.0144,0.0199 -0.0281,0.0409 -0.0424,0.0609 0.14796,-0.16362 0.19771,-0.21613 0.41158,-0.45963 z M 69.816521,80.945943 c -0.27045,0.35235 -0.419194,0.552512 -0.58325,0.770123 0.01159,-0.01345 0.0533,-0.06014 0.06101,-0.06767 0.183435,-0.221836 0.348249,-0.468279 0.522927,-0.701752 z m 71.899499,86.904967 c -0.0141,0.0303 -0.0301,0.0591 -0.0442,0.0891 -0.0264,0.0533 -0.0919,0.22272 -0.0664,0.16871 0.0402,-0.083 0.0741,-0.17164 0.11084,-0.25757 z M 60.631151,88.840609 c -0.365115,0.454381 -0.552387,0.701564 -0.739506,0.94506 0.01571,-0.01534 0.03271,-0.02852 0.04682,-0.04588 0.250528,-0.272058 0.92827,-1.193224 0.69234,-0.899465 z m 79.591529,82.257961 c -0.0508,0.0652 -0.13964,0.15937 -0.17279,0.22196 -0.28078,0.53451 -0.62879,1.03706 -0.81694,1.62238 -0.009,0.0281 -0.0157,0.0587 -0.0249,0.0874 -0.0494,0.22053 -0.10399,0.43967 -0.18441,0.64693 -0.23059,0.89025 -0.38859,1.80066 -0.59987,2.69638 -0.12279,2.30181 -0.16574,3.30228 1.79869,-5.27537 z M 54.823672,94.200204 c -0.116869,0.135774 -0.292207,0.358403 -0.438331,0.543094 0.03281,-0.0265 0.06883,-0.05005 0.09626,-0.08059 0.124027,-0.140227 0.464576,-0.604953 0.342103,-0.462426 z m 81.451568,83.524876 c -0.43002,0.72373 -0.7772,1.47143 -0.93563,2.39179 0.43228,-1.07143 0.70584,-1.79085 0.93563,-2.39179 z m -2.18062,4.05215 c -0.0808,0.16288 -0.16063,0.32735 -0.24289,0.48914 -0.0948,0.31313 -0.1903,0.62569 -0.2844,0.93898 0.19864,-0.53214 0.37918,-1.02274 0.52739,-1.42801 z M 46.338677,103.43028 c -0.136432,0.13905 -0.273326,0.27706 -0.408946,0.41756 -0.134431,0.13916 0.263345,-0.22792 0.403307,-0.39776 -0.0082,0.003 -0.0056,-0.004 0.0055,-0.0198 z m -20.600789,30.16567 c -0.02811,0.043 -0.05605,0.0861 -0.0842,0.12916 5.27e-4,0.0519 0.001,0.12242 0.0015,0.16974 0.02541,-0.0955 0.05503,-0.19618 0.08278,-0.29902 z m -0.310952,0.47717 c -0.178851,0.27331 -0.356925,0.54744 -0.536125,0.82038 -0.611099,0.93768 -1.212978,1.88515 -1.828638,2.81785 0.422173,0.0779 0.871277,-0.19761 1.358335,-0.95864 0.240811,-0.51247 0.486358,-1.02255 0.732957,-1.5313 0.116657,-0.37551 0.199228,-0.76076 0.273642,-1.14811 z m -0.273642,1.14812 c -0.01397,0.0448 -0.02364,0.0908 -0.03863,0.13525 -0.04547,0.13453 -0.135723,0.33682 -0.225013,0.53513 0.145189,-0.3041 0.294117,-0.66367 0.446041,-1.05302 -0.0616,0.12687 -0.120879,0.25561 -0.182407,0.38262 z m -0.263634,0.67039 c -0.160282,0.33576 -0.316738,0.6222 -0.469307,0.86092 -0.08777,0.18687 -0.180463,0.37081 -0.266583,0.55873 -0.244992,0.53468 0.36257,-0.59055 0.735886,-1.41965 z m 0.456534,-0.85691 c -0.124855,1.98359 -0.08246,1.28105 -0.124593,1.9268 0.01873,-0.0642 0.03599,-0.12821 0.05389,-0.19214 0.01407,-0.57667 0.04883,-1.15666 0.0707,-1.73466 z m -0.113691,0.48049 c -0.03222,0.0888 -0.114119,0.84189 -0.254361,2.41858 0.05545,-0.31299 0.143233,-0.62738 0.235459,-0.9421 0.03423,-0.84386 0.05998,-1.58914 0.0189,-1.47648 z m -0.971625,5.62787 c -0.003,0.009 -0.0069,0.0603 -0.0098,0.16041 -0.01565,0.51 -0.0089,1.01682 -0.0026,1.52296 0.01574,-0.0543 0.03119,-0.10884 0.04668,-0.16327 -0.01054,-0.77461 -0.02105,-1.56664 -0.03419,-1.52007 z m -0.384867,4.44161 c 0.01381,0.47911 0.04968,0.95335 0.08477,1.4268 0.009,-0.0527 0.01698,-0.10641 0.02536,-0.15949 -0.04991,-0.43872 -0.117295,-1.60248 -0.110115,-1.26731 z m 0.01441,0.73065 c -6.22e-4,0.40468 -0.0079,0.81091 -0.01431,1.21696 0.02266,-0.13765 0.04428,-0.27544 0.06697,-0.41314 -0.0189,-0.29692 -0.03939,-0.62563 -0.05263,-0.80378 z m 75.729617,90.01136 c 0.02377,-0.0172 -0.322472,-0.0709 -0.679671,-0.12525 -0.05079,0.0179 -0.102422,0.0398 -0.153151,0.0588 0.01822,0.019 0.03655,0.0367 0.05509,0.0562 0.276623,0.004 0.367388,0.0139 0.698228,0.0164 0.04901,3.9e-4 0.07435,-0.003 0.07959,-0.005 z m -1.892731,-0.25621 c -0.0031,3.8e-4 -0.0042,-0.001 -0.0073,-9.3e-4 -0.0063,0.001 -0.01079,0.003 -0.01665,0.004 -0.0031,0.003 -0.0063,0.005 -0.011,0.008 0.0094,-0.003 0.02555,-0.009 0.03351,-0.0121 z m -0.03351,0.0121 c -0.03278,0.0121 -0.08818,0.0288 -0.124373,0.0412 0.0094,0.0108 0.01822,0.0238 0.02786,0.0354 0.03288,-0.0245 0.06409,-0.0518 0.09624,-0.0764 z m -0.124373,0.0412 c -6.8e-4,-0.001 -0.0031,-0.003 -0.0052,-0.005 -0.031,0.009 -0.07237,0.0242 -0.105742,0.0347 0.0021,0.001 0.0042,0.003 0.0084,0.007 0.03257,-0.0108 0.07289,-0.025 0.103051,-0.0354 z m -0.10305,0.0354 c -0.106611,0.0365 -0.205483,0.0712 -0.338181,0.11704 0.06064,0.003 0.1981,0.004 0.265041,0.007 0.04325,-0.0173 0.07435,-0.0338 0.114706,-0.0511 0.0063,-0.005 0.01288,-0.0108 0.01927,-0.0167 -0.02021,-0.019 -0.04105,-0.0367 -0.06126,-0.0556 z m -0.338181,0.11704 c -0.0084,1.1e-4 -0.02985,-8e-4 -0.03843,-9.4e-4 -0.01742,0.005 -0.02849,0.009 -0.04514,0.0157 0.01085,0.003 0.02085,0.003 0.03095,0.004 0.0216,-0.007 0.03245,-0.0108 0.05288,-0.0184 z m -0.05286,0.0184 c -0.428886,0.14825 -0.328806,0.10695 -1.059007,0.36304 -0.326054,0.11436 0.382494,-0.14545 1.028057,-0.36696 -0.04481,-0.008 -0.08995,-0.0136 -0.134984,-0.0207 0.03783,10e-4 0.139455,0.003 0.180145,0.005 0.138322,-0.0471 0.253217,-0.0834 0.36986,-0.12081 -0.03833,-0.0358 -0.07739,-0.0704 -0.11502,-0.10709 -0.791655,-0.0198 -1.785056,0.0815 -1.092585,0.17108 -0.04352,-2e-5 -0.0865,-0.005 -0.130331,-0.003 -0.679232,0.0246 -2.27748,0.68981 -2.814826,1.01583 0.05723,0.0266 0.116866,0.0459 0.172152,0.0778 0.02792,0.0147 0.05737,0.0265 0.08562,0.0406 0.523602,-0.0923 1.008977,-0.17989 1.432146,-0.26106 0.619653,-0.20999 1.526675,-0.47417 2.253023,-0.75011 -0.05844,-0.0135 -0.115512,-0.0324 -0.173934,-0.0435 z m 0.48975,-0.17525 c 0.04001,-0.0121 0.105312,-0.0358 0.138992,-0.0456 0.0031,-0.003 0.0042,-0.004 0.0063,-0.005 -0.06252,-0.007 -0.129714,-0.009 -0.200006,-0.0121 0.01717,0.0227 0.03634,0.0424 0.05425,0.064 z m -0.06503,0.11893 c -0.03404,0.0136 -0.06608,0.0297 -0.09855,0.0441 0.01163,0.001 0.03037,0.001 0.04126,0.001 0.01875,-0.016 0.03917,-0.0295 0.0577,-0.0453 z m -0.157183,0.12498 c -0.02534,-0.007 -0.05037,-0.0144 -0.07572,-0.0199 -0.211902,0.10171 -0.426302,0.22543 -0.683321,0.41648 0.173682,-0.0401 0.28956,-0.0722 0.43011,-0.1083 0.109307,-0.0977 0.218683,-0.19511 0.32899,-0.28831 z m -3.746652,-3.7372 c 0.376044,0.27677 0.449277,0.3342 -0.395658,-0.29976 -0.01355,-0.005 -0.0297,-0.009 -0.04392,-0.0152 0.15614,0.11395 0.323054,0.22907 0.439666,0.31484 z m -0.830732,-0.45638 c -0.207126,-0.0716 -0.409532,-0.15602 -0.604946,-0.25777 0.300587,0.19536 0.601151,0.39108 0.901714,0.58642 -0.09875,-0.10951 -0.196329,-0.22152 -0.296783,-0.32863 z m 2.116616,2.52616 c -0.05545,-0.0171 -0.109624,-0.0389 -0.165623,-0.0541 -0.28842,-0.0788 -1.209564,-0.0404 -0.909159,-0.0165 0.395639,0.0312 0.728449,0.0499 1.074771,0.0706 z m -8.114558,-4.67828 c -0.01895,-0.0141 -0.04293,-0.0265 -0.06239,-0.0402 -0.0037,10e-4 2.15e-4,8.6e-4 -0.0044,0.003 -0.0136,0.001 -0.03813,0.004 -0.05234,0.007 0.01392,0.0135 0.02909,0.0262 0.04392,0.0397 0.06251,-0.007 0.03552,-0.004 0.07524,-0.008 z m -0.0973,-0.0651 c -0.0364,-0.025 -0.07138,-0.0495 -0.11188,-0.0739 -0.007,-0.001 -0.03249,-0.009 -0.03951,-0.0108 0.03283,0.03 0.06027,0.0529 0.0915,0.083 0.01951,4.9e-4 0.04485,3.2e-4 0.06009,10e-4 z m 1.567427,4.81191 c -0.02373,-0.0139 -0.04516,-0.0322 -0.06936,-0.0453 -0.09431,-0.0545 -0.405284,-0.14592 -0.305474,-0.10534 0.124433,0.0507 0.249585,0.10157 0.374917,0.15065 z M 26.349803,173.92318 c -0.03687,-0.0342 -0.04238,0.021 -0.163179,-0.0155 0.003,0.017 0.0118,0.0566 0.01315,0.0624 0.117333,0.0806 0.240728,0.16131 0.349184,0.24152 -0.02315,-0.0323 -0.188106,-0.27841 -0.199117,-0.28862 z m -0.17178,-0.0178 c -0.05859,-0.0191 -0.136213,-0.0533 -0.26569,-0.13506 0.101437,0.0661 0.187893,0.1301 0.283125,0.19541 -0.0034,-0.0121 -0.01136,-0.0383 -0.01744,-0.0605 z m 1.413873,1.98953 c 0.05591,0.1394 0.181044,0.45864 0.22309,0.56236 0.0074,0.005 0.01556,0.0108 0.0237,0.0172 -0.09168,-0.2289 -0.149763,-0.35921 -0.246554,-0.57996 z m -0.280045,0.19978 c -0.0088,-0.0121 -0.05201,-0.0282 -0.03982,-0.0194 0.01895,0.0141 0.03453,0.0231 0.05313,0.0369 -0.0045,-0.005 -0.0088,-0.0121 -0.01318,-0.0187 z m 47.325357,48.42936 c -0.02553,-0.0191 -0.06835,-0.0595 -0.0898,-0.0744 -0.140638,-0.0989 -0.292494,-0.17285 -0.443603,-0.2485 0.05027,0.0426 0.261881,0.21556 0.322209,0.26729 0.07066,0.0207 0.139937,0.0326 0.211049,0.0557 z m -1.070534,-0.58201 c -0.0771,-0.0343 -0.154625,-0.0675 -0.230864,-0.10359 -0.03949,-0.019 -0.169002,-0.0398 -0.128317,-0.0245 0.119108,0.0445 0.239491,0.0849 0.359055,0.12808 z M 31.384572,182.15499 c 0.103124,0.21176 0.206117,0.42376 0.309325,0.63552 2.92e-4,6.7e-4 0.0015,10e-4 0.0017,10e-4 0.07439,0.0881 0.11948,0.15466 0.184416,0.23522 -0.08986,-0.13744 -0.371355,-0.66547 -0.495483,-0.87253 z m 38.47597,39.35912 c -0.07362,-0.0443 -0.283335,-0.2314 -0.391554,-0.26136 -0.03149,-0.008 0.05025,0.0461 0.07601,0.069 0.105099,0.0644 0.210562,0.12807 0.315623,0.19248 z M 32.364076,184.16555 c 0.08969,0.18396 0.179493,0.36793 0.26918,0.55193 0.0039,0.003 0.0071,0.007 0.01082,0.009 0.0084,-1.1e-4 -0.08139,-0.22394 -0.121987,-0.33554 -0.05253,-0.0751 -0.105195,-0.14979 -0.15765,-0.2249 z m 32.27802,32.98841 c -0.158132,-0.11571 -0.616928,-0.45545 -0.459478,-0.27327 0.248537,0.14325 0.319181,0.19127 0.459478,0.27327 z M 33.467723,186.71827 c -0.0267,-0.0429 -0.151473,-0.10736 -0.114625,-0.0787 0.04061,0.0311 0.08146,0.0614 0.122635,0.0911 -0.0027,-0.004 -0.0053,-0.009 -0.0081,-0.0135 z m 25.008127,25.58885 c -0.433176,-0.41396 -0.285898,-0.22532 -0.207981,-0.11866 0.101532,0.0632 0.141202,0.0876 0.222888,0.13822 -0.0034,-0.004 -0.0098,-0.0153 -0.01486,-0.0205 z m -51.0674568,-52.10429 -0.094211,0.14459 c -0.00492,0.0283 -0.00356,0.0431 -0.00817,0.0705 l 0.063789,0.0651 c 0.012902,-0.0936 0.024893,-0.18815 0.038529,-0.28025 z"
       inkscape:connector-curvature="0" />
    <path
       style="fill:none;stroke:none;stroke-width:0.33062956px;stroke-linecap:butt;stroke-linejoin:miter;stroke-opacity:1"
       d="m 46.586371,103.24322 c 9.52658,-14.306714 4.420023,3.97293 6.897311,5.22958 0.300903,0.15262 0.62443,0.20026 0.936654,0.30036 0.312215,0.1001 0.619663,0.24797 0.936644,0.30039 0.200454,0.0332 0.39623,-0.0799 0.596711,-0.0468 0.31698,0.0525 0.624431,0.20025 0.936647,0.30037 0.312221,0.1001 0.635756,0.14774 0.936651,0.30037 0.134537,0.0683 0.199291,0.35826 0.339941,0.3472 0.140656,-0.0108 0.116113,-0.38299 0.256769,-0.39403 0.281293,-0.0221 0.398594,0.71647 0.679885,0.69441 0.140657,-0.0108 0.116113,-0.38299 0.256763,-0.39402 0.140656,-0.0108 0.226628,0.23146 0.339941,0.3472 1.133139,1.15734 2.266278,2.31467 3.399416,3.47198 4.0793,4.16639 8.158601,8.33277 12.237899,12.49914 2.25489,2.30302 -0.359707,-0.67675 0.763064,1.43562 0.07504,0.14123 2.378869,2.42989 2.379593,2.43039 0.286022,0.19611 0.650654,0.10426 0.936644,0.30037 0.767397,0.52636 1.301298,1.49194 2.03965,2.0832 0.961754,0.77021 2.138064,1.52053 3.233073,1.98952 0.306325,0.13118 0.635749,0.14775 0.936643,0.30038 0.403696,0.20478 0.616134,0.83683 1.01983,1.04161 0.190335,0.0965 0.399238,-0.11019 0.596706,-0.0468 0.139595,0.0448 0.199292,0.35825 0.339944,0.34719 0.140666,-0.0108 0.116105,-0.38298 0.256764,-0.39401 0.140664,-0.0108 0.199282,0.35824 0.339935,0.3472 0.140665,-0.0108 0.116112,-0.383 0.256769,-0.39403 0.140665,-0.0108 0.200349,0.30238 0.339944,0.34721 0.197477,0.0632 0.399247,-0.11019 0.596708,-0.0468 0.185661,0.0596 0.897822,1.05119 1.019827,1.04159 0.140663,-0.0108 0.11611,-0.383 0.256768,-0.39403 0.122033,-0.009 0.834155,0.98202 1.019832,1.0416 0.197471,0.0634 0.406399,-0.14336 0.596702,-0.0468 0.33268,0.16877 1.781934,2.00055 2.039653,2.0832 0.197475,0.0634 0.399248,-0.11019 0.596701,-0.0468 0.06963,0.0223 1.303936,1.28367 1.359763,1.38878 0.224566,0.42249 1.135808,2.78266 1.269355,3.26527 0.06619,0.23917 -0.0063,0.51176 0.08315,0.74122 0.19945,0.51308 0.464773,0.9953 0.763053,1.43562 0.188664,0.27846 0.453254,0.46292 0.67988,0.69439 0.113324,0.1157 0.276895,0.18489 0.339951,0.3472 0.08923,0.22948 -0.0063,0.51176 0.08315,0.74122 0.06305,0.16231 0.320335,0.17248 0.33994,0.34719 0.01958,0.17469 -0.27635,0.21934 -0.256777,0.39402 0.03927,0.34943 0.640692,0.34499 0.679892,0.69441 0.0196,0.17469 -0.276352,0.21935 -0.256758,0.39401 0.01697,0.1516 0.935928,0.82587 1.019838,1.04161 0.0892,0.22946 -0.006,0.51176 0.0832,0.74121 0.0644,0.1656 0.86675,0.88524 1.01984,1.0416 0.67988,0.69439 1.35976,1.3888 2.03965,2.08319 2.49289,2.54612 4.98581,5.09225 7.4787,7.63837 2.26628,2.31464 4.53257,4.6293 6.79885,6.94396 0.67988,0.6944 1.35975,1.38879 2.03963,2.08318 0.11333,0.1157 0.22664,0.23148 0.33996,0.34721 0.11331,0.1157 0.27684,0.185 0.33994,0.3472 0.0892,0.22948 -0.006,0.51176 0.0832,0.74121 0.16923,0.43537 0.85058,0.60624 1.01982,1.0416 0.0892,0.22948 -0.006,0.51176 0.0832,0.74123 0.0644,0.1656 0.86672,0.88522 1.01982,1.04159 0.67988,0.69439 1.35976,1.3888 2.03965,2.08319 1.35976,1.3888 2.71953,2.77758 4.0793,4.16638 0.56657,0.57867 1.13313,1.15733 1.6997,1.73598 0.11331,0.11571 0.22662,0.23147 0.33994,0.3472 0.11332,0.1157 0.27683,0.185 0.33995,0.34721 0.88045,2.26488 -0.34569,-0.39839 -0.17359,1.13525 0.0196,0.1747 0.32033,0.17248 0.33993,0.34719 0.0196,0.17469 -0.23084,0.22483 -0.25677,0.39401 -0.0366,0.23937 0.11979,0.50191 0.0832,0.74124 -0.0344,0.22502 -0.78734,1.0305 -0.7703,1.18207 0.0196,0.1747 0.32036,0.17249 0.33995,0.3472 0.0196,0.17469 -0.17118,0.26268 -0.25676,0.39401 -0.59913,0.91939 -1.19824,1.83878 -1.79738,2.75817 -0.42794,0.65671 -0.85588,1.31341 -1.28382,1.97012 -0.0856,0.13131 -0.27634,0.21933 -0.25677,0.39401 0.0196,0.1747 0.32033,0.17248 0.33994,0.34719 0.0393,0.34941 -0.55274,0.43864 -0.51355,0.78805 0.0196,0.1747 0.32035,0.17249 0.33995,0.34721 0.0416,0.37061 -0.81188,0.81146 -0.7703,1.18206 0.0196,0.1747 0.32034,0.17248 0.33994,0.3472 0.0196,0.17469 -0.23083,0.22483 -0.25677,0.39403 -0.0366,0.23935 0.11978,0.50189 0.0831,0.74122 -0.0518,0.33847 -0.55274,0.43863 -0.51353,0.78804 0.0196,0.1747 0.32034,0.17248 0.33995,0.3472 0.0178,0.15848 -0.94804,1.295 -1.02708,1.5761 -0.10148,0.36042 -0.0723,0.77478 -0.17359,1.13524 -0.0453,0.16116 -0.21137,0.23285 -0.25676,0.39401 -0.10148,0.36044 -0.0722,0.77481 -0.17358,1.13524 -0.0453,0.16118 -0.1712,0.2627 -0.25678,0.39403 -0.17118,0.2627 -0.42283,0.46562 -0.51353,0.78805 -0.0642,0.22801 0.11976,0.50188 0.0832,0.74123 -0.0554,0.36273 -0.91162,1.16577 -1.02707,1.57609 -0.10148,0.36043 -0.0723,0.77478 -0.17359,1.13524 -0.0907,0.32243 -0.42284,0.46561 -0.51354,0.78804 -0.10148,0.36044 -0.0721,0.77479 -0.17359,1.13524 -0.0907,0.32243 -0.34236,0.52538 -0.51353,0.78806 -0.42794,0.65671 -0.85589,1.3134 -1.28383,1.9701 -1.28384,1.97013 -2.56766,3.94024 -3.85151,5.91036 -0.0623,0.0957 -0.75112,1.18052 -0.7703,1.18207 -0.14064,0.0108 -0.21271,-0.41292 -0.33993,-0.34721 -0.25446,0.13144 -0.34236,0.52536 -0.51353,0.78804 -0.28449,0.14696 -0.5537,0.34004 -0.85348,0.44086 -0.18957,0.0638 -0.39923,0.11019 -0.59671,0.0468 -0.13959,-0.0448 -0.21271,-0.41292 -0.33995,-0.3472 -0.25445,0.13145 -0.25907,0.65661 -0.51353,0.78805 -0.12718,0.0658 -0.20027,-0.30248 -0.33993,-0.3472 -0.19749,-0.0634 -0.39925,0.11019 -0.59672,0.0468 -0.13959,-0.0448 -0.19929,-0.35824 -0.33994,-0.3472 -0.14064,0.0108 -0.12951,0.32834 -0.25676,0.39402 -0.17996,0.093 -0.41679,-0.0461 -0.59672,0.0468 -0.12725,0.0656 -0.12957,0.32824 -0.25675,0.39401 -1.776,0.91735 0.29797,-0.39724 -0.93665,-0.30038 -0.28129,0.0221 -0.23225,0.76597 -0.51353,0.78805 -0.14063,0.0108 -0.1993,-0.35824 -0.33994,-0.3472 -0.14064,0.0108 -0.12959,0.32825 -0.25678,0.39403 -0.17995,0.093 -0.41677,-0.0462 -0.59672,0.0468 -0.12717,0.0658 -0.12949,0.32833 -0.25677,0.39401 -0.35983,0.18589 -0.83355,-0.0922 -1.1934,0.0936 -0.25446,0.13144 -0.25907,0.6566 -0.51353,0.78804 -0.17996,0.093 -0.41678,-0.0461 -0.59672,0.0468 -0.25446,0.13144 -0.25906,0.65663 -0.51353,0.78804 -0.17995,0.093 -0.41678,-0.0461 -0.5967,0.0468 -0.12727,0.0657 -0.11615,0.38297 -0.25678,0.39403 -0.14062,0.0108 -0.19928,-0.35825 -0.33993,-0.34721 -0.14064,0.0108 -0.11614,0.38297 -0.25676,0.39403 -0.14064,0.0108 -0.1993,-0.35824 -0.33994,-0.3472 -0.2813,0.0221 -0.23225,0.76598 -0.51354,0.78806 -0.14063,0.0108 -0.1993,-0.35826 -0.33995,-0.34721 -0.28129,0.0221 -0.23224,0.76597 -0.51353,0.78804 -0.14064,0.0108 -0.19929,-0.35825 -0.33994,-0.34719 -0.14064,0.0108 -0.11614,0.38297 -0.25676,0.39401 -1.23462,0.0969 0.83939,-1.21766 -0.93666,-0.30038 -0.25445,0.13144 -0.23224,0.76598 -0.51354,0.78805 -0.140621,0.0108 -0.199278,-0.35825 -0.339924,-0.34719 -0.140637,0.0108 -0.129588,0.32826 -0.256778,0.39403 -0.512077,0.26451 -1.278042,-0.12404 -1.79012,0.14047 -0.127179,0.0658 -0.116141,0.38296 -0.256767,0.39403 -0.140636,0.0108 -0.199293,-0.35826 -0.33995,-0.3472 -0.140629,0.0108 -0.129582,0.32826 -0.256764,0.39402 -0.179947,0.093 -0.397797,0.0312 -0.596711,0.0468 -0.198904,0.0156 -0.399247,0.11018 -0.5967,0.0468 -0.13967,-0.0448 -0.200354,-0.30238 -0.339938,-0.34721 -0.197485,-0.0634 -0.399248,0.11019 -0.59671,0.0468 -0.139596,-0.0448 -0.199291,-0.35824 -0.339948,-0.34719 -0.140631,0.0108 -0.116145,0.38297 -0.256762,0.39401 -1.234619,0.0969 0.839393,-1.21766 -0.936653,-0.30036 -0.127264,0.0656 -0.116145,0.38297 -0.256769,0.39402 -0.140632,0.0108 -0.199287,-0.35824 -0.339943,-0.34721 -0.140631,0.0108 -0.117135,0.43881 -0.256762,0.39402 -0.279259,-0.0896 -0.400624,-0.60483 -0.679885,-0.69439 -0.139659,-0.0447 -0.116144,0.38297 -0.256769,0.39403 -0.140631,0.0108 -0.199285,-0.35825 -0.339941,-0.3472 -1.234604,0.0969 1.095604,1.06586 -0.853466,0.44085 -0.139668,-0.0447 -0.200351,-0.30239 -0.339951,-0.34721 -0.197471,-0.0634 -0.399238,0.11018 -0.596711,0.0468 -0.139591,-0.0448 -0.200274,-0.30247 -0.339934,-0.34718 -0.19748,-0.0634 -0.399246,0.11019 -0.596713,0.0468 -0.139591,-0.0448 -0.199277,-0.35823 -0.339933,-0.3472 -0.140631,0.0108 -0.116144,0.38297 -0.25677,0.39403 -2.328802,0.18274 -0.123132,-0.27768 -1.276594,-0.64756 -0.394932,-0.1266 -0.812811,0.28671 -1.193424,0.0936 -0.269132,-0.1365 -0.41851,-0.53353 -0.679877,-0.6944 -0.292205,-0.17986 -0.635748,-0.14774 -0.936647,-0.30037 -0.134604,-0.0682 -0.205406,-0.2789 -0.339941,-0.34721 -3.082292,-1.56352 0.609979,0.43381 -1.533365,-0.25354 -0.1396,-0.0448 -0.200275,-0.30247 -0.339934,-0.34719 -0.19748,-0.0634 -0.399247,0.11018 -0.596713,0.0468 -0.37466,-0.12014 -0.645158,-0.92144 -1.019827,-1.04159 -1.949055,-0.62503 0.381146,0.34396 -0.853471,0.44086 -0.140632,0.0108 -0.200352,-0.30239 -0.339943,-0.3472 -0.19748,-0.0634 -0.399238,0.11019 -0.596704,0.0468 -0.139667,-0.0447 -0.199286,-0.35824 -0.339943,-0.3472 -0.14063,0.0108 -0.116144,0.38297 -0.256768,0.39403 -0.140632,0.0108 -0.199294,-0.35825 -0.339942,-0.34721 -0.140632,0.0108 -0.129506,0.32835 -0.256764,0.39403 -0.179956,0.093 -0.397803,0.0312 -0.59671,0.0468 -0.198907,0.0156 -0.399238,0.11018 -0.596712,0.0468 -1.307707,-0.41938 1.631469,-1.07998 -1.533356,-0.25356 -2.274327,0.59389 0.595103,0.53488 -1.790128,0.14048 -0.200446,-0.0332 -0.406401,0.14336 -0.596696,0.0468 -0.269141,-0.1365 -0.410744,-0.5579 -0.679885,-0.6944 -0.190276,-0.0966 -0.396238,0.0799 -0.596711,0.0468 -0.31699,-0.0525 -0.619662,-0.24796 -0.936654,-0.30037 -0.200453,-0.0332 -0.399246,0.11018 -0.596704,0.0468 -0.139668,-0.0447 -0.200351,-0.30238 -0.339942,-0.34719 -0.197479,-0.0634 -0.399238,0.11018 -0.596712,0.0468 -0.279252,-0.0896 -0.400623,-0.60485 -0.679875,-0.6944 -0.19748,-0.0634 -0.399247,0.11019 -0.596713,0.0468 -0.374667,-0.12014 -0.645166,-0.92143 -1.019827,-1.04159 -0.139591,-0.0448 -0.116144,0.38297 -0.256769,0.39403 -0.140631,0.0108 -0.226622,-0.23147 -0.339941,-0.34721 -0.333947,-0.34107 -1.758225,-1.94038 -2.039645,-2.08318 -0.300906,-0.15263 -0.635763,-0.14775 -0.936653,-0.30036 -0.134537,-0.0683 -0.205416,-0.27891 -0.339943,-0.34721 -0.300906,-0.15262 -0.644428,-0.12055 -0.936647,-0.30038 -0.392077,-0.24122 -0.679883,-0.69439 -1.019827,-1.04159 -0.679874,-0.69439 -1.359768,-1.3888 -2.039643,-2.08319 -0.339951,-0.34721 -0.616137,-0.83681 -1.019826,-1.04159 -0.190337,-0.0965 -0.406417,0.14336 -0.596712,0.0468 -0.26914,-0.1365 -0.453255,-0.46293 -0.679884,-0.6944 -0.226631,-0.23146 -0.453262,-0.46293 -0.679885,-0.69439 -0.906506,-0.92586 -1.813022,-1.85172 -2.719537,-2.7776 -0.23644,-0.24149 -1.530368,-1.68161 -1.699703,-1.73598 -0.197479,-0.0634 -0.406409,0.14335 -0.596719,0.0468 -0.242081,-0.12283 -1.379528,-1.40898 -1.699702,-1.73598 -1.359765,-1.3888 -2.719536,-2.7776 -4.079299,-4.16639 -1.133143,-1.15733 -2.26628,-2.31466 -3.399421,-3.47199 -0.273665,-0.2795 -1.200133,-1.08841 -1.359765,-1.38878 -0.17985,-0.3384 -0.22372,-0.76614 -0.423115,-1.08842 -0.478774,-0.77385 -1.560883,-1.30935 -2.039648,-2.0832 -0.12612,-0.20382 0.006,-0.51176 -0.08317,-0.74122 -0.0631,-0.16221 -0.226627,-0.23147 -0.33994,-0.3472 -0.226628,-0.23147 -0.501527,-0.40615 -0.679883,-0.6944 -0.199415,-0.32226 -0.223727,-0.76612 -0.423122,-1.08841 -0.178355,-0.28824 -0.519027,-0.39173 -0.679883,-0.69439 -0.113711,-0.21408 0.006,-0.51176 -0.08317,-0.74123 -0.08342,-0.21454 -1.363944,-1.39306 -1.699707,-1.73599 -0.113314,-0.11571 -0.320347,-0.17249 -0.339943,-0.3472 -0.01961,-0.17472 0.27637,-0.21931 0.256769,-0.39403 -0.03921,-0.3494 -0.640679,-0.34498 -0.679883,-0.69439 -0.172095,-1.53362 1.054026,1.12965 0.17359,-1.13526 -0.126151,-0.3245 -0.640675,-0.34497 -0.679882,-0.69439 -0.01961,-0.17472 0.27637,-0.2193 0.256761,-0.39401 -0.03921,-0.34942 -0.553733,-0.3699 -0.679886,-0.6944 -0.08918,-0.22947 0.006,-0.51176 -0.08317,-0.74122 -0.126148,-0.3245 -0.553732,-0.36989 -0.679882,-0.69441 -0.223012,-0.57364 0.05667,-0.90877 -0.166352,-1.48243 -0.08391,-0.21574 -1.002839,-0.89004 -1.019825,-1.04159 -0.01961,-0.17472 0.276368,-0.21934 0.256769,-0.39403 -0.01699,-0.15157 -0.935921,-0.82586 -1.019825,-1.0416 -0.968223,-2.49062 1.33609,1.63662 -0.506296,-1.82964 -0.08046,-0.15128 -0.320341,-0.17247 -0.339941,-0.34719 -0.0196,-0.17472 0.276378,-0.21932 0.256769,-0.39403 -0.0196,-0.17472 -0.276902,-0.18489 -0.339941,-0.3472 -0.253873,-0.65305 0.0043,-1.57061 -0.249523,-2.22366 -0.06311,-0.16221 -0.320346,-0.17249 -0.339941,-0.34721 -0.01959,-0.17471 0.276371,-0.21929 0.256762,-0.39401 -0.03921,-0.34942 -0.640674,-0.34498 -0.679885,-0.69439 -0.0196,-0.17473 0.27637,-0.21932 0.25677,-0.39403 -0.0196,-0.17472 -0.276905,-0.1849 -0.339943,-0.3472 -0.1784,-0.45891 0.01204,-1.02352 -0.16635,-1.48244 -0.0631,-0.16221 -0.276838,-0.185 -0.339942,-0.34719 -0.0892,-0.22948 0.006,-0.51178 -0.08317,-0.74123 -0.06311,-0.16221 -0.276906,-0.18489 -0.339946,-0.34721 -0.880456,-2.26487 0.345682,0.39838 0.17359,-1.13524 -0.0196,-0.17472 -0.276902,-0.18489 -0.33994,-0.34719 -0.0892,-0.22948 -0.05545,-0.49414 -0.08317,-0.74123 -0.02772,-0.24707 -0.119776,-0.50188 -0.08317,-0.74121 0.02588,-0.16923 0.276376,-0.21932 0.256769,-0.39403 -0.0196,-0.17472 -0.320346,-0.17249 -0.339941,-0.34719 -0.01959,-0.17472 0.230887,-0.22479 0.256761,-0.39402 0.10416,-0.68117 -0.353677,-1.54252 -0.249526,-2.22367 0.02588,-0.16923 0.230894,-0.2248 0.256769,-0.39403 0.0366,-0.23933 -0.119769,-0.50189 -0.08317,-0.74121 0.05175,-0.33847 0.552749,-0.43864 0.513538,-0.78806 -0.01959,-0.17471 -0.320343,-0.17247 -0.339941,-0.3472 -0.04384,-0.39065 0.217427,-0.74458 0.173591,-1.13523 -0.0196,-0.17473 -0.320346,-0.17248 -0.339942,-0.3472 -0.0196,-0.17472 0.230887,-0.22478 0.25677,-0.39403 -0.275866,-2.45832 -0.08183,0.53516 0.173589,-1.13524 0.0366,-0.23932 -0.119778,-0.50188 -0.08317,-0.74121 0.05177,-0.33848 0.461778,-0.44959 0.51353,-0.78804 0.0366,-0.23933 -0.11977,-0.5019 -0.08317,-0.74123 0.03442,-0.22506 0.787306,-1.03054 0.7703,-1.18207 -0.172087,-1.53363 -0.784338,1.27388 -0.423113,-1.08843 0.05175,-0.33846 0.552741,-0.43863 0.51353,-0.78805 -0.0196,-0.17472 -0.320341,-0.17247 -0.339941,-0.34719 -0.03921,-0.34942 0.461779,-0.44958 0.513533,-0.78805 0.0366,-0.23932 -0.119771,-0.50188 -0.08317,-0.74122 0.02588,-0.16923 0.276371,-0.2193 0.256763,-0.39402 -0.03921,-0.34941 -0.73164,-0.35592 -0.679886,-0.69439 0.05175,-0.33846 0.461785,-0.44959 0.513539,-0.78806 0.02589,-0.16922 -0.320343,-0.17247 -0.339942,-0.34719 -0.0196,-0.17472 0.276371,-0.21931 0.256763,-0.39402 -0.01961,-0.17472 -0.320344,-0.17249 -0.339942,-0.34719 -0.172088,-1.53362 1.054028,1.12965 0.173598,-1.13526 -0.0631,-0.16221 -0.320344,-0.17249 -0.339942,-0.34719 -0.01961,-0.17472 0.230886,-0.22479 0.256762,-0.39402 0.0366,-0.23932 -0.05545,-0.49416 -0.08317,-0.74122 -0.02772,-0.24708 -0.01698,-0.50201 -0.08317,-0.74123 -0.104663,-0.37823 -0.379275,-0.69775 -0.423115,-1.08842 -0.0196,-0.17472 0.276377,-0.21932 0.256762,-0.39401 -0.01961,-0.17473 -0.320343,-0.17248 -0.339941,-0.3472 -0.01998,-0.17841 1.047079,-1.39775 1.027069,-1.5761 -0.0196,-0.17472 -0.320343,-0.17247 -0.33994,-0.3472 -0.01961,-0.17472 0.230893,-0.22479 0.256769,-0.39402 0.03659,-0.23934 -0.119777,-0.50189 -0.08317,-0.74122 0.05683,-0.37169 1.156533,-1.51775 1.283831,-1.97011 0.101448,-0.36045 0.07216,-0.77481 0.173598,-1.13525 0.152432,-0.54167 0.874628,-1.03442 1.027063,-1.57609 0.101437,-0.36046 0.04938,-0.78756 0.173589,-1.13524 0.151384,-0.42372 1.489253,-2.02834 1.540602,-2.36414 0.0366,-0.23933 -0.119773,-0.5019 -0.08317,-0.74123 0.02284,-0.14926 0.892796,-1.37004 1.027063,-1.57608 0.684713,-1.05074 1.36942,-2.10145 2.054132,-3.15219 0.684713,-1.05072 0.02772,0.24708 -0.08317,-0.74122 -0.0027,-0.0238 0.708028,-1.08652 0.770293,-1.18206 1.626189,-2.49548 3.252378,-4.99096 4.878567,-7.48645 0.121067,-0.18578 1.256799,-1.96797 1.283831,-1.9701 0.140656,-0.0108 0.199291,0.35824 0.339941,0.3472 0.140657,-0.0108 0.171183,-0.2627 0.25677,-0.39403 0.427944,-0.65671 0.855887,-1.31342 1.283832,-1.97012 0.08558,-0.13131 0.116128,-0.38298 0.256769,-0.39403 0.140657,-0.0108 0.199291,0.35824 0.339944,0.3472 0.01915,-10e-4 0.708027,-1.08652 0.7703,-1.18208 0.513531,-0.78805 1.027063,-1.5761 1.540594,-2.36414 0.110812,-0.17005 0.747831,-1.02088 0.770301,-1.18208 0.09266,-0.66472 0.05491,-1.35901 0.08235,-2.03852 z"
       id="path20"
       inkscape:connector-curvature="0" />
    <path
       id="path24"
       style="fill:#59a159;fill-opacity:1;stroke-width:0.58522147"
       d="m 87.545827,123.07485 c -0.64019,-0.0147 -1.403869,0.0919 -2.499547,0.28366 -2.93049,0.51291 -5.560088,1.58811 -7.804068,3.19112 -0.444538,0.31758 -2.144314,1.11032 -3.777364,1.76172 -2.672428,1.06588 -4.743652,1.18481 -20.722738,1.18885 l -17.753941,0.004 -3.415841,2.27619 -3.416397,2.2755 -0.600871,4.21102 c -4.141033,29.01758 0.287605,51.22406 13.105263,65.7141 10.016126,11.32299 22.142083,16.70443 40.941239,18.1706 v 7.1e-4 c 16.64039,1.29783 31.864118,-2.22011 43.485218,-9.63383 0.35724,-0.38157 0.7138,-0.76336 1.06846,-1.14644 -0.42236,-0.39072 -0.84207,-0.78894 -1.28227,-1.13045 0.16205,-0.54757 0.24901,-1.13912 0.48592,-1.64214 0.59721,-1.268 3.11673,-4.85887 3.60633,-5.55213 0.63344,-0.89699 1.27722,-1.78241 1.92366,-2.66483 -0.0965,-0.66798 -0.26498,-1.32748 -0.27655,-2.00574 -0.043,-2.52471 0.35068,-3.85099 0.9535,-6.28282 1.13093,-4.56215 2.4783,-9.03035 3.7296,-13.54105 0.43866,-1.42593 1.1204,-4.43457 2.1397,-5.47426 0.2974,-0.30336 0.59735,-0.51555 0.89964,-0.65909 0.14549,-0.44258 0.2708,-0.83871 0.36985,-1.16034 -0.20005,-0.15372 -0.39955,-0.30798 -0.60199,-0.45607 0.12342,-2.10726 0.80382,-4.04184 1.26782,-6.03948 0.36163,-1.55693 0.0383,-1.42433 0.8069,-3.03817 0.23749,-0.49874 0.58537,-0.90103 0.87798,-1.35155 0.49771,-0.6194 1.01634,-1.21121 1.52827,-1.81176 -0.002,-0.0357 0.002,-0.0638 0.0294,-0.0626 0.007,3.4e-4 0.0149,0.001 0.0222,0.001 0.10725,-0.12606 0.216,-0.24993 0.32209,-0.37753 0.11844,-0.14244 0.21563,-0.31665 0.35097,-0.43312 0.0277,-0.0238 0.0575,-0.0432 0.0856,-0.0661 5.7e-4,-0.22643 -0.002,-0.45279 0.001,-0.67924 0.002,-0.0895 0.003,-0.17891 0.005,-0.26836 0.0417,-2.01962 0.72184,-3.20504 1.51384,-3.57767 0.44179,-1.05959 1.04865,-1.89932 2.04139,-1.94944 0.47634,-0.0241 1.04295,0.13719 1.71876,0.53604 -0.46521,-3.08874 -1.34517,-8.32825 -2.16969,-12.85208 l -1.74929,-9.5963 -5.74601,-0.29964 c -3.16041,-0.16463 -13.67268,-0.4382 -23.36056,-0.60763 -15.42567,-0.2698 -17.794544,-0.4437 -19.064532,-1.4016 -0.797592,-0.60159 -1.915262,-1.08791 -2.483445,-1.08387 -0.568208,0.005 -2.107605,-0.6799 -3.420841,-1.52256 -1.343341,-0.86198 -2.066749,-1.22271 -3.133733,-1.24725 z M 149.12042,155.342 c -0.003,0.0435 -0.007,0.11261 -0.0108,0.15156 0.0506,0.0393 -0.012,0.22672 -0.0217,0.34484 -0.001,0.0195 -0.002,0.0389 -0.004,0.0584 3e-5,0.0651 -2e-5,0.13023 0,0.19536 1.3e-4,0.24411 5.8e-4,0.48796 5.8e-4,0.73207 4e-5,0.16268 -3e-5,0.32538 0,0.48806 0.0518,0.0344 0.11107,0.0817 0.16436,0.11893 -0.0318,-0.72551 -0.0752,-1.421 -0.12882,-2.08918 z"
       inkscape:connector-curvature="0" />
    <path
       id="use12613-6"
       style="display:inline;fill:#52854e;fill-opacity:1;stroke:#469a2d;stroke-width:1.54830253px;stroke-linecap:butt;stroke-linejoin:miter;stroke-opacity:1"
       d="m 47.258207,146.77951 c -0.207767,1.00172 -0.415501,2.00342 -0.623115,3.0051 -0.213713,0.001 -0.490703,-0.17199 -0.641013,0.007 -0.149695,0.17842 0.154418,0.57163 0.0045,0.74974 -0.149695,0.17841 -0.491264,-0.17202 -0.640995,0.007 -0.775324,0.92061 -0.290287,1.67793 -1.268612,2.26145 -1.086607,0.64808 -0.618818,-1.64361 -1.273016,1.51175 -0.101029,0.4859 0.006,0.99965 0.009,1.49947 0.0015,0.24991 -0.187209,0.63981 0.0045,0.74977 0.151501,0.0866 2.142919,-0.0205 2.56404,-0.0244 1.709376,-0.0168 3.418717,-0.0327 5.1281,-0.049 0.213707,-0.001 0.427445,-0.003 0.640995,-0.007 0.213749,-0.001 0.491276,0.17204 0.641012,-0.007 0.149717,-0.17845 -0.003,-0.49984 -0.0045,-0.74974 -0.0015,-0.24991 0.09262,-0.52714 -0.0045,-0.74974 -0.13718,-0.31484 -0.508487,-0.42881 -0.645496,-0.74363 -0.17609,-0.40508 0.158644,-2.79552 -0.01793,-2.99899 -0.15198,-0.17525 -0.489147,0.18138 -0.640996,0.007 -0.152046,-0.17523 -0.003,-0.49981 -0.0045,-0.74974 -0.0015,-0.24989 -0.003,-0.49984 -0.0045,-0.74974 -0.01193,-1.99931 0.215203,0.24788 -0.645497,-0.74363 -0.152037,-0.17522 -0.003,-0.49983 -0.0045,-0.74973 -0.01064,-1.78016 0.20312,-0.69111 -2.572999,-1.47505 z"
       inkscape:connector-curvature="0" />
    <path
       id="use12613-6-5"
       style="display:inline;fill:#52854e;fill-opacity:1;stroke:#469a2d;stroke-width:1.54830253px;stroke-linecap:butt;stroke-linejoin:miter;stroke-opacity:1"
       d="m 60.890552,182.34152 c -0.708095,0.61412 -1.416239,1.22814 -2.124263,1.84232 -0.165024,-0.15874 -0.28213,-0.49999 -0.494991,-0.47573 -0.212568,0.0245 -0.194727,0.55499 -0.407274,0.57954 -0.212568,0.0245 -0.28255,-0.50038 -0.494974,-0.47572 -1.09902,0.12647 -1.141921,1.07188 -2.211934,0.78704 -1.188458,-0.31638 0.425839,-1.72684 -1.804582,0.2076 -0.343657,0.2977 -0.543119,0.77262 -0.814623,1.15904 -0.135756,0.19316 -0.494144,0.35124 -0.407357,0.5794 0.06875,0.18015 1.654758,1.59039 1.979952,1.90294 1.319976,1.26862 2.639923,2.53725 3.959902,3.80587 0.165019,0.15858 0.330069,0.31722 0.494975,0.47572 0.165062,0.15874 0.282549,0.50041 0.49499,0.47575 0.212602,-0.0243 0.271519,-0.38639 0.407281,-0.57957 0.135755,-0.19319 0.359806,-0.33571 0.407358,-0.57945 0.06729,-0.34473 -0.155081,-0.71063 -0.08767,-1.05523 0.08686,-0.44327 1.653203,-2.02935 1.629259,-2.31805 -0.02057,-0.24858 -0.474537,-0.22724 -0.494976,-0.47572 -0.02061,-0.24862 0.271508,-0.38636 0.407273,-0.57956 0.135756,-0.1932 0.271522,-0.38638 0.40736,-0.57942 1.086167,-1.54539 0.02925,0.35176 -0.08767,-1.05527 -0.0206,-0.2486 0.271519,-0.38638 0.407357,-0.57942 0.967106,-1.37598 0.534416,-0.37887 -1.165315,-3.06197 z"
       inkscape:connector-curvature="0" />
    <path
       id="use12613-6-52"
       style="display:inline;fill:#52854e;fill-opacity:1;stroke:#469a2d;stroke-width:1.54830253px;stroke-linecap:butt;stroke-linejoin:miter;stroke-opacity:1"
       d="m 87.113495,136.91631 c 0.819357,0.37768 1.638693,0.75529 2.458064,1.13279 -0.02794,0.24787 -0.213871,0.54494 -0.08383,0.74342 0.130029,0.19799 0.505517,-0.10077 0.635509,0.0974 0.130015,0.19797 -0.213964,0.5456 -0.08383,0.7434 0.671778,1.02408 1.380506,0.56573 1.738591,1.77886 0.397721,1.34742 -1.477854,0.49213 1.103125,1.6815 0.397388,0.18346 0.847311,0.12969 1.270981,0.19466 0.211843,0.0324 0.515746,0.30433 0.635503,0.0973 0.09424,-0.16379 0.280671,-2.48531 0.335832,-2.9737 0.223889,-1.98248 0.447757,-3.9649 0.671645,-5.94741 0.02794,-0.24784 0.05599,-0.49571 0.08382,-0.74339 0.02794,-0.24791 0.213992,-0.54561 0.08382,-0.74342 -0.13002,-0.19803 -0.423684,-0.065 -0.635527,-0.0973 -0.21181,-0.0324 -0.433496,-0.17937 -0.635494,-0.0973 -0.285677,0.11584 -0.433846,0.5304 -0.719495,0.64604 -0.367499,0.14868 -2.345163,-0.56607 -2.542014,-0.38933 -0.169512,0.15219 0.08554,0.59147 -0.08382,0.74341 -0.169523,0.15218 -0.423675,-0.065 -0.635508,-0.0974 -0.211842,-0.0324 -0.423676,-0.065 -0.635505,-0.0973 -1.694693,-0.25956 0.239847,-0.21535 -0.719492,0.64606 -0.169516,0.15218 -0.423676,-0.065 -0.635507,-0.0973 -1.508922,-0.23112 -0.556988,-0.3298 -1.606847,2.77901 z"
       inkscape:connector-curvature="0" />
    <path
       id="use12613-6-4"
       style="display:inline;fill:#52854e;fill-opacity:1;stroke:#469a2d;stroke-width:1.54830253px;stroke-linecap:butt;stroke-linejoin:miter;stroke-opacity:1"
       d="m 130.70024,171.68596 c -0.20775,1.00171 -0.41549,2.0034 -0.62311,3.00512 -0.2137,0.001 -0.49071,-0.17203 -0.64102,0.007 -0.14969,0.17841 0.15444,0.57161 0.004,0.74975 -0.14969,0.17841 -0.49124,-0.172 -0.64099,0.007 -0.7753,0.92064 -0.29028,1.67797 -1.26858,2.26146 -1.08662,0.6481 -0.61882,-1.64361 -1.27304,1.51176 -0.10106,0.48589 0.006,0.99965 0.009,1.49948 0.001,0.24998 -0.18719,0.6398 0.004,0.74974 0.15151,0.0866 2.14292,-0.0204 2.56406,-0.0243 1.70939,-0.0168 3.41871,-0.0326 5.1281,-0.049 0.2137,-10e-4 0.42745,-0.003 0.64098,-0.007 0.21376,-0.001 0.49129,0.17202 0.64104,-0.007 0.14969,-0.1784 -0.002,-0.49982 -0.004,-0.74971 -0.001,-0.24998 0.0925,-0.52715 -0.004,-0.74976 -0.13713,-0.31489 -0.50851,-0.4288 -0.64551,-0.74361 -0.17613,-0.40504 0.15864,-2.79551 -0.0178,-2.99898 -0.15196,-0.17529 -0.48914,0.18137 -0.64099,0.007 -0.15208,-0.17522 -0.002,-0.49981 -0.004,-0.74975 -0.001,-0.24995 -0.002,-0.49984 -0.004,-0.74974 -0.0119,-1.99929 0.21522,0.24787 -0.6455,-0.74362 -0.15209,-0.17519 -0.002,-0.49982 -0.004,-0.74972 -0.0108,-1.78017 0.20313,-0.69111 -2.573,-1.47505 z"
       inkscape:connector-curvature="0" />
    <path
       id="use12613-6-2"
       style="display:inline;fill:#52854e;fill-opacity:1;stroke:#469a2d;stroke-width:1.54830253px;stroke-linecap:butt;stroke-linejoin:miter;stroke-opacity:1"
       d="m 98.366104,194.14692 c -0.207766,1.00171 -0.41551,2.00341 -0.623129,3.00511 -0.213693,0.001 -0.490683,-0.17199 -0.640995,0.007 -0.149704,0.17843 0.154418,0.57162 0.0042,0.74976 -0.149699,0.17841 -0.49127,-0.17202 -0.640999,0.007 -0.775325,0.92062 -0.290279,1.67794 -1.268613,2.26145 -1.086599,0.64808 -0.618815,-1.64361 -1.273005,1.51175 -0.101019,0.48589 0.0065,0.99967 0.0086,1.49949 10e-4,0.24992 -0.187208,0.6398 0.0043,0.74974 0.151491,0.0866 2.142908,-0.0205 2.564035,-0.0244 1.709375,-0.0168 3.41872,-0.0327 5.128112,-0.049 0.2137,-0.001 0.42744,-0.003 0.641,-0.007 0.21374,-0.001 0.49128,0.17201 0.64099,-0.007 0.14972,-0.17844 -0.003,-0.49981 -0.004,-0.74972 -10e-4,-0.24991 0.0927,-0.52713 -0.004,-0.74974 -0.13719,-0.31482 -0.50849,-0.42882 -0.6455,-0.74364 -0.17611,-0.40509 0.15865,-2.79551 -0.0179,-2.99898 -0.15199,-0.17525 -0.48916,0.18138 -0.641,0.007 -0.15205,-0.17526 -0.003,-0.49982 -0.004,-0.74976 -0.001,-0.24991 -0.003,-0.49982 -0.004,-0.74972 -0.0119,-1.99933 0.21519,0.24785 -0.64551,-0.74364 -0.15203,-0.17524 -0.003,-0.49982 -0.004,-0.74974 -0.0108,-1.78017 0.20312,-0.69111 -2.57301,-1.47505 z"
       inkscape:connector-curvature="0" />
    <path
       id="use12613-6-1"
       style="display:inline;fill:#52854e;fill-opacity:1;stroke:#469a2d;stroke-width:1.17820776px;stroke-linecap:butt;stroke-linejoin:miter;stroke-opacity:1"
       d="m 85.091466,161.10382 c 0.217605,0.70544 0.435204,1.41085 0.65288,2.11623 -0.139603,0.11584 -0.383064,0.16126 -0.418847,0.34749 -0.03561,0.18597 0.303404,0.25617 0.267928,0.44218 -0.03544,0.18604 -0.383431,0.16159 -0.418832,0.34748 -0.183828,0.96184 0.402407,1.15073 -0.03391,2.02154 -0.484606,0.9672 -0.987369,-0.64268 -0.301806,1.57937 0.105442,0.34229 0.357242,0.58956 0.535883,0.88435 0.08926,0.14731 0.103197,0.47981 0.267921,0.44217 0.130135,-0.0297 1.400225,-1.16164 1.675405,-1.38992 1.116939,-0.92667 2.233842,-1.85328 3.350779,-2.77988 0.139603,-0.11584 0.279339,-0.23171 0.418848,-0.3475 0.139594,-0.11583 0.383461,-0.16159 0.418848,-0.34747 0.03546,-0.18605 -0.178679,-0.29476 -0.267949,-0.44221 -0.0893,-0.1473 -0.125452,-0.36229 -0.267932,-0.44219 -0.201412,-0.11315 -0.485529,0.0182 -0.686768,-0.0948 -0.258814,-0.14562 -0.883836,-1.74286 -1.071754,-1.76877 -0.161781,-0.0225 -0.257218,0.36989 -0.418849,0.34749 -0.161686,-0.0225 -0.178645,-0.29472 -0.26793,-0.44219 -0.08926,-0.1473 -0.178672,-0.29475 -0.267923,-0.4422 -0.714503,-1.17916 0.228936,0.0313 -0.686786,-0.0948 -0.16177,-0.0225 -0.178662,-0.29474 -0.26793,-0.44218 -0.636177,-1.04994 -0.110863,-0.5188 -2.211284,0.50554 z"
       inkscape:connector-curvature="0" />
    <path
       id="use12613-6-8"
       style="display:inline;fill:#52854e;fill-opacity:1;stroke:#469a2d;stroke-width:1.54830253px;stroke-linecap:butt;stroke-linejoin:miter;stroke-opacity:1"
       d="m 130.13926,143.41769 c -0.82371,0.36684 -1.64737,0.73369 -2.47095,1.10065 -0.12234,-0.20484 -0.15564,-0.57086 -0.36612,-0.61497 -0.21021,-0.0437 -0.31595,0.47268 -0.52617,0.42894 -0.21022,-0.0437 -0.15594,-0.57137 -0.3661,-0.61495 -1.08683,-0.22665 -1.34717,0.67016 -2.31082,0.0568 -1.0703,-0.68131 0.80989,-1.5278 -1.78459,-0.37211 -0.39968,0.17768 -0.7016,0.57187 -1.05239,0.8578 -0.17545,0.14304 -0.55688,0.18172 -0.52619,0.42895 0.0244,0.1952 1.22379,2.05589 1.46429,2.45991 0.97631,1.63991 1.95247,3.27986 2.9287,4.91982 0.12233,0.20485 0.24413,0.41006 0.36609,0.61491 0.12234,0.20489 0.15596,0.5714 0.36612,0.61497 0.21021,0.0437 0.35085,-0.28587 0.52618,-0.42893 0.17542,-0.14304 0.42403,-0.20914 0.52618,-0.42894 0.14457,-0.3107 0.0154,-0.73341 0.16014,-1.04385 0.18625,-0.39936 2.06099,-1.43007 2.10483,-1.71564 0.0378,-0.24586 -0.40395,-0.36925 -0.36609,-0.61495 0.0377,-0.24589 0.35083,-0.28586 0.52619,-0.42894 0.17542,-0.14303 0.35085,-0.28586 0.52616,-0.42893 1.40326,-1.14373 -0.0533,0.34799 0.16016,-1.04387 0.0377,-0.24591 0.35083,-0.28588 0.52617,-0.42894 1.24942,-1.01837 0.60203,-0.19542 -0.4119,-3.31772 z"
       inkscape:connector-curvature="0" />
    <path
       id="use12613-6-7"
       style="display:inline;fill:#52854e;fill-opacity:1;stroke:#469a2d;stroke-width:1.54830253px;stroke-linecap:butt;stroke-linejoin:miter;stroke-opacity:1"
       d="m 67.685797,131.14653 c -0.207756,1.0017 -0.415492,2.0034 -0.623114,3.00511 -0.213705,0.001 -0.490703,-0.17203 -0.641012,0.007 -0.149695,0.17841 0.154417,0.57162 0.0045,0.74975 -0.149694,0.17842 -0.491263,-0.17201 -0.640996,0.007 -0.775321,0.92063 -0.290277,1.67795 -1.268611,2.26145 -1.086597,0.64809 -0.618808,-1.64361 -1.273015,1.51176 -0.10106,0.48587 0.0059,0.99964 0.009,1.49946 0.0015,0.24993 -0.187201,0.63982 0.0045,0.74976 0.1515,0.0866 2.142926,-0.0205 2.56404,-0.0243 1.709385,-0.0168 3.418725,-0.0327 5.128101,-0.049 0.213714,-0.001 0.427444,-0.003 0.640996,-0.007 0.213755,-0.001 0.491275,0.17202 0.641012,-0.007 0.149714,-0.17843 -0.003,-0.49984 -0.0045,-0.74975 -0.0015,-0.2499 0.09263,-0.52713 -0.0045,-0.74972 -0.137184,-0.31485 -0.508498,-0.42881 -0.645498,-0.74364 -0.176098,-0.40509 0.158644,-2.79551 -0.01793,-2.99899 -0.151989,-0.17525 -0.489153,0.18138 -0.640994,0.007 -0.152057,-0.17523 -0.003,-0.49981 -0.0045,-0.74972 -0.0015,-0.24992 -0.003,-0.49986 -0.0045,-0.74976 -0.01193,-1.99932 0.215203,0.24786 -0.645487,-0.7436 -0.152038,-0.17526 -0.003,-0.49987 -0.0045,-0.74976 -0.01064,-1.78019 0.203119,-0.69111 -2.573008,-1.47505 z"
       inkscape:connector-curvature="0" />
    <path
       id="use12613-6-9"
       style="display:inline;fill:#52854e;fill-opacity:1;stroke:#469a2d;stroke-width:1.5327903px;stroke-linecap:butt;stroke-linejoin:miter;stroke-opacity:1"
       d="m 71.876416,205.94763 c -0.439083,0.76114 -0.878118,1.52228 -1.31704,2.2835 -0.230046,-0.078 -0.490166,-0.32719 -0.690027,-0.23422 -0.199461,0.0934 0.04274,0.53628 -0.156746,0.62944 -0.199374,0.0934 -0.490773,-0.3274 -0.690019,-0.23424 -1.03139,0.48137 -0.673449,1.29658 -1.850318,1.41988 -1.307121,0.13677 -0.31069,-1.60726 -1.693511,0.79045 -0.213266,0.36911 -0.208998,0.83924 -0.313487,1.25887 -0.05228,0.20974 -0.339043,0.46574 -0.156748,0.62942 0.144101,0.12916 2.306803,0.783 2.76012,0.93685 1.840099,0.62461 3.680149,1.24916 5.520254,1.87375 0.230047,0.078 0.460133,0.15622 0.69001,0.2342 0.230101,0.078 0.49075,0.32757 0.690033,0.23421 0.1994,-0.0934 0.104496,-0.4196 0.156741,-0.62941 0.05228,-0.20975 0.213109,-0.40678 0.156739,-0.62944 -0.07952,-0.31481 -0.453919,-0.54888 -0.533278,-0.86365 -0.10193,-0.40491 0.772831,-2.28143 0.626967,-2.51773 -0.125509,-0.20346 -0.564648,-0.0307 -0.690007,-0.2342 -0.125654,-0.2034 0.104496,-0.41962 0.156738,-0.62942 0.05228,-0.20977 0.104495,-0.41961 0.156748,-0.62946 0.417981,-1.67846 0.177796,0.28792 -0.533289,-0.86362 -0.125641,-0.20341 0.104496,-0.41963 0.156739,-0.62943 0.372166,-1.49453 0.367168,-0.5028 -2.446624,-2.19574 z"
       inkscape:connector-curvature="0" />
    <path
       id="use12613-6-3"
       style="display:inline;fill:#52854e;fill-opacity:1;stroke:#469a2d;stroke-width:1.54830253px;stroke-linecap:butt;stroke-linejoin:miter;stroke-opacity:1"
       d="m 35.356326,167.58711 c 0.566552,0.78839 1.133108,1.57676 1.699735,2.36503 -0.125416,0.20257 -0.409715,0.36053 -0.376243,0.60752 0.03373,0.24661 0.485316,0.19273 0.518996,0.43937 0.03373,0.2466 -0.410029,0.36109 -0.376233,0.60752 0.173863,1.27519 0.983283,1.26624 0.804488,2.5332 -0.198584,1.40719 -1.499208,-0.38938 0.285537,2.09381 0.274658,0.38266 0.691992,0.58581 1.037995,0.87871 0.172998,0.14639 0.329503,0.55492 0.518994,0.43936 0.149575,-0.0916 1.257794,-2.03104 1.504966,-2.4302 1.003327,-1.62014 2.006624,-3.24024 3.009943,-4.86038 0.125417,-0.2026 0.250852,-0.4052 0.37624,-0.60755 0.125442,-0.20263 0.410038,-0.36108 0.376244,-0.60753 -0.03369,-0.24664 -0.346005,-0.29291 -0.518998,-0.43936 -0.172999,-0.14639 -0.308057,-0.39914 -0.518995,-0.43936 -0.298237,-0.0572 -0.597105,0.22538 -0.895239,0.16813 -0.383485,-0.0737 -1.83107,-1.80343 -2.075995,-1.75745 -0.21087,0.0395 -0.165413,0.56816 -0.376239,0.60754 -0.210891,0.0395 -0.345986,-0.2929 -0.518989,-0.43936 -0.172997,-0.14639 -0.346004,-0.29291 -0.518997,-0.43934 -1.383994,-1.17163 0.29843,-0.0561 -0.895237,0.16812 -0.210886,0.0394 -0.346005,-0.29293 -0.518999,-0.43937 -1.232294,-1.0432 -0.355396,-0.60026 -2.542975,1.55144 z"
       inkscape:connector-curvature="0" />
    <path
       id="use12613-6-6"
       style="display:inline;fill:#52854e;fill-opacity:1;stroke:#469a2d;stroke-width:1.54830253px;stroke-linecap:butt;stroke-linejoin:miter;stroke-opacity:1"
       d="m 121.62999,193.29212 c -0.20774,1.00171 -0.41549,2.00342 -0.6231,3.00512 -0.21372,0.001 -0.4907,-0.17202 -0.64101,0.007 -0.1497,0.17841 0.15442,0.5716 0.004,0.74974 -0.14971,0.17841 -0.49127,-0.17203 -0.641,0.007 -0.77534,0.92064 -0.29029,1.67795 -1.26863,2.26145 -1.0866,0.64808 -0.6188,-1.6436 -1.273,1.51175 -0.10106,0.48589 0.006,0.99967 0.009,1.49949 10e-4,0.24992 -0.18722,0.6398 0.004,0.74976 0.15151,0.0866 2.14291,-0.0205 2.56403,-0.0243 1.70937,-0.0168 3.41872,-0.0326 5.12809,-0.049 0.21372,-0.001 0.42745,-0.003 0.64102,-0.007 0.21374,-0.001 0.49125,0.17203 0.64101,-0.007 0.14971,-0.17843 -0.002,-0.49985 -0.004,-0.74975 -0.001,-0.24992 0.0927,-0.52714 -0.004,-0.74974 -0.13717,-0.31483 -0.50848,-0.42881 -0.64549,-0.74362 -0.1761,-0.40509 0.15866,-2.79551 -0.0178,-2.99899 -0.152,-0.17525 -0.48915,0.18139 -0.64101,0.007 -0.15204,-0.17523 -0.002,-0.49981 -0.004,-0.74972 -10e-4,-0.24992 -0.002,-0.49984 -0.004,-0.74976 -0.0119,-1.99932 0.21521,0.24787 -0.64548,-0.74364 -0.15201,-0.17524 -0.002,-0.49983 -0.004,-0.74973 -0.0108,-1.78016 0.20312,-0.69111 -2.57301,-1.47505 z"
       inkscape:connector-curvature="0" />
    <path
       id="use12613-6-49"
       style="display:inline;fill:#52854e;fill-opacity:1;stroke:#469a2d;stroke-width:1.18172753px;stroke-linecap:butt;stroke-linejoin:miter;stroke-opacity:1"
       d="m 114.08322,167.43529 c -0.55035,0.48903 -1.10061,0.97816 -1.65088,1.4673 -0.12194,-0.11772 -0.20381,-0.377 -0.36589,-0.35315 -0.1619,0.024 -0.15933,0.43104 -0.32122,0.45515 -0.16189,0.024 -0.20415,-0.37733 -0.36591,-0.35317 -0.83694,0.12431 -0.8891,0.85141 -1.69552,0.65903 -0.89568,-0.21366 0.35909,-1.33675 -1.37427,0.20394 -0.26717,0.237 -0.42832,0.60679 -0.64249,0.91023 -0.10693,0.15173 -0.38231,0.28209 -0.32121,0.45514 0.0485,0.13664 1.22327,1.18065 1.46365,1.41266 0.97578,0.94179 1.95151,1.88351 2.92729,2.82527 0.12196,0.11772 0.24399,0.2355 0.3659,0.35315 0.12195,0.11772 0.20415,0.37733 0.3659,0.35315 0.16189,-0.0239 0.21413,-0.30347 0.32121,-0.45513 0.10694,-0.15173 0.28015,-0.26665 0.32124,-0.45515 0.0581,-0.26641 -0.10295,-0.54195 -0.0445,-0.80828 0.0751,-0.34254 1.29712,-1.59933 1.28492,-1.82049 -0.0119,-0.19039 -0.35551,-0.16293 -0.36588,-0.35316 -0.0119,-0.19038 0.2141,-0.30346 0.32121,-0.45512 0.10692,-0.15173 0.21412,-0.30347 0.32122,-0.45515 0.85661,-1.21367 0.0149,0.26946 -0.0445,-0.80829 -0.0119,-0.19039 0.21412,-0.30346 0.32123,-0.45513 0.76271,-1.08064 0.41357,-0.30414 -0.82117,-2.3229 z"
       inkscape:connector-curvature="0" />
    <path
       id="use12613-6-78"
       style="display:inline;fill:#52854e;fill-opacity:1;stroke:#469a2d;stroke-width:1.54830253px;stroke-linecap:butt;stroke-linejoin:miter;stroke-opacity:1"
       d="m 69.421447,155.70867 c -0.71345,0.60558 -1.426785,1.2113 -2.140081,1.81706 -0.163643,-0.16059 -0.277768,-0.50331 -0.490835,-0.48158 -0.212746,0.0219 -0.199522,0.55267 -0.412325,0.57464 -0.212727,0.0221 -0.2782,-0.50371 -0.490831,-0.48157 -1.100041,0.11328 -1.151148,1.05826 -2.218605,0.76081 -1.185634,-0.33043 0.440763,-1.72173 -1.806261,0.18621 -0.346209,0.29363 -0.549708,0.76624 -0.824606,1.14933 -0.137459,0.1915 -0.497116,0.34546 -0.412325,0.57463 0.06717,0.18094 1.640895,1.60991 1.96335,1.92631 1.308922,1.2842 2.617798,2.56838 3.926713,3.8526 0.163645,0.16059 0.327302,0.32113 0.490832,0.48156 0.163681,0.16058 0.278206,0.50373 0.490834,0.48156 0.21276,-0.0219 0.274858,-0.38312 0.412326,-0.5746 0.137381,-0.19164 0.36273,-0.33139 0.412325,-0.57465 0.07025,-0.34394 -0.148918,-0.71243 -0.07855,-1.05624 0.09069,-0.44223 1.670661,-2.0097 1.649218,-2.29866 -0.01841,-0.24882 -0.472537,-0.23284 -0.490829,-0.48156 -0.01845,-0.24885 0.274844,-0.38313 0.412325,-0.57464 0.137458,-0.1915 0.274856,-0.3831 0.412324,-0.57462 1.099472,-1.53243 0.02622,0.3521 -0.07853,-1.05624 -0.01844,-0.24883 0.274863,-0.38313 0.412324,-0.57461 0.978966,-1.36448 0.537681,-0.37248 -1.138738,-3.07564 z"
       inkscape:connector-curvature="0" />
    <path
       id="use12613-6-36"
       style="display:inline;fill:#52854e;fill-opacity:1;stroke:#469a2d;stroke-width:1.54830253px;stroke-linecap:butt;stroke-linejoin:miter;stroke-opacity:1"
       d="m 78.799219,179.77617 c -0.207758,1.00173 -0.415491,2.00341 -0.623112,3.00511 -0.213715,10e-4 -0.490705,-0.172 -0.641014,0.007 -0.149696,0.17843 0.154417,0.57164 0.0045,0.74975 -0.149695,0.17842 -0.491264,-0.172 -0.640996,0.007 -0.775321,0.92061 -0.290284,1.67793 -1.268609,2.26144 -1.086607,0.6481 -0.61881,-1.64357 -1.273015,1.51178 -0.101061,0.48584 0.0059,0.99961 0.009,1.49948 0.0015,0.24991 -0.187199,0.63978 0.0045,0.74971 0.1515,0.0866 2.142924,-0.0204 2.564039,-0.0243 1.709384,-0.0168 3.418717,-0.0327 5.128108,-0.049 0.213715,-10e-4 0.427456,-0.003 0.640992,-0.007 0.213758,-0.001 0.491287,0.17205 0.641027,-0.007 0.149711,-0.17844 -0.003,-0.49983 -0.0045,-0.74976 -0.0015,-0.24991 0.09256,-0.52714 -0.0045,-0.74974 -0.13718,-0.31481 -0.508493,-0.4288 -0.645507,-0.74363 -0.176089,-0.40506 0.158645,-2.79551 -0.01793,-2.99898 -0.15198,-0.17523 -0.489141,0.18138 -0.640995,0.007 -0.152036,-0.17523 -0.003,-0.49982 -0.0045,-0.74974 -0.0015,-0.2499 -0.003,-0.49983 -0.0045,-0.74976 -0.01193,-1.99932 0.215211,0.2479 -0.645489,-0.7436 -0.152038,-0.17525 -0.003,-0.49984 -0.0045,-0.74977 -0.01064,-1.78015 0.203118,-0.69111 -2.573017,-1.47505 z"
       inkscape:connector-curvature="0" />
    <path
       id="use12613-6-54"
       style="display:inline;fill:#52854e;fill-opacity:1;stroke:#469a2d;stroke-width:1.54830253px;stroke-linecap:butt;stroke-linejoin:miter;stroke-opacity:1"
       d="m 140.88675,155.76553 c -0.20776,1.00172 -0.41548,2.00343 -0.6231,3.00512 -0.21373,0.001 -0.49073,-0.17201 -0.64104,0.007 -0.14968,0.17841 0.15444,0.5716 0.004,0.74973 -0.1497,0.17841 -0.49125,-0.17202 -0.64099,0.007 -0.77533,0.92064 -0.29027,1.67795 -1.26861,2.26145 -1.08661,0.6481 -0.6188,-1.64359 -1.27301,1.51176 -0.10106,0.48589 0.006,0.99967 0.009,1.4995 0.001,0.24986 -0.18718,0.6398 0.004,0.74975 0.15148,0.0866 2.14292,-0.0205 2.56405,-0.0243 1.70939,-0.0168 3.41872,-0.0327 5.1281,-0.049 0.21369,-0.001 0.42744,-0.003 0.64098,-0.007 0.21375,-0.001 0.49127,0.17202 0.64103,-0.007 0.14972,-0.17845 -0.002,-0.49986 -0.004,-0.74974 -10e-4,-0.24988 0.0926,-0.52716 -0.004,-0.74975 -0.13711,-0.31488 -0.50848,-0.4288 -0.6455,-0.74364 -0.17612,-0.40503 0.15864,-2.79551 -0.0178,-2.99896 -0.15193,-0.17528 -0.48914,0.18138 -0.64098,0.007 -0.15208,-0.17519 -0.002,-0.49981 -0.004,-0.74974 -0.001,-0.24985 -0.002,-0.49984 -0.004,-0.74974 -0.0119,-1.99932 0.21522,0.24786 -0.64551,-0.74361 -0.15207,-0.1752 -0.002,-0.49984 -0.004,-0.74974 -0.0108,-1.78017 0.20314,-0.69111 -2.57301,-1.47505 z"
       inkscape:connector-curvature="0" />
    <path
       id="use12613-6-549"
       style="display:inline;fill:#52854e;fill-opacity:1;stroke:#469a2d;stroke-width:1.54830253px;stroke-linecap:butt;stroke-linejoin:miter;stroke-opacity:1"
       d="m 106.72506,144.0657 c -0.20777,1.00171 -0.41551,2.0034 -0.62313,3.00511 -0.21371,0.001 -0.49071,-0.17202 -0.64101,0.007 -0.14969,0.17843 0.15441,0.57164 0.004,0.74977 -0.14968,0.1784 -0.49125,-0.17202 -0.641,0.007 -0.77531,0.9206 -0.29027,1.67793 -1.26861,2.26144 -1.0866,0.6481 -0.61881,-1.64358 -1.27301,1.51177 -0.10106,0.48586 0.006,0.99962 0.008,1.49946 0.001,0.24992 -0.18721,0.6398 0.004,0.74974 0.15152,0.0866 2.14294,-0.0205 2.56404,-0.0243 1.7094,-0.0168 3.41874,-0.0327 5.12811,-0.049 0.21372,-0.001 0.42744,-0.003 0.641,-0.007 0.21374,-0.001 0.49129,0.17204 0.64099,-0.007 0.14973,-0.17844 -0.002,-0.49983 -0.004,-0.74974 -10e-4,-0.24986 0.0926,-0.52715 -0.004,-0.74976 -0.13712,-0.31488 -0.50848,-0.4288 -0.64549,-0.74359 -0.17613,-0.40505 0.15863,-2.7955 -0.0178,-2.999 -0.15197,-0.17528 -0.48914,0.18138 -0.641,0.007 -0.15208,-0.17522 -0.002,-0.49982 -0.004,-0.74975 -0.001,-0.24986 -0.002,-0.49983 -0.004,-0.74974 -0.0119,-1.99932 0.21521,0.24787 -0.6455,-0.74361 -0.15207,-0.17519 -0.002,-0.49982 -0.004,-0.74974 -0.0108,-1.78018 0.20312,-0.69111 -2.573,-1.47506 z"
       inkscape:connector-curvature="0" />
    <rect
       style="fill:#aa8800;fill-opacity:1;stroke:none;stroke-width:0.35679638"
       id="rect1026"
       width="3.003938"
       height="10.378512"
       x="203.64224"
       y="34.442505"
       transform="matrix(0.54312469,0.83965206,-0.74866886,0.66294415,0,0)" />
    <rect
       style="fill:#aa8800;fill-opacity:1;stroke:none;stroke-width:0.35610026"
       id="rect1026-8"
       width="2.7972455"
       height="11.10195"
       x="-29.65592"
       y="181.9225"
       transform="matrix(0.87383674,-0.48621945,0.37614156,0.92656221,0,0)" />
    <rect
       style="fill:#aa8800;fill-opacity:1;stroke:none;stroke-width:0.35477272"
       id="rect1026-84"
       width="2.7056658"
       height="11.392303"
       x="95.299286"
       y="170.78644"
       transform="matrix(0.99995451,-0.00953772,0.0059764,0.99998214,0,0)" />
    <rect
       style="fill:#aa8800;fill-opacity:1;stroke:none;stroke-width:0.41702938"
       id="rect1026-4"
       width="2.7056658"
       height="15.741435"
       x="195.978"
       y="194.81296"
       transform="matrix(0.99995451,-0.00953772,-0.68317054,0.73025887,0,0)" />
    <rect
       style="fill:#aa8800;fill-opacity:1;stroke:none;stroke-width:0.35648292"
       id="rect1026-9"
       width="3.0482788"
       height="10.209579"
       x="-66.755798"
       y="173.76869"
       transform="matrix(0.46293584,-0.88639179,0.81398341,0.58088812,0,0)" />
    <rect
       style="fill:#aa8800;fill-opacity:1;stroke:none;stroke-width:0.50885808"
       id="rect1026-96"
       width="2.7056658"
       height="23.437132"
       x="160.74893"
       y="183.30702"
       transform="matrix(0.99995451,-0.00953772,-0.22506661,0.97434338,0,0)" />
    <rect
       style="fill:#aa8800;fill-opacity:1;stroke:none;stroke-width:0.40965632"
       id="rect1026-6"
       width="2.7056658"
       height="15.18974"
       x="129.28047"
       y="129.46404"
       transform="matrix(0.99995451,-0.00953772,0.0059764,0.99998214,0,0)" />
    <path
       id="use12613-6-52-1"
       style="display:inline;fill:#52854e;fill-opacity:1;stroke:#469a2d;stroke-width:1.54830253px;stroke-linecap:butt;stroke-linejoin:miter;stroke-opacity:1"
       d="m 109.35206,129.87433 c 0.81934,0.37765 1.63871,0.75528 2.45807,1.13278 -0.028,0.24785 -0.2139,0.54495 -0.0838,0.74341 0.13003,0.19801 0.50549,-0.10076 0.63549,0.0974 0.13004,0.19798 -0.21397,0.54559 -0.0838,0.7434 0.67177,1.02409 1.38049,0.56574 1.73858,1.77887 0.39771,1.34743 -1.47787,0.49214 1.10312,1.68149 0.39741,0.18349 0.84731,0.12982 1.27101,0.19467 0.21184,0.0324 0.51574,0.30435 0.63549,0.0973 0.0944,-0.16376 0.28068,-2.48528 0.33584,-2.97368 0.22388,-1.98248 0.44774,-3.96492 0.67165,-5.94741 0.028,-0.24785 0.0561,-0.49571 0.0839,-0.74342 0.028,-0.24788 0.21398,-0.54557 0.0838,-0.74339 -0.13002,-0.19803 -0.42365,-0.065 -0.63551,-0.0973 -0.21182,-0.0324 -0.4335,-0.17938 -0.63549,-0.0973 -0.28568,0.11583 -0.43385,0.53038 -0.71948,0.64605 -0.3675,0.14868 -2.34519,-0.56608 -2.54205,-0.38933 -0.16951,0.15217 0.0857,0.59145 -0.0838,0.74339 -0.16951,0.15219 -0.42367,-0.065 -0.63551,-0.0974 -0.21183,-0.0324 -0.42367,-0.065 -0.63549,-0.0973 -1.6947,-0.25959 0.23985,-0.21537 -0.71948,0.64604 -0.16953,0.15219 -0.42369,-0.065 -0.6355,-0.0973 -1.50894,-0.23111 -0.55699,-0.3298 -1.60686,2.77904 z"
       inkscape:connector-curvature="0" />
    <path
       id="use12613-6-52-8"
       style="display:inline;fill:#52854e;fill-opacity:1;stroke:#469a2d;stroke-width:1.54830253px;stroke-linecap:butt;stroke-linejoin:miter;stroke-opacity:1"
       d="m 34.061332,135.28688 c 0.819358,0.37767 1.638694,0.75529 2.458066,1.13279 -0.028,0.24787 -0.213884,0.54494 -0.08389,0.74342 0.130028,0.19798 0.505504,-0.10077 0.635501,0.0974 0.130029,0.19797 -0.213967,0.5456 -0.08389,0.74342 0.671777,1.02407 1.380509,0.56572 1.738589,1.77886 0.397709,1.3474 -1.477856,0.49213 1.103118,1.68148 0.3974,0.18351 0.847323,0.12983 1.271005,0.19467 0.211832,0.0324 0.515746,0.30435 0.635497,0.0973 0.0944,-0.16358 0.280676,-2.48528 0.335844,-2.97368 0.223872,-1.98248 0.447754,-3.96492 0.671641,-5.94741 0.028,-0.24786 0.05603,-0.49573 0.08388,-0.74341 0.028,-0.24789 0.213985,-0.54558 0.08389,-0.7434 -0.130043,-0.19804 -0.423684,-0.065 -0.635515,-0.0973 -0.211825,-0.0324 -0.433505,-0.17938 -0.635507,-0.0973 -0.285681,0.11584 -0.433841,0.53038 -0.719494,0.64606 -0.3675,0.14867 -2.34518,-0.56608 -2.542033,-0.38932 -0.169511,0.15217 0.08557,0.59144 -0.08389,0.74339 -0.169521,0.15218 -0.423668,-0.065 -0.635511,-0.0974 -0.211833,-0.0324 -0.423673,-0.065 -0.635495,-0.0973 -1.694693,-0.25956 0.239846,-0.21536 -0.719491,0.64604 -0.169518,0.15219 -0.423673,-0.065 -0.635495,-0.0973 -1.508937,-0.2311 -0.556997,-0.32981 -1.606856,2.77904 z"
       inkscape:connector-curvature="0" />
    <rect
       style="fill:#aa8800;fill-opacity:1;stroke:none;stroke-width:0.35610026"
       id="rect1026-8-9"
       width="2.7972455"
       height="11.10195"
       x="28.455231"
       y="152.38426"
       transform="matrix(0.87383674,-0.48621945,0.37614156,0.92656221,0,0)" />
    <path
       style="display:inline;opacity:0.98999999;fill:none;fill-opacity:1;stroke:#2f2f2f;stroke-width:14.57764816;stroke-miterlimit:4;stroke-dasharray:none;stroke-opacity:1"
       d="m 121.9357,208.2034 c -9.42302,15.44528 -25.00196,23.51904 -38.471449,20.699 C 64.329458,225.21444 48.744574,210.43477 36.483786,193.21394 26.179212,178.43884 19.235505,156.30646 26.230092,134.17117 32.521796,112.89623 48.552319,99.684258 62.712238,87.657394 78.323257,74.381002 94.959802,62.718579 108.65014,45.719223 c 8.84685,-8.083035 18.66245,-1.73144 25.6714,3.69117 10.90478,9.473628 21.9141,19.799566 28.68879,34.655233 4.15721,7.99398 1.61075,19.064264 -4.09437,26.667104 -14.72585,29.59465 -20.52545,63.56954 -34.65865,93.4555 -0.72159,1.38139 -1.48658,2.73255 -2.32161,4.01517 z"
       id="path3713-1"
       inkscape:connector-curvature="0" />
    <path
       sodipodi:type="star"
       style="display:inline;opacity:0.98999999;fill:#000000;fill-opacity:1;fill-rule:nonzero;stroke:none;stroke-width:0;stroke-miterlimit:4;stroke-dasharray:none;stroke-dashoffset:0;stroke-opacity:1"
       id="path14232-6-4"
       sodipodi:sides="3"
       sodipodi:cx="92.335136"
       sodipodi:cy="112.31644"
       sodipodi:r1="4.0210114"
       sodipodi:r2="2.0105057"
       sodipodi:arg1="0.25606404"
       sodipodi:arg2="1.3032616"
       inkscape:flatsided="false"
       inkscape:rounded="0"
       inkscape:randomized="0"
       d="m 96.22504,113.33486 -3.358417,0.92056 -3.358417,0.92056 0.881979,-3.36875 0.881978,-3.36876 2.476439,2.44819 z"
       inkscape:transform-center-x="-1.9584997"
       inkscape:transform-center-y="2.0604663"
       transform="matrix(-3.2010897,-2.037295,1.8874966,-3.45514,264.08359,796.56593)" />
    <path
       style="display:inline;stroke-width:1.09373593"
       d="m 177.01918,110.24826 h 9.24524 c 12.43179,33.85344 15.66419,68.20468 0,103.50751 h -9.24524 c 18.11099,-34.49638 14.68568,-69.00005 0,-103.50751 z"
       id="rect11667"
       inkscape:connector-curvature="0"
       sodipodi:nodetypes="ccccc" />
  </g>
</svg>
