<?xml version="1.0" encoding="UTF-8" standalone="no"?>
<!-- Created with Inkscape (http://www.inkscape.org/) -->

<svg
   xmlns:dc="http://purl.org/dc/elements/1.1/"
   xmlns:cc="http://creativecommons.org/ns#"
   xmlns:rdf="http://www.w3.org/1999/02/22-rdf-syntax-ns#"
   xmlns:svg="http://www.w3.org/2000/svg"
   xmlns="http://www.w3.org/2000/svg"
   xmlns:sodipodi="http://sodipodi.sourceforge.net/DTD/sodipodi-0.dtd"
   xmlns:inkscape="http://www.inkscape.org/namespaces/inkscape"
   width="210mm"
   height="297mm"
   viewBox="0 0 210 297"
   version="1.1"
   id="svg8062"
   inkscape:version="0.92.4 (5da689c313, 2019-01-14)"
   sodipodi:docname="rysunek1.svg">
  <defs
     id="defs8056">
    <inkscape:perspective
       sodipodi:type="inkscape:persp3d"
       inkscape:vp_x="121.32932 : 868.77421 : 1"
       inkscape:vp_y="3513.8912 : 3786.7685 : 0"
       inkscape:vp_z="1089.2929 : 34.453905 : 1"
       inkscape:persp3d-origin="261.01878 : 104.91287 : 1"
       id="perspective9189" />
    <inkscape:perspective
       sodipodi:type="inkscape:persp3d"
       inkscape:vp_x="-238.01402 : 32.578135 : 0"
       inkscape:vp_y="9.7961206e-14 : 1514.5838 : 0"
       inkscape:vp_z="213.8342 : 116.87516 : 0"
       inkscape:persp3d-origin="120.52568 : 42.613919 : 1"
       id="perspective9103" />
  </defs>
  <sodipodi:namedview
     id="base"
     pagecolor="#ffffff"
     bordercolor="#666666"
     borderopacity="1.0"
     inkscape:pageopacity="0.0"
     inkscape:pageshadow="2"
     inkscape:zoom="0.49497475"
     inkscape:cx="516.98764"
     inkscape:cy="462.41142"
     inkscape:document-units="mm"
     inkscape:current-layer="layer1"
     showgrid="false"
     inkscape:window-width="1280"
     inkscape:window-height="971"
     inkscape:window-x="-8"
     inkscape:window-y="-8"
     inkscape:window-maximized="1" />
  <metadata
     id="metadata8059">
    <rdf:RDF>
      <cc:Work
         rdf:about="">
        <dc:format>image/svg+xml</dc:format>
        <dc:type
           rdf:resource="http://purl.org/dc/dcmitype/StillImage" />
        <dc:title />
      </cc:Work>
    </rdf:RDF>
  </metadata>
  <g
     inkscape:label="Layer 1"
     inkscape:groupmode="layer"
     id="layer1">
    <ellipse
       style="display:inline;fill:#d38d5f;stroke:#373737;stroke-width:1.64535725;stroke-miterlimit:4;stroke-dasharray:3.29071453, 1.64535727, 0.82267864, 1.64535727;stroke-dashoffset:0;stroke-opacity:1"
       id="path3748"
       cx="64.139771"
       cy="182.57515"
       rx="46.886379"
       ry="16.508255" />
    <path
       style="display:inline;opacity:0.98999999;fill:#2f2f2f;fill-opacity:1;stroke:#7c7c7c;stroke-width:0.42149371;stroke-opacity:1"
       d="m 105.54236,149.08335 c 0,24.28233 -15.990945,37.35545 -41.128407,37.35545 -25.137474,0 -40.657156,-13.74093 -41.128403,-38.0166 -0.366627,-18.8864 13.820762,-51.841601 15.367797,-71.721692 0.915678,-11.766853 12.619821,-14.032336 26.308985,-13.898319 12.778269,0.125097 25.26588,2.407616 25.515846,14.758068 0.399607,19.74316 15.064182,55.698683 15.064182,71.523093 z"
       id="path3713"
       inkscape:connector-curvature="0"
       sodipodi:nodetypes="sssssss" />
    <ellipse
       style="display:inline;fill:#808080;stroke-width:0.42149371"
       id="path3742"
       cx="64.688148"
       cy="73.050133"
       rx="20.015823"
       ry="5.6198468" />
    <path
       style="fill:#808080;stroke:#575757;stroke-width:0.39029428;stroke-opacity:1"
       d="m 98.238065,224.94872 c -2.95878,4.74754 -9.336992,8.44452 -14.789956,6.11489 -5.452946,-2.32964 -6.425895,-4.53878 -2.034421,-8.57009 4.351676,-3.99471 10.677217,-3.77154 15.230817,-4.37803 5.476045,-0.72934 4.552335,2.08568 1.59356,6.83323 z"
       id="path4549"
       inkscape:connector-curvature="0"
       sodipodi:nodetypes="sssss" />
    <path
       id="rect4547"
       style="fill:#808080;stroke:#575757;stroke-width:0.41279998;stroke-opacity:1"
       d="m 180.10638,168.12237 c -1.13742,0.11062 -4.25854,0.22384 -7.08276,1.98765 l -75.187245,46.95586 c -0.56726,0.35426 -1.07714,0.69468 -1.55918,1.02532 0.004,0.0126 0.009,0.0216 0.012,0.0355 0.002,0.0119 0.005,0.0236 0.007,0.0355 0.0188,0.0358 0.0347,0.0779 0.0441,0.13059 5.9e-4,0.003 5.9e-4,0.006 0.001,0.009 0.0314,0.0135 0.061,0.0314 0.0842,0.059 0.0232,0.0325 0.0427,0.0671 0.0573,0.1043 0.0124,0.0286 0.0241,0.0576 0.0372,0.0859 0.0136,0.0294 0.0269,0.0586 0.0412,0.0877 0.0151,0.0307 0.031,0.0609 0.0458,0.0917 0.0169,0.0334 0.0335,0.0673 0.0498,0.10075 0.0168,0.0349 0.0336,0.07 0.0504,0.10486 0.0182,0.037 0.0363,0.0739 0.0544,0.11113 0.0169,0.0361 0.0332,0.0727 0.0487,0.1094 0.0136,0.0328 0.0281,0.0648 0.0424,0.0974 0.0138,0.0327 0.028,0.0653 0.0418,0.098 0.0112,0.0267 0.0228,0.0533 0.0349,0.0796 0.0105,0.0233 0.0218,0.0459 0.0332,0.0687 0.009,0.0183 0.0174,0.0366 0.0269,0.0544 0.006,0.0111 0.0115,0.0224 0.0183,0.0327 0.002,0.003 0.0274,0.0402 0.0132,0.0201 -0.0204,-0.029 -0.0365,-0.045 -0.051,-0.0555 0.0245,0.0397 0.0498,0.0788 0.075,0.11801 0.0267,0.0428 0.0552,0.0839 0.0848,0.12487 0.0329,0.047 0.0669,0.0933 0.10139,0.13918 0.0354,0.0476 0.0712,0.0948 0.10769,0.14149 0.0374,0.0471 0.0752,0.0939 0.11341,0.14034 0.0393,0.0477 0.0797,0.0939 0.11972,0.14091 0.0395,0.0474 0.0812,0.0929 0.12201,0.13919 0.0395,0.0442 0.0786,0.089 0.11857,0.1329 0.0394,0.0439 0.078,0.0886 0.118,0.13173 0.042,0.0467 0.0851,0.0924 0.12773,0.13863 0.0421,0.0454 0.0851,0.0902 0.12774,0.13518 0.044,0.0472 0.0895,0.093 0.13461,0.13919 0.0406,0.043 0.0829,0.0838 0.12659,0.12373 0.0436,0.0387 0.0868,0.0778 0.13117,0.11571 0.0481,0.0418 0.0968,0.0831 0.14549,0.1243 0.0489,0.0399 0.098,0.079 0.14722,0.11857 0.0466,0.036 0.094,0.072 0.14148,0.10708 0.0444,0.0328 0.0899,0.0633 0.13576,0.094 0.0453,0.0296 0.0912,0.0581 0.1369,0.087 0.0447,0.0296 0.0918,0.055 0.13861,0.0808 0.0502,0.0269 0.1016,0.0515 0.15295,0.0762 0.0425,0.0196 0.0852,0.0389 0.12773,0.0584 0.606375,-0.34998 1.245375,-0.73076 1.948115,-1.18056 l 73.8629,-47.2755 c 4.75585,-3.04395 6.54306,-1.21529 5.41876,-3.65852 0,0 -0.0592,-0.30251 -0.82886,-1.92177 z"
       inkscape:connector-curvature="0" />
    <path
       style="fill:#000000;stroke-width:0.29327726"
       id="path8103"
       d="m 138.75425,135.30533 a 4.5039005,6.389255 0 0 1 -6.3e-4,0.10705"
       sodipodi:type="arc"
       sodipodi:start="0"
       sodipodi:end="0.016755887"
       sodipodi:ry="6.389255"
       sodipodi:rx="4.5039005"
       sodipodi:cy="135.30533"
       sodipodi:cx="134.25035"
       sodipodi:open="true"
       transform="rotate(15.755408)" />
    <ellipse
       style="fill:none;stroke:#000000;stroke-width:0.10289579;stroke-opacity:1"
       id="path8107"
       cx="133.93025"
       cy="199.51149"
       rx="0.40941632"
       ry="0.46178725"
       transform="rotate(13.84764)" />
    <ellipse
       style="fill:none;stroke:#000000;stroke-width:0.10289579;stroke-opacity:1"
       id="path8107-5"
       cx="134.7682"
       cy="197.67851"
       rx="0.40941632"
       ry="0.46178725"
       transform="rotate(13.84764)" />
    <ellipse
       style="fill:none;stroke:#000000;stroke-width:0.10289579;stroke-opacity:1"
       id="path8107-7"
       cx="136.75832"
       cy="196.10738"
       rx="0.40941632"
       ry="0.46178725"
       transform="rotate(13.84764)" />
    <ellipse
       style="fill:none;stroke:#000000;stroke-width:0.10289579;stroke-opacity:1"
       id="path8107-8"
       cx="143.67126"
       cy="193.38409"
       rx="0.40941632"
       ry="0.46178725"
       transform="rotate(13.84764)" />
    <ellipse
       style="fill:none;stroke:#000000;stroke-width:0.10289579;stroke-opacity:1"
       id="path8107-6"
       cx="145.76611"
       cy="196.00264"
       rx="0.40941632"
       ry="0.46178725"
       transform="rotate(13.84764)" />
    <ellipse
       style="fill:none;stroke:#000000;stroke-width:0.10289579;stroke-opacity:1"
       id="path8107-76"
       cx="144.5092"
       cy="197.57378"
       rx="0.40941632"
       ry="0.46178725"
       transform="rotate(13.84764)" />
    <ellipse
       style="fill:none;stroke:#000000;stroke-width:0.10289579;stroke-opacity:1"
       id="path8107-9"
       cx="142.93806"
       cy="198.83067"
       rx="0.40941632"
       ry="0.46178725"
       transform="rotate(13.84764)" />
    <ellipse
       style="fill:none;stroke:#000000;stroke-width:0.10289579;stroke-opacity:1"
       id="path8107-2"
       cx="141.57643"
       cy="199.56387"
       rx="0.40941632"
       ry="0.46178725"
       transform="rotate(13.84764)" />
    <ellipse
       style="fill:none;stroke:#000000;stroke-width:0.10289579;stroke-opacity:1"
       id="path8107-89"
       cx="140.31953"
       cy="200.71605"
       rx="0.40941632"
       ry="0.46178725"
       transform="rotate(13.84764)" />
    <ellipse
       style="fill:none;stroke:#000000;stroke-width:0.10289579;stroke-opacity:1"
       id="path8107-3"
       cx="137.38675"
       cy="201.65871"
       rx="0.40941632"
       ry="0.46178725"
       transform="rotate(13.84764)" />
    <ellipse
       style="fill:none;stroke:#000000;stroke-width:0.10289579;stroke-opacity:1"
       id="path8107-4"
       cx="135.81561"
       cy="201.76346"
       rx="0.40941632"
       ry="0.46178725"
       transform="rotate(13.84764)" />
    <ellipse
       style="fill:none;stroke:#000000;stroke-width:0.10289579;stroke-opacity:1"
       id="path8107-22"
       cx="138.43416"
       cy="195.05997"
       rx="0.40941632"
       ry="0.46178725"
       transform="rotate(13.84764)" />
    <ellipse
       style="fill:none;stroke:#000000;stroke-width:0.10289579;stroke-opacity:1"
       id="path8107-0"
       cx="140.2148"
       cy="194.22203"
       rx="0.40941632"
       ry="0.46178725"
       transform="rotate(13.84764)" />
    <ellipse
       style="fill:none;stroke:#000000;stroke-width:0.10289579;stroke-opacity:1"
       id="path8107-24"
       cx="141.99541"
       cy="193.69832"
       rx="0.40941632"
       ry="0.46178725"
       transform="rotate(13.84764)" />
    <ellipse
       style="fill:none;stroke:#000000;stroke-width:0.10289579;stroke-opacity:1"
       id="path8107-99"
       cx="137.07254"
       cy="197.99274"
       rx="0.40941632"
       ry="0.46178725"
       transform="rotate(13.84764)" />
    <ellipse
       style="fill:none;stroke:#000000;stroke-width:0.10289579;stroke-opacity:1"
       id="path8107-06"
       cx="137.91046"
       cy="199.56387"
       rx="0.40941632"
       ry="0.46178725"
       transform="rotate(13.84764)" />
    <ellipse
       style="fill:none;stroke:#000000;stroke-width:0.10289579;stroke-opacity:1"
       id="path8107-70"
       cx="138.7484"
       cy="197.99275"
       rx="0.40941632"
       ry="0.46178725"
       transform="rotate(13.84764)" />
    <ellipse
       style="fill:none;stroke:#000000;stroke-width:0.10289579;stroke-opacity:1"
       id="path8107-84"
       cx="136.02509"
       cy="199.56387"
       rx="0.40941632"
       ry="0.46178725"
       transform="rotate(13.84764)" />
    <ellipse
       style="fill:none;stroke:#000000;stroke-width:0.10289579;stroke-opacity:1"
       id="path8107-45"
       cx="134.55872"
       cy="201.03026"
       rx="0.40941632"
       ry="0.46178725"
       transform="rotate(13.84764)" />
    <ellipse
       style="fill:none;stroke:#000000;stroke-width:0.10289579;stroke-opacity:1"
       id="path8107-46"
       cx="139.90056"
       cy="196.4216"
       rx="0.40941632"
       ry="0.46178725"
       transform="rotate(13.84764)" />
    <ellipse
       style="fill:none;stroke:#000000;stroke-width:0.10289579;stroke-opacity:1"
       id="path8107-35"
       cx="145.24242"
       cy="193.80307"
       rx="0.40941632"
       ry="0.46178725"
       transform="rotate(13.84764)" />
    <ellipse
       style="fill:none;stroke:#000000;stroke-width:0.10289579;stroke-opacity:1"
       id="path8107-1"
       cx="140.42429"
       cy="198.09749"
       rx="0.40941632"
       ry="0.46178725"
       transform="rotate(13.84764)" />
    <ellipse
       style="fill:none;stroke:#000000;stroke-width:0.10289579;stroke-opacity:1"
       id="path8107-11"
       cx="141.47171"
       cy="196.52637"
       rx="0.40941632"
       ry="0.46178725"
       transform="rotate(13.84764)" />
    <ellipse
       style="fill:none;stroke:#000000;stroke-width:0.10289579;stroke-opacity:1"
       id="path8107-03"
       cx="142.72859"
       cy="195.26947"
       rx="0.40941632"
       ry="0.46178725"
       transform="rotate(13.84764)" />
    <ellipse
       style="fill:none;stroke:#000000;stroke-width:0.10289579;stroke-opacity:1"
       id="path8107-98"
       cx="143.04283"
       cy="196.84059"
       rx="0.40941632"
       ry="0.46178725"
       transform="rotate(13.84764)" />
    <ellipse
       style="fill:none;stroke:#000000;stroke-width:0.10289579;stroke-opacity:1"
       id="path8107-12"
       cx="144.19499"
       cy="195.26947"
       rx="0.40941632"
       ry="0.46178725"
       transform="rotate(13.84764)" />
    <ellipse
       style="fill:none;stroke:#000000;stroke-width:0.10289579;stroke-opacity:1"
       id="path8107-60"
       cx="138.85315"
       cy="201.34447"
       rx="0.40941632"
       ry="0.46178725"
       transform="rotate(13.84764)" />
    <ellipse
       style="fill:none;stroke:#000000;stroke-width:0.16190955;stroke-opacity:1"
       id="path9099"
       cx="239.24808"
       cy="-108.12925"
       rx="1.6101376"
       ry="0.14173229"
       transform="matrix(0.36229299,0.93206426,-0.86954921,0.49384631,0,0)" />
    <g
       sodipodi:type="inkscape:box3d"
       id="g9119"
       style="fill:#dfa100;fill-opacity:1;stroke:#402c04;stroke-width:1;stroke-miterlimit:4;stroke-dasharray:none;stroke-opacity:1"
       inkscape:perspectiveID="#perspective9103"
       inkscape:corner0="-0.04333034 : 0.13031796 : 0 : 1"
       inkscape:corner7="-0.25909204 : 0.074595442 : 0.052792878 : 1">
      <path
         sodipodi:type="inkscape:box3dside"
         id="path9121"
         style="fill:#dfa100;fill-opacity:1;fill-rule:evenodd;stroke:#402c04;stroke-width:1.1388793;stroke-linejoin:round;stroke-miterlimit:4;stroke-dasharray:none;stroke-opacity:1"
         inkscape:box3dsidetype="6"
         d="m 130.83891,58.420238 v 84.396422 l 11.28892,-6.17018 V 52.250062 Z"
         points="130.83891,142.81666 142.12783,136.64648 142.12783,52.250062 130.83891,58.420238 " />
      <path
         sodipodi:type="inkscape:box3dside"
         id="path9131"
         style="fill:#dfa100;fill-opacity:1;fill-rule:evenodd;stroke:#402c04;stroke-width:1.1388793;stroke-linejoin:round;stroke-miterlimit:4;stroke-dasharray:none;stroke-opacity:1"
         inkscape:box3dsidetype="11"
         d="m 142.12783,52.250062 51.35432,7.029114 V 143.6756 l -51.35432,-7.02912 z"
         points="193.48215,59.279176 193.48215,143.6756 142.12783,136.64648 142.12783,52.250062 " />
      <path
         sodipodi:type="inkscape:box3dside"
         id="path9129"
         style="fill:#dfa100;fill-opacity:1;fill-rule:evenodd;stroke:#402c04;stroke-width:1.1388793;stroke-linejoin:round;stroke-miterlimit:4;stroke-dasharray:none;stroke-opacity:1"
         inkscape:box3dsidetype="13"
         d="m 130.83891,142.81666 51.35431,7.02911 11.28893,-6.17017 -51.35432,-7.02912 z"
         points="182.19322,149.84577 193.48215,143.6756 142.12783,136.64648 130.83891,142.81666 " />
      <path
         sodipodi:type="inkscape:box3dside"
         id="path9123"
         style="fill:#dfa100;fill-opacity:1;fill-rule:evenodd;stroke:#402c04;stroke-width:1.1388793;stroke-linejoin:round;stroke-miterlimit:4;stroke-dasharray:none;stroke-opacity:1"
         inkscape:box3dsidetype="5"
         d="m 130.83891,58.420238 51.35431,7.029114 11.28893,-6.170176 -51.35432,-7.029114 z"
         points="182.19322,65.449352 193.48215,59.279176 142.12783,52.250062 130.83891,58.420238 " />
      <path
         sodipodi:type="inkscape:box3dside"
         id="path9127"
         style="fill:#dfa100;fill-opacity:1;fill-rule:evenodd;stroke:#402c04;stroke-width:1.1388793;stroke-linejoin:round;stroke-miterlimit:4;stroke-dasharray:none;stroke-opacity:1"
         inkscape:box3dsidetype="14"
         d="m 182.19322,65.449352 0,84.396418 11.28893,-6.17017 V 59.279176 Z"
         points="182.19322,149.84577 193.48215,143.6756 193.48215,59.279176 182.19322,65.449352 " />
      <path
         sodipodi:type="inkscape:box3dside"
         id="path9125"
         style="fill:#dfa100;fill-opacity:1;fill-rule:evenodd;stroke:#402c04;stroke-width:1.1388793;stroke-linejoin:round;stroke-miterlimit:4;stroke-dasharray:none;stroke-opacity:1"
         inkscape:box3dsidetype="3"
         d="m 130.83891,58.420238 51.35431,7.029114 0,84.396418 -51.35431,-7.02911 z"
         points="182.19322,65.449352 182.19322,149.84577 130.83891,142.81666 130.83891,58.420238 " />
    </g>
    <g
       sodipodi:type="inkscape:box3d"
       id="g9175"
       style="fill:none;stroke:#000000;stroke-opacity:1"
       inkscape:perspectiveID="#perspective9189"
       inkscape:corner0="-0.058494111 : 0.25692226 : 0 : 1"
       inkscape:corner7="-0.19730519 : 0.24723646 : 0.25 : 1">
      <path
         sodipodi:type="inkscape:box3dside"
         id="path9177"
         style="fill:#353564;fill-rule:evenodd;stroke:none;stroke-linejoin:round"
         inkscape:box3dsidetype="6"
         d="m 1228.5835,-793.80548 -36.1493,38.95661 -21.641,213.4683 28.5646,-30.78279 z"
         points="1192.4342,-754.84887 1170.7932,-541.38057 1199.3578,-572.16336 1228.5835,-793.80548 " />
      <path
         sodipodi:type="inkscape:box3dside"
         id="path9187"
         style="fill:#e9e9ff;fill-rule:evenodd;stroke:none;stroke-linejoin:round"
         inkscape:box3dsidetype="11"
         d="m 1199.3578,-572.16336 142.1516,-0.0513 -32.3311,34.8419 -138.3851,-4.00779 z"
         points="1341.5094,-572.21468 1309.1783,-537.37278 1170.7932,-541.38057 1199.3578,-572.16336 " />
      <path
         sodipodi:type="inkscape:box3dside"
         id="path9179"
         style="fill:#4d4d9f;fill-rule:evenodd;stroke:none;stroke-linejoin:round"
         inkscape:box3dsidetype="5"
         d="m 1228.5835,-793.80548 191.479,-38.39617 -78.5531,259.98697 -142.1516,0.0513 z"
         points="1420.0625,-832.20165 1341.5094,-572.21468 1199.3578,-572.16336 1228.5835,-793.80548 " />
      <path
         sodipodi:type="inkscape:box3dside"
         id="path9185"
         style="fill:#afafde;fill-rule:evenodd;stroke:none;stroke-linejoin:round"
         inkscape:box3dsidetype="13"
         d="m 1192.4342,-754.84887 185.2275,-31.65935 -68.4834,249.13544 -138.3851,-4.00779 z"
         points="1377.6617,-786.50822 1309.1783,-537.37278 1170.7932,-541.38057 1192.4342,-754.84887 " />
      <path
         sodipodi:type="inkscape:box3dside"
         id="path9183"
         style="fill:#d7d7ff;fill-rule:evenodd;stroke:none;stroke-linejoin:round"
         inkscape:box3dsidetype="14"
         d="m 1420.0625,-832.20165 -42.4008,45.69343 -68.4834,249.13544 32.3311,-34.8419 z"
         points="1377.6617,-786.50822 1309.1783,-537.37278 1341.5094,-572.21468 1420.0625,-832.20165 " />
      <path
         sodipodi:type="inkscape:box3dside"
         id="path9181"
         style="fill:#8686bf;fill-rule:evenodd;stroke:none;stroke-linejoin:round"
         inkscape:box3dsidetype="3"
         d="m 1228.5835,-793.80548 191.479,-38.39617 -42.4008,45.69343 -185.2275,31.65935 z"
         points="1420.0625,-832.20165 1377.6617,-786.50822 1192.4342,-754.84887 1228.5835,-793.80548 " />
    </g>
    <text
       xml:space="preserve"
       style="font-style:italic;font-variant:normal;font-weight:bold;font-stretch:normal;font-size:15.31276035px;line-height:1.25;font-family:'Courier New';-inkscape-font-specification:'Courier New, Bold Italic';font-variant-ligatures:normal;font-variant-caps:normal;font-variant-numeric:normal;font-feature-settings:normal;text-align:start;letter-spacing:0px;word-spacing:0px;writing-mode:lr-tb;text-anchor:start;fill:#000000;fill-opacity:1;stroke:none;stroke-width:0.31901583"
       x="149.1035"
       y="65.782043"
       id="text9201"
       transform="matrix(0.96365043,0.14618558,-0.165372,1.0126338,0,0)"><tspan
         sodipodi:role="line"
         id="tspan9199"
         x="149.1035"
         y="65.782043"
         style="font-style:italic;font-variant:normal;font-weight:bold;font-stretch:normal;font-size:15.31276035px;font-family:'Courier New';-inkscape-font-specification:'Courier New, Bold Italic';font-variant-ligatures:normal;font-variant-caps:normal;font-variant-numeric:normal;font-feature-settings:normal;text-align:start;writing-mode:lr-tb;text-anchor:start;stroke-width:0.31901583">YERBA</tspan><tspan
         sodipodi:role="line"
         x="149.1035"
         y="84.922997"
         style="font-style:italic;font-variant:normal;font-weight:bold;font-stretch:normal;font-size:15.31276035px;font-family:'Courier New';-inkscape-font-specification:'Courier New, Bold Italic';font-variant-ligatures:normal;font-variant-caps:normal;font-variant-numeric:normal;font-feature-settings:normal;text-align:start;writing-mode:lr-tb;text-anchor:start;stroke-width:0.31901583"
         id="tspan9203"> MATE</tspan></text>
    <flowRoot
       xml:space="preserve"
       id="flowRoot9205"
       style="font-style:normal;font-weight:normal;font-size:40px;line-height:1.25;font-family:sans-serif;letter-spacing:0px;word-spacing:0px;fill:#000000;fill-opacity:1;stroke:none"
       transform="translate(2.6726953,33.67596)"><flowRegion
         id="flowRegion9207"><rect
           id="rect9209"
           width="151.52289"
           height="74.751289"
           x="452.54834"
           y="247.72758" /></flowRegion><flowPara
         id="flowPara9211" /></flowRoot>    <flowRoot
       xml:space="preserve"
       id="flowRoot9213"
       style="font-style:normal;font-weight:normal;font-size:40px;line-height:1.25;font-family:sans-serif;letter-spacing:0px;word-spacing:0px;fill:#000000;fill-opacity:1;stroke:none"
       transform="translate(2.6726953,33.67596)"><flowRegion
         id="flowRegion9215"><rect
           id="rect9217"
           width="117.1777"
           height="52.527931"
           x="484.87323"
           y="276.01184" /></flowRegion><flowPara
         id="flowPara9219" /></flowRoot>  </g>
</svg>
