<?xml version="1.0" encoding="UTF-8" standalone="no"?>
<!-- Created with Inkscape (http://www.inkscape.org/) -->

<svg
   xmlns:dc="http://purl.org/dc/elements/1.1/"
   xmlns:cc="http://creativecommons.org/ns#"
   xmlns:rdf="http://www.w3.org/1999/02/22-rdf-syntax-ns#"
   xmlns:svg="http://www.w3.org/2000/svg"
   xmlns="http://www.w3.org/2000/svg"
   xmlns:sodipodi="http://sodipodi.sourceforge.net/DTD/sodipodi-0.dtd"
   xmlns:inkscape="http://www.inkscape.org/namespaces/inkscape"
   width="210mm"
   height="297mm"
   viewBox="0 0 210 297"
   version="1.1"
   id="svg8"
   inkscape:version="0.92.4 (5da689c313, 2019-01-14)"
   sodipodi:docname="rysunek2.svg">
  <defs
     id="defs2" />
  <sodipodi:namedview
     id="base"
     pagecolor="#ffffff"
     bordercolor="#666666"
     borderopacity="1.0"
     inkscape:pageopacity="0.0"
     inkscape:pageshadow="2"
     inkscape:zoom="0.49497475"
     inkscape:cx="172.67839"
     inkscape:cy="577.18751"
     inkscape:document-units="mm"
     inkscape:current-layer="layer1"
     showgrid="false"
     inkscape:window-width="1280"
     inkscape:window-height="971"
     inkscape:window-x="-8"
     inkscape:window-y="-8"
     inkscape:window-maximized="1" />
  <metadata
     id="metadata5">
    <rdf:RDF>
      <cc:Work
         rdf:about="">
        <dc:format>image/svg+xml</dc:format>
        <dc:type
           rdf:resource="http://purl.org/dc/dcmitype/StillImage" />
        <dc:title />
      </cc:Work>
    </rdf:RDF>
  </metadata>
  <g
     inkscape:label="Layer 1"
     inkscape:groupmode="layer"
     id="layer1">
    <ellipse
       style="display:inline;fill:#d38d5f;stroke:#373737;stroke-width:2.11741376;stroke-miterlimit:4;stroke-dasharray:4.23482764, 2.11741382, 1.05870693, 2.11741382;stroke-dashoffset:0;stroke-opacity:1"
       id="path3748-77"
       cx="107.19405"
       cy="238.57079"
       rx="60.769413"
       ry="21.093752" />
    <path
       id="rect11637"
       style="display:inline;opacity:0.98999999;fill:#b3b3b3;fill-opacity:1;stroke:none;stroke-width:16.46395683;stroke-miterlimit:4;stroke-dasharray:none;stroke-dashoffset:0;stroke-opacity:1"
       d="m 119.04447,97.139271 c -0.34952,-0.0095 -1.13974,0.09713 -3.04735,0.624643 -0.27468,0.07594 0.56038,0.08844 0.84152,0.08221 0.27428,-0.0059 0.54638,-0.06222 0.81821,-0.110451 0.0651,-0.02185 0.12994,-0.04481 0.19532,-0.06505 0.0474,-0.01472 -0.0906,0.0469 -0.13896,0.05521 -0.0188,0.0033 -0.0376,0.0064 -0.0564,0.0097 -0.10944,0.03657 -0.21907,0.07283 -0.32845,0.109216 -0.6016,0.120567 -1.19984,0.267845 -1.80451,0.360796 -0.19695,0.03028 -0.39627,0.0071 -0.5947,0.0074 -0.43394,1.19e-4 -0.88325,0.0062 -1.31573,-0.05892 -0.0195,-0.0029 0.0382,-0.0083 0.0574,-0.01235 0.10981,-0.02992 0.5679,-0.151605 0.26237,-0.08958 -0.42035,0.08535 -2.93708,0.698249 -1.94347,0.30189 -0.52589,0.113514 -1.05371,0.228738 -1.58197,0.315388 -0.37695,0.152152 -0.53743,0.211498 -0.38094,0.10677 -0.40754,0.128499 -0.92955,0.293059 -1.70635,0.563284 -0.20541,0.07146 -0.42633,0.0076 -0.6394,0.0074 -1.16905,-0.0022 -2.33756,-0.0403 -3.50602,-0.08468 -1.19463,-0.02185 -1.84643,-0.05013 -3.05708,0 -2.490323,0.10316 -4.973853,0.413495 -7.462903,0.552239 -0.50128,0.01924 -1.00239,0.026 -1.50328,0.05768 -0.24579,0.01544 -3.222849,0.291674 -3.295133,0.295754 -0.85198,0.0483 -1.709018,-0.055 -2.561506,-0.0112 -1.184945,0.025 -2.371038,0.0641 -3.55557,0.0331 -0.460627,0.75246 -0.868998,1.37668 -0.739474,0.83327 -0.07992,0.0948 -0.16811,0.19862 -0.215722,0.25648 -0.169802,0.2066 -0.342405,0.41024 -0.519879,0.60624 -0.328848,0.36317 -0.615198,0.62697 -0.901774,0.86394 -0.01128,0.10751 -0.07747,0.23961 -0.178827,0.38289 2.1257,1.25112 3.837764,4.02501 -0.951323,1.55608 -1.015821,3.95941 -1.366312,8.46699 -2.595504,1.99665 -0.01316,0.0254 -0.02708,0.0514 -0.04269,0.0748 -1.183686,1.76671 -0.916403,1.41863 -2.001762,2.48262 0.42379,-0.49186 -0.05021,0.0627 -0.326516,0.34729 -0.09647,0.15821 -0.203518,0.33726 -0.294436,0.49702 -0.07766,0.40585 -0.322623,0.41015 -0.872608,0.14849 -0.01128,0.0958 -0.02802,0.24591 -0.03798,0.32521 0,0.0306 0.0019,0.0565 0.0019,0.0871 -9.97e-4,0.16372 -0.04438,0.32256 -0.06807,0.48352 -0.03573,0.2419 0.03347,-0.30717 0.066,-0.57065 -9.4e-5,-0.129 -0.0056,-0.22579 -0.0075,-0.34607 -0.05453,-0.0266 -0.09477,-0.0407 -0.155511,-0.0724 -0.01504,-0.002 -0.02839,-0.003 -0.04268,-0.005 -0.09647,0.34311 -0.1931,0.68608 -0.291521,1.02839 0.08631,0.38914 0.160963,0.78243 0.228358,1.17811 0.379788,-0.73166 0.310626,-0.48847 0.03197,0.17918 0.03441,0.2015 0.06751,0.40341 0.104927,0.60378 0.04099,1.95765 0.04945,1.85306 -0.0038,2.58693 0.08293,0.59016 0.192818,1.81003 0.196297,1.84325 0.147237,1.49894 -0.05754,3.00079 -0.02332,4.4989 0.02332,1.58851 0.01128,3.1765 0.0094,4.7652 0.02463,1.68425 0.01316,3.2331 -0.168109,4.91983 -0.04043,0.37638 -0.06732,0.76139 -0.16811,1.1192 -0.263804,0.93556 -0.613505,1.82836 -0.920239,2.74278 -1.342224,0.87624 -2.588377,2.08664 -3.959804,2.86183 -0.01692,0.072 -0.03291,0.13467 -0.05058,0.20494 -0.08086,0.67906 -0.160588,1.35799 -0.240995,2.03715 -0.251205,0.70331 -0.310475,0.855 -0.458652,1.26033 -0.0019,0.008 -0.0075,0.0239 -0.0094,0.0307 -0.04438,0.14073 -0.09327,0.27901 -0.139904,0.41847 -0.08781,0.42275 -0.252107,1.03464 -0.337196,1.34133 -0.06864,0.23862 -0.137271,0.47696 -0.206,0.71545 -4.89e-4,0.008 -0.0015,0.0164 -0.0019,0.0246 0.0075,-0.015 0.0094,-0.008 0.0056,0.0307 -0.0019,0.0185 -0.0075,0.0357 -0.01128,0.054 -0.0038,0.0655 -0.0056,0.13083 -0.01128,0.19635 -0.03592,0.33723 -0.06393,0.67655 -0.106808,1.01244 -0.03686,0.28707 -0.01899,1.10977 -0.132193,0.85658 -0.0019,-0.005 -0.0038,-0.0133 -0.0056,-0.0185 -0.02257,0.43761 -0.06375,0.87132 -0.157391,1.28733 -0.02896,0.94223 -0.144792,1.9973 -0.360513,2.75383 -0.0056,0.0185 -0.0075,0.0185 -0.0094,0.0159 -0.01316,0.12598 -0.02839,0.25216 -0.04268,0.37797 0.06487,-1.13092 -0.02426,0.57772 -0.291521,1.78312 -0.368844,1.66377 -0.528586,2.28284 -0.585957,2.40408 -0.0346,0.19927 -0.09421,0.50733 -0.172999,0.88603 0.01316,0.17438 -0.02821,0.34684 -0.106808,0.51788 -5.07e-4,0.003 -5.07e-4,0.003 -9.96e-4,0.005 -2.45e-4,0.001 2.44e-4,-0.005 0,-0.004 -0.363128,0.78798 -1.413116,1.55261 -0.675353,2.4053 0.109441,-0.50738 0.210081,-0.97238 0.310946,-1.28487 0.115646,-0.35862 -0.07146,0.77315 -0.160399,1.14374 -0.01881,0.0762 -0.0472,0.14867 -0.0739,0.22212 0.02313,0.0233 0.03911,0.0466 0.06506,0.0699 -0.143852,0.35959 -0.437724,1.45489 -0.43921,1.11675 -0.168297,0.63497 -0.375782,1.25648 -0.656886,1.74016 -0.191916,0.91628 -0.361642,1.80661 -0.736579,2.64461 -0.04231,0.45859 -0.100226,0.608 -0.537367,2.22982 -0.137271,0.50916 0.25914,-1.02531 0.388682,-1.53768 -0.177511,0.68374 -0.355925,1.36813 -0.533474,2.05187 -0.0094,0.025 -0.01128,0.0276 -0.01937,0.0503 -0.02275,0.13646 -0.04494,0.27313 -0.07089,0.40866 -0.124296,0.64833 -0.503426,2.01918 -0.594701,2.36971 -0.0585,0.16365 -0.100396,0.57372 -0.166154,0.62833 -0.05173,0.4779 -0.123976,0.96151 -0.254594,1.31187 -0.03274,0.19551 -0.03721,0.77107 -0.09814,0.5866 -0.0056,-0.0173 -0.003,-0.052 -0.0058,-0.0748 -0.08514,1.0155 -0.06653,1.09793 -0.41979,2.6397 -0.0058,0.91232 -0.05976,1.15658 -0.289581,2.59674 -0.0188,0.11423 -0.09242,0.44981 -0.08357,0.3338 0.02706,-0.35595 0.09289,-0.70624 0.138963,-1.05907 -0.11903,0.73061 -0.220494,1.46624 -0.357597,2.19178 -0.01279,0.0673 -0.04353,0.1882 -0.07191,0.29697 -9.95e-4,0.0209 2.4e-5,0.0418 -9.95e-4,0.0626 -0.04026,0.67846 -0.144849,1.66807 -0.327473,2.38812 -0.01692,0.0642 0.02886,-0.26638 0.01467,-0.20126 -0.04592,0.21724 -0.0856,0.43674 -0.127304,0.65532 0.0045,0.11174 0.01072,0.2233 0.0068,0.33503 -0.02572,0.68841 -0.07309,1.85907 -0.278885,2.75015 v 1.04188 3.69264 2.95877 3.04099 2.301 2.5722 c -1.8e-5,0.99914 -5.8e-5,1.9989 0,2.99804 0,0.89839 -3.23e-4,1.79653 0,2.69492 9.97e-4,0.73384 -9.94e-4,1.46772 -0.0021,2.20159 0.05028,0.13213 0.09846,0.26485 0.139922,0.40007 0.003,0.009 0.0068,0.0188 0.0098,0.0282 0.01561,0.0429 0.01091,0.0264 0.02721,0.0712 0.003,0.0237 0.0068,0.0474 0.0098,0.0712 0.0075,0.0286 0.01561,0.057 0.02234,0.0859 0.317086,0.42436 0.541335,0.78465 0.951328,1.6604 0.03673,0.0784 0.103442,0.23102 0.159366,0.35098 0.100508,0.16818 0.210697,0.35387 0.273052,0.45406 0.594755,0.95564 0.315105,0.54623 -0.09037,-0.054 0.0056,0.0128 0.01,0.0228 0.01561,0.0356 0.315155,0.50785 0.100509,0.17392 0.02527,0.054 0.05096,0.11827 0.07858,0.19426 0.108839,0.27981 0.096,0.13919 0.195638,0.27684 0.298322,0.4197 -0.01805,-0.0391 -0.03766,-0.0772 -0.0554,-0.11658 -0.05433,-0.12057 0.284508,0.42217 0.205037,0.32643 -0.03607,-0.0434 -0.09915,-0.13959 -0.149643,-0.20986 0.228832,0.49707 0.478493,0.97924 0.717137,1.46896 -0.241032,-0.39507 -0.348536,-0.57715 -0.543197,-0.89831 0.26292,0.47126 0.533795,0.93621 0.812379,1.39287 -0.05792,-0.13418 -0.118279,-0.26691 -0.173939,-0.40252 -0.108876,-0.26498 0.104739,0.1924 0.302202,0.61605 0.01504,0.0258 0.03084,0.0528 0.04663,0.0785 0.0056,0.008 0.0038,0.002 0.0056,0.006 -0.110757,-0.25889 -0.2211,-0.51835 -0.334282,-0.77558 -0.108124,-0.24589 0.424805,0.9025 0.334282,0.77558 0.05115,0.11962 0.103046,0.23891 0.15457,0.35835 -0.04701,-0.0977 -0.131441,-0.28088 -0.206978,-0.44302 -0.04325,-0.0705 -0.08518,-0.14282 -0.128244,-0.21354 0.148177,0.34385 0.302785,0.683 0.462545,1.01858 0.0094,0.0159 0.0267,0.049 0.03498,0.0626 -0.0038,-0.004 -0.01128,-0.0133 -0.01316,-0.0171 0.0038,0.006 0.0056,0.0121 0.0094,0.0185 0.0056,0.005 0.01316,0.0102 0.0188,0.0159 -0.06055,-0.15434 -0.126364,-0.31931 -0.159271,-0.42707 -0.0487,-0.1588 0.09064,0.19245 0.188512,0.45161 0.467603,0.43697 1.054783,1.64739 1.373062,2.31204 0.100603,0.11404 0.204345,0.2233 0.300266,0.34362 0.144228,0.18079 -0.03178,-0.0143 -0.270141,-0.28226 0.04889,0.10217 0.114517,0.23937 0.144792,0.29944 0.0075,0.0192 0.02369,0.0584 0.03404,0.0847 0.304027,0.41743 0.610798,0.83144 0.937709,1.21983 0.02219,0.0263 0.02275,0.0216 0.0252,0.0197 -0.214743,-0.34176 -0.440375,-0.67428 -0.658823,-1.01244 -0.193382,-0.29933 0.681464,0.99265 0.658823,1.01244 0.08368,0.13311 0.17093,0.26295 0.247802,0.40253 0.100038,0.18193 0.185973,0.3747 0.268204,0.57064 0.169802,0.0885 0.339867,0.17621 0.50918,0.2663 2.289804,1.21832 1.270203,0.72608 3.569184,1.70335 4.587544,1.95011 6.667268,5.56877 6.729247,8.75972 0.220573,0.0459 0.45429,0.0967 0.846376,0.17427 0.303969,0.15037 0.339679,0.16575 0.574298,0.28102 0.961327,-0.0803 1.740892,0.0897 2.763614,0.56696 0.130689,0.0197 0.251468,0.0309 0.401319,0.0675 0.906587,0.22145 1.382145,0.41856 1.809357,0.69582 0.3255,0.0895 0.649139,0.19143 0.972722,0.28962 0.148365,0.045 0.283473,0.1399 0.425613,0.20986 -1.617253,-0.54158 0.414971,0.13788 0.456716,0.1583 0.04137,0.0202 0.04381,0.0258 0.03103,0.0258 0.706342,0.0757 1.145382,0.2294 1.805484,0.46879 0.218411,-0.0154 0.435561,-0.0145 0.648143,0.043 0.535712,0.14498 1.059803,0.34936 1.578084,0.57801 0.370161,0.0204 0.739851,0.0646 1.109729,0.0945 0.298799,0.0779 0.599797,0.14538 0.896903,0.23318 0.579282,-0.0656 0.90136,-0.0912 1.571288,0.0135 h 16.581673 c 0.002,-3.2e-4 0.004,-5.6e-4 0.006,-0.001 0.19426,-0.0324 0.39355,-0.0157 0.59274,0.001 h 0.66661 c 0.51896,-0.0123 1.06436,-0.0545 1.5917,0 h 0.19338 c 0.7278,-0.18884 1.3728,-0.31613 2.12226,-0.29697 0.16792,0.003 0.90751,-0.008 1.34585,0.0307 0.62391,-0.1531 0.63743,-0.14049 2.0902,-0.26262 0.0835,-0.007 0.16755,0.0126 0.2507,0.0246 0.029,0.005 0.0701,-0.007 0.0856,0.0246 0.0113,0.0223 -0.0703,0.0485 -0.0496,0.0466 0.12504,-0.0112 0.24657,-0.0496 0.37023,-0.0748 1.09348,-0.23206 2.16596,-0.40572 3.27086,-0.55101 0.37666,-0.10159 0.60117,-0.14612 1.59655,-0.27612 0.0307,-0.004 0.0464,0.0713 0.0767,0.065 2.07814,-0.43201 -1.00785,0.0216 2.56053,-0.41724 0.21267,0.01 0.4248,0.0188 0.63744,0.0295 0.15795,0.008 0.31965,-0.0147 0.47422,0.027 0.0299,0.008 0.0293,0.014 0.0113,0.0197 0.21176,-0.0535 0.42374,-0.10606 0.63551,-0.15953 -0.13971,-0.0761 0.29615,-0.0903 0.44602,-0.12394 0.64034,-0.14375 0.75955,-0.16054 0.93481,-0.19146 0.16717,-0.0591 0.3142,-0.11287 0.99117,-0.31416 0.50423,-0.10758 0.58464,-0.11845 0.83861,-0.14113 0.20551,-0.0961 0.41136,-0.19053 0.61706,-0.28594 -0.18821,0.0936 -0.5539,0.26796 -0.5646,0.28103 0.002,0 0.0113,-0.003 0.0132,-0.003 0.41278,-0.17524 0.82037,-0.37113 1.23022,-0.55715 -0.14536,0.0665 -0.58332,0.25881 -0.43631,0.19882 3.36275,-1.37292 -1.19668,0.504 1.77536,-0.7535 0.10361,-0.0396 0.21051,-0.0651 0.3129,-0.10922 0.35647,-0.15367 0.69529,-0.55054 1.06599,-0.47246 0.51951,-0.28995 -0.009,0.12213 -0.82014,0.74491 0.19667,-0.0334 0.40574,-0.0527 0.61123,-0.0761 0.55433,-0.12363 1.48393,-0.44929 3.27473,-1.35728 0.35513,-0.18003 -0.76804,-0.0368 -1.14762,0.0246 -0.32898,0.0532 -0.64205,0.21102 -0.96298,0.31662 -0.12693,0.0796 -0.2413,0.20235 -0.37996,0.2393 -0.13389,0.0357 0.2434,-0.15735 0.36538,-0.23562 1.13555,-0.71661 0.77293,-0.51035 2.27386,-0.64551 0.001,-6e-4 0.002,-5.7e-4 0.004,-0.001 0.35614,-0.0321 0.8463,-0.0901 1.45955,-0.17794 0.006,-0.0238 0.008,-0.0509 0.015,-0.0736 -0.39242,-0.0369 -0.78257,-0.0524 -1.16706,0.0454 -0.0611,0.0422 -0.12336,0.0821 -0.18466,0.12394 0.0216,-0.0228 0.0429,-0.0468 0.0534,-0.0822 4.9e-4,-0.002 -4.3e-4,-0.002 0,-0.004 -0.12053,0.0394 -0.2405,0.0863 -0.35953,0.15341 0.11828,-0.0496 0.39571,-0.29143 0.35953,-0.15341 0.0436,-0.0143 0.0874,-0.0269 0.13126,-0.038 0.33759,-0.23303 0.67535,-0.46582 1.0242,-0.67004 0.53818,-0.31506 1.28298,-0.41343 1.98428,-0.46388 0.19099,-0.0559 0.37366,-0.11582 0.55779,-0.17794 0.031,-0.0135 0.19934,-0.0907 0.20989,-0.0945 -0.0301,0.0313 0.0538,-0.0549 0.004,-0.001 0.009,-0.003 -0.008,0.0159 -0.0169,0.0233 0.0316,-0.0119 0.0643,-0.023 0.0951,-0.0356 0.0739,-0.0635 0.1305,-0.11202 0.20697,-0.17794 -0.0865,0.0267 -0.173,0.053 -0.25946,0.0798 0.0918,-0.0347 0.19916,-0.0797 0.31484,-0.12762 0.39149,-0.3372 0.7274,-0.62418 0.50239,-0.39884 -0.11696,0.1171 -0.23905,0.22641 -0.3576,0.34116 0.0763,-0.0308 0.1322,-0.0498 0.17488,-0.0626 0.20628,-0.19378 0.40615,-0.31008 0.60053,-0.35098 0.32092,-0.23301 0.63835,-0.47424 0.95037,-0.72527 -0.10625,0.0239 -0.21253,0.0473 -0.31873,0.0712 -0.11527,0.0619 -0.24668,0.13641 -0.31971,0.16813 -0.0906,0.0393 0.17375,-0.10335 0.26043,-0.15462 0.0198,-0.005 0.0395,-0.009 0.0592,-0.0135 0.34071,-0.18298 0.72842,-0.40339 0.53737,-0.24544 -0.072,0.0596 -0.14593,0.11584 -0.21864,0.17426 0.63282,-0.14244 1.26593,-0.28464 1.89875,-0.42707 0.0453,-0.041 0.28567,-0.15431 0.48586,-0.23686 -0.23251,0.0173 -0.46414,0.0508 -0.69477,0.0921 -0.0869,0.0299 -0.17413,0.056 -0.2614,0.0834 -0.0831,0.0261 0.16397,-0.067 0.24876,-0.0822 0.004,-6.3e-4 0.009,-5.3e-4 0.0132,-0.001 0.072,-0.0247 0.1431,-0.0546 0.2167,-0.07 0.20751,-0.0432 0.52278,-0.0947 0.82695,-0.14726 1.01686,-0.30409 1.77143,-0.51841 2.73737,-0.49579 0.25194,-0.0114 0.50152,-0.007 0.75115,-0.005 0.44696,-0.26301 0.91885,-0.45067 1.49841,-0.52401 0.008,-0.35801 0.1446,-1.02075 0.51211,-1.97456 0.12035,-1.77023 0.33101,-3.68146 0.41104,-2.1206 0.0213,-0.064 0.0438,-0.1825 0.066,-0.28961 3e-5,-0.60864 -8e-5,-1.21743 0,-1.82607 -5.1e-4,-1.0654 -0.004,-2.13146 0.002,-3.19685 0.004,-0.87381 -0.0207,-1.74602 0.009,-2.61884 0.0534,-0.73299 0.11527,-1.45008 -0.0448,-2.17827 -0.0624,-0.67848 -0.14085,-1.35421 -0.18748,-2.03469 -0.0643,-0.93796 0.0449,-1.89637 9.9e-4,-2.83605 0.004,-0.67688 -0.004,-1.3517 -0.0188,-2.02856 -0.006,-0.0245 -0.015,-0.0477 -0.0205,-0.0724 -0.37224,-1.69948 -0.44767,-2.95296 -0.4091,-4.59831 v -1.82924 -1.70458 -1.67267 -1.97333 -1.57326 -2.26418 -2.28259 -1.97946 -2.17091 c 0,-0.62609 -2e-5,-1.25275 0,-1.87884 -4e-5,-0.95521 -2.6e-4,-1.9103 0,-2.86551 0,-0.63206 6e-5,-1.26395 -0.001,-1.89601 0.001,-0.46458 0.0113,-0.92974 -0.004,-1.39409 -0.009,-0.54317 2.8e-4,-1.07763 0.0203,-1.615 -0.19752,-0.89509 -0.28972,-1.58306 -0.23808,-2.82132 0.009,-0.12394 0.019,-0.24788 0.0282,-0.37184 -0.20418,-0.93346 -0.28129,-1.45529 -0.2507,-2.8066 0.002,-0.54339 0.004,-1.08651 -0.0113,-1.62972 3.9e-4,-0.0453 0.004,-0.31807 0.008,-0.55714 0.006,-0.42339 0.0169,-0.89751 0.0427,-0.92899 -0.0869,-0.21891 -0.1115,-0.29101 -0.206,-0.52769 -0.10549,-0.26452 -0.0801,0.0279 -0.015,0.45774 -0.0886,-0.49636 -0.1777,-0.99224 -0.26627,-1.48859 -0.004,-0.50032 -0.008,-1.00065 0.004,-1.50086 0.002,-0.0385 0.002,-0.0769 0.004,-0.11535 -0.0276,-0.16433 -0.05,-0.32943 -0.0515,-0.49701 -0.0132,-1.79676 0.0747,-3.11564 0.61802,-4.52344 0.009,-0.0506 0.0132,-0.0787 0.0214,-0.1313 -0.80503,-0.75418 -1.61039,-1.49354 -2.41572,-2.03347 3.07166,6.85292 0.49152,4.03886 -0.21281,-0.13377 -0.0869,-0.0543 -0.17356,-0.11427 -0.26043,-0.16322 -0.0314,-0.30678 -0.0536,-0.61446 -0.0767,-0.92162 -0.004,-0.009 -0.008,-0.0145 -0.0113,-0.0233 -0.21995,-0.46851 0.006,0.7822 0.19921,1.58431 0.0592,0.19891 0.11433,0.39995 0.17582,0.59764 -0.0389,-0.0652 -0.10511,-0.30406 -0.17582,-0.59764 -0.4622,-1.55282 -0.84483,-3.14231 -0.95521,-4.8057 -0.13276,-0.56351 -0.28803,-1.11993 -0.39841,-1.69107 -0.26523,-1.37243 -0.35158,-2.21077 -0.41201,-3.59937 -0.002,-0.032 0.0384,0.0449 0.0476,0.0748 0.0951,0.31639 0.1824,0.63703 0.27208,0.95599 -0.24983,-1.78195 -0.39658,-2.50244 -0.48976,-2.95632 0.001,0.0466 -9.9e-4,0.0934 0,0.1399 0.006,0.19604 0.12073,0.38209 0.0951,0.57556 -0.0237,0.17896 -0.0675,-0.35254 -0.10098,-0.52893 -0.0788,-0.46045 -0.16528,-0.91932 -0.23612,-1.38182 -0.0308,-0.20107 -0.0786,-0.40298 -0.069,-0.60746 0.004,-0.0674 0.10305,0.23347 0.0893,0.16814 -0.30516,-1.45848 -0.8548,-2.83191 -1.10682,-4.31115 -0.0656,-0.42699 -0.11978,-0.85723 -0.17882,-1.2861 -0.0231,-0.006 -0.0468,-0.0102 -0.07,-0.0159 -0.45331,-0.10573 -0.22031,-1.13064 -0.33038,-1.69599 0.0169,-0.2936 0.0342,-0.58749 0.0506,-0.88113 -0.0408,-0.3127 -0.0811,-0.62532 -0.12336,-0.93757 -0.015,-0.0374 -0.0318,-0.0774 -0.0399,-0.10309 -0.12543,-0.40075 -0.2133,-0.81952 -0.31484,-1.23088 -0.14554,-0.58963 -0.28424,-1.18119 -0.42659,-1.77207 -0.25168,-1.47231 -0.6516,-3.00382 -0.58498,-4.53694 0.0169,-0.4066 -0.057,-0.95394 -0.0543,-1.42355 -0.77574,-1.19913 -1.01839,-2.87878 -1.17093,-4.41791 -0.0893,-0.90176 0.0207,-1.93805 0.25265,-2.95877 -0.009,-0.0325 -0.015,-0.0493 -0.0243,-0.0822 0.001,-0.36051 -0.006,-0.72153 -0.0113,-1.08238 -1.53594,-1.03147 -2.86433,-2.52926 -3.72765,-4.48061 -0.78359,-1.77108 -0.92172,-2.78193 -1.02518,-4.23505 -0.24903,-0.26266 -0.42313,-0.64704 -0.53348,-1.12902 -4.23902,-0.18298 -6.70657,-2.81163 -7.20347,-5.798502 -0.60664,-3e-6 -1.21326,-1.7e-5 -1.82006,0 -1.17862,4.2e-5 -2.35748,4.06e-4 -3.53612,0 -0.81862,1.09e-4 -1.6379,0.0028 -2.45654,0 -0.82329,-0.0033 -1.64601,-0.0052 -2.46918,0.01591 -0.45976,-0.0069 -0.94348,0.0133 -1.40123,-0.06381 -0.0393,-0.0067 0.0792,-0.0067 0.11846,-0.01472 0.79723,-0.166661 0.95086,-0.217196 1.23508,-0.358341 -0.0384,-0.0228 -0.0895,-0.07044 -0.2993,-0.07609 z m 29.55818,56.055869 c 0.0711,0.0444 0.14178,0.0861 0.21281,0.13377 -0.0923,-0.20615 -0.18278,-0.40922 -0.28568,-0.63323 0.0213,0.1683 0.0451,0.33465 0.073,0.49946 z m -6.06653,75.02342 c -0.18616,0.13512 -0.37531,0.26241 -0.5636,0.3927 0.35181,-0.10739 0.70352,-0.21399 1.05531,-0.32153 -0.58282,0.19115 -0.89339,0.28332 -1.07669,0.33748 -0.0701,0.0485 -0.14141,0.0944 -0.21183,0.14237 -0.0936,0.10947 -0.17601,0.22263 -0.25072,0.33748 0.0888,0.004 0.17338,0.007 0.27597,0.0123 -0.0658,0.007 -0.21335,0.0145 -0.29539,0.0197 -0.50331,0.79451 -0.56873,1.71383 -0.36441,2.70965 0.0448,6.3e-4 0.0649,-0.002 0.11471,0 0.10568,-0.0825 0.21499,-0.17664 0.31386,-0.24667 0.29709,-0.21045 0.61757,-0.38911 0.9523,-0.46879 0.67375,-0.16037 1.35777,-0.23777 2.04161,-0.31171 0.0382,-0.0166 0.0765,-0.0325 0.1147,-0.0491 -0.59566,-1.63509 -1.29487,-2.72452 -2.10573,-2.5538 z m -1.31669,3.63004 c -0.004,0.003 -0.008,0.007 -0.0113,0.01 0.0269,-0.001 0.0536,-0.006 0.0807,-0.007 -0.0354,-0.001 -0.0352,-0.001 -0.069,-0.003 z m -0.0113,0.01 c -0.0327,0.002 -0.0654,0.006 -0.0982,0.009 0.004,0.019 0.009,0.0386 0.0132,0.0577 0.0286,-0.0223 0.0568,-0.0438 0.0856,-0.0662 z m 0.26139,-2.71946 c 0.008,-0.0107 0.0132,-0.0214 0.0194,-0.0319 -0.0718,-0.003 -0.15043,-0.007 -0.22155,-0.004 -0.0188,0.0169 -0.0361,0.0348 -0.0543,0.0515 0.0814,-0.004 0.18522,-0.0116 0.25652,-0.0159 z m -0.25654,0.0159 c -0.015,6.2e-4 -0.0322,0.003 -0.0476,0.004 -0.079,0.0518 -0.15607,0.10819 -0.23516,0.15953 -0.008,0.005 0.0228,-0.0269 0.0233,-0.0295 -0.0515,0.0342 -0.10681,0.0705 -0.16717,0.10922 -0.34295,0.35427 -0.82026,0.79348 -0.58109,0.60869 0.34479,-0.26644 0.67904,-0.55363 1.00768,-0.85168 z m -0.25944,0.13377 c 0.0609,-0.0404 0.14742,-0.0945 0.19725,-0.12886 -0.0288,0.001 -0.0587,0.005 -0.0884,0.006 -0.009,0.008 -0.0252,0.0209 -0.034,0.0282 -0.0513,0.0571 -0.0733,0.0859 -0.0748,0.0945 z m 0.10887,-0.12273 c 0.0169,-0.0138 0.0416,-0.0364 0.0592,-0.0515 -0.008,0.001 -0.0151,0.001 -0.0233,0.003 -0.015,0.0166 -0.0323,0.0334 -0.0466,0.0491 0.004,-1.5e-4 0.008,1.8e-4 0.0113,0 z m 0.0592,-0.0515 c 0.0359,-0.005 0.0696,-0.005 0.10398,-0.007 0.0739,-0.0523 0.12656,-0.093 0.17582,-0.13131 0.0489,-0.0454 0.0963,-0.0928 0.1448,-0.13866 -0.0609,0.0284 -0.12787,0.0526 -0.19241,0.0785 -0.0827,0.0712 -0.16303,0.13999 -0.23225,0.19879 z m 0.42463,-0.27735 c 0.0132,-0.006 0.0245,-0.0121 0.0369,-0.0185 0.0598,-0.0653 0.14554,-0.11743 0.25461,-0.15218 0.008,-0.007 0.0132,-0.0128 0.0205,-0.0197 -0.0551,0.0169 -0.11019,0.0334 -0.16528,0.0503 -0.0487,0.0469 -0.0976,0.0935 -0.14668,0.1399 z m 0.0369,-0.0185 c -0.0333,0.0363 -0.0701,0.0703 -0.18165,0.15709 -0.028,0.0261 -0.0553,0.0538 -0.0835,0.0798 0.14141,-0.0936 0.28116,-0.19032 0.42174,-0.28593 0.006,-0.006 0.009,-0.0121 0.015,-0.0185 0.0194,-0.0223 0.038,-0.0368 0.0574,-0.0577 -0.072,0.0445 -0.14818,0.0865 -0.22836,0.12517 z m -0.26527,0.23686 c -0.0245,0.0164 -0.0483,0.0341 -0.073,0.0503 0.008,-6.3e-4 0.015,-0.002 0.0224,-0.003 0.0169,-0.0157 0.0335,-0.0322 0.0506,-0.0479 z m 0.63357,-0.42829 c 0.008,-0.005 0.015,-0.0109 0.0214,-0.0159 -0.0218,0.007 -0.0434,0.0142 -0.0651,0.0209 -0.0113,0.008 -0.0242,0.0143 -0.0359,0.0221 0.0308,-0.009 0.0329,-0.0133 0.0797,-0.027 z m -4.76442,1.91565 c -0.0733,0.0297 -0.15419,0.0516 -0.21474,0.0982 -0.0395,0.0303 -0.14442,0.1426 -0.10305,0.11657 0.10756,-0.0677 0.21172,-0.14339 0.31775,-0.21475 z m -75.308329,-14.3678 c -0.0094,-0.009 -0.01937,-0.0162 -0.02915,-0.0246 0.01692,0.0418 0.02614,0.0716 0.04381,0.11537 0.0094,0.0195 0.01692,0.0396 0.02727,0.0589 0.0075,0.009 0.01316,0.0171 0.0205,0.0258 0.0038,-0.001 -0.02539,-0.0781 -0.06224,-0.17549 z m -1.352662,-2.51575 c -0.144567,-0.25913 -0.283725,-0.52247 -0.420759,-0.78786 -0.0092,0.0112 -0.0289,0.005 -0.06997,-0.0393 -0.03029,-0.0326 -0.05098,-0.0753 -0.07774,-0.11169 0.157128,0.26176 0.364927,0.603 0.568466,0.93881 z m -0.420759,-0.78786 c 0.01335,-0.0159 -0.0173,-0.10566 -0.05151,-0.20248 -0.129316,-0.18746 -0.217066,-0.30945 -0.144792,-0.16321 0.06175,0.12496 0.132589,0.24231 0.19629,0.3657 z m -0.160343,-0.48229 c -0.0083,-0.019 -0.01674,-0.0344 -0.02527,-0.054 -0.03095,-0.0499 -0.04573,-0.0739 -0.0758,-0.12273 -0.07217,-0.10686 -0.1324,-0.19504 -0.208922,-0.30802 0.07836,0.12315 0.291074,0.45458 0.30998,0.48474 z m 3.915117,-53.24559 c -0.02708,-0.0272 -0.0534,-0.054 -0.07672,-0.081 -0.04381,0.20278 -0.09233,0.41387 -0.141783,0.62955 0.0739,-0.1817 0.151562,-0.36321 0.218636,-0.54856 z M 79.23288,104.68898 c 0.066,-0.25744 0.136894,-0.50797 0.208914,-0.75595 -0.184657,0.17381 -0.361623,0.33461 -0.488777,0.45161 -0.03573,0.0329 -0.07522,0.0582 -0.111697,0.0896 0.122979,0.0654 0.275293,0.15478 0.391616,0.21475 z m 56.99507,-6.421916 c 0.0151,0.05384 0.0305,0.105748 0.0457,0.159537 0.0545,0.0114 0.10041,0.0038 0.13012,-0.03804 -0.0839,-0.05963 -0.10906,-0.07492 -0.17582,-0.121493 z m -25.13873,0.141132 c -0.27458,0.09563 -0.4368,0.164809 -0.62289,0.239306 0.0795,-0.02019 0.16266,-0.03954 0.24195,-0.06873 0.12957,-0.04771 0.51112,-0.215938 0.38094,-0.17058 z m -29.045115,1.761024 c -0.419126,0.55758 -0.807207,1.15294 -1.153449,1.77698 -0.08763,0.15785 0.555683,-0.47713 1.161215,-1.08361 0.07447,-0.20568 0.205116,-0.44053 0.358577,-0.68232 -0.122039,-0.005 -0.244266,-0.004 -0.366343,-0.0112 z m -0.453801,0.4013 c -0.0056,0.002 -0.02351,0.026 -0.05547,0.0761 -0.0038,0.005 -0.0056,0.0116 -0.0094,0.0171 0.0075,-2.2e-4 0.01504,-6.9e-4 0.02144,0 0.0038,-0.0128 0.0472,-0.0944 0.04381,-0.0933 z m 0.450886,0.32275 c -3.19e-4,3.1e-4 -0.132005,0.13686 -0.16134,0.1669 0.0519,-0.0519 0.104364,-0.10345 0.157391,-0.15339 0.0015,-0.004 0.0019,-0.009 0.0038,-0.0135 z m -0.609274,0.0183 c -0.03103,0.0334 -0.07541,0.073 -0.113765,0.11045 -0.260702,0.45124 -0.504291,0.91892 -0.757959,1.37692 0.101166,-0.13252 0.206413,-0.28112 0.317753,-0.45407 0.155134,-0.24084 0.396524,-0.70802 0.553896,-1.0333 z m -2.612992,3.36743 c -0.01937,0.0268 -0.07033,0.093 -0.09722,0.12885 0.01128,0.006 0.02595,0.0145 0.03798,0.0209 0.0056,-0.008 0.01316,-0.0159 0.0188,-0.0233 0.03422,-0.0603 0.02539,-0.0476 0.04758,-0.0871 -0.0038,-0.0119 -0.0075,-0.0216 -0.0075,-0.0393 z m -2.313704,1.68003 c -0.0361,0.0204 -0.07277,0.0407 -0.108876,0.0614 -0.250623,0.14334 -0.126364,0.0932 0.114705,-0.0282 -0.0019,-0.0104 -0.0038,-0.0226 -0.0056,-0.0331 z m -8.633847,32.51702 c -0.0019,0.001 -0.0056,0.003 -0.0075,0.004 -0.0056,0.0437 -0.0094,0.0875 -0.01504,0.1313 0.0075,-0.0452 0.01504,-0.0901 0.02332,-0.13498 z m -0.03986,0.23316 c -0.08932,0.35528 -0.181648,0.71335 -0.251675,1.02839 -0.04212,0.18967 0.129373,-0.3612 0.171118,-0.55101 0.03441,-0.15688 0.05416,-0.31795 0.08067,-0.47738 z m 78.787167,0.62464 c 0.0207,-0.14959 -0.067,0.29504 -0.073,0.4467 -0.001,0.0199 -0.001,0.0401 -0.002,0.0601 0.0276,-0.18127 0.038,-0.24078 0.0748,-0.50683 z m -81.695577,13.89801 c -0.02727,0.36202 -0.03949,0.5648 -0.05434,0.78664 0.0019,-0.0145 0.0094,-0.066 0.01128,-0.0749 0.02595,-0.23567 0.02877,-0.47456 0.04381,-0.71178 z m 85.804047,7.75833 c 0.004,0.0258 0.006,0.0517 0.009,0.0773 0.006,0.0462 0.0355,0.18241 0.0291,0.13622 -0.009,-0.0715 -0.0252,-0.14246 -0.038,-0.21354 z m -88.501564,2.19177 c -0.04607,0.47648 -0.06356,0.729 -0.08255,0.97931 0.0038,-0.0181 0.0094,-0.0357 0.01128,-0.054 0.04889,-0.30406 0.100602,-1.23328 0.07089,-0.92531 z m 88.917474,0.55715 c -0.006,0.0675 -0.0239,0.17393 -0.0188,0.22948 0.0451,0.47301 0.0314,0.96716 0.1604,1.41496 0.006,0.0221 0.015,0.043 0.0214,0.065 0.063,0.15607 0.12185,0.3144 0.15833,0.48107 0.23334,0.64838 0.52392,1.26566 0.77253,1.90583 0.91938,1.39795 1.32594,1.99944 -1.09416,-4.09638 z m -90.462823,5.94588 c -0.01895,0.14695 -0.03915,0.37831 -0.05636,0.57064 0.01034,-0.0346 0.02418,-0.0693 0.02917,-0.10308 0.02179,-0.15372 0.04697,-0.6217 0.02721,-0.46757 z m 90.710323,0.19267 c 0.0278,0.66979 0.12128,1.30465 0.41589,1.92792 -0.17751,-0.87138 -0.30786,-1.44663 -0.41589,-1.92792 z m 0.30707,3.61655 c 0.0169,0.14132 0.0352,0.28302 0.0506,0.4246 0.073,0.2361 0.14517,0.4723 0.21864,0.70809 -0.0989,-0.42333 -0.1918,-0.81209 -0.26916,-1.13269 z m -92.666424,6.49801 c -0.03059,0.16034 -0.06194,0.32035 -0.09135,0.48105 -0.0292,0.15923 0.07665,-0.28618 0.0962,-0.46633 -0.0045,0.006 -0.0055,0.001 -0.0049,-0.0147 z m -0.629684,29.49198 c -6e-5,0.0413 7e-5,0.0826 0,0.12394 0.02294,0.0296 0.05397,0.0699 0.07482,0.0969 -0.02463,-0.07 -0.04861,-0.14536 -0.07482,-0.22091 z m 0,0.45774 c -4.98e-4,0.26262 -1.24e-4,0.52525 -9.95e-4,0.78786 -3.5e-5,0.89953 0.01034,1.79927 0.0051,2.69861 0.3157,-0.2035 0.495677,-0.62633 0.489755,-1.35115 -0.06218,-0.43681 -0.120158,-0.87503 -0.176853,-1.3131 -0.08548,-0.2849 -0.197952,-0.55535 -0.316787,-0.82222 z m 0.316785,0.82222 c 0.01015,0.034 0.02373,0.0662 0.03304,0.10062 0.02815,0.10421 0.05592,0.27383 0.08259,0.44057 -0.03537,-0.26055 -0.09237,-0.55525 -0.160325,-0.86886 0.0141,0.10934 0.0305,0.21832 0.04468,0.32767 z m 0.115645,0.54119 c 0.03906,0.28766 0.05923,0.54467 0.06123,0.77191 0.0227,0.15925 0.04084,0.31972 0.0651,0.47861 0.06905,0.45206 -0.01486,-0.5534 -0.126327,-1.25052 z m -0.06801,-0.76209 c 0.779567,1.21589 0.502239,0.78632 0.755038,1.18303 -0.01542,-0.048 -0.03174,-0.095 -0.04761,-0.14237 -0.24147,-0.34041 -0.470576,-0.6949 -0.707426,-1.04066 z m 0.133133,0.34362 c 0.01711,0.0701 0.290059,0.55201 0.882336,1.54259 -0.09914,-0.21288 -0.177305,-0.44559 -0.252649,-0.6811 -0.34425,-0.50616 -0.65128,-0.95054 -0.629687,-0.86149 z m 1.799643,3.8129 c 0.0019,0.007 0.02163,0.0387 0.06318,0.0982 0.211415,0.30294 0.436388,0.59088 0.660779,0.87868 -0.01316,-0.0406 -0.02651,-0.081 -0.03987,-0.12149 -0.344042,-0.43991 -0.69559,-0.88992 -0.684097,-0.85536 z m 1.675284,2.78451 c 0.21764,0.26782 0.447897,0.51986 0.677289,0.7719 -0.01692,-0.0357 -0.03498,-0.0713 -0.05246,-0.10677 -0.224183,-0.22332 -0.775428,-0.85395 -0.624825,-0.66513 z m 0.327475,0.41234 c 0.175631,0.23344 0.347558,0.47163 0.51986,0.70931 -0.04475,-0.0926 -0.09026,-0.18468 -0.135014,-0.27734 -0.141783,-0.15989 -0.29846,-0.33716 -0.384809,-0.43197 z m 89.712333,7.29445 c 0.008,-0.0239 -0.24613,0.14885 -0.50823,0.32766 -0.0261,0.0402 -0.051,0.0832 -0.0767,0.12394 0.0205,1.4e-4 0.0404,-3.7e-4 0.0613,0 0.18653,-0.16025 0.25131,-0.2081 0.47324,-0.40129 0.0329,-0.0286 0.0485,-0.0453 0.0506,-0.0503 z m -1.375,0.96581 c -0.002,0.002 -0.004,0.002 -0.006,0.004 -0.004,0.005 -0.006,0.008 -0.009,0.0123 -9.9e-4,0.004 -0.002,0.007 -0.004,0.0112 0.006,-0.007 0.0132,-0.0202 0.0169,-0.027 z m -0.0169,0.027 c -0.0169,0.026 -0.0463,0.0684 -0.0651,0.0969 0.0113,0.001 0.0226,0.003 0.034,0.004 0.0113,-0.0334 0.0203,-0.0675 0.031,-0.10062 z m -0.0651,0.0969 c -10e-4,-2.1e-4 -0.004,2e-4 -0.006,0 -0.0169,0.0233 -0.0378,0.0565 -0.0555,0.0822 0.002,0 0.004,-0.001 0.008,-0.001 0.0169,-0.0255 0.0378,-0.0573 0.0534,-0.081 z m -0.0534,0.081 c -0.0553,0.0837 -0.10625,0.16182 -0.17488,0.2663 0.0417,-0.034 0.13388,-0.11437 0.17976,-0.15217 0.0213,-0.0354 0.035,-0.0632 0.0543,-0.0969 0.002,-0.007 0.004,-0.014 0.006,-0.0209 -0.0218,10e-4 -0.0434,0.003 -0.0651,0.004 z m -0.17488,0.2663 c -0.006,0.005 -0.0203,0.0171 -0.0261,0.0221 -0.009,0.0133 -0.015,0.0221 -0.0233,0.0356 0.008,-0.005 0.015,-0.0109 0.0224,-0.0159 0.0113,-0.0169 0.0169,-0.0254 0.0273,-0.0417 z m -0.0273,0.0417 c -0.22181,0.33767 -0.173,0.25498 -0.54903,0.83204 -0.16792,0.25766 0.19207,-0.30877 0.52667,-0.81609 -0.0335,0.0216 -0.066,0.0451 -0.0991,0.0675 0.0261,-0.0211 0.0944,-0.0803 0.12242,-0.10309 0.0718,-0.1085 0.13276,-0.19698 0.19434,-0.28716 -0.0412,0.002 -0.0822,0.005 -0.12335,0.006 -0.53707,0.45432 -1.1562,1.09698 -0.65495,0.74123 -0.0291,0.0256 -0.0598,0.0481 -0.0884,0.0748 -0.44271,0.41376 -1.2203,1.737 -1.43719,2.24086 0.0498,-0.0183 0.098,-0.0423 0.14874,-0.0565 0.025,-0.008 0.0498,-0.0185 0.0748,-0.027 0.30941,-0.36114 0.59531,-0.69713 0.84249,-0.9928 0.32232,-0.48545 0.8129,-1.17115 1.17774,-1.75735 -0.0446,0.0269 -0.0912,0.0493 -0.13501,0.0773 z m 0.2507,-0.38902 c 0.0213,-0.0307 0.0547,-0.0825 0.073,-0.10801 9.9e-4,-0.003 9.9e-4,-0.005 0.002,-0.007 -0.0444,0.0333 -0.0905,0.0712 -0.13896,0.11045 0.0214,0.003 0.0427,0.003 0.0641,0.005 z m 0.008,0.10677 c -0.0169,0.0279 -0.0312,0.056 -0.0466,0.0834 0.008,-0.006 0.0209,-0.0171 0.0282,-0.0233 0.006,-0.0202 0.0132,-0.04 0.0188,-0.0601 z m -0.0506,0.16445 c -0.0196,0.0114 -0.0399,0.0214 -0.0592,0.0331 -0.0972,0.18324 -0.18653,0.3806 -0.27499,0.64183 0.0985,-0.12527 0.1619,-0.2119 0.24002,-0.31539 0.0305,-0.12057 0.0611,-0.24101 0.0942,-0.35957 z m -4.12694,0.0515 c 0.37144,-0.0618 0.44532,-0.0718 -0.39453,0.0601 -0.0113,0.005 -0.0239,0.0121 -0.0359,0.0171 0.15382,-0.0262 0.31531,-0.0581 0.43047,-0.0773 z m -0.75311,0.22582 c -0.16942,0.0806 -0.34127,0.15104 -0.51598,0.20739 0.28565,-0.0643 0.57144,-0.12838 0.85707,-0.19267 -0.11357,-0.005 -0.22743,-0.0121 -0.34109,-0.0147 z m 2.51194,0.20986 c -0.0444,0.0228 -0.0901,0.0421 -0.13407,0.0663 -0.22682,0.12427 -0.825,0.6883 -0.61415,0.52524 0.2777,-0.21475 0.508,-0.39975 0.74824,-0.59151 z m -7.45223,2.07887 c -0.0188,0.003 -0.0402,0.01 -0.0592,0.0135 -0.002,0.003 5.1e-4,3.7e-4 -0.002,0.004 -0.008,0.009 -0.0239,0.0245 -0.0322,0.0344 0.015,-6.3e-4 0.0308,-0.002 0.0466,-0.003 0.0391,-0.0403 0.0218,-0.0235 0.0466,-0.0491 z m -0.0933,0.0197 c -0.0352,0.007 -0.0692,0.0135 -0.1068,0.0233 -0.006,0.003 -0.0256,0.014 -0.031,0.0171 0.035,-0.002 0.0632,-0.005 0.0972,-0.006 0.0132,-0.0112 0.0301,-0.0262 0.0408,-0.0344 z m 3.13968,1.84938 c -0.0218,0.006 -0.0442,0.008 -0.066,0.0147 -0.0867,0.0241 -0.33404,0.15436 -0.24974,0.11904 0.10512,-0.044 0.21081,-0.0883 0.31582,-0.13377 z m -67.782267,1.36342 c -0.03949,0.002 -0.01918,0.037 -0.115646,0.0871 0.0094,0.008 0.03253,0.0257 0.03592,0.0282 0.113389,-0.0226 0.230878,-0.0487 0.338174,-0.0663 -0.02952,-0.005 -0.246692,-0.0497 -0.258482,-0.0491 z m -0.122416,0.0908 c -0.04739,0.0235 -0.114141,0.0494 -0.236124,0.0785 0.09647,-0.0216 0.182025,-0.0356 0.274015,-0.054 -0.0075,-0.005 -0.02426,-0.0154 -0.03798,-0.0246 z m 1.809358,0.31416 c 0.09797,0.0474 0.320385,0.15766 0.393571,0.19266 0.0075,-0.001 0.01504,-0.003 0.02332,-0.004 -0.160775,-0.0779 -0.256244,-0.11879 -0.416888,-0.18899 z m -0.100039,0.2798 c -0.01128,-0.002 -0.04701,0.0143 -0.03498,0.0123 0.0188,-0.003 0.0331,-0.007 0.05152,-0.01 -0.0056,-6.3e-4 -0.01128,-0.002 -0.01692,-0.003 z m 52.661154,0.054 c -0.0254,0.004 -0.0715,0.006 -0.0923,0.01 -0.13689,0.0258 -0.27046,0.0725 -0.40425,0.11782 0.0521,-0.005 0.2686,-0.0299 0.33137,-0.0356 0.0562,-0.0296 0.10756,-0.0636 0.1651,-0.0921 z m -0.96785,0.29452 c -0.0664,0.0256 -0.13257,0.0521 -0.19921,0.0761 -0.0346,0.0123 -0.13013,0.0765 -0.0963,0.0614 0.0989,-0.0444 0.1968,-0.092 0.29541,-0.13745 z m -46.338079,0.74614 c 0.160964,0.0613 0.321947,0.12282 0.482967,0.18407 4.89e-4,2.2e-4 0.0015,-2.3e-4 0.0019,0 0.088,0.007 0.147049,0.0188 0.225444,0.027 -0.119783,-0.0263 -0.537405,-0.16483 -0.710347,-0.21107 z m 42.807759,0.0356 c -0.0684,0.0178 -0.28981,0.0334 -0.37509,0.0798 -0.0248,0.0135 0.0536,-0.003 0.0807,-0.005 0.0982,-0.0247 0.19628,-0.0501 0.29444,-0.0748 z m -41.279223,0.54619 c 0.139903,0.0532 0.279881,0.10632 0.419803,0.15954 0.0038,-6.3e-4 0.0075,-5.7e-4 0.01128,-10e-4 0.0056,-0.005 -0.15175,-0.0811 -0.227399,-0.12149 -0.0677,-0.0123 -0.13539,-0.0244 -0.203085,-0.0368 z m 35.898743,0.0123 c -0.15588,0.0264 -0.60997,0.10059 -0.42561,0.1129 0.22823,-0.0637 0.29628,-0.0776 0.42561,-0.1129 z m -34.051477,0.80872 c -0.03648,-0.009 -0.147801,0.0273 -0.110756,0.0221 0.04062,-0.006 0.08105,-0.0126 0.121475,-0.0197 -0.0038,-0.001 -0.0075,-0.002 -0.01128,-0.003 z m 27.826567,0.027 c -0.46926,0.0164 -0.28889,0.0384 -0.19047,0.054 0.0953,-0.0233 0.13238,-0.0326 0.20893,-0.0515 -0.004,0 -0.0132,-0.003 -0.0188,-0.003 z m -56.757973,0.0307 v 0.13869 c 0.009,0.0192 0.01636,0.0269 0.02527,0.0454 h 0.07093 c -0.0321,-0.0615 -0.06523,-0.12301 -0.0962,-0.18407 z"
       inkscape:connector-curvature="0" />
    <path
       style="display:inline;opacity:0.98999999;fill:none;fill-opacity:1;stroke:#2f2f2f;stroke-width:11.66563225;stroke-miterlimit:4;stroke-dasharray:none;stroke-opacity:1"
       d="m 156.90496,194.93861 c 0.42855,14.43864 -6.45922,28.25284 -16.67788,34.55195 -14.37823,9.13179 -31.21182,9.78716 -46.888293,7.08119 -13.306611,-2.44809 -27.570205,-11.11057 -32.530241,-27.97379 -5.054992,-15.95425 -0.100979,-32.99339 4.11979,-48.24965 4.645912,-16.82951 10.678557,-33.33274 12.422626,-51.1767 2.38958,-9.859469 11.705323,-11.975237 18.743295,-12.97503 11.401033,-0.95831 23.242633,-1.48723 34.227833,3.083689 6.25284,2.158651 9.36875,10.032461 8.86758,17.767241 3.04387,25.70725 13.95218,48.6865 17.51843,74.21291 0.11922,1.22007 0.19633,2.44826 0.19686,3.67819 z"
       id="path3713-1"
       inkscape:connector-curvature="0" />
    <path
       style="fill:none;stroke:none;stroke-width:0.26458332px;stroke-linecap:butt;stroke-linejoin:miter;stroke-opacity:1"
       d="m 59.115193,179.73878 c 0.135895,-13.8438 4.679005,-0.31186 6.879449,-1.04534 0.267269,-0.0891 0.503968,-0.25198 0.755952,-0.37798 0.251984,-0.12599 0.521541,-0.2217 0.755952,-0.37797 0.148256,-0.0988 0.229721,-0.27914 0.377978,-0.37798 0.23441,-0.15627 0.503968,-0.25198 0.755952,-0.37797 0.251984,-0.126 0.488682,-0.28889 0.755951,-0.37798 0.119528,-0.0398 0.288888,0.0891 0.377976,0 0.08909,-0.0891 -0.08909,-0.28888 0,-0.37798 0.178181,-0.17818 0.577773,0.17818 0.755954,0 0.08909,-0.0891 -0.08909,-0.28888 0,-0.37797 0.08909,-0.0891 0.251984,0 0.377976,0 1.25992,0 2.519842,0 3.779761,0 4.535715,0 9.07143,0 13.607142,0 2.507179,0 -0.534537,-0.17818 1.13393,0.37797 0.111533,0.0372 2.645135,1.4e-4 2.645834,0 0.276254,-0.0553 0.479694,-0.32272 0.755951,-0.37797 0.741273,-0.14826 1.517743,0.0938 2.267858,0 0.977103,-0.12214 2.088785,-0.38195 3.023809,-0.75596 0.261577,-0.10462 0.488683,-0.28888 0.755951,-0.37797 0.35858,-0.11953 0.775354,0.11953 1.133931,0 0.16903,-0.0564 0.2186,-0.29829 0.37797,-0.37798 0.11269,-0.0563 0.28889,0.0891 0.37798,0 0.0891,-0.0891 -0.0891,-0.28888 0,-0.37797 0.0891,-0.0891 0.28888,0.0891 0.37797,0 0.0891,-0.0891 -0.0891,-0.28889 0,-0.37798 0.0891,-0.0891 0.26529,0.0563 0.37798,0 0.15937,-0.0797 0.21861,-0.29829 0.37798,-0.37797 0.14986,-0.0749 1.05666,0.0773 1.13393,0 0.0891,-0.0891 -0.0891,-0.28889 0,-0.37798 0.0773,-0.0773 0.98406,0.0749 1.13393,0 0.15937,-0.0797 0.20894,-0.32163 0.37797,-0.37798 0.2955,-0.0985 2.05986,0.104 2.26786,0 0.15937,-0.0797 0.21861,-0.29829 0.37798,-0.37797 0.0562,-0.0281 1.4289,-0.0277 1.5119,0 0.3337,0.11123 1.96876,0.93453 2.26786,1.13393 0.14825,0.0988 0.21861,0.29829 0.37798,0.37797 0.35635,0.17818 0.74324,0.29984 1.13392,0.37798 0.24709,0.0494 0.50397,0 0.75596,0 0.12599,0 0.26528,-0.0564 0.37797,0 0.15937,0.0797 0.21861,0.29829 0.37798,0.37797 0.11269,0.0564 0.28888,-0.0891 0.37797,0 0.0891,0.0891 -0.0891,0.28889 0,0.37798 0.17819,0.17818 0.57778,-0.17818 0.75596,0 0.0891,0.0891 -0.0891,0.28889 0,0.37797 0.0773,0.0773 0.98406,-0.0749 1.13393,0 0.15937,0.0797 0.2186,0.2983 0.37797,0.37798 0.11503,0.0575 0.96371,0 1.13393,0 0.75595,0 1.51191,0 2.26786,0 2.77182,0 5.54365,0 8.31547,0 2.51984,0 5.03969,0 7.55953,0 0.75595,0 1.5119,0 2.26785,0 0.126,0 0.25199,0 0.37798,0 0.12599,0 0.26529,-0.0563 0.37798,0 0.15936,0.0797 0.21861,0.29829 0.37797,0.37798 0.30238,0.15119 0.83155,-0.15119 1.13393,0 0.15937,0.0797 0.21861,0.29829 0.37798,0.37797 0.11503,0.0575 0.9637,0 1.13393,0 0.75595,0 1.5119,0 2.26785,0 1.51191,0 3.02381,0 4.53572,0 0.62996,0 1.25992,0 1.88988,0 0.12599,0 0.25198,0 0.37797,0 0.126,0 0.26529,-0.0563 0.37798,0 1.57305,0.78653 -0.40407,-0.0261 0.37798,0.75596 0.0891,0.0891 0.28888,-0.0891 0.37797,0 0.0891,0.0891 -0.0563,0.26528 0,0.37797 0.0797,0.15937 0.2983,0.21861 0.37798,0.37798 0.0749,0.14986 -0.0773,1.05666 0,1.13393 0.0891,0.0891 0.28889,-0.0891 0.37798,0 0.0891,0.0891 0,0.25198 0,0.37797 0,0.88195 0,1.76389 0,2.64584 0,0.62996 0,1.25992 0,1.88988 0,0.12599 -0.0891,0.28888 0,0.37797 0.0891,0.0891 0.28888,-0.0891 0.37797,0 0.17818,0.17818 -0.17818,0.57778 0,0.75596 0.0891,0.0891 0.28889,-0.0891 0.37798,0 0.18899,0.18899 -0.18899,0.94494 0,1.13392 0.0891,0.0891 0.28888,-0.0891 0.37797,0 0.0891,0.0891 -0.0563,0.26529 0,0.37798 0.0797,0.15937 0.2983,0.21861 0.37798,0.37798 0.11269,0.22538 -0.17818,0.57777 0,0.75595 0.0891,0.0891 0.28889,-0.0891 0.37798,0 0.0808,0.0808 -0.0695,1.30352 0,1.51191 0.0891,0.26726 0.28888,0.48868 0.37797,0.75595 0.0398,0.11952 -0.0398,0.25845 0,0.37797 0.0891,0.26727 0.28889,0.48869 0.37798,0.75595 0.0398,0.11953 0,0.25199 0,0.37798 0,0.25199 -0.0797,0.5169 0,0.75595 0.0564,0.16904 0.29829,0.21861 0.37798,0.37798 0.12076,0.24154 -0.10142,1.20767 0,1.5119 0.0891,0.26728 0.28888,0.48869 0.37797,0.75596 0.0797,0.23905 -0.0797,0.5169 0,0.75595 0.0891,0.26727 0.28889,0.48868 0.37798,0.75595 0.0797,0.23905 0,0.50397 0,0.75596 0,0.62996 0,1.25991 0,1.88987 0,1.88989 0,3.77977 0,5.66965 0,0.0917 0.0121,1.12177 0,1.13393 -0.0891,0.0891 -0.32163,-0.11269 -0.37798,0 -0.11269,0.22538 0,0.50396 0,0.75595 -0.12599,0.25198 -0.2217,0.52154 -0.37797,0.75595 -0.0988,0.14826 -0.21861,0.29829 -0.37798,0.37798 -0.11269,0.0563 -0.32163,-0.11269 -0.37798,0 -0.11269,0.22538 0.11269,0.53057 0,0.75595 -0.0563,0.11269 -0.26528,-0.0564 -0.37797,0 -0.15937,0.0797 -0.21861,0.29829 -0.37798,0.37798 -0.11269,0.0563 -0.28889,-0.0891 -0.37798,0 -0.0891,0.0891 0.0564,0.26528 0,0.37797 -0.0797,0.15937 -0.29829,0.21861 -0.37797,0.37798 -0.0564,0.11269 0.0563,0.26528 0,0.37797 -0.78653,1.57305 0.0261,-0.40407 -0.75595,0.37798 -0.17818,0.17818 0.17817,0.57777 0,0.75595 -0.0891,0.0891 -0.28889,-0.0891 -0.37798,0 -0.0891,0.0891 0.0563,0.26529 0,0.37798 -0.0797,0.15937 -0.29829,0.21861 -0.37798,0.37798 -0.0563,0.11269 0.0564,0.26528 0,0.37797 -0.15936,0.31874 -0.59658,0.43722 -0.75595,0.75596 -0.11269,0.22538 0.11269,0.53056 0,0.75595 -0.0797,0.15937 -0.29829,0.2186 -0.37798,0.37797 -0.11269,0.22539 0.1127,0.53057 0,0.75595 -0.0797,0.15937 -0.29829,0.21861 -0.37797,0.37798 -0.0564,0.11269 0.0891,0.28889 0,0.37798 -0.0891,0.0891 -0.28889,-0.0891 -0.37798,0 -0.0891,0.0891 0.0891,0.28888 0,0.37797 -0.0891,0.0891 -0.28888,-0.0891 -0.37797,0 -0.17818,0.17818 0.17818,0.57778 0,0.75596 -0.0891,0.0891 -0.28889,-0.0891 -0.37798,0 -0.17818,0.17818 0.17818,0.57777 0,0.75595 -0.0891,0.0891 -0.28889,-0.0891 -0.37798,0 -0.0891,0.0891 0.0891,0.28889 0,0.37797 -0.78204,0.78205 0.0306,-1.19507 -0.75595,0.37798 -0.11269,0.22538 0.17818,0.57777 0,0.75595 -0.0891,0.0891 -0.28888,-0.0891 -0.37797,0 -0.0891,0.0891 0.0563,0.26529 0,0.37798 -0.22679,0.45357 -0.90715,0.68036 -1.13393,1.13393 -0.0563,0.11269 0.0891,0.28888 0,0.37798 -0.0891,0.0891 -0.28889,-0.0891 -0.37798,0 -0.0891,0.0891 0.0563,0.26528 0,0.37797 -0.0797,0.15937 -0.25198,0.25198 -0.37798,0.37798 -0.12599,0.12599 -0.2186,0.29829 -0.37797,0.37797 -0.11269,0.0564 -0.26529,-0.0563 -0.37798,0 -0.15937,0.0797 -0.2186,0.29829 -0.37797,0.37798 -0.11269,0.0563 -0.28889,-0.0891 -0.37798,0 -0.0891,0.0891 0.0891,0.28889 0,0.37797 -0.78205,0.78205 0.0306,-1.19507 -0.75595,0.37798 -0.0564,0.11269 0.0891,0.28889 0,0.37798 -0.0891,0.0891 -0.28889,-0.0891 -0.37798,0 -0.0891,0.0891 0.11269,0.32163 0,0.37797 -0.22538,0.1127 -0.53057,-0.11269 -0.75595,0 -0.11269,0.0564 0.0891,0.28889 0,0.37798 -0.0891,0.0891 -0.28889,-0.0891 -0.37798,0 -0.78204,0.78204 1.19507,-0.0306 -0.37797,0.75595 -0.11269,0.0564 -0.26529,-0.0563 -0.37798,0 -0.15937,0.0797 -0.21861,0.29829 -0.37798,0.37798 -0.11269,0.0563 -0.26528,-0.0564 -0.37797,0 -0.15937,0.0797 -0.21861,0.29829 -0.37798,0.37797 -0.11269,0.0563 -0.28888,-0.0891 -0.37797,0 -0.0891,0.0891 0.0891,0.28889 0,0.37798 -1.47515,1.47514 -0.203,-0.0875 -1.13393,0.37798 -0.31874,0.15937 -0.41788,0.64326 -0.75596,0.75595 -0.23905,0.0797 -0.51149,-0.0611 -0.75595,0 -0.27331,0.0683 -0.48868,0.28888 -0.75595,0.37797 -0.11953,0.0399 -0.25845,-0.0398 -0.37798,0 -2.73783,0.91262 0.59592,-0.10897 -1.13393,0.75596 -0.11269,0.0563 -0.26528,-0.0564 -0.37797,0 -0.15937,0.0797 -0.21861,0.29829 -0.37798,0.37797 -0.30238,0.15119 -0.83154,-0.15119 -1.13393,0 -1.57304,0.78653 0.40407,-0.0261 -0.37797,0.75596 -0.0891,0.0891 -0.26529,-0.0563 -0.37798,0 -0.15937,0.0797 -0.2186,0.29829 -0.37797,0.37797 -0.1127,0.0564 -0.28889,-0.0891 -0.37798,0 -0.0891,0.0891 0.0891,0.28889 0,0.37798 -0.0891,0.0891 -0.28889,-0.0891 -0.37798,0 -0.0891,0.0891 0.0564,0.26529 0,0.37797 -0.0797,0.15937 -0.25198,0.25199 -0.37797,0.37798 -0.126,0.12599 -0.21861,0.29829 -0.37798,0.37798 -1.05543,0.52771 0.61931,-1.5817 -1.13393,0.75595 -1.25992,1.6799 0.62996,-0.042 -1.13393,1.13393 -0.14825,0.0988 -0.20894,0.32163 -0.37797,0.37797 -0.23905,0.0797 -0.5169,-0.0797 -0.75595,0 -0.16904,0.0563 -0.22973,0.27914 -0.37798,0.37798 -0.23441,0.15628 -0.52154,0.2217 -0.75595,0.37798 -0.14826,0.0988 -0.21861,0.29829 -0.37798,0.37797 -0.11269,0.0564 -0.26529,-0.0563 -0.37798,0 -0.15937,0.0797 -0.2186,0.29829 -0.37797,0.37798 -0.22538,0.11269 -0.53057,-0.11269 -0.75595,0 -0.15937,0.0797 -0.21861,0.29829 -0.37798,0.37797 -0.30238,0.1512 -0.83155,-0.15119 -1.13393,0 -0.11269,0.0563 0.0891,0.28889 0,0.37798 -0.0891,0.0891 -0.25198,0 -0.37798,0 -0.37131,0 -2.01786,-0.0833 -2.26785,0 -0.26727,0.0891 -0.48869,0.28889 -0.75595,0.37798 -0.11953,0.0398 -0.25846,-0.0398 -0.37798,0 -0.26727,0.0891 -0.48264,0.30965 -0.75595,0.37797 -0.36669,0.0917 -0.75596,0 -1.13393,0 -0.75595,0 -1.51191,0 -2.26786,0 -0.37798,0 -0.77535,-0.11952 -1.13393,0 -0.16903,0.0564 -0.20894,0.32164 -0.37797,0.37798 -0.23906,0.0797 -0.50397,0 -0.75596,0 -0.25198,0 -0.50397,0 -0.75595,0 -1.00793,0 -2.01587,0 -3.02381,0 -0.2629,0 -1.75319,-0.0683 -1.88988,0 -0.15937,0.0797 -0.20894,0.32163 -0.37798,0.37798 -0.21501,0.0717 -1.53388,0 -1.88988,0 -1.5119,0 -3.02381,0 -4.53571,0 -1.259923,0 -2.519842,0 -3.779764,0 -0.304284,0 -1.274664,0.0791 -1.511903,0 -0.267272,-0.0891 -0.482637,-0.30965 -0.755954,-0.37798 -0.65626,-0.16406 -1.611596,0.16407 -2.267855,0 -0.17286,-0.0432 -0.21861,-0.29829 -0.377979,-0.37798 -0.112688,-0.0563 -0.251984,0 -0.377975,0 -0.251984,0 -0.51149,0.0611 -0.755952,0 -0.273315,-0.0683 -0.482637,-0.30964 -0.755952,-0.37797 -0.244461,-0.0611 -0.5169,0.0797 -0.755954,0 -0.169034,-0.0564 -0.218607,-0.29829 -0.377976,-0.37798 -0.149013,-0.0745 -1.516549,0 -1.889879,0 -0.125992,0 -0.288888,0.0891 -0.377978,0 -0.08909,-0.0891 0.08909,-0.28888 0,-0.37798 -0.178179,-0.17817 -0.577771,0.17819 -0.755952,0 -0.782045,-0.78204 1.19507,0.0306 -0.377976,-0.75595 -0.225382,-0.11269 -0.577773,0.17818 -0.755951,0 -0.08909,-0.0891 0.08909,-0.28888 0,-0.37797 -0.178181,-0.17818 -0.530572,0.11269 -0.755955,0 -0.159366,-0.0797 -0.218606,-0.29829 -0.377975,-0.37798 -0.22538,-0.11269 -0.530569,0.11269 -0.755952,0 -0.398431,-0.19921 -0.357521,-0.55674 -0.755952,-0.75595 -0.149865,-0.0749 -1.056655,0.0773 -1.13393,0 -0.08909,-0.0891 0.08909,-0.28889 0,-0.37798 -0.07727,-0.0773 -0.984062,0.0749 -1.133927,0 -1.729849,-0.86492 1.603909,0.15666 -1.13393,-0.75595 -0.119526,-0.0398 -0.288885,0.0891 -0.377976,0 -0.08909,-0.0891 0.08909,-0.28889 0,-0.37798 -0.08909,-0.0891 -0.265284,0.0564 -0.377976,0 -0.45357,-0.22678 -0.680357,-0.90714 -1.133927,-1.13393 -0.112692,-0.0563 -0.288888,0.0891 -0.377976,0 -0.08909,-0.0891 0.08909,-0.28888 0,-0.37797 -0.178181,-0.17818 -0.577773,0.17818 -0.755954,0 -0.08909,-0.0891 0.08909,-0.28889 0,-0.37798 -0.08909,-0.0891 -0.265285,0.0564 -0.377976,0 -0.318738,-0.15937 -0.437213,-0.59658 -0.755952,-0.75595 -0.112691,-0.0563 -0.265287,0.0563 -0.377976,0 -0.159369,-0.0797 -0.218609,-0.29829 -0.377975,-0.37798 -0.112692,-0.0563 -0.265287,0.0564 -0.377979,0 -1.573046,-0.78652 0.404072,0.0261 -0.377976,-0.75595 -0.08909,-0.0891 -0.265284,0.0564 -0.377975,0 -0.15937,-0.0797 -0.251984,-0.25198 -0.377976,-0.37798 -0.125992,-0.12599 -0.298291,-0.2186 -0.377976,-0.37797 -0.05635,-0.11269 0.08909,-0.28889 0,-0.37798 -0.08909,-0.0891 -0.288888,0.0891 -0.377976,0 -0.08909,-0.0891 0.05635,-0.26528 0,-0.37797 -0.226787,-0.45358 -0.907142,-0.68036 -1.13393,-1.13393 -0.05635,-0.11269 0.05635,-0.26529 0,-0.37798 -0.07968,-0.15937 -0.298291,-0.21861 -0.377976,-0.37797 -0.112691,-0.22538 0.178181,-0.57778 0,-0.75596 -0.08909,-0.0891 -0.288885,0.0891 -0.377976,0 -0.19921,-0.19921 -0.178765,-0.55674 -0.377975,-0.75595 -0.08909,-0.0891 -0.288888,0.0891 -0.377976,0 -0.08909,-0.0891 0.05635,-0.26528 0,-0.37798 -1.253591,-1.25358 0.178178,0.35636 -0.377976,-0.75595 -0.07968,-0.15937 -0.298294,-0.2186 -0.377978,-0.37797 -0.112689,-0.22539 0.112691,-0.53057 0,-0.75595 -0.07968,-0.15937 -0.298292,-0.21861 -0.377976,-0.37798 -0.07493,-0.14987 0.07727,-1.05666 0,-1.13393 -0.782045,-0.78205 0.03057,1.19507 -0.755952,-0.37798 -0.112691,-0.22538 0.178181,-0.57777 0,-0.75595 -0.08909,-0.0891 -0.288885,0.0891 -0.377976,0 -0.178181,-0.17818 0.112692,-0.53057 0,-0.75595 -0.07968,-0.15937 -0.298291,-0.21861 -0.377975,-0.37798 -0.05635,-0.11269 0.08909,-0.28888 0,-0.37797 -0.178181,-0.17818 -0.643263,0.22538 -0.755955,0 -0.112688,-0.22538 0.112692,-0.53058 0,-0.75596 -0.05634,-0.11269 -0.288885,0.0891 -0.377975,0 -0.08909,-0.0891 0.08909,-0.28888 0,-0.37797 -0.08909,-0.0891 -0.288886,0.0891 -0.377976,0 -0.782045,-0.78205 1.19507,0.0306 -0.377976,-0.75596 -0.112691,-0.0563 -0.288885,0.0891 -0.377976,0 -0.08909,-0.0891 0.05635,-0.26528 0,-0.37797 -0.07968,-0.15937 -0.251984,-0.25199 -0.377976,-0.37798 -0.125992,-0.12599 -0.229722,-0.27914 -0.377976,-0.37797 -0.234412,-0.15628 -0.556741,-0.17877 -0.755954,-0.37798 -0.08909,-0.0891 0.08909,-0.28889 0,-0.37797 -0.08909,-0.0891 -0.288885,0.0891 -0.377976,0 -0.09095,-0.091 0.09095,-1.42096 0,-1.51191 -0.08909,-0.0891 -0.288885,0.0891 -0.377975,0 -0.08909,-0.0891 0.05635,-0.26529 0,-0.37798 -0.07969,-0.15937 -0.298292,-0.2186 -0.377976,-0.37797 -0.123754,-0.24751 0.11181,-1.55446 0,-1.88988 -0.08909,-0.26727 -0.288888,-0.48869 -0.377976,-0.75596 -0.133882,-0.40164 0.133879,-1.11026 0,-1.5119 -0.08909,-0.26727 -0.309647,-0.48264 -0.377976,-0.75595 -0.08327,-0.33309 0.111805,-2.04425 0,-2.26786 -0.07968,-0.15937 -0.298294,-0.21861 -0.377978,-0.37798 -0.04969,-0.0994 0,-1.31425 0,-1.5119 0,-1.00794 0,-2.01587 0,-3.02381 0,-1.00794 0.125992,0.12599 -0.377976,-0.37798 -0.01214,-0.0121 0,-1.04226 0,-1.13392 0,-2.39385 0,-4.7877 0,-7.18155 0,-0.17822 -0.01712,-1.87275 0,-1.88988 0.08909,-0.0891 0.288888,0.0891 0.377976,0 0.08909,-0.0891 0,-0.25199 0,-0.37798 0,-0.62996 0,-1.25992 0,-1.88988 0,-0.12599 -0.08909,-0.28889 0,-0.37798 0.08909,-0.0891 0.288888,0.0891 0.377978,0 0.01215,-0.0121 0,-1.04226 0,-1.13393 0,-0.75595 0,-1.5119 0,-2.26785 0,-0.16312 0.05513,-1.02787 0,-1.13393 -0.227306,-0.43735 -0.554553,-0.81501 -0.831831,-1.22252 z"
       id="path20"
       inkscape:connector-curvature="0" />
    <path
       style="fill:#59a159;fill-opacity:1;stroke-width:0.37797621"
       d="M 103.31279,231.7519 C 90.188041,230.76925 81.740835,227.48623 74.792022,220.66727 65.899604,211.94103 62.899057,198.65461 65.912635,181.34936 l 0.437329,-2.51133 2.395596,-1.3397 2.395593,-1.33969 12.400552,0.0983 c 11.161128,0.0885 12.608335,0.0293 14.479424,-0.59201 1.143375,-0.37969 2.334001,-0.84344 2.645831,-1.03055 1.57407,-0.94452 3.41526,-1.57169 5.4643,-1.86131 2.04296,-0.28878 2.43535,-0.22811 3.93087,0.60775 0.91374,0.51071 1.98609,0.92855 2.383,0.92855 0.3969,0 1.17541,0.29766 1.73,0.66146 0.88308,0.57927 2.53693,0.69678 13.31037,0.94576 6.76609,0.15636 14.10756,0.37946 16.31436,0.49578 l 4.01237,0.21148 1.18162,5.74083 c 0.64989,3.15745 1.3746,7.01649 1.61046,8.57564 0.57102,3.77464 0.19795,10.35828 -0.81392,14.3631 -0.86392,3.41923 -3.77496,9.90185 -5.43141,12.09524 -7.74811,10.25963 -23.2623,15.6847 -41.04619,14.35321 z"
       id="path24"
       inkscape:connector-curvature="0" />
    <path
       id="use12613-6"
       style="display:inline;fill:#52854e;fill-opacity:1;stroke:#469a2d;stroke-width:0.99999994px;stroke-linecap:butt;stroke-linejoin:miter;stroke-opacity:1"
       d="m 78.853791,185.26303 c -0.1493,0.59702 -0.29858,1.19403 -0.44778,1.79105 -0.14928,0 -0.34203,-0.10552 -0.44776,0 -0.10543,0.10553 0.10547,0.34224 0,0.44776 -0.10543,0.10553 -0.34242,-0.10552 -0.44775,0 -0.54539,0.54537 -0.20976,1.00039 -0.89554,1.34328 -0.76168,0.38084 -0.42537,-0.98506 -0.8955,0.89553 -0.0726,0.28959 0,0.59701 0,0.89552 0,0.14925 -0.13343,0.38101 0,0.44776 0.10546,0.0526 1.49688,0 1.79104,0 1.19404,0 2.38805,0 3.58209,0 0.14928,0 0.29858,0 0.44775,0 0.14931,0 0.34243,0.10553 0.44776,0 0.10546,-0.10552 0,-0.29851 0,-0.44776 0,-0.14925 0.0669,-0.31427 0,-0.44776 -0.0945,-0.18879 -0.35338,-0.25897 -0.44776,-0.44776 -0.12131,-0.24291 0.12248,-1.66853 0,-1.79105 -0.10543,-0.10552 -0.34242,0.10553 -0.44775,0 -0.10547,-0.10552 0,-0.2985 0,-0.44776 0,-0.14925 0,-0.29851 0,-0.44776 0,-1.19403 0.14928,0.14925 -0.44776,-0.44776 -0.10546,-0.10552 0,-0.29851 0,-0.44776 0,-1.06315 0.14476,-0.41156 -1.79104,-0.89553 z"
       inkscape:connector-curvature="0" />
    <path
       id="use12613-6-5"
       style="display:inline;fill:#52854e;fill-opacity:1;stroke:#469a2d;stroke-width:0.99999994px;stroke-linecap:butt;stroke-linejoin:miter;stroke-opacity:1"
       d="m 89.01277,207.85968 c -0.497184,0.36267 -0.994345,0.72535 -1.491452,1.08809 -0.114605,-0.0957 -0.194967,-0.30018 -0.343753,-0.28692 -0.148563,0.0135 -0.138332,0.33033 -0.286919,0.34375 -0.148563,0.0135 -0.195267,-0.30042 -0.343746,-0.28691 -0.768172,0.0692 -0.802074,0.63361 -1.54828,0.45741 -0.828793,-0.1957 0.30465,-1.02882 -1.261336,0.11369 -0.241302,0.1758 -0.382557,0.45834 -0.573838,0.68751 -0.09564,0.11458 -0.346583,0.207 -0.286919,0.34375 0.04726,0.10796 1.149182,0.95918 1.375014,1.14768 0.916686,0.76512 1.833349,1.53023 2.750035,2.29536 0.114605,0.0956 0.229226,0.19132 0.343746,0.28691 0.114628,0.0957 0.195268,0.30044 0.343754,0.28692 0.148579,-0.0134 0.191281,-0.22917 0.286919,-0.34376 0.09564,-0.11458 0.25274,-0.1984 0.286919,-0.34375 0.04843,-0.20549 -0.105352,-0.42526 -0.05683,-0.63067 0.06252,-0.26422 1.163204,-1.20248 1.147683,-1.37502 -0.01333,-0.14857 -0.330504,-0.13841 -0.343746,-0.28692 -0.01336,-0.14859 0.191275,-0.22916 0.286919,-0.34375 0.09564,-0.11458 0.191282,-0.22917 0.286919,-0.34375 0.76512,-0.91668 0.01897,0.21024 -0.05683,-0.63068 -0.01335,-0.14858 0.191281,-0.22917 0.286919,-0.34375 0.681253,-0.8162 0.374857,-0.2232 -0.801169,-1.83519 z"
       inkscape:connector-curvature="0" />
    <path
       id="use12613-6-52"
       style="display:inline;fill:#52854e;fill-opacity:1;stroke:#469a2d;stroke-width:0.99999994px;stroke-linecap:butt;stroke-linejoin:miter;stroke-opacity:1"
       d="m 107.51865,180.88182 c 0.57073,0.2302 1.14145,0.46038 1.71219,0.69048 -0.0206,0.14786 -0.15167,0.32421 -0.0617,0.44348 0.09,0.11898 0.35351,-0.0573 0.44348,0.0618 0.09,0.11897 -0.15173,0.3246 -0.0617,0.44347 0.46495,0.61539 0.9619,0.34571 1.20695,1.07222 0.27217,0.80692 -1.03431,0.28547 0.76349,1.01044 0.27681,0.11184 0.5913,0.0823 0.88696,0.12349 0.14783,0.0206 0.35897,0.18469 0.44348,0.0617 0.0666,-0.0972 0.20642,-1.48258 0.24699,-1.77393 0.16465,-1.18263 0.3293,-2.36523 0.49396,-3.54787 0.0206,-0.14785 0.0412,-0.29572 0.0617,-0.44347 0.0206,-0.14788 0.15174,-0.3246 0.0617,-0.44348 -0.09,-0.119 -0.29566,-0.0412 -0.44349,-0.0617 -0.14782,-0.0206 -0.30204,-0.10959 -0.44348,-0.0617 -0.20002,0.0676 -0.30523,0.31429 -0.50523,0.38174 -0.25731,0.0867 -1.6357,-0.3514 -1.77394,-0.24698 -0.11905,0.0899 0.0573,0.3537 -0.0617,0.44347 -0.11906,0.0899 -0.29565,-0.0412 -0.44348,-0.0618 -0.14783,-0.0206 -0.29566,-0.0412 -0.44348,-0.0617 -1.18263,-0.16466 0.16841,-0.12727 -0.50523,0.38173 -0.11906,0.0899 -0.29566,-0.0412 -0.44348,-0.0617 -1.053,-0.14661 -0.38767,-0.20013 -1.13396,1.65044 z"
       inkscape:connector-curvature="0" />
    <path
       id="use12613-6-4"
       style="display:inline;fill:#52854e;fill-opacity:1;stroke:#469a2d;stroke-width:0.99999994px;stroke-linecap:butt;stroke-linejoin:miter;stroke-opacity:1"
       d="m 137.81808,201.89398 c -0.1493,0.59702 -0.29858,1.19403 -0.44778,1.79105 -0.14928,0 -0.34203,-0.10552 -0.44776,0 -0.10543,0.10553 0.10547,0.34224 0,0.44776 -0.10543,0.10553 -0.34242,-0.10552 -0.44775,0 -0.54539,0.54537 -0.20976,1.00039 -0.89554,1.34328 -0.76168,0.38084 -0.42537,-0.98506 -0.8955,0.89553 -0.0726,0.28959 0,0.59701 0,0.89552 0,0.14925 -0.13343,0.38101 0,0.44776 0.10546,0.0526 1.49688,0 1.79104,0 1.19404,0 2.38805,0 3.58209,0 0.14928,0 0.29858,0 0.44775,0 0.14931,0 0.34243,0.10553 0.44776,0 0.10546,-0.10552 0,-0.29851 0,-0.44776 0,-0.14925 0.0669,-0.31427 0,-0.44776 -0.0945,-0.18879 -0.35338,-0.25897 -0.44776,-0.44776 -0.12131,-0.24291 0.12248,-1.66853 0,-1.79105 -0.10543,-0.10552 -0.34242,0.10553 -0.44775,0 -0.10547,-0.10552 0,-0.2985 0,-0.44776 0,-0.14925 0,-0.29851 0,-0.44776 0,-1.19403 0.14928,0.14925 -0.44776,-0.44776 -0.10546,-0.10552 0,-0.29851 0,-0.44776 0,-1.06315 0.14476,-0.41156 -1.79104,-0.89553 z"
       inkscape:connector-curvature="0" />
    <path
       id="use12613-6-2"
       style="display:inline;fill:#52854e;fill-opacity:1;stroke:#469a2d;stroke-width:0.99999994px;stroke-linecap:butt;stroke-linejoin:miter;stroke-opacity:1"
       d="m 115.1395,215.12314 c -0.1493,0.59702 -0.29858,1.19403 -0.44778,1.79105 -0.14928,0 -0.34203,-0.10552 -0.44776,0 -0.10543,0.10553 0.10547,0.34224 0,0.44776 -0.10543,0.10553 -0.34242,-0.10552 -0.44775,0 -0.54539,0.54537 -0.20976,1.00039 -0.89554,1.34328 -0.76168,0.38084 -0.42537,-0.98506 -0.8955,0.89553 -0.0726,0.28959 0,0.59701 0,0.89552 0,0.14925 -0.13343,0.38101 0,0.44776 0.10546,0.0526 1.49688,0 1.79104,0 1.19404,0 2.38805,0 3.58209,0 0.14928,0 0.29858,0 0.44775,0 0.14931,0 0.34243,0.10553 0.44776,0 0.10546,-0.10552 0,-0.29851 0,-0.44776 0,-0.14925 0.0669,-0.31427 0,-0.44776 -0.0945,-0.18879 -0.35338,-0.25897 -0.44776,-0.44776 -0.12131,-0.24291 0.12248,-1.66853 0,-1.79105 -0.10543,-0.10552 -0.34242,0.10553 -0.44775,0 -0.10547,-0.10552 0,-0.2985 0,-0.44776 0,-0.14925 0,-0.29851 0,-0.44776 0,-1.19403 0.14928,0.14925 -0.44776,-0.44776 -0.10546,-0.10552 0,-0.29851 0,-0.44776 0,-1.06315 0.14476,-0.41156 -1.79104,-0.89553 z"
       inkscape:connector-curvature="0" />
    <path
       id="use12613-6-1"
       style="display:inline;fill:#52854e;fill-opacity:1;stroke:#469a2d;stroke-width:0.76096749px;stroke-linecap:butt;stroke-linejoin:miter;stroke-opacity:1"
       d="m 106.00533,195.31469 c 0.14905,0.42253 0.29809,0.84503 0.44719,1.26751 -0.098,0.0684 -0.26824,0.0941 -0.294,0.20513 -0.0256,0.11087 0.21085,0.15471 0.1853,0.2656 -0.0256,0.11086 -0.2685,0.0943 -0.294,0.20512 -0.13241,0.57335 0.27628,0.68949 -0.0321,1.20704 -0.34252,0.57484 -0.68697,-0.38942 -0.21739,0.94145 0.0722,0.20502 0.24706,0.35412 0.3706,0.53118 0.0618,0.0885 0.0701,0.28713 0.1853,0.2656 0.091,-0.0171 0.98288,-0.68575 1.17604,-0.82051 0.78403,-0.54702 1.56804,-1.09402 2.35207,-1.64102 0.098,-0.0684 0.19606,-0.13679 0.294,-0.20513 0.098,-0.0684 0.26851,-0.0943 0.29401,-0.20512 0.0256,-0.11087 -0.12354,-0.17707 -0.18531,-0.2656 -0.0618,-0.0885 -0.0861,-0.21708 -0.1853,-0.2656 -0.14021,-0.0687 -0.33921,0.008 -0.4793,-0.0605 -0.18017,-0.0885 -0.61007,-1.04584 -0.74122,-1.06238 -0.11288,-0.0143 -0.18119,0.21945 -0.29401,0.20512 -0.11287,-0.0143 -0.12353,-0.17705 -0.1853,-0.26559 -0.0618,-0.0885 -0.12354,-0.17707 -0.1853,-0.2656 -0.49414,-0.70825 0.15978,0.0201 -0.47931,-0.0605 -0.11287,-0.0143 -0.12353,-0.17706 -0.1853,-0.2656 -0.43998,-0.63062 -0.0753,-0.31044 -1.54665,0.28932 z"
       inkscape:connector-curvature="0" />
    <path
       id="use12613-6-8"
       style="display:inline;fill:#52854e;fill-opacity:1;stroke:#469a2d;stroke-width:0.99999994px;stroke-linecap:butt;stroke-linejoin:miter;stroke-opacity:1"
       d="m 137.54424,185.00943 c -0.57687,0.21437 -1.15371,0.42875 -1.73051,0.6432 -0.0844,-0.12314 -0.10633,-0.34179 -0.25314,-0.36934 -0.14665,-0.0273 -0.22267,0.28048 -0.36934,0.25313 -0.14665,-0.0273 -0.10654,-0.3421 -0.25313,-0.36933 -0.75818,-0.14155 -0.94377,0.39254 -1.6143,0.0207 -0.74474,-0.41297 0.57206,-0.90776 -1.24495,-0.23238 -0.27991,0.10383 -0.49244,0.33751 -0.73867,0.50627 -0.12311,0.0844 -0.38972,0.10534 -0.36934,0.25314 0.0162,0.11672 0.84624,1.23471 1.01254,1.47735 0.67504,0.98492 1.35006,1.96981 2.02509,2.95472 0.0844,0.12314 0.1688,0.24629 0.25313,0.36933 0.0844,0.12316 0.10654,0.34212 0.25314,0.36934 0.14666,0.0273 0.24623,-0.16876 0.36934,-0.25313 0.12311,-0.0844 0.29705,-0.12249 0.36934,-0.25314 0.1023,-0.18468 0.0138,-0.43789 0.1162,-0.62247 0.13179,-0.23739 1.44554,-0.84226 1.47736,-1.01255 0.0274,-0.14662 -0.28063,-0.22279 -0.25313,-0.36933 0.0274,-0.14665 0.24622,-0.16876 0.36934,-0.25314 0.12311,-0.0844 0.24623,-0.16876 0.36934,-0.25313 0.98491,-0.67503 -0.0387,0.20751 0.11621,-0.62248 0.0274,-0.14664 0.24622,-0.16876 0.36933,-0.25313 0.87695,-0.60104 0.42132,-0.11327 -0.27385,-1.98364 z"
       inkscape:connector-curvature="0" />
    <path
       id="use12613-6-7"
       style="display:inline;fill:#52854e;fill-opacity:1;stroke:#469a2d;stroke-width:0.99999994px;stroke-linecap:butt;stroke-linejoin:miter;stroke-opacity:1"
       d="m 93.972842,177.32553 c -0.1493,0.59702 -0.29858,1.19403 -0.44778,1.79105 -0.14928,0 -0.34203,-0.10552 -0.44776,0 -0.10543,0.10553 0.10547,0.34224 0,0.44776 -0.10543,0.10553 -0.34242,-0.10552 -0.44775,0 -0.54539,0.54537 -0.20976,1.00039 -0.89554,1.34328 -0.76168,0.38084 -0.42537,-0.98506 -0.8955,0.89553 -0.0726,0.28959 0,0.59701 0,0.89552 0,0.14925 -0.13343,0.38101 0,0.44776 0.10546,0.0526 1.49688,0 1.79104,0 1.19404,0 2.38805,0 3.58209,0 0.14928,0 0.29858,0 0.44775,0 0.14931,0 0.34243,0.10553 0.44776,0 0.10546,-0.10552 0,-0.29851 0,-0.44776 0,-0.14925 0.0669,-0.31427 0,-0.44776 -0.0945,-0.18879 -0.35338,-0.25897 -0.44776,-0.44776 -0.12131,-0.24291 0.12248,-1.66853 0,-1.79105 -0.10543,-0.10552 -0.34242,0.10553 -0.44775,0 -0.10547,-0.10552 0,-0.2985 0,-0.44776 0,-0.14925 0,-0.29851 0,-0.44776 0,-1.19403 0.14928,0.14925 -0.44776,-0.44776 -0.10546,-0.10552 0,-0.29851 0,-0.44776 0,-1.06315 0.14476,-0.41156 -1.79104,-0.89553 z"
       inkscape:connector-curvature="0" />
    <path
       id="use12613-6-9"
       style="display:inline;fill:#52854e;fill-opacity:1;stroke:#469a2d;stroke-width:0.98998111px;stroke-linecap:butt;stroke-linejoin:miter;stroke-opacity:1"
       d="m 96.587655,222.01944 c -0.309866,0.45205 -0.619704,0.90409 -0.929459,1.35617 -0.160361,-0.0479 -0.341008,-0.19818 -0.480996,-0.1438 -0.139694,0.0546 0.02761,0.3205 -0.112111,0.375 -0.139666,0.0545 -0.341428,-0.19831 -0.480985,-0.1438 -0.722421,0.28158 -0.475806,0.77045 -1.298343,0.83737 -0.913572,0.0743 -0.210303,-0.96159 -1.186191,0.4624 -0.150498,0.21922 -0.14948,0.49999 -0.224221,0.74999 -0.03737,0.12499 -0.238731,0.27624 -0.112109,0.37499 0.100113,0.0779 1.607989,0.48073 1.923983,0.5752 1.282669,0.38348 2.565306,0.76694 3.847975,1.15041 0.160361,0.0479 0.320743,0.0959 0.480985,0.1438 0.160393,0.0479 0.341409,0.19841 0.480996,0.1438 0.139697,-0.0545 0.07474,-0.24999 0.112109,-0.37499 0.03737,-0.12499 0.150554,-0.24171 0.112109,-0.37499 -0.05424,-0.18846 -0.314769,-0.33037 -0.368884,-0.5188 -0.0695,-0.24239 0.549336,-1.35803 0.448441,-1.49998 -0.08685,-0.1222 -0.394274,-0.0215 -0.480984,-0.1438 -0.08689,-0.12221 0.07474,-0.24998 0.112109,-0.37499 0.03737,-0.12499 0.07474,-0.24999 0.112111,-0.375 0.298959,-0.99997 0.12299,0.17295 -0.368886,-0.51879 -0.08688,-0.1222 0.07474,-0.25 0.112109,-0.37499 0.266193,-0.89038 0.258551,-0.29818 -1.699758,-1.3252 z"
       inkscape:connector-curvature="0" />
    <path
       id="use12613-6-3"
       style="display:inline;fill:#52854e;fill-opacity:1;stroke:#469a2d;stroke-width:0.99999994px;stroke-linecap:butt;stroke-linejoin:miter;stroke-opacity:1"
       d="m 71.239159,198.90312 c 0.392434,0.47405 0.784872,0.94807 1.177365,1.42204 -0.08846,0.12024 -0.287678,0.21298 -0.265334,0.36067 0.02253,0.14746 0.338177,0.11785 0.360675,0.26534 0.02253,0.14746 -0.287909,0.21329 -0.265328,0.36066 0.116114,0.7625 0.681525,0.76178 0.551346,1.51737 -0.144586,0.83922 -1.045542,-0.24108 0.190703,1.25201 0.190247,0.23009 0.480898,0.35378 0.721351,0.53067 0.120223,0.0884 0.22784,0.33326 0.360676,0.26533 0.104863,-0.0538 0.887022,-1.20575 1.061336,-1.4427 0.707566,-0.96181 1.415113,-1.9236 2.122679,-2.88541 0.08846,-0.12025 0.176933,-0.24051 0.265328,-0.36067 0.08848,-0.12027 0.287923,-0.21329 0.265334,-0.36067 -0.0225,-0.14748 -0.240453,-0.17689 -0.360675,-0.26534 -0.120223,-0.0884 -0.213505,-0.24012 -0.360676,-0.26533 -0.208071,-0.0358 -0.418009,0.13119 -0.626009,0.0953 -0.267553,-0.0462 -1.27144,-1.0874 -1.442711,-1.06134 -0.147473,0.0224 -0.117906,0.33836 -0.265328,0.36067 -0.147497,0.0224 -0.240445,-0.17689 -0.360675,-0.26534 -0.120223,-0.0884 -0.240453,-0.17689 -0.360676,-0.26533 -0.961804,-0.70756 0.208683,-0.0318 -0.626009,0.0953 -0.147492,0.0224 -0.240453,-0.17689 -0.360676,-0.26534 -0.856379,-0.63 -0.245734,-0.36048 -1.782696,0.91203 z"
       inkscape:connector-curvature="0" />
    <path
       id="use12613-6-6"
       style="display:inline;fill:#52854e;fill-opacity:1;stroke:#469a2d;stroke-width:0.99999994px;stroke-linecap:butt;stroke-linejoin:miter;stroke-opacity:1"
       d="m 131.39248,214.74518 c -0.1493,0.59702 -0.29858,1.19403 -0.44778,1.79105 -0.14928,0 -0.34203,-0.10552 -0.44776,0 -0.10543,0.10553 0.10547,0.34224 0,0.44776 -0.10543,0.10553 -0.34242,-0.10552 -0.44775,0 -0.54539,0.54537 -0.20976,1.00039 -0.89554,1.34328 -0.76168,0.38084 -0.42537,-0.98506 -0.8955,0.89553 -0.0726,0.28959 0,0.59701 0,0.89552 0,0.14925 -0.13343,0.38101 0,0.44776 0.10546,0.0526 1.49688,0 1.79104,0 1.19404,0 2.38805,0 3.58209,0 0.14928,0 0.29858,0 0.44775,0 0.14931,0 0.34243,0.10553 0.44776,0 0.10546,-0.10552 0,-0.29851 0,-0.44776 0,-0.14925 0.0669,-0.31427 0,-0.44776 -0.0945,-0.18879 -0.35338,-0.25897 -0.44776,-0.44776 -0.12131,-0.24291 0.12248,-1.66853 0,-1.79105 -0.10543,-0.10552 -0.34242,0.10553 -0.44775,0 -0.10547,-0.10552 0,-0.2985 0,-0.44776 0,-0.14925 0,-0.29851 0,-0.44776 0,-1.19403 0.14928,0.14925 -0.44776,-0.44776 -0.10546,-0.10552 0,-0.29851 0,-0.44776 0,-1.06315 0.14476,-0.41156 -1.79104,-0.89553 z"
       inkscape:connector-curvature="0" />
    <path
       id="use12613-6-49"
       style="display:inline;fill:#52854e;fill-opacity:1;stroke:#469a2d;stroke-width:0.76324081px;stroke-linecap:butt;stroke-linejoin:miter;stroke-opacity:1"
       d="m 126.22913,199.26089 c -0.38644,0.28893 -0.77285,0.57787 -1.15923,0.86685 -0.0847,-0.071 -0.14078,-0.2263 -0.2541,-0.21298 -0.11317,0.0134 -0.1131,0.25651 -0.22628,0.26996 -0.11317,0.0134 -0.14101,-0.22649 -0.2541,-0.21298 -0.58511,0.0694 -0.62458,0.50338 -1.18705,0.3839 -0.62471,-0.13269 0.2564,-0.79624 -0.96076,0.11397 -0.18757,0.14004 -0.30169,0.35994 -0.45255,0.53992 -0.0754,0.09 -0.26825,0.16625 -0.22627,0.26996 0.0333,0.0819 0.84949,0.71203 1.01643,0.85195 0.67763,0.56797 1.35524,1.13592 2.03287,1.70389 0.0847,0.071 0.16944,0.14202 0.2541,0.21298 0.0847,0.071 0.14101,0.2265 0.2541,0.21298 0.11317,-0.0134 0.15086,-0.17998 0.22628,-0.26996 0.0754,-0.09 0.19675,-0.15768 0.22627,-0.26996 0.0418,-0.15879 -0.0697,-0.32423 -0.0278,-0.48295 0.0539,-0.20413 0.91269,-0.94771 0.9051,-1.07985 -0.007,-0.11378 -0.24764,-0.0993 -0.2541,-0.21298 -0.007,-0.11378 0.15085,-0.17997 0.22628,-0.26996 0.0754,-0.09 0.15084,-0.17997 0.22627,-0.26996 0.6034,-0.7199 0.009,0.161 -0.0278,-0.48295 -0.007,-0.11378 0.15085,-0.17998 0.22627,-0.26996 0.53726,-0.64099 0.29014,-0.17927 -0.56386,-1.39187 z"
       inkscape:connector-curvature="0" />
    <path
       id="use12613-6-78"
       style="display:inline;fill:#52854e;fill-opacity:1;stroke:#469a2d;stroke-width:0.99999994px;stroke-linecap:butt;stroke-linejoin:miter;stroke-opacity:1"
       d="m 95.082625,192.00354 c -0.50083,0.35762 -1.001638,0.71525 -1.502391,1.07293 -0.113631,-0.0968 -0.191918,-0.30214 -0.340831,-0.29038 -0.148692,0.0119 -0.14167,0.32891 -0.290385,0.34083 -0.148692,0.012 -0.192215,-0.30239 -0.340823,-0.29038 -0.768834,0.0614 -0.808448,0.62545 -1.552832,0.44171 -0.826769,-0.20408 0.315051,-1.02568 -1.262422,0.10091 -0.24307,0.17335 -0.387178,0.45444 -0.580769,0.68167 -0.09679,0.1136 -0.348662,0.20348 -0.290385,0.34083 0.04616,0.10843 1.139412,0.97076 1.363324,1.16154 0.908893,0.77436 1.817763,1.54871 2.726656,2.32308 0.11363,0.0968 0.227276,0.19364 0.340823,0.29038 0.113654,0.0968 0.192216,0.3024 0.340831,0.29038 0.148708,-0.0119 0.193592,-0.22722 0.290385,-0.34083 0.09679,-0.11361 0.254736,-0.19583 0.290384,-0.34083 0.0505,-0.20499 -0.10104,-0.4263 -0.05045,-0.63122 0.06519,-0.26357 1.175318,-1.19064 1.161545,-1.36333 -0.01182,-0.14869 -0.329086,-0.14174 -0.340823,-0.29038 -0.01185,-0.14872 0.193585,-0.22721 0.290384,-0.34083 0.09679,-0.1136 0.193592,-0.22722 0.290385,-0.34083 0.774361,-0.90888 0.01684,0.21042 -0.05045,-0.63121 -0.01184,-0.14872 0.193591,-0.22723 0.290384,-0.34083 0.689482,-0.80927 0.377098,-0.2194 -0.782548,-1.84321 z"
       inkscape:connector-curvature="0" />
    <path
       id="use12613-6-36"
       style="display:inline;fill:#52854e;fill-opacity:1;stroke:#469a2d;stroke-width:0.99999994px;stroke-linecap:butt;stroke-linejoin:miter;stroke-opacity:1"
       d="m 101.53236,206.42969 c -0.1493,0.59702 -0.29858,1.19404 -0.44778,1.79106 -0.14928,0 -0.34203,-0.10552 -0.44776,0 -0.10543,0.10553 0.10547,0.34224 0,0.44776 -0.10543,0.10553 -0.34242,-0.10552 -0.44775,0 -0.545387,0.54537 -0.209757,1.00039 -0.895535,1.34328 -0.76168,0.38084 -0.42537,-0.98506 -0.8955,0.89553 -0.0726,0.28959 0,0.59701 0,0.89552 0,0.14925 -0.13343,0.38101 0,0.44776 0.10546,0.0526 1.496878,0 1.791035,0 1.19404,0 2.38805,0 3.5821,0 0.14928,0 0.29858,0 0.44775,0 0.14931,0 0.34243,0.10553 0.44776,0 0.10546,-0.10552 0,-0.29851 0,-0.44776 0,-0.14925 0.0669,-0.31427 0,-0.44776 -0.0945,-0.18879 -0.35338,-0.25897 -0.44776,-0.44776 -0.12131,-0.24291 0.12248,-1.66853 0,-1.79105 -0.10543,-0.10552 -0.34242,0.10553 -0.44775,0 -0.10547,-0.10552 0,-0.2985 0,-0.44776 0,-0.14925 0,-0.29851 0,-0.44776 0,-1.19404 0.14928,0.14925 -0.44776,-0.44776 -0.10546,-0.10552 0,-0.29851 0,-0.44777 0,-1.06315 0.14476,-0.41156 -1.79105,-0.89553 z"
       inkscape:connector-curvature="0" />
    <path
       id="use12613-6-54"
       style="display:inline;fill:#52854e;fill-opacity:1;stroke:#469a2d;stroke-width:0.99999994px;stroke-linecap:butt;stroke-linejoin:miter;stroke-opacity:1"
       d="m 144.99963,192.44458 c -0.1493,0.59702 -0.29858,1.19403 -0.44778,1.79105 -0.14928,0 -0.34203,-0.10552 -0.44776,0 -0.10543,0.10553 0.10547,0.34224 0,0.44776 -0.10543,0.10553 -0.34242,-0.10552 -0.44775,0 -0.54539,0.54537 -0.20976,1.00039 -0.89554,1.34328 -0.76168,0.38084 -0.42537,-0.98506 -0.8955,0.89553 -0.0726,0.28959 0,0.59701 0,0.89552 0,0.14925 -0.13343,0.38101 0,0.44776 0.10546,0.0526 1.49688,0 1.79104,0 1.19404,0 2.38805,0 3.58209,0 0.14928,0 0.29858,0 0.44775,0 0.14931,0 0.34243,0.10553 0.44776,0 0.10546,-0.10552 0,-0.29851 0,-0.44776 0,-0.14925 0.0669,-0.31427 0,-0.44776 -0.0945,-0.18879 -0.35338,-0.25897 -0.44776,-0.44776 -0.12131,-0.24291 0.12248,-1.66853 0,-1.79105 -0.10543,-0.10552 -0.34242,0.10553 -0.44775,0 -0.10547,-0.10552 0,-0.2985 0,-0.44776 0,-0.14925 0,-0.29851 0,-0.44776 0,-1.19403 0.14928,0.14925 -0.44776,-0.44776 -0.10546,-0.10552 0,-0.29851 0,-0.44776 0,-1.06315 0.14476,-0.41156 -1.79104,-0.89553 z"
       inkscape:connector-curvature="0" />
    <path
       id="use12613-6-549"
       style="display:inline;fill:#52854e;fill-opacity:1;stroke:#469a2d;stroke-width:0.99999994px;stroke-linecap:butt;stroke-linejoin:miter;stroke-opacity:1"
       d="m 121.18713,185.26303 c -0.1493,0.59702 -0.29858,1.19403 -0.44778,1.79105 -0.14928,0 -0.34203,-0.10552 -0.44776,0 -0.10543,0.10553 0.10547,0.34224 0,0.44776 -0.10543,0.10553 -0.34242,-0.10552 -0.44775,0 -0.54539,0.54537 -0.20976,1.00039 -0.89554,1.34328 -0.76168,0.38084 -0.42537,-0.98506 -0.8955,0.89553 -0.0726,0.28959 0,0.59701 0,0.89552 0,0.14925 -0.13343,0.38101 0,0.44776 0.10546,0.0526 1.49688,0 1.79104,0 1.19404,0 2.38805,0 3.58209,0 0.14928,0 0.29858,0 0.44775,0 0.14931,0 0.34243,0.10553 0.44776,0 0.10546,-0.10552 0,-0.29851 0,-0.44776 0,-0.14925 0.0669,-0.31427 0,-0.44776 -0.0945,-0.18879 -0.35338,-0.25897 -0.44776,-0.44776 -0.12131,-0.24291 0.12248,-1.66853 0,-1.79105 -0.10543,-0.10552 -0.34242,0.10553 -0.44775,0 -0.10547,-0.10552 0,-0.2985 0,-0.44776 0,-0.14925 0,-0.29851 0,-0.44776 0,-1.19403 0.14928,0.14925 -0.44776,-0.44776 -0.10546,-0.10552 0,-0.29851 0,-0.44776 0,-1.06315 0.14476,-0.41156 -1.79104,-0.89553 z"
       inkscape:connector-curvature="0" />
    <rect
       style="fill:#aa8800;fill-opacity:1;stroke:none;stroke-width:0.22913587"
       id="rect1026"
       width="1.8898809"
       height="6.8035712"
       x="235.42937"
       y="43.611423"
       transform="rotate(53.31463)" />
    <rect
       style="fill:#aa8800;fill-opacity:1;stroke:none;stroke-width:0.22913587"
       id="rect1026-8"
       width="1.8898809"
       height="6.8035712"
       x="-18.872799"
       y="220.83351"
       transform="rotate(-24.986434)" />
    <rect
       style="fill:#aa8800;fill-opacity:1;stroke:none;stroke-width:0.22913587"
       id="rect1026-84"
       width="1.8898809"
       height="6.8035712"
       x="113.80863"
       y="200.61606" />
    <rect
       style="fill:#aa8800;fill-opacity:1;stroke:none;stroke-width:0.28015053"
       id="rect1026-4"
       width="1.8898809"
       height="10.170299"
       x="293.71106"
       y="273.28915"
       transform="matrix(1,0,-0.74329416,0.66896472,0,0)" />
    <rect
       style="fill:#aa8800;fill-opacity:1;stroke:none;stroke-width:0.22913587"
       id="rect1026-9"
       width="1.8898809"
       height="6.8035712"
       x="-100.249"
       y="207.95752"
       transform="rotate(-58.162037)" />
    <rect
       style="fill:#aa8800;fill-opacity:1;stroke:none;stroke-width:0.33012483"
       id="rect1026-96"
       width="1.8898809"
       height="14.122355"
       x="186.91919"
       y="212.80952"
       transform="matrix(1,0,-0.26764387,0.96351791,0,0)" />
    <rect
       style="fill:#aa8800;fill-opacity:1;stroke:none;stroke-width:0.26458332"
       id="rect1026-6"
       width="1.8898809"
       height="9.0714283"
       x="137.54424"
       y="175.93799" />
    <path
       id="use12613-6-52-1"
       style="display:inline;fill:#52854e;fill-opacity:1;stroke:#469a2d;stroke-width:0.99999994px;stroke-linecap:butt;stroke-linejoin:miter;stroke-opacity:1"
       d="m 123.08129,176.80313 c 0.57073,0.2302 1.14145,0.46038 1.71219,0.69048 -0.0206,0.14786 -0.15167,0.32421 -0.0617,0.44348 0.09,0.11898 0.35351,-0.0573 0.44348,0.0618 0.09,0.11897 -0.15173,0.3246 -0.0617,0.44347 0.46495,0.61539 0.9619,0.34571 1.20695,1.07222 0.27217,0.80692 -1.03431,0.28547 0.76349,1.01044 0.27681,0.11184 0.5913,0.0823 0.88696,0.12349 0.14783,0.0206 0.35897,0.18469 0.44348,0.0617 0.0666,-0.0972 0.20642,-1.48258 0.24699,-1.77393 0.16465,-1.18263 0.3293,-2.36523 0.49396,-3.54787 0.0206,-0.14785 0.0412,-0.29572 0.0617,-0.44347 0.0206,-0.14788 0.15174,-0.3246 0.0617,-0.44348 -0.09,-0.119 -0.29566,-0.0412 -0.44349,-0.0617 -0.14782,-0.0206 -0.30204,-0.10959 -0.44348,-0.0617 -0.20002,0.0676 -0.30523,0.31429 -0.50523,0.38174 -0.25731,0.0867 -1.6357,-0.3514 -1.77394,-0.24698 -0.11905,0.0899 0.0573,0.3537 -0.0617,0.44347 -0.11906,0.0899 -0.29565,-0.0412 -0.44348,-0.0618 -0.14783,-0.0206 -0.29566,-0.0412 -0.44348,-0.0617 -1.18263,-0.16466 0.16841,-0.12727 -0.50523,0.38173 -0.11906,0.0899 -0.29566,-0.0412 -0.44348,-0.0617 -1.053,-0.14661 -0.38767,-0.20013 -1.13396,1.65044 z"
       inkscape:connector-curvature="0" />
    <path
       id="use12613-6-52-8"
       style="display:inline;fill:#52854e;fill-opacity:1;stroke:#469a2d;stroke-width:0.99999994px;stroke-linecap:butt;stroke-linejoin:miter;stroke-opacity:1"
       d="m 70.487297,177.05567 c 0.57073,0.2302 1.14145,0.46038 1.71219,0.69048 -0.0206,0.14786 -0.15167,0.32421 -0.0617,0.44348 0.09,0.11898 0.35351,-0.0573 0.44348,0.0618 0.09,0.11897 -0.15173,0.3246 -0.0617,0.44347 0.46495,0.61539 0.9619,0.34571 1.20695,1.07222 0.27217,0.80692 -1.03431,0.28547 0.76349,1.01044 0.27681,0.11184 0.5913,0.0823 0.88696,0.12349 0.14783,0.0206 0.35897,0.18469 0.44348,0.0617 0.0666,-0.0972 0.20642,-1.48258 0.24699,-1.77393 0.16465,-1.18263 0.3293,-2.36523 0.49396,-3.54787 0.0206,-0.14785 0.0412,-0.29572 0.0617,-0.44347 0.0206,-0.14788 0.15174,-0.3246 0.0617,-0.44348 -0.09,-0.119 -0.29566,-0.0412 -0.44349,-0.0617 -0.14782,-0.0206 -0.30204,-0.10959 -0.44348,-0.0617 -0.20002,0.0676 -0.30523,0.31429 -0.50523,0.38174 -0.25731,0.0867 -1.6357,-0.3514 -1.77394,-0.24698 -0.11905,0.0899 0.0573,0.3537 -0.0617,0.44347 -0.11906,0.0899 -0.29565,-0.0412 -0.44348,-0.0618 -0.14783,-0.0206 -0.29566,-0.0412 -0.44348,-0.0617 -1.18263,-0.16466 0.16841,-0.12727 -0.50523,0.38173 -0.11906,0.0899 -0.29566,-0.0412 -0.44348,-0.0617 -1.053,-0.14661 -0.38767,-0.20013 -1.13396,1.65044 z"
       inkscape:connector-curvature="0" />
    <rect
       style="fill:#aa8800;fill-opacity:1;stroke:none;stroke-width:0.22913587"
       id="rect1026-8-9"
       width="1.8898809"
       height="6.8035712"
       x="20.388401"
       y="202.73169"
       transform="rotate(-24.986434)" />
    <rect
       style="fill:#000000;fill-opacity:1;stroke:none;stroke-width:0.26458332"
       id="rect1109"
       width="5.2916665"
       height="52.160713"
       x="105.30418"
       y="10.116071" />
    <path
       sodipodi:type="star"
       style="fill:#000000;fill-opacity:1;stroke:none;stroke-width:0.26458332"
       id="path1111"
       sodipodi:sides="3"
       sodipodi:cx="107.94997"
       sodipodi:cy="67.190475"
       sodipodi:r1="9.3353233"
       sodipodi:r2="4.6676617"
       sodipodi:arg1="-0.5543075"
       sodipodi:arg2="0.49289005"
       inkscape:flatsided="false"
       inkscape:rounded="0"
       inkscape:randomized="0"
       d="m 115.88747,62.276785 -3.82544,7.122306 -3.82543,7.122306 -4.25538,-6.874076 -4.255384,-6.874077 8.080814,-0.24823 z"
       inkscape:transform-center-x="0.14331579"
       inkscape:transform-center-y="2.2086153" />
  </g>
</svg>
